<?xml version="1.0" standalone="no"?>
<!DOCTYPE svg PUBLIC "-//W3C//DTD SVG 1.1//EN" "http://www.w3.org/Graphics/SVG/1.1/DTD/svg11.dtd" >
<svg xmlns="http://www.w3.org/2000/svg" xmlns:xlink="http://www.w3.org/1999/xlink" version="1.1">
<metadata></metadata>
<defs>
<font id="nunitoregular" horiz-adv-x="1228" >
<font-face units-per-em="2048" ascent="1638" descent="-410" />
<missing-glyph horiz-adv-x="528" />
<glyph unicode="&#xfb01;" horiz-adv-x="1144" d="M6 932q0 31 19.5 47t52.5 16h176l-45 -43v78q0 193 93 295t276 117l61 6q31 2 49.5 -9.5t23.5 -29.5t1 -38.5t-17.5 -35t-31.5 -16.5l-62 -4q-121 -8 -174 -74.5t-53 -189.5v-86l-25 30h557q39 0 60.5 -22.5t21.5 -65.5v-827q0 -43 -20.5 -66.5t-61.5 -23.5t-62.5 23.5 t-21.5 66.5v786h-448v-794q0 -86 -84 -86q-39 0 -60.5 22.5t-21.5 63.5v794h-131q-33 0 -52.5 17.5t-19.5 48.5zM803 1337q0 49 27.5 75t78.5 26t79 -26t28 -75q0 -47 -28 -74.5t-79 -27.5t-78.5 27.5t-27.5 74.5z" />
<glyph unicode="&#xfb02;" horiz-adv-x="1288" d="M6 932q0 31 19.5 47t52.5 16h176l-45 -43v78q0 195 95 297.5t280 118.5l59 6q29 2 46.5 -10t22.5 -30.5t1 -38t-18.5 -34t-35.5 -16.5l-47 -4q-125 -10 -181 -75.5t-56 -192.5v-86l-25 30h246q35 0 53.5 -16t18.5 -47t-18.5 -48.5t-53.5 -17.5h-221v-794q0 -86 -84 -86 q-39 0 -60.5 22.5t-21.5 63.5v794h-131q-33 0 -52.5 17.5t-19.5 48.5zM838 330v1044q0 41 20.5 62.5t61.5 21.5q39 0 61.5 -21.5t22.5 -62.5v-1032q0 -111 44 -165t130 -54q18 0 32.5 2t28.5 2q23 2 32 -10.5t9 -48.5q0 -37 -16.5 -55.5t-53.5 -24.5q-16 -2 -34.5 -4 t-34.5 -2q-147 0 -225 90t-78 258z" />
<glyph horiz-adv-x="0" />
<glyph horiz-adv-x="682" />
<glyph horiz-adv-x="0" />
<glyph horiz-adv-x="0" />
<glyph unicode="&#xd;" horiz-adv-x="528" />
<glyph unicode=" "  horiz-adv-x="528" />
<glyph unicode="&#x09;" horiz-adv-x="528" />
<glyph unicode="&#xa0;" horiz-adv-x="528" />
<glyph unicode="!" horiz-adv-x="466" d="M123 104q0 49 30.5 81t82.5 32q51 0 80.5 -31.5t29.5 -81.5q0 -49 -29.5 -80.5t-80.5 -31.5t-82 31.5t-31 80.5zM137 1350q-2 49 23.5 78.5t75.5 29.5q47 0 71.5 -29.5t22.5 -78.5l-41 -918q0 -33 -14 -49t-39 -16t-40.5 16t-17.5 49z" />
<glyph unicode="&#x22;" horiz-adv-x="802" d="M137 1358q-4 43 21.5 71.5t68.5 28.5q29 0 49.5 -13t31.5 -36t9 -51l-28 -430q-2 -31 -18.5 -48.5t-43.5 -17.5q-23 0 -40 17.5t-21 48.5zM487 1358q-4 43 21.5 71.5t68.5 28.5q29 0 49.5 -13t31.5 -36t9 -51l-28 -430q-2 -31 -18.5 -48.5t-43.5 -17.5q-23 0 -40 17.5 t-21 48.5z" />
<glyph unicode="#" d="M68 432q0 31 19 46.5t54 15.5h197l-66 -17l101 510l49 -20h-240q-23 0 -40 7t-25 21.5t-8 32.5q0 31 19 45t54 14h260l-55 -14l62 318q8 37 27.5 52t49.5 15q31 0 44.5 -21.5t4.5 -58.5l-55 -291h326l57 304q8 37 28.5 52t49.5 15q31 0 44 -21.5t7 -58.5l-59 -305l-49 14 h163q25 0 41.5 -7t24.5 -19t8 -33q0 -29 -18.5 -45t-55.5 -16h-186l55 20l-98 -510l-51 17h240q25 0 41 -7.5t24 -20.5t8 -34q0 -29 -18.5 -44t-54.5 -15h-261l56 14l-66 -334q-6 -37 -25.5 -52t-50.5 -15t-45 21.5t-8 58.5l60 307h-324l-61 -320q-6 -37 -25.5 -52 t-50.5 -15q-33 0 -46.5 21.5t-4.5 58.5l61 321l59 -14h-174q-23 0 -40 7t-25 20.5t-8 31.5zM406 494h323l94 473h-325z" />
<glyph unicode="$" d="M103.5 213q5.5 23 20.5 39t37.5 19t51.5 -15q68 -47 164 -82t239 -35q119 0 195 31t113 86t37 129q0 57 -27 100t-84 74t-154 51l-204 43q-186 41 -276.5 134.5t-90.5 244.5q0 119 58.5 212t163 147.5t243.5 60.5l-25 -29v201q0 29 19.5 49.5t50.5 20.5q29 0 49.5 -20.5 t20.5 -49.5v-201l-27 29q96 -2 203.5 -41t183.5 -111q20 -18 25.5 -39.5t-2 -41t-22.5 -32.5t-38.5 -14.5t-50.5 17.5q-68 55 -151 85t-199 30q-154 0 -245 -74t-91 -195q0 -94 57.5 -150.5t186.5 -82.5l206 -45q201 -43 295 -130t94 -235q0 -117 -59 -204t-161.5 -137 t-237.5 -60l33 35v-207q0 -29 -19.5 -49.5t-50.5 -20.5t-50.5 20.5t-19.5 49.5v205l37 -35q-143 2 -262 40t-201 97q-23 16 -32 39.5t-3.5 46.5z" />
<glyph unicode="%" horiz-adv-x="1904" d="M115 1020q0 139 42 237.5t119.5 150.5t186.5 52q162 0 255 -115.5t93 -324.5q0 -139 -42 -237.5t-119.5 -151.5t-186.5 -53q-164 0 -256 116.5t-92 325.5zM258 1020q0 -160 54.5 -241t150.5 -81q63 0 109 37t71 108.5t25 176.5q0 160 -55.5 239.5t-149.5 79.5 q-63 0 -109.5 -35.5t-71 -106.5t-24.5 -177zM486 16.5q-3 22.5 12 49.5l790 1376q14 27 34.5 36t41 4t35 -21.5t17.5 -39t-11 -47.5l-791 -1376q-14 -27 -34.5 -36t-41 -4t-35 20.5t-17.5 38zM1094 424q0 139 42 237.5t120.5 150.5t185.5 52q164 0 256 -115.5t92 -324.5 q0 -139 -41 -238.5t-118.5 -151.5t-188.5 -52q-162 0 -255 116.5t-93 325.5zM1239 424q0 -162 54.5 -242t148.5 -80q66 0 110.5 36t69.5 107.5t25 178.5q0 160 -54.5 239.5t-150.5 79.5q-63 0 -109.5 -35.5t-70 -106.5t-23.5 -177z" />
<glyph unicode="&#x26;" horiz-adv-x="1419" d="M127 346q0 70 18.5 128t56.5 110.5t95 101.5t133 100l66 43l-23 -34q-98 106 -138 185t-40 163q0 94 43 166.5t124 112.5t187 40q143 0 233.5 -78.5t90.5 -214.5q0 -74 -29 -138t-96.5 -128.5t-188.5 -136.5l5 43l383 -430h-37q29 49 50 112.5t36.5 138.5t21.5 158 q4 35 22.5 53.5t53.5 18.5t53.5 -20.5t14.5 -59.5q-8 -102 -29 -194t-53.5 -171t-73.5 -145l-2 49l203 -223q27 -27 25.5 -52.5t-21 -41.5t-51.5 -16q-29 0 -47.5 11t-43.5 34l-155 176h43q-86 -106 -207 -165.5t-262 -59.5q-143 0 -247.5 46t-159 128t-54.5 190zM291 358 q0 -113 77.5 -176t227.5 -63q117 0 208 49t159 143l-2 -51l-435 475l66 -6l-64 -41q-88 -57 -140 -107.5t-74.5 -103.5t-22.5 -119zM451 1147q0 -45 13 -83t48 -84t96 -118l-43 -2q98 63 155.5 111.5t82 93.5t24.5 96q0 80 -49 126t-129 46q-88 0 -143 -51t-55 -135z" />
<glyph unicode="'" horiz-adv-x="452" d="M137 1358q-4 43 21.5 71.5t68.5 28.5q29 0 49.5 -13t31.5 -36t9 -51l-28 -430q-2 -31 -18.5 -48.5t-43.5 -17.5q-23 0 -40 17.5t-21 48.5z" />
<glyph unicode="(" horiz-adv-x="649" d="M209 539q0 154 23.5 303t72.5 294.5t125 286.5q14 27 40 33t49.5 -3t33.5 -34.5t-4 -64.5q-53 -135 -90 -270.5t-55.5 -270.5t-18.5 -274t19.5 -274.5t56.5 -269.5t88 -271q16 -39 5 -65t-34.5 -35t-49.5 -3t-40 33q-115 211 -168 433t-53 452z" />
<glyph unicode=")" horiz-adv-x="649" d="M96 -340q-10 25 4 64q55 137 91 271t54.5 269t18.5 275q0 139 -19.5 274t-55 269.5t-89.5 271.5q-14 39 -2.5 64.5t34 34.5t48 3t41.5 -33q113 -209 166 -432t53 -452q0 -154 -23.5 -304.5t-71.5 -296t-124 -284.5q-16 -27 -40.5 -33t-49.5 4t-35 35z" />
<glyph unicode="*" horiz-adv-x="921" d="M66 1096q0 29 21.5 44t57.5 13l269 -10l-23 -31l-141 227q-20 31 -16 57.5t28 41.5q25 14 50.5 1.5t41.5 -44.5l117 -226h-20l116 226q18 33 44 45t51 -2q25 -16 27.5 -43t-17.5 -58l-142 -225l-22 31l268 10q37 2 58.5 -13.5t21.5 -43.5q0 -31 -21.5 -46.5t-58.5 -15.5 l-268 10l22 33l142 -225q20 -31 17 -56.5t-27 -39.5q-27 -16 -52.5 -4t-42.5 43l-116 225h20l-119 -225q-16 -33 -40.5 -45t-49.5 4q-27 14 -30 40.5t16 57.5l143 225l23 -33l-269 -10q-37 0 -58 15.5t-21 46.5z" />
<glyph unicode="+" d="M100 588q0 31 17.5 47t48.5 16h383v377q0 33 16.5 50.5t48.5 17.5q33 0 49.5 -17.5t16.5 -50.5v-377h383q31 0 48 -16.5t17 -46.5q0 -31 -17 -47.5t-48 -16.5h-383v-389q0 -31 -16.5 -49t-49.5 -18t-49 18t-16 49v389h-383q-31 0 -48.5 16.5t-17.5 47.5z" />
<glyph unicode="," horiz-adv-x="466" d="M123 104q0 49 29.5 81t78.5 32q53 0 84 -36t31 -103q0 -43 -8 -89t-28.5 -93.5t-55.5 -90.5q-20 -27 -43 -30.5t-39 8.5t-17 34.5t19 49.5q33 43 45 87t12 81l9 -43q-53 0 -85 31.5t-32 80.5z" />
<glyph unicode="-" horiz-adv-x="868" d="M133 545q0 31 20.5 50t51.5 19h461q29 0 49 -19.5t20 -49.5q0 -29 -20.5 -48.5t-48.5 -19.5h-461q-31 0 -51.5 19.5t-20.5 48.5z" />
<glyph unicode="." horiz-adv-x="466" d="M123 104q0 49 30.5 81t82.5 32q51 0 80.5 -31.5t29.5 -81.5q0 -49 -29.5 -80.5t-80.5 -31.5t-82 31.5t-31 80.5z" />
<glyph unicode="/" horiz-adv-x="579" d="M-20.5 -77.5q-8.5 20.5 0.5 46.5l487 1512q10 27 28.5 39t40 12t39 -11.5t24.5 -32t-1 -46.5l-485 -1512q-10 -27 -27.5 -39t-40 -12t-40 11.5t-26 32z" />
<glyph unicode="0" d="M109 723q0 242 57 406.5t171 248.5t277 84q250 0 378 -187.5t128 -549.5q0 -242 -57 -407.5t-170 -250.5t-279 -85q-248 0 -376.5 190t-128.5 551zM276 725q0 -305 84 -451.5t254 -146.5q172 0 255 146.5t83 451.5q0 307 -83 449.5t-255 142.5q-170 0 -254 -143.5 t-84 -448.5z" />
<glyph unicode="1" d="M240 74q0 35 20.5 52t56.5 17h267v1162h88l-297 -197q-27 -14 -50.5 -12t-39 17t-21.5 36.5t2 45.5t35 40l283 186q27 16 51 26.5t49 10.5q29 0 48.5 -17.5t19.5 -54.5v-1243h245q37 0 57.5 -17t20.5 -52q0 -37 -20.5 -55.5t-57.5 -18.5h-680q-37 0 -57 19.5t-20 54.5z " />
<glyph unicode="2" d="M141 1230.5q-6 22.5 1.5 45t31.5 41.5q80 66 192.5 105.5t229.5 39.5q145 0 245.5 -45t151.5 -132t51 -212q0 -86 -27.5 -169t-83.5 -169t-147 -178l-436 -461v47h690q39 0 58.5 -17t19.5 -52q0 -37 -19.5 -55.5t-58.5 -18.5h-776q-45 0 -66.5 21.5t-21.5 58.5 q0 23 11.5 44t31.5 44l459 491q104 113 150 208.5t46 193.5q0 123 -74.5 187.5t-217.5 64.5q-92 0 -174 -29t-158 -88q-27 -20 -48.5 -18t-38 16t-22.5 36.5z" />
<glyph unicode="3" d="M114 205.5q5 21.5 21.5 37t40 17.5t51.5 -16q90 -59 180.5 -86t186.5 -27q104 0 176 31t108.5 91t36.5 148q0 127 -83.5 192.5t-243.5 65.5h-146q-39 0 -59.5 19.5t-20.5 54.5q0 33 20.5 52.5t59.5 19.5h131q94 0 161 32.5t103.5 93t36.5 146.5q0 115 -73.5 175.5 t-212.5 60.5q-92 0 -174 -26.5t-162 -90.5q-25 -18 -48.5 -17t-38.5 14t-22.5 35.5t1 46t34.5 44.5q82 70 192.5 106.5t227.5 36.5q139 0 238.5 -44t152.5 -127t53 -199q0 -88 -33.5 -161t-94 -124t-146.5 -74v23q150 -25 232.5 -122t82.5 -245q0 -125 -58 -216t-166.5 -141 t-260.5 -50q-119 0 -238.5 34.5t-207.5 102.5q-27 18 -35 41.5t-3 45z" />
<glyph unicode="4" d="M96 385q0 23 10.5 46.5t36.5 60.5l625 909q18 29 40.5 43t53.5 14q33 0 56.5 -20.5t23.5 -65.5v-919h150q39 0 59 -18.5t20 -53.5t-20.5 -53.5t-58.5 -18.5h-150v-237q0 -41 -22.5 -63.5t-63.5 -22.5q-39 0 -61.5 22.5t-22.5 63.5v237h-588q-41 0 -64.5 19.5t-23.5 56.5z M248 408v45h524v794h49z" />
<glyph unicode="5" d="M168 208.5q6 22.5 22.5 38t40 17.5t50.5 -16q84 -59 174 -88t188 -29q100 0 173 38t111 106.5t38 160.5q0 141 -82 231.5t-226 90.5q-88 0 -161.5 -33t-135.5 -104q-14 -16 -33.5 -27.5t-43.5 -11.5q-35 0 -54.5 19.5t-19.5 51.5v713q0 39 20.5 58.5t57.5 19.5h696 q39 0 58.5 -18.5t19.5 -53.5t-19.5 -53.5t-58.5 -18.5h-608v-575h-45q53 86 147 132t211 46q137 0 236.5 -57.5t154 -160.5t54.5 -241q0 -135 -59.5 -239.5t-168 -163.5t-260.5 -59q-117 0 -232.5 34.5t-209.5 108.5q-25 16 -33 38.5t-2 45z" />
<glyph unicode="6" d="M131 686q0 188 39 331.5t114.5 243t184.5 150.5t246 51q94 0 193.5 -36.5t174.5 -104.5q23 -16 28 -40t-1 -45.5t-21.5 -35.5t-38 -15t-46.5 17q-70 59 -144 85t-149 26q-133 0 -226.5 -65.5t-141.5 -197.5t-48 -331v-191h-19q12 117 68.5 202t145 130t198.5 45 q127 0 225.5 -57t153.5 -160.5t55 -236.5q0 -135 -57 -242t-161.5 -167t-239.5 -60q-170 0 -290 82.5t-181.5 240.5t-61.5 381zM346 444q0 -94 39 -166.5t108.5 -112.5t159.5 -40t160 40t109 112.5t39 166.5t-39 166t-109 113t-160 41t-159.5 -41t-108.5 -112.5t-39 -166.5z " />
<glyph unicode="7" d="M123 1372q0 35 20.5 53.5t57.5 18.5h813q37 0 59.5 -18.5t22.5 -53.5q0 -29 -7.5 -50.5t-19.5 -47.5l-631 -1231q-14 -29 -36.5 -43t-57.5 -14q-29 0 -49.5 14t-25.5 40t12 56l657 1276v-74h-737q-37 0 -57.5 19.5t-20.5 54.5z" />
<glyph unicode="8" d="M100 383q0 100 41 179t115 128t170 62v-31q-133 29 -212 126t-79 230q0 123 58.5 208t167 131t253.5 46q147 0 255 -46t167.5 -131t59.5 -208q0 -88 -36 -162.5t-101.5 -124t-153.5 -67.5v29q145 -20 234 -120t89 -249q0 -127 -60 -217t-176 -137t-278 -47t-277.5 47 t-176 137t-60.5 217zM262 393q0 -137 90 -204.5t262 -67.5q174 0 263.5 67.5t89.5 204.5q0 135 -89.5 202t-263.5 67q-172 0 -262 -67t-90 -202zM297 1063q0 -123 83.5 -192.5t233.5 -69.5q100 0 171 31.5t110 91t39 139.5q0 123 -85 191.5t-235 68.5t-233.5 -68.5 t-83.5 -191.5z" />
<glyph unicode="9" d="M106 993q0 137 58.5 242.5t162 166t238.5 60.5q170 0 290 -83t181.5 -240.5t61.5 -380.5q0 -188 -39 -331.5t-115 -243t-184.5 -150.5t-245.5 -51q-92 0 -192.5 36.5t-176.5 106.5q-23 16 -27.5 38.5t1.5 44t21.5 37t38 16.5t46.5 -17q70 -59 143.5 -86t149.5 -27 q133 0 226.5 65.5t141.5 198.5t48 330v190h18q-12 -115 -68.5 -200.5t-144.5 -130.5t-198 -45q-127 0 -225.5 57t-154 161.5t-55.5 235.5zM268 1001q0 -94 40 -166.5t108.5 -113.5t158.5 -41q92 0 162 41t109 113.5t39 166.5t-39 166t-108.5 113t-162.5 41q-90 0 -158.5 -41 t-108.5 -112.5t-40 -166.5z" />
<glyph unicode=":" horiz-adv-x="466" d="M123 104q0 49 30.5 81t82.5 32q51 0 80.5 -31.5t29.5 -81.5q0 -49 -29.5 -80.5t-80.5 -31.5t-82 31.5t-31 80.5zM123 891q0 51 30.5 82t82.5 31q51 0 80.5 -31t29.5 -82q0 -47 -29.5 -80t-80.5 -33t-82 33t-31 80z" />
<glyph unicode=";" horiz-adv-x="466" d="M123 104q0 49 29.5 81t78.5 32q53 0 84 -36t31 -103q0 -43 -8 -89t-28.5 -93.5t-55.5 -90.5q-20 -27 -43 -30.5t-39 8.5t-17 34.5t19 49.5q33 43 45 87t12 81l9 -43q-53 0 -85 31.5t-32 80.5zM123 891q0 51 30.5 82t82.5 31q51 0 80.5 -31t29.5 -82q0 -47 -29.5 -80 t-80.5 -33t-82 33t-31 80z" />
<glyph unicode="&#x3c;" d="M111 588q0 33 17 55.5t50 36.5l871 395q27 12 46 6t31.5 -21.5t13.5 -35.5t-7.5 -37.5t-34.5 -30.5l-916 -409v82l916 -410q27 -12 35 -29.5t7 -38t-13.5 -36t-31.5 -20.5t-46 5l-871 396q-68 29 -67 92z" />
<glyph unicode="=" d="M100 385q0 31 17.5 46t48.5 15h897q31 0 48 -15t17 -46q0 -33 -17 -48t-48 -15h-897q-31 0 -48.5 16t-17.5 47zM100 793q0 31 17.5 47t48.5 16h897q31 0 48 -16.5t17 -46.5q0 -31 -17 -47.5t-48 -16.5h-897q-31 0 -48.5 16.5t-17.5 47.5z" />
<glyph unicode="&#x3e;" d="M90 151.5q-2 20.5 8.5 38t32.5 29.5l918 410v-82l-918 409q-23 12 -33 30t-8 38t13.5 35.5t32 21.5t44.5 -6l873 -395q66 -29 65 -92q0 -31 -16.5 -54.5t-48.5 -37.5l-873 -396q-25 -10 -45 -5t-31.5 20.5t-13.5 36z" />
<glyph unicode="?" horiz-adv-x="907" d="M11 1232.5q-5 22.5 6.5 47.5t39.5 45q80 63 188.5 100t219.5 37q117 0 206 -40t138 -112.5t49 -170.5q0 -63 -18.5 -122t-58.5 -118t-111 -135q-63 -66 -102.5 -122t-59 -108.5t-25.5 -109.5q-2 -25 -16 -40t-39 -15q-27 0 -41 17t-14 48q0 72 17.5 134.5t55 128 t103.5 141.5q51 61 82 108t44 91t13 89q0 86 -61.5 136.5t-169.5 50.5q-94 0 -173 -28t-153 -83q-31 -20 -56.5 -20t-42 14t-21.5 36.5zM311 104q0 49 32 81t83 32t81 -31.5t30 -81.5q0 -49 -30 -80.5t-81 -31.5t-83 31.5t-32 80.5z" />
<glyph unicode="@" horiz-adv-x="1937" d="M125 559q0 201 64.5 367t184.5 285.5t283.5 185t362.5 65.5q238 0 416 -95t277 -265t99 -397q0 -178 -49 -309.5t-136 -203t-204 -71.5q-123 0 -185 70.5t-54 191.5l39 -10q-51 -123 -145.5 -187.5t-198.5 -64.5q-158 0 -245 99t-87 274q0 150 57.5 267.5t157.5 185 t227 67.5q111 0 182.5 -55.5t92.5 -155.5h-23l23 137q10 66 75 66q35 0 50.5 -19.5t9.5 -56.5l-82 -465q-4 -27 -6 -51.5t-2 -44.5q0 -68 30.5 -103t92.5 -35q80 0 138 59.5t92 166t34 248.5q0 195 -85 338t-236.5 223t-356.5 80q-227 0 -399.5 -98.5t-268.5 -275.5 t-96 -413q0 -244 91 -418t257 -267t391 -93q150 0 273 43t207 117q29 23 53 19.5t38.5 -22t11.5 -43t-30 -49.5q-94 -82 -236.5 -131t-316.5 -49q-197 0 -356.5 62.5t-274 179.5t-176 281.5t-61.5 369.5zM686 494q0 -123 55.5 -188.5t155.5 -65.5q92 0 162.5 55t111.5 151.5 t41 219.5q0 115 -51 172t-157 57q-90 0 -162 -51t-114 -141.5t-42 -208.5z" />
<glyph unicode="A" horiz-adv-x="1492" d="M73 42q-3 26 11 58l563 1282q18 41 44 58.5t57 17.5t56 -17.5t42 -58.5l565 -1282q16 -33 13 -59.5t-21.5 -40.5t-50.5 -14q-37 0 -59.5 19.5t-37.5 55.5l-151 351l82 -43h-881l84 43l-149 -351q-18 -39 -39 -57t-54 -18t-52 15t-22 41zM367 510h757l-45 -39l-329 776h-5 l-329 -776z" />
<glyph unicode="B" horiz-adv-x="1384" d="M178 92v1260q0 45 23.5 68.5t68.5 23.5h486q150 0 253 -44t158.5 -128t55.5 -205q0 -135 -79 -225t-214 -119v29q154 -18 240.5 -110.5t86.5 -244.5q0 -193 -124.5 -295t-352.5 -102h-510q-45 0 -68.5 23.5t-23.5 68.5zM342 135h422q164 0 246 65.5t82 198.5 q0 135 -82 200t-246 65h-422v-529zM342 799h389q160 0 243 65.5t83 188.5q0 127 -83 191.5t-243 64.5h-389v-510z" />
<glyph unicode="C" horiz-adv-x="1378" d="M125 723q0 172 46 308t133 231.5t214 147.5t285 52q127 0 241.5 -35.5t198.5 -105.5q27 -20 36 -46t2 -49.5t-24.5 -39t-42 -15.5t-55.5 21q-74 59 -162 88t-190 29q-162 0 -274.5 -69t-170 -200t-57.5 -317t57.5 -318.5t170 -201t274.5 -68.5q100 0 190 30t166 89 q31 20 55.5 19t41 -15t23.5 -36.5t0 -47t-32 -43.5q-86 -74 -201.5 -111.5t-246.5 -37.5q-213 0 -364.5 90t-232.5 256t-81 395z" />
<glyph unicode="D" horiz-adv-x="1519" d="M178 92v1260q0 45 23.5 68.5t68.5 23.5h396q350 0 540.5 -184.5t190.5 -536.5q0 -176 -48.5 -310t-142.5 -226.5t-229 -139.5t-311 -47h-396q-45 0 -68.5 23.5t-23.5 68.5zM346 143h307q143 0 249 37t176.5 108.5t105.5 181.5t35 253q0 289 -141.5 433t-424.5 144h-307 v-1157z" />
<glyph unicode="E" horiz-adv-x="1193" d="M178 92v1260q0 45 23.5 68.5t68.5 23.5h762q35 0 53.5 -18.5t18.5 -51.5q0 -35 -18.5 -53t-53.5 -18h-690v-500h647q35 0 53.5 -17.5t18.5 -52.5t-18.5 -53t-53.5 -18h-647v-521h690q35 0 53.5 -18.5t18.5 -50.5q0 -35 -18.5 -53.5t-53.5 -18.5h-762q-45 0 -68.5 23.5 t-23.5 68.5z" />
<glyph unicode="F" horiz-adv-x="1122" d="M178 78v1274q0 45 23.5 68.5t68.5 23.5h744q35 0 53 -18.5t18 -51.5q0 -35 -18 -53t-53 -18h-668v-504h625q35 0 54 -18.5t19 -51.5q0 -35 -19 -53.5t-54 -18.5h-625v-579q0 -92 -78 -92q-43 0 -66.5 23.5t-23.5 68.5z" />
<glyph unicode="G" horiz-adv-x="1486" d="M125 721q0 172 46 309t135 232.5t217 147.5t290 52q129 0 250 -35.5t215 -113.5q25 -18 31 -41t-1.5 -45.5t-22.5 -37.5t-38.5 -17.5t-48.5 14.5q-84 66 -178 95.5t-209 29.5q-164 0 -277.5 -70t-172 -201t-58.5 -319q0 -287 134 -438.5t405 -151.5q98 0 192 19.5 t178 54.5l-36 -96v509h-293q-37 0 -55.5 18.5t-18.5 49.5q0 33 18.5 49.5t55.5 16.5h366q35 0 53.5 -18.5t18.5 -53.5v-535q0 -31 -10.5 -51t-34.5 -31q-86 -35 -205.5 -58t-232.5 -23q-231 0 -390 88t-241 253.5t-82 397.5z" />
<glyph unicode="H" horiz-adv-x="1558" d="M178 74v1296q0 43 21.5 65.5t62.5 22.5t62.5 -22.5t21.5 -65.5v-565h866v565q0 43 21.5 65.5t62.5 22.5t62.5 -22.5t21.5 -65.5v-1296q0 -41 -21.5 -64.5t-62.5 -23.5t-62.5 23.5t-21.5 64.5v585h-866v-585q0 -41 -20.5 -64.5t-63.5 -23.5q-41 0 -62.5 23.5t-21.5 64.5z " />
<glyph unicode="I" horiz-adv-x="526" d="M178 74v1296q0 43 21.5 65.5t62.5 22.5t62.5 -22.5t21.5 -65.5v-1296q0 -41 -20.5 -64.5t-63.5 -23.5q-41 0 -62.5 23.5t-21.5 64.5z" />
<glyph unicode="J" horiz-adv-x="663" d="M-25 63q0 25 15.5 45.5t48.5 22.5l63 4q104 8 159.5 72.5t55.5 177.5v987q0 43 21.5 64.5t62.5 21.5t62.5 -21.5t21.5 -64.5v-989q0 -117 -41 -202t-121.5 -132t-197.5 -55l-68 -6h-6q-35 0 -55 20q-21 23 -21 55z" />
<glyph unicode="K" horiz-adv-x="1280" d="M178 74v1298q0 43 21.5 64.5t62.5 21.5t62.5 -21.5t21.5 -64.5v-584h4l668 623q25 25 49.5 36t52.5 11q39 0 56.5 -18.5t13.5 -45t-29 -51.5l-698 -647l2 90l729 -673q31 -29 33 -58.5t-17.5 -49t-58.5 -19.5q-31 0 -52.5 13t-47.5 40l-701 641h-4v-606 q0 -41 -20.5 -64.5t-63.5 -23.5q-41 0 -62.5 23.5t-21.5 64.5z" />
<glyph unicode="L" horiz-adv-x="1112" d="M178 88v1278q0 43 21.5 65.5t62.5 22.5t62.5 -22.5t21.5 -65.5v-1219h672q37 0 57.5 -19t20.5 -54t-20.5 -54.5t-57.5 -19.5h-754q-41 0 -63.5 23.5t-22.5 64.5z" />
<glyph unicode="M" horiz-adv-x="1751" d="M182 68v1308q0 41 20.5 61.5t57.5 20.5q33 0 52.5 -13t35.5 -44l561 -1057h-61l559 1057q16 31 34.5 44t53.5 13t55.5 -20.5t20.5 -61.5v-1308q0 -39 -19.5 -60.5t-58.5 -21.5q-37 0 -57.5 21.5t-20.5 60.5v1151h49l-512 -961q-14 -27 -29.5 -38t-43.5 -11 q-29 0 -45.5 12t-28.5 37l-518 963h49v-1153q0 -39 -19.5 -60.5t-56.5 -21.5t-57.5 21.5t-20.5 60.5z" />
<glyph unicode="N" horiz-adv-x="1515" d="M178 70v1302q0 41 20.5 63.5t53.5 22.5t48 -11t36 -40l893 -1190h-49v1159q0 39 20.5 60.5t59.5 21.5q37 0 56 -21.5t19 -60.5v-1308q0 -39 -17.5 -60.5t-49.5 -21.5q-31 0 -49.5 12t-38.5 39l-891 1190h47v-1157q0 -41 -20.5 -62.5t-57.5 -21.5q-39 0 -59.5 21.5 t-20.5 62.5z" />
<glyph unicode="O" horiz-adv-x="1570" d="M125 723q0 172 46 308t132 231.5t208 147.5t273 52q205 0 353.5 -90t229.5 -255t81 -392q0 -172 -47 -309t-133 -233.5t-208 -148.5t-276 -52q-201 0 -349 91t-229 257t-81 393zM303 723q0 -279 127 -435.5t354 -156.5q156 0 263.5 69.5t165 203t57.5 319.5 q0 281 -126 435.5t-360 154.5q-152 0 -259 -69.5t-164.5 -202t-57.5 -318.5z" />
<glyph unicode="P" horiz-adv-x="1296" d="M178 74v1284q0 43 22.5 64.5t63.5 21.5h486q231 0 356 -113.5t125 -320.5q0 -205 -125 -320t-356 -115h-404v-501q0 -41 -20.5 -64.5t-63.5 -23.5q-41 0 -62.5 23.5t-21.5 64.5zM346 717h383q166 0 251 74.5t85 218.5q0 145 -85 220t-251 75h-383v-588z" />
<glyph unicode="Q" horiz-adv-x="1570" d="M125 723q0 172 46 308t132 231.5t208 147.5t273 52q205 0 353.5 -90t229.5 -255t81 -392q0 -172 -47 -309t-133 -233.5t-208 -148.5t-276 -52q-201 0 -349 91t-229 257t-81 393zM303 723q0 -279 127 -435.5t354 -156.5q156 0 263.5 69.5t165 203t57.5 319.5 q0 281 -126 435.5t-360 154.5q-152 0 -259 -69.5t-164.5 -202t-57.5 -318.5zM784 -18l140 59q96 0 152.5 -34t111.5 -124l96 -155q20 -31 17 -56.5t-20 -43t-42 -22.5t-50.5 6t-43.5 42l-133 211q-33 57 -90.5 87t-137.5 30z" />
<glyph unicode="R" horiz-adv-x="1370" d="M178 74v1284q0 43 22.5 64.5t63.5 21.5h486q231 0 356 -108.5t125 -309.5q0 -127 -56.5 -220t-165 -141.5t-259.5 -48.5l20 27h41q80 0 139.5 -41t108.5 -131l196 -367q16 -29 15.5 -56.5t-19 -44.5t-53.5 -17t-57.5 16t-38.5 47l-223 414q-47 88 -108.5 117.5 t-162.5 29.5h-262v-536q0 -41 -20.5 -64.5t-63.5 -23.5q-41 0 -62.5 23.5t-21.5 64.5zM346 743h379q168 0 254 71t86 212q0 137 -86 208t-254 71h-379v-562z" />
<glyph unicode="S" horiz-adv-x="1259" d="M105.5 212q5.5 24 20.5 40t37.5 18t49.5 -14q92 -66 196.5 -95.5t235.5 -29.5q184 0 273.5 68.5t89.5 181.5q0 92 -64.5 144.5t-216.5 82.5l-213 43q-193 41 -288 134.5t-95 248.5q0 96 39 175t108.5 135.5t166 87t212.5 30.5q129 0 241 -35.5t202 -107.5q23 -18 31 -42 t1.5 -45.5t-21.5 -35.5t-38.5 -16t-52.5 16q-82 61 -170 89t-195 28q-109 0 -187.5 -33t-122.5 -95.5t-44 -144.5q0 -98 60.5 -155.5t197.5 -83.5l213 -45q207 -43 306.5 -130t99.5 -237q0 -90 -37 -166t-106.5 -130t-168 -82.5t-221.5 -28.5q-96 0 -188 16t-171 47t-143 78 q-25 18 -34 41.5t-3.5 47.5z" />
<glyph unicode="T" horiz-adv-x="1232" d="M-6 1372q0 35 20.5 53.5t57.5 18.5h1091q37 0 57.5 -18.5t20.5 -53.5t-20.5 -54.5t-57.5 -19.5h-461v-1224q0 -41 -21.5 -64.5t-64.5 -23.5q-39 0 -61.5 23.5t-22.5 64.5v1224h-460q-37 0 -57.5 20.5t-20.5 53.5z" />
<glyph unicode="U" horiz-adv-x="1490" d="M168 571v801q0 43 21.5 64.5t62.5 21.5t62.5 -21.5t21.5 -64.5v-792q0 -225 104.5 -337t307.5 -112t305 111.5t102 337.5v792q0 43 22.5 64.5t63.5 21.5q39 0 60.5 -21.5t21.5 -64.5v-801q0 -190 -64.5 -323t-193.5 -199.5t-317 -66.5q-143 0 -251 37.5t-181.5 112.5 t-110.5 185.5t-37 253.5z" />
<glyph unicode="V" horiz-adv-x="1411" d="M33 1406.5q6 23.5 27.5 37.5t50.5 14q39 0 58 -17.5t32 -49.5l540 -1256h-65l538 1258q14 31 35 48t58 17q29 0 48 -14t24 -39t-9 -57l-563 -1289q-14 -37 -37.5 -55t-62.5 -18t-64 18.5t-39 54.5l-563 1289q-14 35 -8 58.5z" />
<glyph unicode="W" horiz-adv-x="2254" d="M92 1356q-6 17 -6 32q0 22 14 40q22 30 68 30q35 0 55.5 -17.5t34.5 -54.5l424 -1243h-72l432 1237q14 39 35 58.5t56 19.5q33 0 52 -19.5t34 -58.5l426 -1237h-64l428 1243q10 35 31.5 53.5t56.5 18.5q43 0 63 -28q12 -16 12 -38q0 -17 -7 -36l-455 -1293 q-14 -39 -35.5 -58t-60.5 -19q-37 0 -58.5 19.5t-37.5 57.5l-412 1186h45l-416 -1186q-14 -39 -34.5 -58t-59.5 -19q-37 0 -59.5 19.5t-36.5 57.5z" />
<glyph unicode="X" horiz-adv-x="1331" d="M79 49.5q-3 26.5 19 52.5l496 668v-63l-467 630q-23 31 -20.5 57.5t24 45t51.5 18.5q29 0 49.5 -12t42.5 -43l420 -576h-53l418 576q20 31 40.5 43t49.5 12q33 0 54.5 -17.5t23.5 -45t-21 -58.5l-467 -630v63l496 -668q20 -27 17 -53t-23.5 -44.5t-54.5 -18.5 q-27 0 -48.5 13t-44.5 42l-448 612h65l-448 -612q-20 -29 -42.5 -42t-47.5 -13q-35 0 -56.5 18.5t-24.5 45z" />
<glyph unicode="Y" horiz-adv-x="1220" d="M32 1393.5q1 27.5 21.5 46t52.5 18.5q29 0 51.5 -13t41.5 -42l436 -602h-43l436 602q23 31 43.5 43t48.5 12q33 0 51.5 -17.5t19.5 -45t-20 -58.5l-512 -706l35 117v-672q0 -90 -84 -90q-41 0 -62.5 23.5t-21.5 66.5v672l37 -117l-514 708q-18 27 -17 54.5z" />
<glyph unicode="Z" horiz-adv-x="1206" d="M84 1372q0 35 20.5 53.5t59.5 18.5h889q33 0 54 -13.5t28.5 -36t0 -53t-29.5 -61.5l-852 -1198v63h842q39 0 59.5 -18t20.5 -53q0 -37 -20.5 -55.5t-59.5 -18.5h-920q-33 0 -53.5 13.5t-28.5 37t-1 53t32 60.5l852 1200v-66h-813q-39 0 -59.5 19.5t-20.5 54.5z" />
<glyph unicode="[" horiz-adv-x="645" d="M223 -297v1669q0 31 21.5 51.5t52.5 20.5h278q31 0 49.5 -18.5t18.5 -47.5q0 -27 -18.5 -46t-49.5 -19h-186v-1551h186q31 0 49.5 -19t18.5 -46t-18.5 -46.5t-49.5 -19.5h-278q-31 0 -52.5 20.5t-21.5 51.5z" />
<glyph unicode="\" horiz-adv-x="579" d="M-20 1442q-8 27 0 47t25.5 31.5t39 11.5t39.5 -12.5t29 -38.5l485 -1512q8 -27 1 -47t-24.5 -31.5t-40 -11.5t-40 12t-27.5 39z" />
<glyph unicode="]" horiz-adv-x="645" d="M2 -303q0 27 18.5 46t49.5 19h186v1551h-186q-31 0 -49.5 19.5t-18.5 45.5q0 29 18.5 47.5t49.5 18.5h280q31 0 51.5 -20.5t20.5 -51.5v-1669q0 -31 -20.5 -51.5t-51.5 -20.5h-280q-31 0 -49.5 19.5t-18.5 46.5z" />
<glyph unicode="^" d="M130 299q-13 27 3 66l399 880q12 31 33 43t49 12q57 0 82 -55l400 -880q18 -39 4.5 -66t-58.5 -27q-23 0 -39 12.5t-28 41.5l-402 893h82l-401 -893q-14 -29 -28.5 -41.5t-39.5 -12.5q-43 0 -56 27z" />
<glyph unicode="_" horiz-adv-x="1024" d="M27 -55q0 23 17 39t42 16h852q25 0 42 -16.5t17 -38.5q0 -23 -17 -38.5t-42 -15.5h-852q-25 0 -42 15.5t-17 38.5z" />
<glyph unicode="`" horiz-adv-x="729" d="M204.5 1505.5q3.5 22.5 20 39t39 21.5t45 -3.5t37.5 -36.5l172 -334q12 -25 5 -43.5t-26.5 -27.5t-39.5 -5.5t-34 23.5l-206 319q-16 25 -12.5 47.5z" />
<glyph unicode="a" horiz-adv-x="1085" d="M111 287q0 111 56 174t186 90t356 27h92v-109h-90q-166 0 -261.5 -15.5t-133 -52t-37.5 -104.5q0 -84 58 -137.5t159 -53.5q82 0 144 39t98 106.5t36 156.5v233q0 127 -51 183.5t-168 56.5q-72 0 -143.5 -18.5t-151.5 -59.5q-29 -14 -49.5 -9t-32.5 21t-14 37.5t9 42 t36 33.5q90 45 178 65.5t168 20.5q129 0 213 -42t125 -127t41 -218v-555q0 -41 -19.5 -63.5t-56.5 -22.5q-39 0 -59.5 22.5t-20.5 63.5v159h19q-16 -78 -62.5 -133t-114 -85.5t-151.5 -30.5q-102 0 -183 39.5t-128 109.5t-47 156z" />
<glyph unicode="b" horiz-adv-x="1193" d="M156 72v1302q0 41 20.5 62.5t61.5 21.5q39 0 61.5 -21.5t22.5 -62.5v-610h-25q35 115 131 182.5t231 67.5t233.5 -62.5t153 -178.5t54.5 -275q0 -158 -54.5 -273.5t-154 -179t-232.5 -63.5q-135 0 -232 69.5t-130 186.5l22 22v-188q0 -41 -21.5 -63.5t-59.5 -22.5 q-41 0 -61.5 22.5t-20.5 63.5zM317 498q0 -184 84.5 -283.5t223.5 -99.5q94 0 162.5 45t106.5 131t38 207q0 186 -83 284.5t-224 98.5q-92 0 -162 -44t-108 -129t-38 -210z" />
<glyph unicode="c" horiz-adv-x="948" d="M94 504q0 119 33 213t96.5 160.5t152.5 101.5t202 35q74 0 153.5 -22.5t145.5 -78.5q20 -14 26 -34.5t0 -40t-20.5 -32.5t-36 -15.5t-43.5 14.5q-53 41 -108.5 57.5t-106.5 16.5q-80 0 -139.5 -26t-100.5 -73t-62.5 -116.5t-21.5 -161.5q0 -178 84 -281.5t240 -103.5 q51 0 105.5 16.5t109.5 56.5q23 16 43 14.5t34.5 -15t19.5 -34t-1 -40t-27 -33.5q-66 -53 -143 -76.5t-151 -23.5q-150 0 -258.5 65.5t-167 183t-58.5 273.5z" />
<glyph unicode="d" horiz-adv-x="1193" d="M94 498q0 160 54.5 275.5t153.5 178t233 62.5q135 0 231 -67.5t129 -182.5h-23v610q0 41 21.5 62.5t62.5 21.5q39 0 60.5 -21.5t21.5 -62.5v-1302q0 -41 -20.5 -63.5t-61.5 -22.5q-39 0 -60.5 22.5t-21.5 63.5v194l23 -28q-33 -117 -130 -186.5t-232 -69.5 q-133 0 -232.5 63.5t-154 179t-54.5 273.5zM262 498q0 -184 84 -283.5t223 -99.5q92 0 162 45t108 131t38 207q0 186 -83 284.5t-225 98.5q-94 0 -162.5 -44t-106.5 -129t-38 -210z" />
<glyph unicode="e" horiz-adv-x="1089" d="M94 496q0 156 61.5 271.5t169 181t248.5 65.5q100 0 180.5 -34t136.5 -97.5t86 -153.5t30 -203q0 -33 -18.5 -48t-53.5 -15h-713v108h674l-33 -26q0 111 -32.5 187.5t-95 117.5t-156.5 41q-104 0 -177 -48t-110 -133t-37 -198v-12q0 -188 91 -286.5t259 -98.5 q70 0 138.5 18.5t134.5 61.5q29 18 52 17t37.5 -14.5t19.5 -33t-4 -42t-36 -38.5q-68 -49 -160 -75.5t-182 -26.5q-158 0 -271.5 62t-176 177t-62.5 275z" />
<glyph unicode="f" horiz-adv-x="681" d="M6 932q0 31 19.5 47t52.5 16h176l-45 -43v78q0 195 95 297.5t280 118.5l59 6q29 2 46.5 -10t22.5 -30.5t1 -38t-18.5 -34t-35.5 -16.5l-47 -4q-125 -10 -181 -75.5t-56 -192.5v-86l-25 30h246q35 0 53.5 -16t18.5 -47t-18.5 -48.5t-53.5 -17.5h-221v-794q0 -86 -84 -86 q-39 0 -60.5 22.5t-21.5 63.5v794h-131q-33 0 -52.5 17.5t-19.5 48.5z" />
<glyph unicode="g" horiz-adv-x="1200" d="M94 520q0 111 31 202t89 155.5t141 100.5t186 36q135 0 233 -68.5t127 -185.5l-20 -25v191q0 41 21.5 62.5t60.5 21.5q41 0 61 -21.5t20 -62.5v-854q0 -227 -113.5 -343t-334.5 -116q-109 0 -212 25.5t-187 80.5q-25 14 -32 35t-3 40.5t18.5 34.5t33.5 19.5t40 -6.5 q90 -55 172 -75.5t162 -20.5q145 0 220 78t75 225v232h20q-31 -119 -130 -188.5t-232 -69.5q-137 0 -237.5 62t-155 175t-54.5 260zM262 520q0 -166 84 -264t225 -98q96 0 166 44t108 126t38 192q0 166 -84 263.5t-228 97.5q-94 0 -163.5 -44t-107.5 -125t-38 -192z" />
<glyph unicode="h" horiz-adv-x="1163" d="M156 72v1302q0 41 20.5 62.5t61.5 21.5q39 0 61.5 -21.5t22.5 -62.5v-600h-27q43 119 140 179.5t224 60.5q119 0 198 -43t118 -130t39 -220v-549q0 -41 -21.5 -63.5t-60.5 -22.5q-41 0 -62.5 22.5t-21.5 63.5v538q0 139 -54.5 204t-172.5 65q-137 0 -218 -85t-81 -227 v-495q0 -86 -84 -86q-41 0 -61.5 22.5t-20.5 63.5z" />
<glyph unicode="i" horiz-adv-x="475" d="M129 1337q0 49 28.5 75t80.5 26q53 0 80.5 -26t27.5 -75q0 -47 -27.5 -74.5t-80.5 -27.5q-51 0 -80 27.5t-29 74.5zM156 80v838q0 43 20.5 65.5t61.5 22.5q39 0 61.5 -22.5t22.5 -65.5v-838q0 -43 -21.5 -66.5t-62.5 -23.5t-61.5 23.5t-20.5 66.5z" />
<glyph unicode="j" horiz-adv-x="483" d="M-116 -310.5q3 19.5 17.5 34t39.5 14.5q113 6 167 60.5t54 170.5v957q0 41 21.5 62.5t62.5 21.5q39 0 60.5 -21.5t21.5 -62.5v-944q0 -125 -42 -206t-122 -121t-199 -46q-31 -2 -50 10t-26.5 31.5t-4.5 39zM135 1337q0 49 29 75t80 26q53 0 81.5 -26t28.5 -75 q0 -47 -28.5 -74.5t-81.5 -27.5q-51 0 -80 27.5t-29 74.5z" />
<glyph unicode="k" horiz-adv-x="1024" d="M156 72v1302q0 41 20.5 62.5t61.5 21.5q39 0 61.5 -21.5t22.5 -62.5v-821h4l419 401q29 27 50.5 41.5t58.5 14.5q33 0 51.5 -17.5t17.5 -43t-26 -54.5l-446 -424v90l485 -457q29 -29 29 -55t-19.5 -44.5t-50.5 -18.5q-37 0 -59.5 15t-55.5 46l-454 420h-4v-395 q0 -86 -84 -86q-41 0 -61.5 22.5t-20.5 63.5z" />
<glyph unicode="l" horiz-adv-x="606" d="M156 330v1044q0 41 20.5 62.5t61.5 21.5q39 0 61.5 -21.5t22.5 -62.5v-1032q0 -111 44 -165t130 -54q18 0 32.5 2t28.5 2q23 2 32 -10.5t9 -48.5q0 -37 -16.5 -55.5t-53.5 -24.5q-16 -2 -34.5 -4t-34.5 -2q-147 0 -225 90t-78 258z" />
<glyph unicode="m" horiz-adv-x="1753" d="M160 72v854q0 41 20.5 62.5t59.5 21.5t60.5 -21.5t21.5 -62.5v-181l-23 29q39 115 126 177.5t208 62.5q127 0 206 -60.5t105 -187.5h-31q37 115 132.5 181.5t222.5 66.5q113 0 185.5 -43t109 -130t36.5 -220v-549q0 -41 -21.5 -63.5t-61.5 -22.5q-39 0 -60.5 22.5 t-21.5 63.5v540q0 137 -47.5 202t-159.5 65q-123 0 -193.5 -85t-70.5 -231v-491q0 -41 -21.5 -63.5t-62.5 -22.5q-39 0 -60.5 22.5t-21.5 63.5v540q0 137 -48.5 202t-158.5 65q-123 0 -193.5 -85t-70.5 -231v-491q0 -86 -84 -86q-41 0 -61.5 22.5t-20.5 63.5z" />
<glyph unicode="n" horiz-adv-x="1163" d="M156 72v854q0 41 20.5 62.5t59.5 21.5t60 -21.5t21 -62.5v-176l-22 24q43 119 140 179.5t224 60.5q119 0 198 -43t118 -130t39 -220v-549q0 -41 -21.5 -63.5t-60.5 -22.5q-41 0 -62.5 22.5t-21.5 63.5v538q0 139 -54.5 204t-172.5 65q-137 0 -218 -85t-81 -227v-495 q0 -86 -84 -86q-41 0 -61.5 22.5t-20.5 63.5z" />
<glyph unicode="o" horiz-adv-x="1138" d="M94 498q0 119 33 214t96.5 162.5t150.5 103.5t195 36q145 0 252 -63.5t165 -179.5t58 -273q0 -119 -32.5 -213.5t-96 -163t-150.5 -104t-196 -35.5q-145 0 -251.5 63.5t-165 179t-58.5 273.5zM262 498q0 -184 84 -283.5t223 -99.5q92 0 162 45t108 131t38 207 q0 186 -83 284.5t-225 98.5q-94 0 -162.5 -44t-106.5 -129t-38 -210z" />
<glyph unicode="p" horiz-adv-x="1193" d="M156 -299v1225q0 41 20.5 62.5t59.5 21.5q41 0 62 -21.5t21 -62.5v-195l-22 29q33 117 130 185.5t232 68.5q133 0 232.5 -62.5t154 -178.5t54.5 -275q0 -158 -54.5 -273.5t-152.5 -179t-234 -63.5q-135 0 -231 68.5t-131 182.5h25v-532q0 -41 -22.5 -62.5t-61.5 -21.5 q-41 0 -61.5 21.5t-20.5 62.5zM317 498q0 -184 84.5 -283.5t223.5 -99.5q94 0 162.5 45t106.5 131t38 207q0 186 -83 284.5t-224 98.5q-92 0 -162 -44t-108 -129t-38 -210z" />
<glyph unicode="q" horiz-adv-x="1193" d="M94 498q0 160 54.5 275.5t153.5 178t233 62.5q135 0 232 -68.5t130 -185.5l-23 -29v195q0 41 22 62.5t60 21.5q41 0 61.5 -21.5t20.5 -62.5v-1225q0 -41 -21.5 -62.5t-60.5 -21.5q-41 0 -62.5 21.5t-21.5 62.5v532h23q-33 -115 -129 -183t-231 -68q-133 0 -232.5 63.5 t-154 179t-54.5 273.5zM262 498q0 -184 84 -283.5t223 -99.5q92 0 162 45t108 131t38 207q0 186 -83 284.5t-225 98.5q-94 0 -162.5 -44t-106.5 -129t-38 -210z" />
<glyph unicode="r" horiz-adv-x="733" d="M156 72v854q0 41 20.5 62.5t59.5 21.5t60 -21.5t21 -62.5v-166h-20q33 121 125 186.5t227 69.5q31 2 49.5 -13.5t20.5 -52.5q2 -35 -16.5 -55.5t-57.5 -24.5l-33 -4q-139 -12 -213.5 -89t-74.5 -210v-495q0 -41 -21.5 -63.5t-62.5 -22.5t-62.5 22.5t-21.5 63.5z" />
<glyph unicode="s" horiz-adv-x="985" d="M99 154.5q3 19.5 16.5 34t33 17.5t44.5 -9q80 -49 154.5 -68.5t148.5 -19.5q117 0 176 43t59 116q0 57 -39 91t-123 53l-186 41q-129 27 -191.5 92t-62.5 170q0 92 48 158.5t136 103.5t205 37q90 0 171 -23.5t147 -75.5q20 -14 27 -33.5t2 -39t-19.5 -32.5t-34.5 -15 t-43 12q-61 41 -124.5 60.5t-125.5 19.5q-115 0 -174 -45t-59 -119q0 -57 36.5 -94t114.5 -54l187 -38q133 -29 199.5 -91.5t66.5 -169.5q0 -135 -108.5 -214.5t-288.5 -79.5q-92 0 -185.5 22.5t-173.5 77.5q-20 14 -28.5 33.5t-5.5 39z" />
<glyph unicode="t" horiz-adv-x="716" d="M-6 932q0 31 18.5 47t53.5 16h137v236q0 41 22.5 62.5t61.5 21.5t60.5 -21.5t21.5 -62.5v-236h258q35 0 53 -16t18 -47t-18 -48.5t-53 -17.5h-258v-506q0 -117 49 -177t160 -60q39 0 66.5 8t45.5 8q18 2 30.5 -12t12.5 -49q0 -25 -9 -45.5t-32 -28.5q-25 -8 -64.5 -15 t-72.5 -7q-117 0 -195.5 42t-117.5 122.5t-39 197.5v522h-137q-35 0 -53.5 17.5t-18.5 48.5z" />
<glyph unicode="u" horiz-adv-x="1148" d="M150 377v549q0 43 21.5 63.5t59.5 20.5q41 0 62.5 -20.5t21.5 -63.5v-547q0 -131 54.5 -195.5t171.5 -64.5q127 0 206.5 86t79.5 225v496q0 43 21.5 63.5t62.5 20.5q39 0 60.5 -20.5t21.5 -63.5v-854q0 -86 -80 -86q-39 0 -60.5 22.5t-21.5 63.5v186l27 -29 q-41 -121 -134 -184t-216 -63q-121 0 -200 44t-118.5 132t-39.5 219z" />
<glyph unicode="v" horiz-adv-x="1054" d="M55.5 950.5q3.5 26.5 24 43t57.5 16.5q33 0 51.5 -14.5t32.5 -51.5l336 -821h-55l342 821q14 37 32.5 51.5t53.5 14.5q33 0 50 -16.5t20.5 -42t-9.5 -56.5l-358 -829q-14 -41 -42 -60.5t-65 -19.5q-35 0 -61.5 19.5t-44.5 60.5l-354 827q-14 31 -10.5 57.5z" />
<glyph unicode="w" horiz-adv-x="1722" d="M83 954.5q5 26.5 25.5 41t51.5 14.5t50 -14.5t32 -53.5l286 -819h-49l295 819q14 37 35.5 52.5t56.5 15.5q33 0 55.5 -16.5t34.5 -51.5l289 -819h-47l291 823q14 37 34.5 50.5t49.5 13.5q33 0 50 -16.5t19.5 -43t-10.5 -57.5l-305 -830q-14 -39 -42 -58t-62 -19 q-35 0 -61.5 19.5t-41.5 57.5l-303 832h88l-301 -832q-14 -39 -40.5 -58t-63.5 -19q-35 0 -61.5 18.5t-43.5 58.5l-305 830q-12 35 -7 61.5z" />
<glyph unicode="x" horiz-adv-x="1075" d="M91 50q0 27 26 56l358 451v-86l-336 420q-26 31 -26 57q1 0 1 2q2 26 22 43t46 17q31 0 52.5 -11.5t39.5 -35.5l293 -371h-57l295 371q18 25 38.5 36t51.5 11q29 0 49 -16q19 -16 20 -44v-2q0 -27 -26 -59l-334 -414v76l359 -445q24 -29 24 -55q-1 -1 -1 -3 q-2 -28 -22 -44t-49 -16t-50 11t-42 36l-315 397h59l-315 -397q-18 -23 -39.5 -35t-52.5 -12q-28 0 -48 16q-22 17 -21 46z" />
<glyph unicode="y" horiz-adv-x="1052" d="M55 950.5q4 26.5 24.5 43t57.5 16.5q33 0 51.5 -14.5t32.5 -51.5l336 -823h-55l340 823q16 37 34.5 51.5t53.5 14.5q33 0 50 -16.5t20.5 -42t-9.5 -56.5l-524 -1212q-16 -37 -35.5 -51.5t-54.5 -14.5q-31 0 -49.5 16.5t-21.5 44t9 56.5l142 317v-71l-394 913 q-12 31 -8 57.5z" />
<glyph unicode="z" horiz-adv-x="948" d="M98 932q0 31 17.5 47t50.5 16h629q31 0 50 -12t25.5 -31.5t1 -43t-23.5 -46.5l-588 -780v47h576q67 0 67 -61q0 -33 -17.5 -50.5t-49.5 -17.5h-662q-27 0 -43 12.5t-22.5 33t0 45t26.5 46.5l578 772v-43h-547q-33 0 -50.5 17.5t-17.5 48.5z" />
<glyph unicode="{" horiz-adv-x="720" d="M86 539q0 29 16.5 47t42.5 20q86 2 120 41t34 123v465q0 102 53.5 155.5t153.5 53.5h141q31 0 51.5 -18.5t20.5 -47.5q0 -27 -17.5 -46t-46.5 -19h-102q-43 0 -65.5 -22.5t-22.5 -69.5v-467q0 -61 -24.5 -111.5t-65.5 -79t-96 -28.5v8q55 0 96 -29t65.5 -79t24.5 -111 v-469q0 -47 22.5 -70t65.5 -23h102q29 0 46.5 -19t17.5 -46t-20.5 -46.5t-51.5 -19.5h-141q-68 0 -114 23.5t-69.5 71t-23.5 114.5v465q0 86 -34 125t-120 41q-27 0 -43 20.5t-16 47.5z" />
<glyph unicode="|" horiz-adv-x="542" d="M188 -299v1673q0 43 21.5 63.5t60.5 20.5q41 0 62.5 -20.5t21.5 -63.5v-1673q0 -84 -84 -84q-39 0 -60.5 21.5t-21.5 62.5z" />
<glyph unicode="}" horiz-adv-x="720" d="M2 -303q0 27 17.5 46t46.5 19h102q45 0 66.5 22.5t21.5 70.5v469q0 61 24.5 111t66.5 79t95 29v-8q-53 0 -95 28.5t-66.5 78.5t-24.5 112v467q0 47 -21.5 69.5t-66.5 22.5h-102q-29 0 -46.5 19.5t-17.5 45.5q0 29 20.5 47.5t51.5 18.5h143q66 0 112 -23.5t69.5 -70.5 t23.5 -115v-465q0 -84 33.5 -123t119.5 -41q29 -2 44.5 -21.5t15.5 -45.5q0 -27 -15.5 -47.5t-44.5 -20.5q-86 -2 -119.5 -41t-33.5 -125v-465q0 -102 -52.5 -155.5t-152.5 -53.5h-143q-31 0 -51.5 19.5t-20.5 46.5z" />
<glyph unicode="~" d="M130 528.5q-7 22.5 7 46.5q41 80 104.5 119t139.5 39q51 0 109.5 -19.5t140.5 -64.5q76 -39 123 -60.5t86 -21.5q45 0 83 21.5t70 73.5q16 25 39 29.5t42.5 -7.5t26.5 -34.5t-7 -49.5q-43 -78 -105.5 -117t-138.5 -39q-53 0 -113.5 20.5t-144.5 65.5q-82 47 -126 62.5 t-77 15.5q-45 0 -83 -19.5t-70 -72.5q-14 -27 -38 -31t-42.5 8.5t-25.5 35z" />
<glyph unicode="&#xa1;" horiz-adv-x="466" d="M123 891q0 51 30.5 82t82.5 31q51 0 80.5 -31t29.5 -82q0 -47 -29.5 -80t-80.5 -33t-82 33t-31 80zM137 -274l41 843q2 33 17.5 48.5t40.5 15.5t39 -15.5t16 -48.5l39 -843q2 -49 -22.5 -79t-71.5 -30q-49 0 -75 29.5t-24 79.5z" />
<glyph unicode="&#xa2;" d="M186 500q0 102 30 189t86 153.5t134 108.5t174 53l-28 -54v234q0 31 20.5 51t48.5 20q31 0 50.5 -20.5t19.5 -50.5v-228l-39 52q82 0 165 -25t144 -72q20 -14 27.5 -34.5t1.5 -41t-20.5 -34t-36 -14.5t-48.5 16q-49 35 -108 52t-121 17q-76 0 -137.5 -26.5t-104.5 -75.5 t-65.5 -117.5t-22.5 -152.5q0 -170 88 -272.5t240 -102.5q61 0 119.5 16.5t114.5 53.5q29 16 50 15t34.5 -15.5t17.5 -35t-4 -41t-29 -34.5q-59 -45 -143 -71.5t-166 -26.5l43 41v-205q0 -31 -19.5 -51.5t-50.5 -20.5q-29 0 -49 20.5t-20 51.5v211l28 -45q-125 14 -221 81.5 t-149.5 178t-53.5 252.5z" />
<glyph unicode="&#xa3;" d="M84 74q0 31 21.5 50t50.5 19h174l-31 -30v583l31 -34h-180q-27 0 -46.5 18t-19.5 43q0 29 19.5 46t46.5 17h180l-31 -32v290q0 131 49 224.5t147.5 143.5t245.5 50q104 0 209 -34.5t174 -96.5q25 -18 31 -41.5t-2 -44t-25.5 -34t-40 -13.5t-47.5 16q-66 57 -140.5 81 t-160.5 24q-135 0 -203.5 -67.5t-68.5 -198.5v-295l-16 28h331q29 0 48.5 -17t19.5 -46q0 -25 -19.5 -43t-48.5 -18h-315v-519h606q31 0 51.5 -19.5t20.5 -49.5q0 -31 -20.5 -52.5t-51.5 -21.5h-917q-29 0 -50.5 21.5t-21.5 52.5z" />
<glyph unicode="&#xa4;" d="M84 22q0 27 18 46l121 122q-47 66 -74.5 146t-27.5 166q0 88 26.5 168t75.5 143l-121 125q-18 18 -18 43t18 45q18 18 44 18t47 -22l118 -121q61 51 139 80t164 29t162 -28t139 -77l113 117q20 23 48 24t46 -20q20 -18 20.5 -45t-22.5 -47l-116 -119q49 -66 76.5 -145.5 t27.5 -167.5t-27.5 -168t-79.5 -146l119 -120q20 -20 20.5 -46t-20.5 -45q-16 -16 -42.5 -16t-45.5 21l-117 118q-61 -49 -138 -77.5t-163 -28.5t-163.5 28.5t-141.5 77.5l-119 -120q-18 -18 -44 -19.5t-44 16.5t-18 45zM270 502q0 -100 46 -183t124 -132.5t174 -49.5 q94 0 172 49.5t123 132t45 183.5q0 100 -45 183t-122.5 133t-172.5 48q-94 0 -173 -49t-125 -132t-46 -183z" />
<glyph unicode="&#xa5;" d="M46 1396.5q3 26.5 22.5 44t50.5 17.5q29 0 48 -12t38 -41l432 -606h-43l430 606q18 29 38.5 41t49.5 12q33 0 52.5 -17.5t21.5 -44t-21 -55.5l-411 -575v29h272q33 0 51.5 -16.5t18.5 -45.5t-18.5 -45t-51.5 -16h-328v-191h328q33 0 51.5 -16t18.5 -45t-18.5 -45.5 t-51.5 -16.5h-328v-282q0 -90 -84 -90q-41 0 -62.5 23.5t-21.5 66.5v282h-327q-33 0 -51.5 16.5t-18.5 45.5t18.5 45t51.5 16h327v191h-327q-33 0 -51.5 16.5t-18.5 44.5q0 29 18.5 45.5t51.5 16.5h274v-29l-416 577q-18 27 -15 53.5z" />
<glyph unicode="&#xa6;" horiz-adv-x="542" d="M188 244q0 41 21.5 62.5t60.5 21.5q41 0 62.5 -21.5t21.5 -62.5v-543q0 -84 -84 -84q-39 0 -60.5 21.5t-21.5 62.5v543zM188 831v543q0 43 21.5 63.5t60.5 20.5q41 0 62.5 -20.5t21.5 -63.5v-543q0 -83 -84 -83q-39 0 -60.5 21.5t-21.5 61.5z" />
<glyph unicode="&#xa7;" horiz-adv-x="1116" d="M86 670q0 84 43 162.5t111 128.5l-15 -50q-23 29 -40 73t-17 110q0 117 56.5 197.5t154.5 124.5t221 44q104 0 196.5 -25.5t161.5 -74.5q20 -12 27.5 -33.5t2.5 -41t-19.5 -34t-34 -16.5t-43.5 12q-59 41 -138 63.5t-157 22.5q-76 0 -136.5 -26.5t-94 -77.5t-33.5 -125 q0 -76 40 -132.5t144 -105.5l225 -106q111 -51 173.5 -104.5t89 -114t26.5 -135.5q0 -86 -42 -164t-111 -127l14 47q23 -27 40 -72t17 -110q0 -113 -57 -196t-156.5 -127t-226.5 -44q-111 0 -206 25.5t-163 74.5q-20 12 -26.5 31.5t-2 40t18.5 35t33.5 16.5t44.5 -10 q61 -41 142 -62.5t161 -21.5q82 0 143.5 25.5t96 78t34.5 123.5q0 78 -39.5 134.5t-144.5 105.5l-225 104q-109 53 -172.5 105.5t-90 114t-26.5 137.5zM238 692q0 -74 47 -132t170 -118l192 -90q76 -35 125 -73.5t78 -75.5l-51 -2q41 35 60.5 82t19.5 100q0 74 -45.5 132 t-171.5 116l-193 92q-74 35 -124 73t-77 74l49 4q-39 -35 -59 -82t-20 -100z" />
<glyph unicode="&#xa8;" horiz-adv-x="956" d="M205 1335q0 45 25.5 71t70.5 26q47 0 71.5 -26t24.5 -71t-24.5 -69.5t-71.5 -24.5q-45 0 -70.5 24.5t-25.5 69.5zM561 1335q0 45 25.5 71t72.5 26q45 0 69.5 -26t24.5 -71t-24.5 -69.5t-69.5 -24.5q-47 0 -72.5 24.5t-25.5 69.5z" />
<glyph unicode="&#xa9;" horiz-adv-x="1669" d="M94 723q0 158 56.5 292t158 234.5t235.5 156.5t292 56t292 -56t234 -156.5t156.5 -234.5t56.5 -292q0 -156 -56.5 -291t-156.5 -236.5t-234 -157.5t-292 -56q-156 0 -291 56t-236.5 157.5t-158 236.5t-56.5 291zM188 723q0 -139 49.5 -257t136.5 -207t205 -138t257 -49 q137 0 254.5 49t204.5 138t136.5 207t49.5 257t-49.5 257t-136.5 206t-204.5 137t-254.5 49q-139 0 -257 -49t-205 -137t-136.5 -206t-49.5 -257zM436 729q0 201 114 317.5t312 116.5q70 0 139.5 -22.5t124.5 -63.5q18 -12 24.5 -30.5t2.5 -36t-16.5 -29.5t-31 -14t-40.5 12 q-49 33 -98 47t-97 14q-135 0 -210.5 -81.5t-75.5 -231.5t75.5 -237t210.5 -87q47 0 96.5 14.5t100.5 49.5q27 16 48.5 9t31.5 -26.5t6 -43t-27 -37.5q-55 -43 -125.5 -65.5t-138.5 -22.5q-199 0 -312.5 122.5t-113.5 325.5z" />
<glyph unicode="&#xaa;" horiz-adv-x="669" d="M55 1026q0 94 85 135t233 41h123v-74h-119q-104 0 -154.5 -24.5t-50.5 -75.5q0 -41 32 -70.5t101 -29.5q51 0 90 22.5t61.5 65.5t22.5 102v117q0 68 -36.5 101.5t-110.5 33.5q-41 0 -84 -9t-88 -28q-27 -10 -43.5 -2t-22.5 25.5t2 35t31 27.5q51 25 104.5 34t104.5 9 q88 0 144.5 -25.5t85 -76.5t28.5 -129v-332q0 -57 -55 -57q-27 0 -41.5 16t-14.5 41v64h-4q-35 -63 -81.5 -92t-118.5 -29q-96 0 -160 53t-64 131z" />
<glyph unicode="&#xab;" horiz-adv-x="903" d="M117 543.5q0 27.5 16 56.5l166 277q14 25 36.5 31.5t45.5 -3.5q29 -12 37 -38.5t-6 -57.5l-133 -266l133 -264q14 -31 7 -59t-36 -38q-23 -10 -46.5 -3t-35.5 30l-168 278q-16 29 -16 56.5zM488 543.5q0 27.5 16 56.5l166 277q14 25 36.5 31.5t45.5 -3.5q29 -12 37 -38.5 t-6 -57.5l-133 -266l133 -264q14 -31 7 -59t-36 -38q-23 -10 -46.5 -3t-35.5 30l-168 278q-16 29 -16 56.5z" />
<glyph unicode="&#xac;" d="M100 797q0 31 17.5 47t48.5 16h881q33 0 50 -17.5t17 -49.5v-435q1 -67 -65 -67q-33 0 -49.5 18.5t-16.5 48.5v375h-817q-31 0 -48.5 16.5t-17.5 47.5z" />
<glyph unicode="&#xad;" horiz-adv-x="868" d="M133 545q0 31 20.5 50t51.5 19h461q29 0 49 -19.5t20 -49.5q0 -29 -20.5 -48.5t-48.5 -19.5h-461q-31 0 -51.5 19.5t-20.5 48.5z" />
<glyph unicode="&#xae;" horiz-adv-x="1669" d="M94 723q0 158 56.5 292t158 234.5t235.5 156.5t292 56t292 -56t234 -156.5t156.5 -234.5t56.5 -292q0 -156 -56.5 -291t-156.5 -236.5t-234 -157.5t-292 -56q-156 0 -291 56t-236.5 157.5t-158 236.5t-56.5 291zM188 723q0 -139 49.5 -257t136.5 -207t205 -138t257 -49 q137 0 254.5 49t204.5 138t136.5 207t49.5 257t-49.5 257t-136.5 206t-204.5 137t-254.5 49q-139 0 -257 -49t-205 -137t-136.5 -206t-49.5 -257zM541 350v723q0 39 20.5 60.5t61.5 21.5h268q139 0 214 -66.5t75 -183.5q0 -119 -75 -181t-210 -62l25 20q61 0 102 -25.5 t68 -99.5l71 -188q16 -43 -4 -66.5t-57 -23.5q-25 0 -41.5 15t-22.5 38l-86 225q-18 51 -56 68.5t-91 17.5h-154l27 21v-314q0 -71 -68 -71t-67 71zM676 754h198q86 0 129.5 34.5t43.5 110.5t-42 110.5t-131 34.5h-198v-290z" />
<glyph unicode="&#xaf;" horiz-adv-x="1026" d="M205 1335q0 29 15.5 43.5t43.5 14.5h496q61 0 61 -58q0 -25 -15 -40t-46 -15h-496q-59 0 -59 55z" />
<glyph unicode="&#xb0;" horiz-adv-x="759" d="M76 1159q0 86 40 154.5t108.5 108.5t156.5 40q86 0 153.5 -39t107.5 -107.5t40 -156.5q0 -86 -40 -154.5t-107.5 -108.5t-153.5 -40q-88 0 -156.5 41t-108.5 108.5t-40 153.5zM197 1159q0 -82 52 -136t132 -54q82 0 132 54t50 136q0 84 -50 137.5t-132 53.5 q-80 0 -132 -53.5t-52 -137.5z" />
<glyph unicode="&#xb1;" d="M100 63q0 31 17.5 47.5t48.5 16.5h897q31 0 48 -16.5t17 -47.5t-17 -47t-48 -16h-897q-31 0 -48.5 17.5t-17.5 45.5zM100 674q0 29 17.5 45t50.5 16h381v295q0 33 16.5 50.5t48.5 17.5q33 0 49.5 -17.5t16.5 -50.5v-295h383q31 0 48 -16.5t17 -44.5q0 -33 -17 -49.5 t-48 -16.5h-383v-293q0 -33 -16.5 -51t-49.5 -18t-49 18.5t-16 50.5v293h-381q-33 0 -50.5 17.5t-17.5 48.5z" />
<glyph unicode="&#xb2;" horiz-adv-x="778" d="M83 1327.5q5 24.5 30 43.5q53 39 124.5 60t141.5 21q82 0 142.5 -29.5t93 -82.5t32.5 -127q0 -70 -32.5 -135.5t-104.5 -141.5l-240 -256v19h365q63 0 63 -60q0 -29 -16 -45t-47 -16h-461q-31 0 -49.5 16.5t-18.5 42.5q0 25 10.5 42.5t26.5 35.5l244 264q59 63 85 114.5 t26 105.5q0 63 -37 98t-107 35q-45 0 -92 -15.5t-88 -46.5q-27 -16 -49.5 -11t-34.5 24.5t-7 44z" />
<glyph unicode="&#xb3;" horiz-adv-x="778" d="M79 693.5q-5 23.5 6 44t34.5 25.5t52.5 -13q45 -31 95 -45t104 -14q72 0 120 33.5t48 105.5q0 68 -48.5 96.5t-128.5 28.5h-102q-33 0 -49 16.5t-16 44.5q0 29 16 44.5t49 15.5h80q80 0 127 32.5t47 100.5q0 57 -40 90t-114 33q-43 0 -91 -14.5t-89 -43.5 q-31 -18 -54.5 -13t-35.5 24.5t-7 43t30 42.5q55 39 125.5 60t142.5 21q125 0 198.5 -61t73.5 -162q0 -86 -50 -141t-120 -74v17q88 -12 141.5 -67.5t53.5 -147.5q0 -78 -39 -133.5t-105.5 -84t-150.5 -28.5q-80 0 -150.5 21.5t-121.5 60.5q-27 18 -32 41.5z" />
<glyph unicode="&#xb4;" horiz-adv-x="729" d="M207 1148.5q-8 18.5 4 43.5l172 334q14 29 37 37t46.5 3t40 -21.5t19.5 -39t-14 -47.5l-204 -319q-14 -20 -35 -23.5t-39.5 5.5t-26.5 27.5z" />
<glyph unicode="&#xb5;" d="M195 -299v1225q0 43 20.5 63.5t60.5 20.5q39 0 61.5 -20.5t22.5 -63.5v-545q0 -133 53.5 -195.5t170.5 -62.5q129 0 208.5 84t79.5 225v494q0 43 21.5 63.5t60.5 20.5q41 0 62.5 -20.5t21.5 -63.5v-854q0 -86 -80 -86q-39 0 -60 21.5t-21 53.5v168h16q-33 -121 -118 -184 t-193 -63q-90 0 -158 32.5t-105 122.5h27l10 -434q2 -41 -18.5 -63.5t-61.5 -22.5t-61 21.5t-20 62.5z" />
<glyph unicode="&#xb6;" horiz-adv-x="1204" d="M92 1040q0 117 50.5 209t142.5 143.5t217 51.5h438q41 0 63.5 -21.5t22.5 -62.5v-1675q0 -68 -65 -68q-33 0 -50.5 18.5t-17.5 49.5v1632h-260v-1632q0 -68 -68 -68q-33 0 -49 18.5t-16 49.5v950q-123 0 -215 52t-142.5 143.5t-50.5 209.5z" />
<glyph unicode="&#xb7;" horiz-adv-x="466" d="M123 545q0 49 30.5 80.5t82.5 31.5q51 0 80.5 -31.5t29.5 -80.5t-29.5 -81t-80.5 -32t-82 32t-31 81z" />
<glyph unicode="&#xb8;" horiz-adv-x="823" d="M207 -305.5q6 18.5 22.5 28t40.5 -1.5q25 -10 52.5 -14t62.5 -4q53 0 86 19.5t33 56.5q0 27 -18.5 42t-59.5 15q-16 0 -31.5 -2t-36.5 -6q-18 -6 -28 -6t-21 6q-8 8 -9 19.5t1 31.5l25 162h104l-27 -154l-49 13q25 6 48.5 10t43.5 4q74 0 123.5 -37t49.5 -102 q0 -76 -64 -122t-166 -46q-37 0 -77 5t-72 19q-23 8 -31 26.5t-2 37z" />
<glyph unicode="&#xb9;" horiz-adv-x="778" d="M166 1276.5q6 24.5 35 42.5l166 103q20 14 38.5 21t40.5 7q20 0 34 -8t22 -23.5t8 -35.5v-684h106q63 0 64 -60q0 -29 -16.5 -45t-47.5 -16h-383q-63 0 -63 61q0 27 15.5 43.5t47.5 16.5h138v622h63l-170 -106q-33 -18 -56.5 -11t-35.5 27.5t-6 45z" />
<glyph unicode="&#xba;" horiz-adv-x="694" d="M47 1153q0 94 39 163.5t106.5 107.5t155.5 38q86 0 153.5 -38t106.5 -107.5t39 -163.5t-39 -163.5t-106.5 -108.5t-153.5 -39q-88 0 -155.5 39t-106.5 108.5t-39 163.5zM166 1153q0 -106 49 -161.5t133 -55.5q82 0 131 56.5t49 160.5t-49 159.5t-131 55.5q-84 0 -133 -54 t-49 -161z" />
<glyph unicode="&#xbb;" horiz-adv-x="903" d="M113.5 220q-7.5 28 7.5 59l133 264l-133 266q-12 31 -4 57.5t35 38.5q25 10 47 3t37 -31l163 -277q18 -29 18.5 -56.5t-18.5 -56.5l-168 -278q-12 -23 -35 -30t-46 3q-29 10 -36.5 38zM484.5 220q-7.5 28 7.5 59l133 264l-133 266q-12 31 -4 57.5t35 38.5q25 10 47 3 t37 -31l163 -277q18 -29 18.5 -56.5t-18.5 -56.5l-168 -278q-12 -23 -35 -30t-46 3q-29 10 -36.5 38z" />
<glyph unicode="&#xbc;" horiz-adv-x="1828" d="M166 1276.5q6 24.5 35 42.5l166 103q20 14 38.5 21t40.5 7q20 0 34 -8t22 -23.5t8 -35.5v-684h106q63 0 64 -60q0 -29 -16.5 -45t-47.5 -16h-383q-63 0 -63 61q0 27 15.5 43.5t47.5 16.5h138v622h63l-170 -106q-33 -18 -56.5 -11t-35.5 27.5t-6 45zM500 21.5 q-3 21.5 12 46.5l794 1374q14 25 34.5 33t39 3t33 -19.5t16.5 -35t-12 -47.5l-795 -1374q-14 -25 -33.5 -33t-39 -3t-33 19.5t-16.5 36zM1119 233q0 20 9 40t25 42l349 508q10 16 30.5 32.5t53.5 16.5q35 0 52 -18t17 -55v-508h74q27 0 43 -14.5t16 -45.5q0 -33 -16 -47 t-43 -14h-74v-111q0 -31 -17 -48t-50 -17t-51.5 17.5t-18.5 47.5v111h-330q-33 0 -51 18.5t-18 44.5zM1239 256v35h279v418h33z" />
<glyph unicode="&#xbd;" horiz-adv-x="1918" d="M166 1276.5q6 24.5 35 42.5l166 103q20 14 38.5 21t40.5 7q20 0 34 -8t22 -23.5t8 -35.5v-684h106q63 0 64 -60q0 -29 -16.5 -45t-47.5 -16h-383q-63 0 -63 61q0 27 15.5 43.5t47.5 16.5h138v622h63l-170 -106q-33 -18 -56.5 -11t-35.5 27.5t-6 45zM500 21.5 q-3 21.5 12 46.5l794 1374q14 25 34.5 33t39 3t33 -19.5t16.5 -35t-12 -47.5l-795 -1374q-14 -25 -33.5 -33t-39 -3t-33 19.5t-16.5 36zM1224 749.5q5 24.5 30 43.5q53 39 124.5 60t141.5 21q82 0 142.5 -29.5t93 -82.5t32.5 -127q0 -70 -32.5 -135.5t-104.5 -141.5 l-240 -256v19h365q63 0 63 -60q0 -29 -16 -45t-47 -16h-461q-31 0 -49.5 16.5t-18.5 42.5q0 25 10.5 42.5t26.5 35.5l244 264q59 63 85 114.5t26 105.5q0 63 -37 98t-107 35q-45 0 -92 -15.5t-88 -46.5q-27 -16 -49.5 -11t-34.5 24.5t-7 44z" />
<glyph unicode="&#xbe;" horiz-adv-x="1828" d="M79 693.5q-5 23.5 6 44t34.5 25.5t52.5 -13q45 -31 95 -45t104 -14q72 0 120 33.5t48 105.5q0 68 -48.5 96.5t-128.5 28.5h-102q-33 0 -49 16.5t-16 44.5q0 29 16 44.5t49 15.5h80q80 0 127 32.5t47 100.5q0 57 -40 90t-114 33q-43 0 -91 -14.5t-89 -43.5 q-31 -18 -54.5 -13t-35.5 24.5t-7 43t30 42.5q55 39 125.5 60t142.5 21q125 0 198.5 -61t73.5 -162q0 -86 -50 -141t-120 -74v17q88 -12 141.5 -67.5t53.5 -147.5q0 -78 -39 -133.5t-105.5 -84t-150.5 -28.5q-80 0 -150.5 21.5t-121.5 60.5q-27 18 -32 41.5zM500 21.5 q-3 21.5 12 46.5l794 1374q14 25 34.5 33t39 3t33 -19.5t16.5 -35t-12 -47.5l-795 -1374q-14 -25 -33.5 -33t-39 -3t-33 19.5t-16.5 36zM1119 233q0 20 9 40t25 42l349 508q10 16 30.5 32.5t53.5 16.5q35 0 52 -18t17 -55v-508h74q27 0 43 -14.5t16 -45.5q0 -33 -16 -47 t-43 -14h-74v-111q0 -31 -17 -48t-50 -17t-51.5 17.5t-18.5 47.5v111h-330q-33 0 -51 18.5t-18 44.5zM1239 256v35h279v418h33z" />
<glyph unicode="&#xbf;" horiz-adv-x="907" d="M49 -82q0 88 40 166t149 180q66 61 103.5 111.5t57 98.5t25.5 101q2 25 16.5 39.5t38.5 14.5q27 0 41.5 -16.5t14.5 -47.5q0 -63 -15.5 -120.5t-53.5 -117t-106 -128.5q-82 -82 -111.5 -140.5t-29.5 -117.5q0 -82 61.5 -130.5t170.5 -48.5q94 0 176 26t155 81 q31 20 56.5 20t43 -15t21.5 -37.5t-7 -47.5t-40 -45q-80 -57 -185.5 -94t-228.5 -37q-117 0 -204.5 38t-138 107.5t-50.5 159.5zM369 891q0 49 31.5 81t80.5 32q53 0 83 -32t30 -81t-30 -81t-83 -32q-49 0 -80.5 32t-31.5 81z" />
<glyph unicode="&#xc0;" horiz-adv-x="1492" d="M73 42q-3 26 11 58l563 1282q18 41 44 58.5t57 17.5t56 -17.5t42 -58.5l565 -1282q16 -33 13 -59.5t-21.5 -40.5t-50.5 -14q-37 0 -59.5 19.5t-37.5 55.5l-151 351l82 -43h-881l84 43l-149 -351q-18 -39 -39 -57t-54 -18t-52 15t-22 41zM367 510h757l-45 -39l-329 776h-5 l-329 -776zM448 1871q1 21 15.5 37.5t36 23.5t45 1t39.5 -32l182 -265q14 -23 9 -41t-21 -29.5t-37 -10t-39 19.5l-213 252q-18 23 -17 44z" />
<glyph unicode="&#xc1;" horiz-adv-x="1492" d="M73 42q-3 26 11 58l563 1282q18 41 44 58.5t57 17.5t56 -17.5t42 -58.5l565 -1282q16 -33 13 -59.5t-21.5 -40.5t-50.5 -14q-37 0 -59.5 19.5t-37.5 55.5l-151 351l82 -43h-881l84 43l-149 -351q-18 -39 -39 -57t-54 -18t-52 15t-22 41zM367 510h757l-45 -39l-329 776h-5 l-329 -776zM724.5 1595.5q-5.5 18.5 9.5 40.5l182 265q18 27 40.5 32.5t45 -1.5t36 -23.5t14.5 -38t-17 -43.5l-213 -252q-16 -18 -38 -19.5t-38 10t-21.5 30z" />
<glyph unicode="&#xc2;" horiz-adv-x="1492" d="M73 42q-3 26 11 58l563 1282q18 41 44 58.5t57 17.5t56 -17.5t42 -58.5l565 -1282q16 -33 13 -59.5t-21.5 -40.5t-50.5 -14q-37 0 -59.5 19.5t-37.5 55.5l-151 351l82 -43h-881l84 43l-149 -351q-18 -39 -39 -57t-54 -18t-52 15t-22 41zM367 510h757l-45 -39l-329 776h-5 l-329 -776zM455 1589.5q-4 18.5 10 38.5l181 252q20 31 46.5 44t57.5 13q33 0 58.5 -13t47.5 -44l179 -252q16 -20 12 -38.5t-21.5 -29t-39 -8.5t-37.5 21l-199 237l-197 -237q-18 -18 -39.5 -20.5t-38 8t-20.5 29z" />
<glyph unicode="&#xc3;" horiz-adv-x="1492" d="M73 42q-3 26 11 58l563 1282q18 41 44 58.5t57 17.5t56 -17.5t42 -58.5l565 -1282q16 -33 13 -59.5t-21.5 -40.5t-50.5 -14q-37 0 -59.5 19.5t-37.5 55.5l-151 351l82 -43h-881l84 43l-149 -351q-18 -39 -39 -57t-54 -18t-52 15t-22 41zM328 1655q20 109 85 168t155 59 q55 0 104 -23.5t95 -54t88 -54.5t83 -24q55 0 90 35t46 92q6 23 19 33t34 8q23 0 37 -15t8 -42q-20 -109 -83 -168t-155 -59q-55 0 -105 23.5t-95 53t-88 54t-84 24.5q-53 0 -89 -34.5t-47 -92.5q-6 -20 -19.5 -31.5t-33.5 -9.5q-23 0 -36 15.5t-9 42.5zM367 510h757 l-45 -39l-329 776h-5l-329 -776z" />
<glyph unicode="&#xc4;" horiz-adv-x="1492" d="M73 42q-3 26 11 58l563 1282q18 41 44 58.5t57 17.5t56 -17.5t42 -58.5l565 -1282q16 -33 13 -59.5t-21.5 -40.5t-50.5 -14q-37 0 -59.5 19.5t-37.5 55.5l-151 351l82 -43h-881l84 43l-149 -351q-18 -39 -39 -57t-54 -18t-52 15t-22 41zM367 510h757l-45 -39l-329 776h-5 l-329 -776zM476 1739q0 45 25.5 69.5t70.5 24.5q47 0 71.5 -24.5t24.5 -69.5q0 -47 -24.5 -72t-71.5 -25q-45 0 -70.5 25t-25.5 72zM832 1739q0 45 25.5 69.5t72.5 24.5q45 0 69.5 -24.5t24.5 -69.5q0 -47 -24.5 -72t-69.5 -25q-47 0 -72.5 25t-25.5 72z" />
<glyph unicode="&#xc5;" horiz-adv-x="1492" d="M73 42q-3 26 11 58l563 1282q18 41 44 58.5t57 17.5t56 -17.5t42 -58.5l565 -1282q16 -33 13 -59.5t-21.5 -40.5t-50.5 -14q-37 0 -59.5 19.5t-37.5 55.5l-151 351l82 -43h-881l84 43l-149 -351q-18 -39 -39 -57t-54 -18t-52 15t-22 41zM367 510h757l-45 -39l-329 776h-5 l-329 -776zM506 1790q0 68 33 120t88 83.5t123 31.5q70 0 124 -31.5t87 -83.5t33 -120q0 -66 -33 -120t-87 -86t-124 -32q-68 0 -123 32t-88 86t-33 120zM603 1790q0 -63 42 -106.5t105 -43.5q66 0 106.5 43t40.5 107q0 61 -40.5 104t-106.5 43q-63 0 -105 -43t-42 -104z " />
<glyph unicode="&#xc6;" horiz-adv-x="2009" d="M8 41q0 25 17 51l788 1301q16 27 38.5 39t53.5 12h938q37 0 56.5 -18.5t19.5 -51.5q0 -35 -19.5 -53t-56.5 -18h-860l35 59l129 -604l-60 45h715q37 0 56.5 -17.5t19.5 -52.5t-19.5 -53t-56.5 -18h-684l41 45l131 -623l-65 57h618q37 0 56.5 -18.5t19.5 -50.5 q0 -35 -19.5 -53.5t-56.5 -18.5h-618q-68 0 -84 68l-74 350l61 -49h-798l65 45l-221 -373q-16 -27 -36.5 -41t-51.5 -14q-37 0 -57.5 15t-20.5 40zM408 510h677l-28 -45l-166 780h-4l-461 -776z" />
<glyph unicode="&#xc7;" horiz-adv-x="1378" d="M125 723q0 172 46 308t133 231.5t214 147.5t285 52q127 0 241.5 -35.5t198.5 -105.5q27 -20 36 -46t2 -49.5t-24.5 -39t-42 -15.5t-55.5 21q-74 59 -162 88t-190 29q-162 0 -274.5 -69t-170 -200t-57.5 -317t57.5 -318.5t170 -201t274.5 -68.5q100 0 190 30t166 89 q31 20 55.5 19t41 -15t23.5 -36.5t0 -47t-32 -43.5q-86 -74 -201.5 -111.5t-246.5 -37.5q-213 0 -364.5 90t-232.5 256t-81 395zM612 -305.5q6 18.5 22.5 28t40.5 -1.5q25 -10 52.5 -14t62.5 -4q53 0 86 19.5t33 56.5q0 27 -18.5 42t-59.5 15q-16 0 -31.5 -2t-36.5 -6 q-18 -6 -28 -6t-21 6q-8 8 -9 19.5t1 31.5l25 162h104l-27 -154l-49 13q25 6 48.5 10t43.5 4q74 0 123.5 -37t49.5 -102q0 -76 -64 -122t-166 -46q-37 0 -77 5t-72 19q-23 8 -31 26.5t-2 37z" />
<glyph unicode="&#xc8;" horiz-adv-x="1193" d="M178 92v1260q0 45 23.5 68.5t68.5 23.5h762q35 0 53.5 -18.5t18.5 -51.5q0 -35 -18.5 -53t-53.5 -18h-690v-500h647q35 0 53.5 -17.5t18.5 -52.5t-18.5 -53t-53.5 -18h-647v-521h690q35 0 53.5 -18.5t18.5 -50.5q0 -35 -18.5 -53.5t-53.5 -18.5h-762q-45 0 -68.5 23.5 t-23.5 68.5zM362 1871q1 21 15.5 37.5t36 23.5t45 1t39.5 -32l182 -265q14 -23 9 -41t-21 -29.5t-37 -10t-39 19.5l-213 252q-18 23 -17 44z" />
<glyph unicode="&#xc9;" horiz-adv-x="1193" d="M178 92v1260q0 45 23.5 68.5t68.5 23.5h762q35 0 53.5 -18.5t18.5 -51.5q0 -35 -18.5 -53t-53.5 -18h-690v-500h647q35 0 53.5 -17.5t18.5 -52.5t-18.5 -53t-53.5 -18h-647v-521h690q35 0 53.5 -18.5t18.5 -50.5q0 -35 -18.5 -53.5t-53.5 -18.5h-762q-45 0 -68.5 23.5 t-23.5 68.5zM638.5 1595.5q-5.5 18.5 9.5 40.5l182 265q18 27 40.5 32.5t45 -1.5t36 -23.5t14.5 -38t-17 -43.5l-213 -252q-16 -18 -38 -19.5t-38 10t-21.5 30z" />
<glyph unicode="&#xca;" horiz-adv-x="1193" d="M178 92v1260q0 45 23.5 68.5t68.5 23.5h762q35 0 53.5 -18.5t18.5 -51.5q0 -35 -18.5 -53t-53.5 -18h-690v-500h647q35 0 53.5 -17.5t18.5 -52.5t-18.5 -53t-53.5 -18h-647v-521h690q35 0 53.5 -18.5t18.5 -50.5q0 -35 -18.5 -53.5t-53.5 -18.5h-762q-45 0 -68.5 23.5 t-23.5 68.5zM369 1589.5q-4 18.5 10 38.5l181 252q20 31 46.5 44t57.5 13q33 0 58.5 -13t47.5 -44l179 -252q16 -20 12 -38.5t-21.5 -29t-39 -8.5t-37.5 21l-199 237l-197 -237q-18 -18 -39.5 -20.5t-38 8t-20.5 29z" />
<glyph unicode="&#xcb;" horiz-adv-x="1193" d="M178 92v1260q0 45 23.5 68.5t68.5 23.5h762q35 0 53.5 -18.5t18.5 -51.5q0 -35 -18.5 -53t-53.5 -18h-690v-500h647q35 0 53.5 -17.5t18.5 -52.5t-18.5 -53t-53.5 -18h-647v-521h690q35 0 53.5 -18.5t18.5 -50.5q0 -35 -18.5 -53.5t-53.5 -18.5h-762q-45 0 -68.5 23.5 t-23.5 68.5zM390 1739q0 45 25.5 69.5t70.5 24.5q47 0 71.5 -24.5t24.5 -69.5q0 -47 -24.5 -72t-71.5 -25q-45 0 -70.5 25t-25.5 72zM746 1739q0 45 25.5 69.5t72.5 24.5q45 0 69.5 -24.5t24.5 -69.5q0 -47 -24.5 -72t-69.5 -25q-47 0 -72.5 25t-25.5 72z" />
<glyph unicode="&#xcc;" horiz-adv-x="526" d="M-40 1871q1 21 15.5 37.5t36 23.5t45 1t39.5 -32l182 -265q14 -23 9 -41t-21 -29.5t-37 -10t-39 19.5l-213 252q-18 23 -17 44zM178 74v1296q0 43 21.5 65.5t62.5 22.5t62.5 -22.5t21.5 -65.5v-1296q0 -41 -20.5 -64.5t-63.5 -23.5q-41 0 -62.5 23.5t-21.5 64.5z" />
<glyph unicode="&#xcd;" horiz-adv-x="526" d="M178 74v1296q0 43 21.5 65.5t62.5 22.5t62.5 -22.5t21.5 -65.5v-1296q0 -41 -20.5 -64.5t-63.5 -23.5q-41 0 -62.5 23.5t-21.5 64.5zM236.5 1595.5q-5.5 18.5 9.5 40.5l182 265q18 27 40.5 32.5t45 -1.5t36 -23.5t14.5 -38t-17 -43.5l-213 -252q-16 -18 -38 -19.5t-38 10 t-21.5 30z" />
<glyph unicode="&#xce;" horiz-adv-x="526" d="M-33 1589.5q-4 18.5 10 38.5l181 252q20 31 46.5 44t57.5 13q33 0 58.5 -13t47.5 -44l179 -252q16 -20 12 -38.5t-21.5 -29t-39 -8.5t-37.5 21l-199 237l-197 -237q-18 -18 -39.5 -20.5t-38 8t-20.5 29zM178 74v1296q0 43 21.5 65.5t62.5 22.5t62.5 -22.5t21.5 -65.5 v-1296q0 -41 -20.5 -64.5t-63.5 -23.5q-41 0 -62.5 23.5t-21.5 64.5z" />
<glyph unicode="&#xcf;" horiz-adv-x="526" d="M-12 1739q0 45 25.5 69.5t70.5 24.5q47 0 71.5 -24.5t24.5 -69.5q0 -47 -24.5 -72t-71.5 -25q-45 0 -70.5 25t-25.5 72zM178 74v1296q0 43 21.5 65.5t62.5 22.5t62.5 -22.5t21.5 -65.5v-1296q0 -41 -20.5 -64.5t-63.5 -23.5q-41 0 -62.5 23.5t-21.5 64.5zM344 1739 q0 45 25.5 69.5t72.5 24.5q45 0 69.5 -24.5t24.5 -69.5q0 -47 -24.5 -72t-69.5 -25q-47 0 -72.5 25t-25.5 72z" />
<glyph unicode="&#xd0;" horiz-adv-x="1519" d="M-16 733q0 31 17.5 48.5t49.5 17.5h646q33 0 50 -16.5t17 -49.5q0 -31 -17.5 -48t-49.5 -17h-646q-33 0 -50 17t-17 48zM178 92v1260q0 45 23.5 68.5t68.5 23.5h396q350 0 540.5 -184.5t190.5 -536.5q0 -176 -48.5 -310t-142.5 -226.5t-229 -139.5t-311 -47h-396 q-45 0 -68.5 23.5t-23.5 68.5zM346 143h307q143 0 249 37t176.5 108.5t105.5 181.5t35 253q0 289 -141.5 433t-424.5 144h-307v-1157z" />
<glyph unicode="&#xd1;" horiz-adv-x="1515" d="M178 70v1302q0 41 20.5 63.5t53.5 22.5t48 -11t36 -40l893 -1190h-49v1159q0 39 20.5 60.5t59.5 21.5q37 0 56 -21.5t19 -60.5v-1308q0 -39 -17.5 -60.5t-49.5 -21.5q-31 0 -49.5 12t-38.5 39l-891 1190h47v-1157q0 -41 -20.5 -62.5t-57.5 -21.5q-39 0 -59.5 21.5 t-20.5 62.5zM336 1655q20 109 85 168t155 59q55 0 104 -23.5t95 -54t88 -54.5t83 -24q55 0 90 35t46 92q6 23 19 33t34 8q23 0 37 -15t8 -42q-20 -109 -83 -168t-155 -59q-55 0 -105 23.5t-95 53t-88 54t-84 24.5q-53 0 -89 -34.5t-47 -92.5q-6 -20 -19.5 -31.5t-33.5 -9.5 q-23 0 -36 15.5t-9 42.5z" />
<glyph unicode="&#xd2;" horiz-adv-x="1570" d="M125 723q0 172 46 308t132 231.5t208 147.5t273 52q205 0 353.5 -90t229.5 -255t81 -392q0 -172 -47 -309t-133 -233.5t-208 -148.5t-276 -52q-201 0 -349 91t-229 257t-81 393zM303 723q0 -279 127 -435.5t354 -156.5q156 0 263.5 69.5t165 203t57.5 319.5 q0 281 -126 435.5t-360 154.5q-152 0 -259 -69.5t-164.5 -202t-57.5 -318.5zM482 1871q1 21 15.5 37.5t36 23.5t45 1t39.5 -32l182 -265q14 -23 9 -41t-21 -29.5t-37 -10t-39 19.5l-213 252q-18 23 -17 44z" />
<glyph unicode="&#xd3;" horiz-adv-x="1570" d="M125 723q0 172 46 308t132 231.5t208 147.5t273 52q205 0 353.5 -90t229.5 -255t81 -392q0 -172 -47 -309t-133 -233.5t-208 -148.5t-276 -52q-201 0 -349 91t-229 257t-81 393zM303 723q0 -279 127 -435.5t354 -156.5q156 0 263.5 69.5t165 203t57.5 319.5 q0 281 -126 435.5t-360 154.5q-152 0 -259 -69.5t-164.5 -202t-57.5 -318.5zM758.5 1595.5q-5.5 18.5 9.5 40.5l182 265q18 27 40.5 32.5t45 -1.5t36 -23.5t14.5 -38t-17 -43.5l-213 -252q-16 -18 -38 -19.5t-38 10t-21.5 30z" />
<glyph unicode="&#xd4;" horiz-adv-x="1570" d="M125 723q0 172 46 308t132 231.5t208 147.5t273 52q205 0 353.5 -90t229.5 -255t81 -392q0 -172 -47 -309t-133 -233.5t-208 -148.5t-276 -52q-201 0 -349 91t-229 257t-81 393zM303 723q0 -279 127 -435.5t354 -156.5q156 0 263.5 69.5t165 203t57.5 319.5 q0 281 -126 435.5t-360 154.5q-152 0 -259 -69.5t-164.5 -202t-57.5 -318.5zM489 1589.5q-4 18.5 10 38.5l181 252q20 31 46.5 44t57.5 13q33 0 58.5 -13t47.5 -44l179 -252q16 -20 12 -38.5t-21.5 -29t-39 -8.5t-37.5 21l-199 237l-197 -237q-18 -18 -39.5 -20.5t-38 8 t-20.5 29z" />
<glyph unicode="&#xd5;" horiz-adv-x="1570" d="M125 723q0 172 46 308t132 231.5t208 147.5t273 52q205 0 353.5 -90t229.5 -255t81 -392q0 -172 -47 -309t-133 -233.5t-208 -148.5t-276 -52q-201 0 -349 91t-229 257t-81 393zM303 723q0 -279 127 -435.5t354 -156.5q156 0 263.5 69.5t165 203t57.5 319.5 q0 281 -126 435.5t-360 154.5q-152 0 -259 -69.5t-164.5 -202t-57.5 -318.5zM362 1655q20 109 85 168t155 59q55 0 104 -23.5t95 -54t88 -54.5t83 -24q55 0 90 35t46 92q6 23 19 33t34 8q23 0 37 -15t8 -42q-20 -109 -83 -168t-155 -59q-55 0 -105 23.5t-95 53t-88 54 t-84 24.5q-53 0 -89 -34.5t-47 -92.5q-6 -20 -19.5 -31.5t-33.5 -9.5q-23 0 -36 15.5t-9 42.5z" />
<glyph unicode="&#xd6;" horiz-adv-x="1570" d="M125 723q0 172 46 308t132 231.5t208 147.5t273 52q205 0 353.5 -90t229.5 -255t81 -392q0 -172 -47 -309t-133 -233.5t-208 -148.5t-276 -52q-201 0 -349 91t-229 257t-81 393zM303 723q0 -279 127 -435.5t354 -156.5q156 0 263.5 69.5t165 203t57.5 319.5 q0 281 -126 435.5t-360 154.5q-152 0 -259 -69.5t-164.5 -202t-57.5 -318.5zM510 1739q0 45 25.5 69.5t70.5 24.5q47 0 71.5 -24.5t24.5 -69.5q0 -47 -24.5 -72t-71.5 -25q-45 0 -70.5 25t-25.5 72zM866 1739q0 45 25.5 69.5t72.5 24.5q45 0 69.5 -24.5t24.5 -69.5 q0 -47 -24.5 -72t-69.5 -25q-47 0 -72.5 25t-25.5 72z" />
<glyph unicode="&#xd7;" d="M146.5 978.5q-3.5 20.5 7 38t28 28t38 7.5t38.5 -24l356 -354l355 354q25 25 50 23t43.5 -19.5t20.5 -43t-24 -50.5l-354 -356l350 -351q18 -18 21 -38.5t-7 -38t-26.5 -26.5t-37 -7t-40.5 22l-351 351l-350 -351q-25 -25 -50.5 -22.5t-42.5 20t-18 43t21 47.5l350 351 l-356 356q-18 20 -21.5 40.5z" />
<glyph unicode="&#xd8;" horiz-adv-x="1570" d="M125 723q0 172 46 308t132 231.5t208 147.5t273 52q205 0 353.5 -90t229.5 -255t81 -392q0 -172 -47 -309t-133 -233.5t-208 -148.5t-276 -52q-201 0 -349 91t-229 257t-81 393zM285 -27.5q-3 21.5 12 45.5l83 144l50 82l606 1036l39 72l84 145q14 25 33.5 31t41 1 t36 -19.5t17.5 -37t-14 -47.5l-84 -143l-49 -82l-604 -1036l-39 -70l-86 -147q-14 -25 -33.5 -31t-40 -1t-35 20.5t-17.5 37zM303 723q0 -279 127 -435.5t354 -156.5q156 0 263.5 69.5t165 203t57.5 319.5q0 281 -126 435.5t-360 154.5q-152 0 -259 -69.5t-164.5 -202 t-57.5 -318.5z" />
<glyph unicode="&#xd9;" horiz-adv-x="1490" d="M168 571v801q0 43 21.5 64.5t62.5 21.5t62.5 -21.5t21.5 -64.5v-792q0 -225 104.5 -337t307.5 -112t305 111.5t102 337.5v792q0 43 22.5 64.5t63.5 21.5q39 0 60.5 -21.5t21.5 -64.5v-801q0 -190 -64.5 -323t-193.5 -199.5t-317 -66.5q-143 0 -251 37.5t-181.5 112.5 t-110.5 185.5t-37 253.5zM446 1871q1 21 15.5 37.5t36 23.5t45 1t39.5 -32l182 -265q14 -23 9 -41t-21 -29.5t-37 -10t-39 19.5l-213 252q-18 23 -17 44z" />
<glyph unicode="&#xda;" horiz-adv-x="1490" d="M168 571v801q0 43 21.5 64.5t62.5 21.5t62.5 -21.5t21.5 -64.5v-792q0 -225 104.5 -337t307.5 -112t305 111.5t102 337.5v792q0 43 22.5 64.5t63.5 21.5q39 0 60.5 -21.5t21.5 -64.5v-801q0 -190 -64.5 -323t-193.5 -199.5t-317 -66.5q-143 0 -251 37.5t-181.5 112.5 t-110.5 185.5t-37 253.5zM722.5 1595.5q-5.5 18.5 9.5 40.5l182 265q18 27 40.5 32.5t45 -1.5t36 -23.5t14.5 -38t-17 -43.5l-213 -252q-16 -18 -38 -19.5t-38 10t-21.5 30z" />
<glyph unicode="&#xdb;" horiz-adv-x="1490" d="M168 571v801q0 43 21.5 64.5t62.5 21.5t62.5 -21.5t21.5 -64.5v-792q0 -225 104.5 -337t307.5 -112t305 111.5t102 337.5v792q0 43 22.5 64.5t63.5 21.5q39 0 60.5 -21.5t21.5 -64.5v-801q0 -190 -64.5 -323t-193.5 -199.5t-317 -66.5q-143 0 -251 37.5t-181.5 112.5 t-110.5 185.5t-37 253.5zM453 1589.5q-4 18.5 10 38.5l181 252q20 31 46.5 44t57.5 13q33 0 58.5 -13t47.5 -44l179 -252q16 -20 12 -38.5t-21.5 -29t-39 -8.5t-37.5 21l-199 237l-197 -237q-18 -18 -39.5 -20.5t-38 8t-20.5 29z" />
<glyph unicode="&#xdc;" horiz-adv-x="1490" d="M168 571v801q0 43 21.5 64.5t62.5 21.5t62.5 -21.5t21.5 -64.5v-792q0 -225 104.5 -337t307.5 -112t305 111.5t102 337.5v792q0 43 22.5 64.5t63.5 21.5q39 0 60.5 -21.5t21.5 -64.5v-801q0 -190 -64.5 -323t-193.5 -199.5t-317 -66.5q-143 0 -251 37.5t-181.5 112.5 t-110.5 185.5t-37 253.5zM474 1739q0 45 25.5 69.5t70.5 24.5q47 0 71.5 -24.5t24.5 -69.5q0 -47 -24.5 -72t-71.5 -25q-45 0 -70.5 25t-25.5 72zM830 1739q0 45 25.5 69.5t72.5 24.5q45 0 69.5 -24.5t24.5 -69.5q0 -47 -24.5 -72t-69.5 -25q-47 0 -72.5 25t-25.5 72z" />
<glyph unicode="&#xdd;" horiz-adv-x="1220" d="M32 1393.5q1 27.5 21.5 46t52.5 18.5q29 0 51.5 -13t41.5 -42l436 -602h-43l436 602q23 31 43.5 43t48.5 12q33 0 51.5 -17.5t19.5 -45t-20 -58.5l-512 -706l35 117v-672q0 -90 -84 -90q-41 0 -62.5 23.5t-21.5 66.5v672l37 -117l-514 708q-18 27 -17 54.5zM584.5 1595.5 q-5.5 18.5 9.5 40.5l182 265q18 27 40.5 32.5t45 -1.5t36 -23.5t14.5 -38t-17 -43.5l-213 -252q-16 -18 -38 -19.5t-38 10t-21.5 30z" />
<glyph unicode="&#xde;" horiz-adv-x="1298" d="M178 78v1288q0 43 22.5 65.5t63.5 22.5t61.5 -21.5t20.5 -58.5v-192h406q231 0 356 -113t125 -319q0 -207 -125 -321t-356 -114h-406v-237q0 -41 -20.5 -64.5t-63.5 -23.5q-41 0 -62.5 23.5t-21.5 64.5zM346 455h385q166 0 250 74.5t84 220.5q0 145 -84 218.5t-250 73.5 h-385v-587z" />
<glyph unicode="&#xdf;" horiz-adv-x="1259" d="M156 72v911q0 229 120.5 354t339.5 125q109 0 187 -31.5t119 -91t41 -139.5q0 -78 -35 -139.5t-121 -136.5q-47 -41 -73.5 -71t-37 -54.5t-10.5 -53.5q0 -53 47 -92t172 -78q158 -47 225.5 -117.5t67.5 -178.5q0 -88 -46 -155t-130 -104.5t-197 -37.5q-88 0 -178 25.5 t-160 74.5q-23 14 -30.5 34.5t-3.5 41t19 35t35.5 16.5t43.5 -12q68 -43 141.5 -62.5t134.5 -19.5q100 0 157.5 43t57.5 116q0 59 -49 99.5t-170 77.5q-164 51 -229.5 115.5t-65.5 162.5q0 43 14.5 83t49.5 84t96 95q63 55 89 99.5t26 95.5q0 68 -48 107.5t-137 39.5 q-143 0 -219.5 -86t-76.5 -243v-932q0 -41 -23 -63.5t-61 -22.5q-41 0 -61.5 22.5t-20.5 63.5z" />
<glyph unicode="&#xe0;" horiz-adv-x="1085" d="M111 287q0 111 56 174t186 90t356 27h92v-109h-90q-166 0 -261.5 -15.5t-133 -52t-37.5 -104.5q0 -84 58 -137.5t159 -53.5q82 0 144 39t98 106.5t36 156.5v233q0 127 -51 183.5t-168 56.5q-72 0 -143.5 -18.5t-151.5 -59.5q-29 -14 -49.5 -9t-32.5 21t-14 37.5t9 42 t36 33.5q90 45 178 65.5t168 20.5q129 0 213 -42t125 -127t41 -218v-555q0 -41 -19.5 -63.5t-56.5 -22.5q-39 0 -59.5 22.5t-20.5 63.5v159h19q-16 -78 -62.5 -133t-114 -85.5t-151.5 -30.5q-102 0 -183 39.5t-128 109.5t-47 156zM272.5 1505.5q3.5 22.5 20 39t39 21.5 t45 -3.5t37.5 -36.5l172 -334q12 -25 5 -43.5t-26.5 -27.5t-39.5 -5.5t-34 23.5l-206 319q-16 25 -12.5 47.5z" />
<glyph unicode="&#xe1;" horiz-adv-x="1085" d="M111 287q0 111 56 174t186 90t356 27h92v-109h-90q-166 0 -261.5 -15.5t-133 -52t-37.5 -104.5q0 -84 58 -137.5t159 -53.5q82 0 144 39t98 106.5t36 156.5v233q0 127 -51 183.5t-168 56.5q-72 0 -143.5 -18.5t-151.5 -59.5q-29 -14 -49.5 -9t-32.5 21t-14 37.5t9 42 t36 33.5q90 45 178 65.5t168 20.5q129 0 213 -42t125 -127t41 -218v-555q0 -41 -19.5 -63.5t-56.5 -22.5q-39 0 -59.5 22.5t-20.5 63.5v159h19q-16 -78 -62.5 -133t-114 -85.5t-151.5 -30.5q-102 0 -183 39.5t-128 109.5t-47 156zM524 1148.5q-8 18.5 4 43.5l172 334 q14 29 37 37t46.5 3t40 -21.5t19.5 -39t-14 -47.5l-204 -319q-14 -20 -35 -23.5t-39.5 5.5t-26.5 27.5z" />
<glyph unicode="&#xe2;" horiz-adv-x="1085" d="M111 287q0 111 56 174t186 90t356 27h92v-109h-90q-166 0 -261.5 -15.5t-133 -52t-37.5 -104.5q0 -84 58 -137.5t159 -53.5q82 0 144 39t98 106.5t36 156.5v233q0 127 -51 183.5t-168 56.5q-72 0 -143.5 -18.5t-151.5 -59.5q-29 -14 -49.5 -9t-32.5 21t-14 37.5t9 42 t36 33.5q90 45 178 65.5t168 20.5q129 0 213 -42t125 -127t41 -218v-555q0 -41 -19.5 -63.5t-56.5 -22.5q-39 0 -59.5 22.5t-20.5 63.5v159h19q-16 -78 -62.5 -133t-114 -85.5t-151.5 -30.5q-102 0 -183 39.5t-128 109.5t-47 156zM281.5 1147.5q-7.5 19.5 5.5 44.5l170 311 q18 33 42.5 49.5t57.5 16.5t57.5 -16.5t42.5 -49.5l170 -311q12 -25 5 -44.5t-24.5 -27.5t-36.5 -5t-32 24l-182 293l-182 -293q-12 -20 -31.5 -23.5t-37 4.5t-25 27.5z" />
<glyph unicode="&#xe3;" horiz-adv-x="1085" d="M111 287q0 111 56 174t186 90t356 27h92v-109h-90q-166 0 -261.5 -15.5t-133 -52t-37.5 -104.5q0 -84 58 -137.5t159 -53.5q82 0 144 39t98 106.5t36 156.5v233q0 127 -51 183.5t-168 56.5q-72 0 -143.5 -18.5t-151.5 -59.5q-29 -14 -49.5 -9t-32.5 21t-14 37.5t9 42 t36 33.5q90 45 178 65.5t168 20.5q129 0 213 -42t125 -127t41 -218v-555q0 -41 -19.5 -63.5t-56.5 -22.5q-39 0 -59.5 22.5t-20.5 63.5v159h19q-16 -78 -62.5 -133t-114 -85.5t-151.5 -30.5q-102 0 -183 39.5t-128 109.5t-47 156zM195 1260q8 49 24 90t43 71.5t62.5 48 t82.5 17.5q51 0 89 -23.5t72 -53.5t67 -54.5t69 -24.5q47 0 79 36t42 95q4 20 17.5 29.5t36.5 7.5q20 0 33.5 -14.5t6.5 -42.5q-10 -63 -37.5 -114.5t-70.5 -82.5t-104 -31q-51 0 -89 24t-72 54.5t-67 54t-69 23.5q-47 0 -78 -35t-43 -96q-4 -18 -17.5 -28.5t-36.5 -8.5 q-20 0 -33.5 14.5t-6.5 43.5z" />
<glyph unicode="&#xe4;" horiz-adv-x="1085" d="M111 287q0 111 56 174t186 90t356 27h92v-109h-90q-166 0 -261.5 -15.5t-133 -52t-37.5 -104.5q0 -84 58 -137.5t159 -53.5q82 0 144 39t98 106.5t36 156.5v233q0 127 -51 183.5t-168 56.5q-72 0 -143.5 -18.5t-151.5 -59.5q-29 -14 -49.5 -9t-32.5 21t-14 37.5t9 42 t36 33.5q90 45 178 65.5t168 20.5q129 0 213 -42t125 -127t41 -218v-555q0 -41 -19.5 -63.5t-56.5 -22.5q-39 0 -59.5 22.5t-20.5 63.5v159h19q-16 -78 -62.5 -133t-114 -85.5t-151.5 -30.5q-102 0 -183 39.5t-128 109.5t-47 156zM283 1335q0 45 25.5 71t70.5 26 q47 0 71.5 -26t24.5 -71t-24.5 -69.5t-71.5 -24.5q-45 0 -70.5 24.5t-25.5 69.5zM639 1335q0 45 25.5 71t72.5 26q45 0 69.5 -26t24.5 -71t-24.5 -69.5t-69.5 -24.5q-47 0 -72.5 24.5t-25.5 69.5z" />
<glyph unicode="&#xe5;" horiz-adv-x="1085" d="M111 287q0 111 56 174t186 90t356 27h92v-109h-90q-166 0 -261.5 -15.5t-133 -52t-37.5 -104.5q0 -84 58 -137.5t159 -53.5q82 0 144 39t98 106.5t36 156.5v233q0 127 -51 183.5t-168 56.5q-72 0 -143.5 -18.5t-151.5 -59.5q-29 -14 -49.5 -9t-32.5 21t-14 37.5t9 42 t36 33.5q90 45 178 65.5t168 20.5q129 0 213 -42t125 -127t41 -218v-555q0 -41 -19.5 -63.5t-56.5 -22.5q-39 0 -59.5 22.5t-20.5 63.5v159h19q-16 -78 -62.5 -133t-114 -85.5t-151.5 -30.5q-102 0 -183 39.5t-128 109.5t-47 156zM313 1358q0 68 33 120t88 83.5t123 31.5 q70 0 124 -31.5t87 -84t33 -119.5q0 -66 -33 -120t-87 -86t-124 -32q-68 0 -123 32t-88 86t-33 120zM410 1358q0 -63 42 -106.5t105 -43.5q66 0 106.5 43t40.5 107q0 61 -40.5 104t-106.5 43q-63 0 -105 -43t-42 -104z" />
<glyph unicode="&#xe6;" horiz-adv-x="1763" d="M111 287q0 111 57 174t188 90t355 27h92v-111h-92q-166 0 -261.5 -14.5t-133 -51t-37.5 -104.5q0 -84 59 -137.5t162 -53.5q84 0 147.5 40t98 111t34.5 161v221q0 127 -54 184.5t-169 57.5q-72 0 -144.5 -18.5t-152.5 -59.5q-27 -14 -48.5 -9t-33.5 21t-13 37.5t9 42 t37 33.5q88 45 177 65.5t171 20.5q150 0 236 -61.5t114 -186.5h-47q51 121 156.5 184.5t236.5 65.5q98 0 176 -34t133.5 -96.5t84 -152.5t28.5 -205v-6q0 -29 -17.5 -42t-51.5 -13h-684v111h643l-31 -27q0 106 -33 182t-95 117t-155 41q-94 0 -164.5 -45t-108.5 -128 t-38 -200v-14q0 -188 86 -288.5t254 -100.5q63 0 134 18.5t136 61.5q27 18 50.5 17t39 -14.5t20.5 -33t-5 -42t-35 -38.5q-68 -49 -158 -75.5t-180 -26.5q-174 0 -294 79.5t-163 235.5h41q-29 -145 -131 -230t-258 -85q-106 0 -189 39.5t-131 109.5t-48 156z" />
<glyph unicode="&#xe7;" horiz-adv-x="948" d="M94 504q0 119 33 213t96.5 160.5t152.5 101.5t202 35q74 0 153.5 -22.5t145.5 -78.5q20 -14 26 -34.5t0 -40t-20.5 -32.5t-36 -15.5t-43.5 14.5q-53 41 -108.5 57.5t-106.5 16.5q-80 0 -139.5 -26t-100.5 -73t-62.5 -116.5t-21.5 -161.5q0 -178 84 -281.5t240 -103.5 q51 0 105.5 16.5t109.5 56.5q23 16 43 14.5t34.5 -15t19.5 -34t-1 -40t-27 -33.5q-66 -53 -143 -76.5t-151 -23.5q-150 0 -258.5 65.5t-167 183t-58.5 273.5zM393 -305.5q6 18.5 22.5 28t40.5 -1.5q25 -10 52.5 -14t62.5 -4q53 0 86 19.5t33 56.5q0 27 -18.5 42t-59.5 15 q-16 0 -31.5 -2t-36.5 -6q-18 -6 -28 -6t-21 6q-8 8 -9 19.5t1 31.5l25 162h104l-27 -154l-49 13q25 6 48.5 10t43.5 4q74 0 123.5 -37t49.5 -102q0 -76 -64 -122t-166 -46q-37 0 -77 5t-72 19q-23 8 -31 26.5t-2 37z" />
<glyph unicode="&#xe8;" horiz-adv-x="1089" d="M94 496q0 156 61.5 271.5t169 181t248.5 65.5q100 0 180.5 -34t136.5 -97.5t86 -153.5t30 -203q0 -33 -18.5 -48t-53.5 -15h-713v108h674l-33 -26q0 111 -32.5 187.5t-95 117.5t-156.5 41q-104 0 -177 -48t-110 -133t-37 -198v-12q0 -188 91 -286.5t259 -98.5 q70 0 138.5 18.5t134.5 61.5q29 18 52 17t37.5 -14.5t19.5 -33t-4 -42t-36 -38.5q-68 -49 -160 -75.5t-182 -26.5q-158 0 -271.5 62t-176 177t-62.5 275zM288.5 1505.5q3.5 22.5 20 39t39 21.5t45 -3.5t37.5 -36.5l172 -334q12 -25 5 -43.5t-26.5 -27.5t-39.5 -5.5t-34 23.5 l-206 319q-16 25 -12.5 47.5z" />
<glyph unicode="&#xe9;" horiz-adv-x="1089" d="M94 496q0 156 61.5 271.5t169 181t248.5 65.5q100 0 180.5 -34t136.5 -97.5t86 -153.5t30 -203q0 -33 -18.5 -48t-53.5 -15h-713v108h674l-33 -26q0 111 -32.5 187.5t-95 117.5t-156.5 41q-104 0 -177 -48t-110 -133t-37 -198v-12q0 -188 91 -286.5t259 -98.5 q70 0 138.5 18.5t134.5 61.5q29 18 52 17t37.5 -14.5t19.5 -33t-4 -42t-36 -38.5q-68 -49 -160 -75.5t-182 -26.5q-158 0 -271.5 62t-176 177t-62.5 275zM540 1148.5q-8 18.5 4 43.5l172 334q14 29 37 37t46.5 3t40 -21.5t19.5 -39t-14 -47.5l-204 -319q-14 -20 -35 -23.5 t-39.5 5.5t-26.5 27.5z" />
<glyph unicode="&#xea;" horiz-adv-x="1089" d="M94 496q0 156 61.5 271.5t169 181t248.5 65.5q100 0 180.5 -34t136.5 -97.5t86 -153.5t30 -203q0 -33 -18.5 -48t-53.5 -15h-713v108h674l-33 -26q0 111 -32.5 187.5t-95 117.5t-156.5 41q-104 0 -177 -48t-110 -133t-37 -198v-12q0 -188 91 -286.5t259 -98.5 q70 0 138.5 18.5t134.5 61.5q29 18 52 17t37.5 -14.5t19.5 -33t-4 -42t-36 -38.5q-68 -49 -160 -75.5t-182 -26.5q-158 0 -271.5 62t-176 177t-62.5 275zM297.5 1147.5q-7.5 19.5 5.5 44.5l170 311q18 33 42.5 49.5t57.5 16.5t57.5 -16.5t42.5 -49.5l170 -311 q12 -25 5 -44.5t-24.5 -27.5t-36.5 -5t-32 24l-182 293l-182 -293q-12 -20 -31.5 -23.5t-37 4.5t-25 27.5z" />
<glyph unicode="&#xeb;" horiz-adv-x="1089" d="M94 496q0 156 61.5 271.5t169 181t248.5 65.5q100 0 180.5 -34t136.5 -97.5t86 -153.5t30 -203q0 -33 -18.5 -48t-53.5 -15h-713v108h674l-33 -26q0 111 -32.5 187.5t-95 117.5t-156.5 41q-104 0 -177 -48t-110 -133t-37 -198v-12q0 -188 91 -286.5t259 -98.5 q70 0 138.5 18.5t134.5 61.5q29 18 52 17t37.5 -14.5t19.5 -33t-4 -42t-36 -38.5q-68 -49 -160 -75.5t-182 -26.5q-158 0 -271.5 62t-176 177t-62.5 275zM299 1335q0 45 25.5 71t70.5 26q47 0 71.5 -26t24.5 -71t-24.5 -69.5t-71.5 -24.5q-45 0 -70.5 24.5t-25.5 69.5z M655 1335q0 45 25.5 71t72.5 26q45 0 69.5 -26t24.5 -71t-24.5 -69.5t-69.5 -24.5q-47 0 -72.5 24.5t-25.5 69.5z" />
<glyph unicode="&#xec;" horiz-adv-x="475" d="M-46.5 1505.5q3.5 22.5 20 39t39 21.5t45 -3.5t37.5 -36.5l172 -334q12 -25 5 -43.5t-26.5 -27.5t-39.5 -5.5t-34 23.5l-206 319q-16 25 -12.5 47.5zM156 80v838q0 43 20.5 65.5t61.5 22.5q39 0 61.5 -22.5t22.5 -65.5v-838q0 -43 -21.5 -66.5t-62.5 -23.5t-61.5 23.5 t-20.5 66.5z" />
<glyph unicode="&#xed;" horiz-adv-x="475" d="M156 80v838q0 43 20.5 65.5t61.5 22.5q39 0 61.5 -22.5t22.5 -65.5v-838q0 -43 -21.5 -66.5t-62.5 -23.5t-61.5 23.5t-20.5 66.5zM205 1148.5q-8 18.5 4 43.5l172 334q14 29 37 37t46.5 3t40 -21.5t19.5 -39t-14 -47.5l-204 -319q-14 -20 -35 -23.5t-39.5 5.5t-26.5 27.5 z" />
<glyph unicode="&#xee;" horiz-adv-x="475" d="M-37.5 1147.5q-7.5 19.5 5.5 44.5l170 311q18 33 42.5 49.5t57.5 16.5t57.5 -16.5t42.5 -49.5l170 -311q12 -25 5 -44.5t-24.5 -27.5t-36.5 -5t-32 24l-182 293l-182 -293q-12 -20 -31.5 -23.5t-37 4.5t-25 27.5zM156 80v838q0 43 20.5 65.5t61.5 22.5q39 0 61.5 -22.5 t22.5 -65.5v-838q0 -43 -21.5 -66.5t-62.5 -23.5t-61.5 23.5t-20.5 66.5z" />
<glyph unicode="&#xef;" horiz-adv-x="475" d="M-36 1335q0 45 25.5 71t70.5 26q47 0 71.5 -26t24.5 -71t-24.5 -69.5t-71.5 -24.5q-45 0 -70.5 24.5t-25.5 69.5zM156 80v838q0 43 20.5 65.5t61.5 22.5q39 0 61.5 -22.5t22.5 -65.5v-838q0 -43 -21.5 -66.5t-62.5 -23.5t-61.5 23.5t-20.5 66.5zM320 1335q0 45 25.5 71 t72.5 26q45 0 69.5 -26t24.5 -71t-24.5 -69.5t-69.5 -24.5q-47 0 -72.5 24.5t-25.5 69.5z" />
<glyph unicode="&#xf0;" horiz-adv-x="1146" d="M94 457q0 141 58.5 246.5t163 164t241.5 58.5q100 0 178 -34t130.5 -102.5t74.5 -175.5h-47q2 203 -80 355.5t-223 244.5h45l-309 -135q-33 -12 -56.5 -4t-33 28.5t0 44t44.5 38.5l227 98l4 -22q-41 20 -84 37.5t-90 31.5q-37 10 -49.5 32.5t-6 45.5t29 35t59.5 2 q82 -20 150.5 -51t131.5 -68l-47 2l254 111q31 12 54.5 4t33.5 -28.5t2 -43t-41 -37.5l-190 -84l6 25q109 -78 180.5 -183.5t109.5 -232.5t38 -278q0 -145 -32 -257t-94.5 -189t-152.5 -115.5t-209 -38.5q-141 0 -247.5 59t-165 165.5t-58.5 250.5zM262 457q0 -162 81 -251 t224 -89q96 0 166 41t105.5 117.5t35.5 181.5q0 156 -80.5 246t-226.5 90q-92 0 -161.5 -41t-106.5 -116t-37 -179z" />
<glyph unicode="&#xf1;" horiz-adv-x="1163" d="M156 72v854q0 41 20.5 62.5t59.5 21.5t60 -21.5t21 -62.5v-176l-22 24q43 119 140 179.5t224 60.5q119 0 198 -43t118 -130t39 -220v-549q0 -41 -21.5 -63.5t-60.5 -22.5q-41 0 -62.5 22.5t-21.5 63.5v538q0 139 -54.5 204t-172.5 65q-137 0 -218 -85t-81 -227v-495 q0 -86 -84 -86q-41 0 -61.5 22.5t-20.5 63.5zM222 1260q8 49 24 90t43 71.5t62.5 48t82.5 17.5q51 0 89 -23.5t72 -53.5t67 -54.5t69 -24.5q47 0 79 36t42 95q4 20 17.5 29.5t36.5 7.5q20 0 33.5 -14.5t6.5 -42.5q-10 -63 -37.5 -114.5t-70.5 -82.5t-104 -31q-51 0 -89 24 t-72 54.5t-67 54t-69 23.5q-47 0 -78 -35t-43 -96q-4 -18 -17.5 -28.5t-36.5 -8.5q-20 0 -33.5 14.5t-6.5 43.5z" />
<glyph unicode="&#xf2;" horiz-adv-x="1138" d="M94 498q0 119 33 214t96.5 162.5t150.5 103.5t195 36q145 0 252 -63.5t165 -179.5t58 -273q0 -119 -32.5 -213.5t-96 -163t-150.5 -104t-196 -35.5q-145 0 -251.5 63.5t-165 179t-58.5 273.5zM262 498q0 -184 84 -283.5t223 -99.5q92 0 162 45t108 131t38 207 q0 186 -83 284.5t-225 98.5q-94 0 -162.5 -44t-106.5 -129t-38 -210zM284.5 1505.5q3.5 22.5 20 39t39 21.5t45 -3.5t37.5 -36.5l172 -334q12 -25 5 -43.5t-26.5 -27.5t-39.5 -5.5t-34 23.5l-206 319q-16 25 -12.5 47.5z" />
<glyph unicode="&#xf3;" horiz-adv-x="1138" d="M94 498q0 119 33 214t96.5 162.5t150.5 103.5t195 36q145 0 252 -63.5t165 -179.5t58 -273q0 -119 -32.5 -213.5t-96 -163t-150.5 -104t-196 -35.5q-145 0 -251.5 63.5t-165 179t-58.5 273.5zM262 498q0 -184 84 -283.5t223 -99.5q92 0 162 45t108 131t38 207 q0 186 -83 284.5t-225 98.5q-94 0 -162.5 -44t-106.5 -129t-38 -210zM536 1148.5q-8 18.5 4 43.5l172 334q14 29 37 37t46.5 3t40 -21.5t19.5 -39t-14 -47.5l-204 -319q-14 -20 -35 -23.5t-39.5 5.5t-26.5 27.5z" />
<glyph unicode="&#xf4;" horiz-adv-x="1138" d="M94 498q0 119 33 214t96.5 162.5t150.5 103.5t195 36q145 0 252 -63.5t165 -179.5t58 -273q0 -119 -32.5 -213.5t-96 -163t-150.5 -104t-196 -35.5q-145 0 -251.5 63.5t-165 179t-58.5 273.5zM262 498q0 -184 84 -283.5t223 -99.5q92 0 162 45t108 131t38 207 q0 186 -83 284.5t-225 98.5q-94 0 -162.5 -44t-106.5 -129t-38 -210zM293.5 1147.5q-7.5 19.5 5.5 44.5l170 311q18 33 42.5 49.5t57.5 16.5t57.5 -16.5t42.5 -49.5l170 -311q12 -25 5 -44.5t-24.5 -27.5t-36.5 -5t-32 24l-182 293l-182 -293q-12 -20 -31.5 -23.5t-37 4.5 t-25 27.5z" />
<glyph unicode="&#xf5;" horiz-adv-x="1138" d="M94 498q0 119 33 214t96.5 162.5t150.5 103.5t195 36q145 0 252 -63.5t165 -179.5t58 -273q0 -119 -32.5 -213.5t-96 -163t-150.5 -104t-196 -35.5q-145 0 -251.5 63.5t-165 179t-58.5 273.5zM207 1260q8 49 24 90t43 71.5t62.5 48t82.5 17.5q51 0 89 -23.5t72 -53.5 t67 -54.5t69 -24.5q47 0 79 36t42 95q4 20 17.5 29.5t36.5 7.5q20 0 33.5 -14.5t6.5 -42.5q-10 -63 -37.5 -114.5t-70.5 -82.5t-104 -31q-51 0 -89 24t-72 54.5t-67 54t-69 23.5q-47 0 -78 -35t-43 -96q-4 -18 -17.5 -28.5t-36.5 -8.5q-20 0 -33.5 14.5t-6.5 43.5zM262 498 q0 -184 84 -283.5t223 -99.5q92 0 162 45t108 131t38 207q0 186 -83 284.5t-225 98.5q-94 0 -162.5 -44t-106.5 -129t-38 -210z" />
<glyph unicode="&#xf6;" horiz-adv-x="1138" d="M94 498q0 119 33 214t96.5 162.5t150.5 103.5t195 36q145 0 252 -63.5t165 -179.5t58 -273q0 -119 -32.5 -213.5t-96 -163t-150.5 -104t-196 -35.5q-145 0 -251.5 63.5t-165 179t-58.5 273.5zM262 498q0 -184 84 -283.5t223 -99.5q92 0 162 45t108 131t38 207 q0 186 -83 284.5t-225 98.5q-94 0 -162.5 -44t-106.5 -129t-38 -210zM295 1335q0 45 25.5 71t70.5 26q47 0 71.5 -26t24.5 -71t-24.5 -69.5t-71.5 -24.5q-45 0 -70.5 24.5t-25.5 69.5zM651 1335q0 45 25.5 71t72.5 26q45 0 69.5 -26t24.5 -71t-24.5 -69.5t-69.5 -24.5 q-47 0 -72.5 24.5t-25.5 69.5z" />
<glyph unicode="&#xf7;" d="M100 588q0 31 17.5 47t48.5 16h897q31 0 48 -16.5t17 -46.5q0 -31 -17 -47.5t-48 -16.5h-897q-31 0 -48.5 16.5t-17.5 47.5zM512 180q0 43 23.5 66.5t66.5 23.5t66.5 -22.5t23.5 -67.5q0 -43 -22.5 -67.5t-67.5 -24.5q-43 0 -66.5 24.5t-23.5 67.5zM512 995 q0 43 23.5 66.5t66.5 23.5t66.5 -23.5t23.5 -66.5t-22.5 -67.5t-67.5 -24.5q-43 0 -66.5 24.5t-23.5 67.5z" />
<glyph unicode="&#xf8;" horiz-adv-x="1138" d="M94 498q0 119 33 214t96.5 162.5t150.5 103.5t195 36q145 0 252 -63.5t165 -179.5t58 -273q0 -119 -32.5 -213.5t-96 -163t-150.5 -104t-196 -35.5q-145 0 -251.5 63.5t-165 179t-58.5 273.5zM206 -49.5q-7 22.5 9 51.5l612 1057q16 25 39 28t41.5 -8.5t26.5 -34 t-8 -49.5l-615 -1056q-14 -25 -36.5 -29t-42 7t-26.5 33.5zM262 498q0 -184 84 -283.5t223 -99.5q92 0 162 45t108 131t38 207q0 186 -83 284.5t-225 98.5q-94 0 -162.5 -44t-106.5 -129t-38 -210z" />
<glyph unicode="&#xf9;" horiz-adv-x="1148" d="M150 377v549q0 43 21.5 63.5t59.5 20.5q41 0 62.5 -20.5t21.5 -63.5v-547q0 -131 54.5 -195.5t171.5 -64.5q127 0 206.5 86t79.5 225v496q0 43 21.5 63.5t62.5 20.5q39 0 60.5 -20.5t21.5 -63.5v-854q0 -86 -80 -86q-39 0 -60.5 22.5t-21.5 63.5v186l27 -29 q-41 -121 -134 -184t-216 -63q-121 0 -200 44t-118.5 132t-39.5 219zM290.5 1507.5q3.5 22.5 20 39t39 21.5t45 -3.5t37.5 -36.5l172 -334q12 -25 5 -43.5t-26.5 -27.5t-39.5 -5.5t-34 23.5l-206 319q-16 25 -12.5 47.5z" />
<glyph unicode="&#xfa;" horiz-adv-x="1148" d="M150 377v549q0 43 21.5 63.5t59.5 20.5q41 0 62.5 -20.5t21.5 -63.5v-547q0 -131 54.5 -195.5t171.5 -64.5q127 0 206.5 86t79.5 225v496q0 43 21.5 63.5t62.5 20.5q39 0 60.5 -20.5t21.5 -63.5v-854q0 -86 -80 -86q-39 0 -60.5 22.5t-21.5 63.5v186l27 -29 q-41 -121 -134 -184t-216 -63q-121 0 -200 44t-118.5 132t-39.5 219zM542 1150.5q-8 18.5 4 43.5l172 334q14 29 37 37t46.5 3t40 -21.5t19.5 -39t-14 -47.5l-204 -319q-14 -20 -35 -23.5t-39.5 5.5t-26.5 27.5z" />
<glyph unicode="&#xfb;" horiz-adv-x="1148" d="M150 377v549q0 43 21.5 63.5t59.5 20.5q41 0 62.5 -20.5t21.5 -63.5v-547q0 -131 54.5 -195.5t171.5 -64.5q127 0 206.5 86t79.5 225v496q0 43 21.5 63.5t62.5 20.5q39 0 60.5 -20.5t21.5 -63.5v-854q0 -86 -80 -86q-39 0 -60.5 22.5t-21.5 63.5v186l27 -29 q-41 -121 -134 -184t-216 -63q-121 0 -200 44t-118.5 132t-39.5 219zM299.5 1149.5q-7.5 19.5 5.5 44.5l170 311q18 33 42.5 49.5t57.5 16.5t57.5 -16.5t42.5 -49.5l170 -311q12 -25 5 -44.5t-24.5 -27.5t-36.5 -5t-32 24l-182 293l-182 -293q-12 -20 -31.5 -23.5t-37 4.5 t-25 27.5z" />
<glyph unicode="&#xfc;" horiz-adv-x="1148" d="M150 377v549q0 43 21.5 63.5t59.5 20.5q41 0 62.5 -20.5t21.5 -63.5v-547q0 -131 54.5 -195.5t171.5 -64.5q127 0 206.5 86t79.5 225v496q0 43 21.5 63.5t62.5 20.5q39 0 60.5 -20.5t21.5 -63.5v-854q0 -86 -80 -86q-39 0 -60.5 22.5t-21.5 63.5v186l27 -29 q-41 -121 -134 -184t-216 -63q-121 0 -200 44t-118.5 132t-39.5 219zM301 1337q0 45 25.5 71t70.5 26q47 0 71.5 -26t24.5 -71t-24.5 -69.5t-71.5 -24.5q-45 0 -70.5 24.5t-25.5 69.5zM657 1337q0 45 25.5 71t72.5 26q45 0 69.5 -26t24.5 -71t-24.5 -69.5t-69.5 -24.5 q-47 0 -72.5 24.5t-25.5 69.5z" />
<glyph unicode="&#xfd;" horiz-adv-x="1052" d="M55 950.5q4 26.5 24.5 43t57.5 16.5q33 0 51.5 -14.5t32.5 -51.5l336 -823h-55l340 823q16 37 34.5 51.5t53.5 14.5q33 0 50 -16.5t20.5 -42t-9.5 -56.5l-524 -1212q-16 -37 -35.5 -51.5t-54.5 -14.5q-31 0 -49.5 16.5t-21.5 44t9 56.5l142 317v-71l-394 913 q-12 31 -8 57.5zM495 1148.5q-8 18.5 4 43.5l172 334q14 29 37 37t46.5 3t40 -21.5t19.5 -39t-14 -47.5l-204 -319q-14 -20 -35 -23.5t-39.5 5.5t-26.5 27.5z" />
<glyph unicode="&#xfe;" horiz-adv-x="1193" d="M156 -299v1673q0 41 21.5 62.5t60.5 21.5t61.5 -21.5t22.5 -62.5v-614h-25q33 117 130 185.5t232 68.5q133 0 232.5 -62.5t154 -178.5t54.5 -275q0 -158 -54.5 -273.5t-152.5 -179t-234 -63.5q-135 0 -231 68.5t-131 182.5h25v-532q0 -41 -22.5 -62.5t-61.5 -21.5 q-41 0 -61.5 21.5t-20.5 62.5zM317 498q0 -184 84.5 -283.5t223.5 -99.5q94 0 162.5 45t106.5 131t38 207q0 186 -83 284.5t-224 98.5q-92 0 -162 -44t-108 -129t-38 -210z" />
<glyph unicode="&#xff;" horiz-adv-x="1052" d="M55 950.5q4 26.5 24.5 43t57.5 16.5q33 0 51.5 -14.5t32.5 -51.5l336 -823h-55l340 823q16 37 34.5 51.5t53.5 14.5q33 0 50 -16.5t20.5 -42t-9.5 -56.5l-524 -1212q-16 -37 -35.5 -51.5t-54.5 -14.5q-31 0 -49.5 16.5t-21.5 44t9 56.5l142 317v-71l-394 913 q-12 31 -8 57.5zM254 1335q0 45 25.5 71t70.5 26q47 0 71.5 -26t24.5 -71t-24.5 -69.5t-71.5 -24.5q-45 0 -70.5 24.5t-25.5 69.5zM610 1335q0 45 25.5 71t72.5 26q45 0 69.5 -26t24.5 -71t-24.5 -69.5t-69.5 -24.5q-47 0 -72.5 24.5t-25.5 69.5z" />
<glyph unicode="&#x152;" horiz-adv-x="2142" d="M125 723q0 176 48 310t142.5 226.5t229.5 138.5t311 46h1124q35 0 54.5 -18.5t19.5 -51.5q0 -35 -19.5 -53t-54.5 -18h-688v-500h645q37 0 55.5 -17.5t18.5 -52.5t-18.5 -53t-55.5 -18h-645v-521h688q35 0 54.5 -18.5t19.5 -50.5q0 -35 -19.5 -53.5t-54.5 -18.5h-1124 q-352 0 -541.5 186.5t-189.5 536.5zM303 723q0 -289 140 -434.5t425 -145.5h260v1157h-260q-141 0 -247.5 -35.5t-177 -108.5t-105.5 -181.5t-35 -251.5z" />
<glyph unicode="&#x153;" horiz-adv-x="1863" d="M94 498q0 119 33 214t95.5 162.5t149.5 103.5t193 36q154 0 262.5 -80t155.5 -221h-47q45 139 156.5 220t263.5 81q131 0 226 -59.5t145.5 -168t50.5 -260.5q0 -33 -17.5 -48t-52.5 -15h-704v108h665l-33 -24q0 109 -32.5 185.5t-95 117.5t-154.5 41q-102 0 -171 -48 t-105 -133t-36 -198v-12q0 -186 87.5 -285.5t252.5 -99.5q66 0 134.5 18.5t134.5 61.5q27 18 50 17t38.5 -14.5t20.5 -33t-4 -42t-36 -38.5q-70 -49 -160 -75.5t-176 -26.5q-172 0 -289.5 77.5t-162.5 225.5h49q-47 -141 -154.5 -222t-261.5 -81q-143 0 -248.5 63.5 t-164 179t-58.5 273.5zM262 498q0 -184 84 -283.5t223 -99.5q92 0 162 45t108 131t38 207q0 186 -83 284.5t-225 98.5q-94 0 -162.5 -44t-106.5 -129t-38 -210z" />
<glyph unicode="&#x178;" horiz-adv-x="1220" d="M32 1393.5q1 27.5 21.5 46t52.5 18.5q29 0 51.5 -13t41.5 -42l436 -602h-43l436 602q23 31 43.5 43t48.5 12q33 0 51.5 -17.5t19.5 -45t-20 -58.5l-512 -706l35 117v-672q0 -90 -84 -90q-41 0 -62.5 23.5t-21.5 66.5v672l37 -117l-514 708q-18 27 -17 54.5zM336 1739 q0 45 25.5 69.5t70.5 24.5q47 0 71.5 -24.5t24.5 -69.5q0 -47 -24.5 -72t-71.5 -25q-45 0 -70.5 25t-25.5 72zM692 1739q0 45 25.5 69.5t72.5 24.5q45 0 69.5 -24.5t24.5 -69.5q0 -47 -24.5 -72t-69.5 -25q-47 0 -72.5 25t-25.5 72z" />
<glyph unicode="&#x2c6;" horiz-adv-x="966" d="M207.5 1147.5q-7.5 19.5 5.5 44.5l170 311q18 33 42.5 49.5t57.5 16.5t57.5 -16.5t42.5 -49.5l170 -311q12 -25 5 -44.5t-24.5 -27.5t-36.5 -5t-32 24l-182 293l-182 -293q-12 -20 -31.5 -23.5t-37 4.5t-25 27.5z" />
<glyph unicode="&#x2dc;" horiz-adv-x="1136" d="M207 1260q8 49 24 90t43 71.5t62.5 48t82.5 17.5q51 0 89 -23.5t72 -53.5t67 -54.5t69 -24.5q47 0 79 36t42 95q4 20 17.5 29.5t36.5 7.5q20 0 33.5 -14.5t6.5 -42.5q-10 -63 -37.5 -114.5t-70.5 -82.5t-104 -31q-51 0 -89 24t-72 54.5t-67 54t-69 23.5q-47 0 -78 -35 t-43 -96q-4 -18 -17.5 -28.5t-36.5 -8.5q-20 0 -33.5 14.5t-6.5 43.5z" />
<glyph unicode="&#x2000;" horiz-adv-x="1012" />
<glyph unicode="&#x2001;" horiz-adv-x="2025" />
<glyph unicode="&#x2002;" horiz-adv-x="1012" />
<glyph unicode="&#x2003;" horiz-adv-x="2025" />
<glyph unicode="&#x2004;" horiz-adv-x="675" />
<glyph unicode="&#x2005;" horiz-adv-x="506" />
<glyph unicode="&#x2006;" horiz-adv-x="337" />
<glyph unicode="&#x2007;" horiz-adv-x="337" />
<glyph unicode="&#x2008;" horiz-adv-x="253" />
<glyph unicode="&#x2009;" horiz-adv-x="405" />
<glyph unicode="&#x200a;" horiz-adv-x="112" />
<glyph unicode="&#x2010;" horiz-adv-x="868" d="M133 545q0 31 20.5 50t51.5 19h461q29 0 49 -19.5t20 -49.5q0 -29 -20.5 -48.5t-48.5 -19.5h-461q-31 0 -51.5 19.5t-20.5 48.5z" />
<glyph unicode="&#x2011;" horiz-adv-x="868" d="M133 545q0 31 20.5 50t51.5 19h461q29 0 49 -19.5t20 -49.5q0 -29 -20.5 -48.5t-48.5 -19.5h-461q-31 0 -51.5 19.5t-20.5 48.5z" />
<glyph unicode="&#x2012;" horiz-adv-x="868" d="M133 545q0 31 20.5 50t51.5 19h461q29 0 49 -19.5t20 -49.5q0 -29 -20.5 -48.5t-48.5 -19.5h-461q-31 0 -51.5 19.5t-20.5 48.5z" />
<glyph unicode="&#x2013;" horiz-adv-x="1024" d="M-14 547q0 23 17 38t42 15h934q25 0 42 -15.5t17 -37.5q0 -23 -17 -39t-42 -16h-934q-25 0 -42 16t-17 39z" />
<glyph unicode="&#x2014;" horiz-adv-x="2048" d="M-14 547q0 23 17 38t42 15h1958q25 0 42 -15.5t17 -37.5q0 -23 -17 -39t-42 -16h-1958q-25 0 -42 16t-17 39z" />
<glyph unicode="&#x2018;" horiz-adv-x="466" d="M123 1145q0 43 7 89t28.5 93t56.5 90q20 27 42 30t37 -8.5t17 -34t-18 -48.5q-33 -43 -46.5 -87t-13.5 -81l-6 41q53 0 86 -30t33 -81q0 -49 -30.5 -80.5t-79.5 -31.5q-53 0 -83 35.5t-30 103.5z" />
<glyph unicode="&#x2019;" horiz-adv-x="466" d="M123 1339q0 51 29.5 82t78.5 31q53 0 84 -36t31 -103q0 -43 -8 -89t-28.5 -93.5t-55.5 -90.5q-20 -27 -43 -29.5t-39 8.5t-17 33.5t19 49.5q33 43 45 87t12 79l9 -41q-53 0 -85 31.5t-32 80.5z" />
<glyph unicode="&#x201a;" horiz-adv-x="466" d="M123 104q0 49 29.5 81t78.5 32q53 0 84 -36t31 -103q0 -43 -8 -89t-28.5 -93.5t-55.5 -90.5q-20 -27 -43 -30.5t-39 8.5t-17 34.5t19 49.5q33 43 45 87t12 81l9 -43q-53 0 -85 31.5t-32 80.5z" />
<glyph unicode="&#x201c;" horiz-adv-x="806" d="M123 1145q0 43 7 89t28.5 93t56.5 90q20 27 42 30t37 -8.5t17 -34t-18 -48.5q-33 -43 -46.5 -87t-13.5 -81l-6 41q53 0 86 -30t33 -81q0 -49 -30.5 -80.5t-79.5 -31.5q-53 0 -83 35.5t-30 103.5zM463 1145q0 43 7 89t28.5 93t56.5 90q20 27 42 30t37 -8.5t17 -34 t-18 -48.5q-33 -43 -46.5 -87t-13.5 -81l-6 41q53 0 86 -30t33 -81q0 -49 -30.5 -80.5t-79.5 -31.5q-53 0 -83 35.5t-30 103.5z" />
<glyph unicode="&#x201d;" horiz-adv-x="806" d="M123 1339q0 51 29.5 82t78.5 31q53 0 84 -36t31 -103q0 -43 -8 -89t-28.5 -93.5t-55.5 -90.5q-20 -27 -43 -29.5t-39 8.5t-17 33.5t19 49.5q33 43 45 87t12 79l9 -41q-53 0 -85 31.5t-32 80.5zM463 1339q0 51 29.5 82t78.5 31q53 0 84 -36t31 -103q0 -43 -8 -89 t-28.5 -93.5t-55.5 -90.5q-20 -27 -43 -29.5t-39 8.5t-17 33.5t19 49.5q33 43 45 87t12 79l9 -41q-53 0 -85 31.5t-32 80.5z" />
<glyph unicode="&#x201e;" horiz-adv-x="806" d="M123 104q0 49 29.5 81t78.5 32q53 0 84 -36t31 -103q0 -43 -8 -89t-28.5 -93.5t-55.5 -90.5q-20 -27 -43 -30.5t-39 8.5t-17 34.5t19 49.5q33 43 45 87t12 81l9 -43q-53 0 -85 31.5t-32 80.5zM463 104q0 49 29.5 81t78.5 32q53 0 84 -36t31 -103q0 -43 -8 -89 t-28.5 -93.5t-55.5 -90.5q-20 -27 -43 -30.5t-39 8.5t-17 34.5t19 49.5q33 43 45 87t12 81l9 -43q-53 0 -85 31.5t-32 80.5z" />
<glyph unicode="&#x2022;" horiz-adv-x="1073" d="M166 543q0 94 48 177t132 135t191 52q98 0 183 -47t136 -130t51 -187q0 -100 -50 -182t-134 -131.5t-186 -49.5q-100 0 -184.5 48t-135.5 130t-51 185z" />
<glyph unicode="&#x2026;" horiz-adv-x="1404" d="M123 104q0 49 30.5 81t82.5 32q51 0 80.5 -31.5t29.5 -81.5q0 -49 -29.5 -80.5t-80.5 -31.5t-82 31.5t-31 80.5zM592 104q0 49 30.5 81t82.5 32q51 0 80.5 -31.5t29.5 -81.5q0 -49 -29.5 -80.5t-80.5 -31.5t-82 31.5t-31 80.5zM1061 104q0 49 30.5 81t82.5 32 q51 0 80.5 -31.5t29.5 -81.5q0 -49 -29.5 -80.5t-80.5 -31.5t-82 31.5t-31 80.5z" />
<glyph unicode="&#x202f;" horiz-adv-x="405" />
<glyph unicode="&#x2039;" horiz-adv-x="532" d="M117 543.5q0 27.5 16 56.5l166 277q14 25 36.5 31.5t45.5 -3.5q29 -12 37 -38.5t-6 -57.5l-133 -266l133 -264q14 -31 7 -59t-36 -38q-23 -10 -46.5 -3t-35.5 30l-168 278q-16 29 -16 56.5z" />
<glyph unicode="&#x203a;" horiz-adv-x="532" d="M113.5 220q-7.5 28 7.5 59l133 264l-133 266q-12 31 -4 57.5t35 38.5q25 10 47 3t37 -31l163 -277q18 -29 18.5 -56.5t-18.5 -56.5l-168 -278q-12 -23 -35 -30t-46 3q-29 10 -36.5 38z" />
<glyph unicode="&#x205f;" horiz-adv-x="506" />
<glyph unicode="&#x20ac;" d="M29 567q0 27 18.5 44.5t44.5 17.5h172l-24 -33q-6 59 -5 129t5 123l26 -31h-174q-27 0 -45 18.5t-18 43.5q0 29 18.5 46t44.5 17h191l-37 -39q25 180 98.5 304t187 189.5t261.5 65.5q109 0 205 -34.5t169 -114.5q20 -20 25.5 -43t-1.5 -42.5t-23.5 -31.5t-39 -10 t-47.5 22q-57 57 -127.5 81t-148.5 24q-100 0 -180 -44t-132.5 -134.5t-74.5 -225.5l-37 33h336q27 0 44 -18.5t17 -44.5q0 -25 -17.5 -43.5t-43.5 -18.5h-342l37 31q-6 -51 -6 -121t6 -129l-37 31h342q27 0 44 -18.5t17 -43.5q0 -27 -17.5 -45t-43.5 -18h-322l23 33 q23 -135 75 -226.5t132 -135.5t180 -44q80 0 147.5 22.5t130.5 82.5q25 18 46.5 20t38 -10.5t23.5 -30.5t3 -40.5t-25 -41.5q-72 -78 -169.5 -114.5t-206.5 -36.5q-147 0 -261 65.5t-188 190t-98 303.5l26 -37h-180q-27 0 -45 18.5t-18 44.5z" />
<glyph unicode="&#x2122;" horiz-adv-x="1894" d="M4 1380q0 31 17.5 47.5t52.5 16.5h606q33 0 50.5 -16.5t17.5 -47.5t-17.5 -47t-50.5 -16h-227v-668q0 -37 -19.5 -57.5t-58.5 -20.5q-37 0 -55.5 20.5t-18.5 57.5v668h-227q-35 0 -52.5 16.5t-17.5 46.5zM866 641v743q0 25 9.5 40.5t24.5 22.5t34 7q31 0 46 -10t30 -37 l309 -557h-41l307 557q16 27 31.5 37t46.5 10q27 0 46.5 -17.5t19.5 -52.5v-743q0 -70 -66 -70q-35 0 -52.5 18.5t-17.5 51.5v592h35l-276 -498q-10 -16 -23.5 -24.5t-30.5 -8.5q-16 0 -29.5 8.5t-23.5 24.5l-278 498h37v-592q0 -70 -68 -70q-33 0 -51.5 18.5t-18.5 51.5z " />
<glyph unicode="&#x25fc;" horiz-adv-x="1013" d="M0 0v1014h1014v-1014h-1014z" />
</font>
</defs>
</svg>
