<?xml version="1.0" standalone="no"?>
<!DOCTYPE svg PUBLIC "-//W3C//DTD SVG 1.1//EN" "http://www.w3.org/Graphics/SVG/1.1/DTD/svg11.dtd" >
<svg xmlns="http://www.w3.org/2000/svg" xmlns:xlink="http://www.w3.org/1999/xlink" version="1.1">
<metadata></metadata>
<defs>
<font id="nunitomedium" horiz-adv-x="1228" >
<font-face units-per-em="2048" ascent="1638" descent="-410" />
<missing-glyph horiz-adv-x="534" />
<glyph unicode="&#xfb01;" horiz-adv-x="1167" d="M6 926q0 35 20.5 53t57.5 18h174l-51 -49v76q0 197 95 299t284 121l59 4q35 4 55.5 -9.5t27.5 -34t2 -43t-19.5 -38.5t-36.5 -16l-58 -4q-117 -8 -170 -72t-53 -182v-82l-26 30h559q45 0 68.5 -25.5t23.5 -74.5v-807q0 -47 -22.5 -73.5t-69.5 -26.5q-45 0 -70 26.5 t-25 73.5v764h-438v-772q0 -96 -92 -96q-45 0 -69.5 24.5t-24.5 71.5v772h-123q-37 0 -57.5 19.5t-20.5 52.5zM813 1337q0 53 30.5 81t84.5 28q57 0 86.5 -27.5t29.5 -81.5q0 -49 -29.5 -78.5t-86.5 -29.5q-53 0 -84 29.5t-31 78.5z" />
<glyph unicode="&#xfb02;" horiz-adv-x="1312" d="M6 926q0 35 20.5 53t57.5 18h174l-51 -49v76q0 199 97 302.5t286 119.5l63 4q31 4 49.5 -9.5t24.5 -34t1 -42t-19.5 -37.5t-36.5 -18l-45 -2q-123 -10 -178.5 -73t-55.5 -185v-82l-26 30h235q39 0 59.5 -18t20.5 -53q0 -33 -20.5 -52.5t-59.5 -19.5h-209v-772 q0 -96 -92 -96q-45 0 -69.5 24.5t-24.5 71.5v772h-123q-37 0 -57.5 19.5t-20.5 52.5zM846 336v1028q0 47 24.5 70.5t67.5 23.5q45 0 69.5 -23.5t24.5 -70.5v-1014q0 -106 44 -158.5t126 -52.5q18 0 32.5 1t28.5 3q23 2 33 -12t10 -57q0 -39 -17.5 -60.5t-55.5 -27.5 q-18 -2 -37 -3t-37 -1q-154 0 -233.5 91t-79.5 263z" />
<glyph horiz-adv-x="0" />
<glyph horiz-adv-x="682" />
<glyph horiz-adv-x="0" />
<glyph horiz-adv-x="0" />
<glyph unicode="&#xd;" horiz-adv-x="534" />
<glyph unicode=" "  horiz-adv-x="534" />
<glyph unicode="&#x09;" horiz-adv-x="534" />
<glyph unicode="&#xa0;" horiz-adv-x="534" />
<glyph unicode="!" horiz-adv-x="477" d="M117 115q0 53 34.5 85.5t88.5 32.5q57 0 88.5 -32.5t31.5 -85.5t-31.5 -88t-88.5 -35q-53 0 -88 34.5t-35 88.5zM131 1337q-4 55 24.5 88t84.5 33q53 0 81.5 -32.5t24.5 -88.5l-45 -886q-2 -37 -18 -54.5t-43 -17.5t-44.5 17.5t-19.5 54.5z" />
<glyph unicode="&#x22;" horiz-adv-x="829" d="M131 1348q-4 47 25.5 78.5t74.5 31.5q31 0 54.5 -14t37 -39t9.5 -57l-31 -420q-2 -33 -21.5 -52.5t-46.5 -19.5t-46 19.5t-23 52.5zM496 1348q-4 47 25.5 78.5t74.5 31.5q31 0 54.5 -14t37 -39t9.5 -57l-31 -420q-2 -33 -21.5 -52.5t-46.5 -19.5t-46 19.5t-23 52.5z" />
<glyph unicode="#" d="M70 434q0 31 21.5 47.5t58.5 16.5h192l-72 -15l99 498l51 -18h-230q-25 0 -43 8t-27 22.5t-9 34.5q0 33 21.5 48.5t57.5 15.5h254l-59 -17l61 314q6 37 28 53t54 16q33 0 47.5 -22.5t8.5 -63.5l-56 -280h310l59 297q6 37 27.5 53t54.5 16q35 0 49 -22.5t6 -63.5l-57 -297 l-51 17h153q27 0 44.5 -7.5t26.5 -20.5t9 -36q0 -31 -20.5 -48t-59.5 -17h-180l59 18l-98 -500l-51 17h229q25 0 43.5 -7.5t27.5 -21.5t9 -35q0 -33 -20.5 -49t-59.5 -16h-254l60 14l-66 -328q-6 -37 -26.5 -53t-53.5 -16q-35 0 -50 22.5t-7 63.5l59 297h-309l-61 -314 q-6 -37 -26.5 -53t-55.5 -16t-49.5 22.5t-5.5 63.5l59 311l65 -14h-167q-25 0 -43.5 7t-27.5 21.5t-9 36.5zM414 498h309l90 465h-307z" />
<glyph unicode="$" d="M98 216q4 26 21.5 44.5t42 22.5t57.5 -17q66 -45 161 -78.5t236 -33.5q113 0 187 29.5t109.5 82.5t35.5 121q0 57 -25.5 98t-81 70t-147.5 47l-209 45q-184 41 -275 134t-91 247q0 119 58.5 213t163.5 149.5t245 61.5l-29 -29v193q0 33 22.5 55.5t55.5 22.5t55.5 -22.5 t22.5 -55.5v-193l-33 29q96 -2 202.5 -40t182.5 -105q23 -18 30 -43t-0.5 -47.5t-24.5 -37t-43 -15.5t-56 20q-68 49 -149 77.5t-193 28.5q-147 0 -234.5 -70.5t-87.5 -185.5q0 -90 54.5 -142t177.5 -79l213 -47q197 -41 291 -130t94 -239q0 -117 -58.5 -205t-162 -139 t-238.5 -61l35 37v-201q0 -33 -21.5 -55.5t-56.5 -22.5q-33 0 -55.5 22.5t-22.5 55.5v199l39 -37q-143 2 -260 39t-195 92q-27 18 -37 43.5t-6 51.5z" />
<glyph unicode="%" horiz-adv-x="1910" d="M109 1022q0 139 42 237.5t120.5 150.5t189.5 52q164 0 258 -116.5t94 -323.5q0 -139 -42 -238.5t-120.5 -151.5t-189.5 -52q-166 0 -259 116.5t-93 325.5zM266 1022q0 -156 52.5 -232.5t142.5 -76.5q61 0 104 33.5t65.5 102.5t22.5 173q0 154 -51 230.5t-141 76.5 q-59 0 -103.5 -33.5t-68 -102.5t-23.5 -171zM487 24.5q-2 24.5 13 53.5l782 1360q16 29 38.5 39t45.5 5t38 -22.5t19 -42t-12 -53.5l-782 -1362q-16 -29 -40 -38t-46.5 -4t-38 22.5t-17.5 42zM1100 424q0 139 42 237.5t120.5 150.5t189.5 52q164 0 258 -116.5t94 -323.5 q0 -139 -42 -238.5t-120.5 -151.5t-189.5 -52q-166 0 -259 116.5t-93 325.5zM1257 424q0 -156 52.5 -232.5t142.5 -76.5q61 0 104 33.5t66 102t23 173.5q0 154 -51.5 230.5t-141.5 76.5q-59 0 -103 -33.5t-68 -102.5t-24 -171z" />
<glyph unicode="&#x26;" horiz-adv-x="1435" d="M125 352q0 68 18.5 127.5t56.5 111.5t94 101t130 96l68 43l-27 -38q-96 102 -136 181t-40 165q0 96 45 168.5t128 113.5t193 41q147 0 239.5 -79.5t92.5 -217.5q0 -76 -29.5 -141.5t-97 -129t-184.5 -134.5l2 47l375 -416h-41q29 49 50 110.5t36.5 133.5t21.5 151 q6 39 26.5 58.5t57.5 19.5q39 0 59.5 -22.5t16.5 -63.5q-8 -102 -30.5 -193t-55.5 -169t-74 -142l-2 52l203 -217q29 -29 28 -57.5t-23.5 -47t-59.5 -18.5q-33 0 -53.5 12t-45.5 39l-151 166h47q-86 -104 -208 -162.5t-261 -58.5q-145 0 -250.5 46t-162 129t-56.5 195z M309 365q0 -109 76 -170.5t217 -61.5q115 0 203 46t156 138l-5 -55l-432 465l74 -4l-61 -41q-82 -53 -132.5 -101.5t-73 -99.5t-22.5 -116zM463 1141q0 -41 13 -79t47 -82t95 -112l-47 -2q94 59 149.5 105.5t80 90.5t24.5 93q0 78 -47 123t-123 45q-86 0 -139 -50t-53 -132z " />
<glyph unicode="'" horiz-adv-x="462" d="M131 1348q-4 47 25.5 78.5t74.5 31.5q31 0 54.5 -14t37 -39t9.5 -57l-31 -420q-2 -33 -21.5 -52.5t-46.5 -19.5t-46 19.5t-23 52.5z" />
<glyph unicode="(" horiz-adv-x="667" d="M209 539q0 152 23.5 301t73.5 295.5t126 285.5q16 29 45 36t54.5 -4t38 -40t-2.5 -70q-53 -135 -89 -268t-53 -266t-17 -270t17 -270.5t54 -265.5t88 -269q16 -41 3 -70t-38.5 -39t-54.5 -3t-45 34q-115 211 -169 433t-54 450z" />
<glyph unicode=")" horiz-adv-x="667" d="M98.5 -334.5q-12.5 27.5 3.5 68.5q55 137 90 269t52.5 265t17.5 271q0 137 -18.5 270t-54 265t-87.5 269q-16 41 -3.5 70t39 40t54 4t44.5 -36q117 -209 171 -431t54 -451q0 -152 -24.5 -302.5t-73.5 -296t-127 -284.5q-16 -27 -45 -34t-54.5 4.5t-38 39z" />
<glyph unicode="*" horiz-adv-x="923" d="M63 1094q0 31 24 48t63 13l262 -10l-25 -37l-139 221q-23 35 -19 63.5t33 43.5q27 18 54.5 3.5t43.5 -48.5l113 -220h-22l110 220q18 35 46 49t57 -4q29 -16 31.5 -45t-19.5 -62l-139 -219l-25 35l262 10q39 4 61.5 -13.5t22.5 -47.5q0 -35 -22.5 -51.5t-61.5 -14.5 l-262 8l25 39l139 -221q23 -33 19.5 -59.5t-31.5 -44.5q-31 -16 -57.5 -4t-45.5 47l-110 219h22l-113 -219q-18 -35 -44.5 -48t-55.5 3q-29 18 -33 45.5t19 60.5l139 221l27 -39l-262 -8q-39 -2 -63 14.5t-24 51.5z" />
<glyph unicode="+" d="M100 588q0 33 18.5 51t53.5 18h371v365q0 37 18.5 55.5t54.5 18.5q35 0 52.5 -18.5t17.5 -55.5v-365h371q35 0 53 -18t18 -51t-18 -51.5t-53 -18.5h-371v-377q0 -35 -17.5 -54t-54.5 -19q-35 0 -53 19t-18 54v377h-371q-35 0 -53.5 18.5t-18.5 51.5z" />
<glyph unicode="," horiz-adv-x="477" d="M117 115q0 53 32.5 85.5t88.5 32.5q55 0 88.5 -37.5t33.5 -111.5q0 -43 -9 -91t-29.5 -97.5t-61.5 -96.5q-20 -27 -43.5 -31t-41 8.5t-19.5 37t20 53.5q35 45 48.5 90t13.5 84l8 -49q-57 0 -93 33.5t-36 89.5z" />
<glyph unicode="-" horiz-adv-x="874" d="M131 547q0 33 22.5 54.5t55.5 21.5h457q31 0 54 -21.5t23 -54.5t-23.5 -55.5t-53.5 -22.5h-457q-33 0 -55.5 22.5t-22.5 55.5z" />
<glyph unicode="." horiz-adv-x="477" d="M117 115q0 53 34.5 85.5t88.5 32.5q57 0 88.5 -32.5t31.5 -85.5t-31.5 -88t-88.5 -35q-53 0 -88 34.5t-35 88.5z" />
<glyph unicode="/" horiz-adv-x="593" d="M-18.5 -77.5q-8.5 22.5 0.5 54.5l483 1502q10 29 30.5 42t44 13t44 -12.5t29 -34t-0.5 -53.5l-485 -1502q-10 -31 -29.5 -43t-44 -12t-44 11.5t-28 34z" />
<glyph unicode="0" d="M104 723q0 244 58.5 407.5t172.5 247.5t279 84q252 0 381 -187.5t129 -549.5q0 -240 -58 -405.5t-171 -251.5t-281 -86q-250 0 -380 191.5t-130 549.5zM291 725q0 -299 79.5 -440.5t243.5 -141.5t244 141.5t80 440.5t-79 437t-245 138q-164 0 -243.5 -138t-79.5 -437z " />
<glyph unicode="1" d="M233 82q0 39 23 59.5t61 20.5h258v1124h99l-299 -192q-29 -18 -54.5 -15.5t-44 20t-24.5 42t3 50.5t40 42l283 184q31 18 58.5 29.5t53.5 11.5q31 0 53.5 -18.5t22.5 -59.5v-1218h238q41 0 62 -20.5t21 -59.5t-21.5 -60.5t-61.5 -21.5h-687q-39 0 -61.5 22.5t-22.5 59.5z " />
<glyph unicode="2" d="M136 1227.5q-7 23.5 1 50.5t35 45q84 66 194.5 102.5t227.5 36.5q147 0 248.5 -46t155 -133t53.5 -212q0 -86 -29 -169t-85 -169t-144 -178l-426 -449v56h671q41 0 62.5 -20.5t21.5 -59.5t-21.5 -60.5t-62.5 -21.5h-772q-49 0 -72.5 23.5t-23.5 64.5q0 25 12.5 49.5 t36.5 48.5l449 482q102 109 147 201t45 186q0 119 -72.5 181t-212.5 62q-86 0 -164.5 -27.5t-154.5 -84.5q-29 -20 -53.5 -18.5t-42 19t-24.5 41z" />
<glyph unicode="3" d="M107.5 209.5q5.5 23.5 24 40t45 19.5t56.5 -15q88 -57 175.5 -83t181.5 -26q100 0 169.5 30t105.5 88.5t36 139.5q0 123 -80 185.5t-233 62.5h-144q-43 0 -65.5 21.5t-22.5 58.5q0 39 22.5 59.5t65.5 20.5h127q90 0 153.5 31.5t99.5 89t36 139.5q0 111 -71.5 169 t-206.5 58q-88 0 -166 -25.5t-158 -84.5q-27 -18 -53.5 -17.5t-44 17t-23.5 40t2 50.5t37 47q84 66 193.5 101.5t226.5 35.5q141 0 242.5 -45t155 -128t53.5 -199q0 -88 -33 -161t-93.5 -123t-146.5 -71v23q150 -27 233 -124t83 -243q0 -125 -60.5 -218t-171 -142 t-262.5 -49q-119 0 -237.5 32.5t-206.5 98.5q-29 20 -39.5 46.5t-5 50z" />
<glyph unicode="4" d="M90 385q0 25 12.5 51.5t42.5 71.5l609 887q23 31 48 47t58 16q37 0 62.5 -23.5t25.5 -72.5v-899h139q45 0 68 -20.5t23 -59.5q0 -41 -22.5 -61.5t-68.5 -20.5h-139v-219q0 -47 -24.5 -71.5t-69.5 -24.5t-69.5 24.5t-24.5 71.5v219h-570q-45 0 -72.5 20.5t-27.5 63.5z M258 412v51h502v758h51z" />
<glyph unicode="5" d="M162 213q6 25 24.5 42t44 19t54.5 -16q82 -57 170 -85t184 -28t165.5 37t107.5 102.5t38 153.5q0 135 -79.5 221t-217.5 86q-84 0 -154.5 -29.5t-131.5 -99.5q-14 -16 -36 -28.5t-48 -12.5q-39 0 -59.5 21.5t-20.5 58.5v703q0 41 22.5 63.5t63.5 22.5h690 q41 0 63.5 -20.5t22.5 -59.5t-22.5 -60.5t-63.5 -21.5h-590v-547h-53q55 82 148.5 127t205.5 45q137 0 236.5 -58t155 -161.5t55.5 -241.5q0 -135 -60.5 -240.5t-171 -164.5t-264.5 -59q-115 0 -230.5 33.5t-209.5 103.5q-27 18 -36 43.5t-3 50.5z" />
<glyph unicode="6" d="M125 688q0 188 40 331.5t116.5 242t186.5 149.5t249 51q94 0 192.5 -33.5t175.5 -101.5q23 -16 30 -41.5t1 -49.5t-23.5 -40t-42 -18t-53.5 16q-70 55 -141.5 79.5t-142.5 24.5q-129 0 -219.5 -64.5t-137.5 -191.5t-47 -317v-182h-20q14 115 68.5 196.5t142.5 126.5 t194 45q127 0 224.5 -59t153.5 -161.5t56 -237.5t-59 -243t-163.5 -168t-239.5 -60q-172 0 -293 84t-184.5 241.5t-63.5 380.5zM358 446q0 -90 38 -159.5t103.5 -108.5t153.5 -39t153.5 39t103.5 108.5t38 159.5t-38 160t-103.5 109t-153.5 39t-153.5 -39t-103.5 -108.5 t-38 -160.5z" />
<glyph unicode="7" d="M117 1362q0 39 22.5 60.5t63.5 21.5h809q41 0 66.5 -21.5t25.5 -60.5q0 -33 -8.5 -56.5t-24.5 -54.5l-618 -1202q-16 -33 -42 -48t-65 -15q-33 0 -56.5 16t-28.5 44t13 65l650 1247v-76h-721q-41 0 -63.5 21.5t-22.5 58.5z" />
<glyph unicode="8" d="M94 385q0 100 42 179t116 128t170 62v-33q-135 29 -214 126t-79 230q0 121 60.5 208t169 132t255.5 45q150 0 258.5 -45t168 -132t59.5 -208q0 -88 -36 -163.5t-100.5 -125t-152.5 -67.5v33q143 -20 233.5 -119.5t90.5 -249.5q0 -129 -62.5 -219t-178.5 -137t-280 -47 t-279.5 47t-178 137t-62.5 219zM274 395q0 -129 87 -194.5t253 -65.5q168 0 254 65.5t86 194.5q0 131 -86 194.5t-254 63.5q-166 0 -253 -63.5t-87 -194.5zM311 1061q0 -119 80 -185.5t223 -66.5q96 0 164 29.5t105 87t37 135.5q0 117 -81 182.5t-225 65.5 q-143 0 -223 -65.5t-80 -182.5z" />
<glyph unicode="9" d="M100 991q0 137 59.5 243.5t164 167t239.5 60.5q174 0 294 -83t183.5 -241.5t63.5 -381.5q0 -188 -40 -331.5t-117 -242t-186.5 -149.5t-248.5 -51q-92 0 -191.5 34.5t-177.5 100.5q-23 16 -30 41.5t-0.5 49t24 41t42 19.5t52.5 -18q70 -55 141.5 -80t143.5 -25 q129 0 219 64.5t137.5 192.5t47.5 317v182h20q-12 -113 -67.5 -195.5t-142.5 -128t-195 -45.5q-127 0 -224.5 59.5t-154 163t-56.5 236.5zM283 999q0 -90 37.5 -159.5t103.5 -109.5t154 -40q86 0 152.5 40t103 109.5t36.5 159.5q0 92 -36.5 161t-103 108t-152.5 39 q-88 0 -154 -39t-103.5 -107.5t-37.5 -161.5z" />
<glyph unicode=":" horiz-adv-x="477" d="M117 115q0 53 34.5 85.5t88.5 32.5q57 0 88.5 -32.5t31.5 -85.5t-31.5 -88t-88.5 -35q-53 0 -88 34.5t-35 88.5zM117 885q0 53 34.5 87t88.5 34q57 0 88.5 -34t31.5 -87t-31.5 -87t-88.5 -34q-53 0 -88 33.5t-35 87.5z" />
<glyph unicode=";" horiz-adv-x="477" d="M117 115q0 53 32.5 85.5t88.5 32.5q55 0 88.5 -37.5t33.5 -111.5q0 -43 -9 -91t-29.5 -97.5t-61.5 -96.5q-20 -27 -43.5 -31t-41 8.5t-19.5 37t20 53.5q35 45 48.5 90t13.5 84l8 -49q-57 0 -93 33.5t-36 89.5zM117 885q0 53 34.5 87t88.5 34q57 0 88.5 -34t31.5 -87 t-31.5 -87t-88.5 -34q-53 0 -88 33.5t-35 87.5z" />
<glyph unicode="&#x3c;" d="M111 590q0 35 18 59.5t53 40.5l860 383q27 12 49.5 6t35 -22.5t14.5 -39t-8.5 -43t-36.5 -30.5l-912 -403v94l912 -404q27 -10 37 -30.5t8 -42t-14.5 -39t-35 -23.5t-49.5 6l-860 383q-72 33 -71 105z" />
<glyph unicode="=" d="M100 385q0 33 18.5 50.5t53.5 17.5h885q35 0 53 -17.5t18 -50.5q0 -35 -18 -52.5t-53 -17.5h-885q-35 0 -53.5 18.5t-18.5 51.5zM100 793q0 33 18.5 51t53.5 18h885q35 0 53 -18.5t18 -50.5q0 -33 -18 -51.5t-53 -18.5h-885q-35 0 -53.5 18.5t-18.5 51.5z" />
<glyph unicode="&#x3e;" d="M89 158.5q-1 21.5 9.5 42t36.5 30.5l912 404v-94l-912 403q-27 10 -37 30.5t-9 43t14.5 39t35 22.5t49.5 -6l859 -383q74 -31 73 -100q0 -37 -18.5 -62.5t-54.5 -42.5l-859 -383q-29 -12 -50 -6t-34.5 23.5t-14.5 39z" />
<glyph unicode="?" horiz-adv-x="915" d="M11 1228.5q-5 24.5 7.5 52.5t42.5 50q82 61 190.5 96t215.5 35q121 0 211 -41t141 -113.5t51 -170.5q0 -66 -18 -123.5t-59 -116.5t-111 -131q-63 -66 -103 -120t-57.5 -103t-23.5 -107q-2 -25 -18.5 -40t-45.5 -15t-45 18.5t-16 53.5q0 70 16.5 131t54 123.5 t101.5 136.5q49 57 78.5 102t43 87t13.5 87q0 82 -58.5 130t-162.5 48q-92 0 -169 -27.5t-149 -76.5q-33 -23 -61.5 -23t-46 16.5t-22.5 41zM309 115q0 53 34 85.5t89 32.5t88 -32.5t33 -85.5t-33 -88t-88 -35t-89 34.5t-34 88.5z" />
<glyph unicode="@" horiz-adv-x="1939" d="M121 557q0 203 65.5 369t185.5 286.5t285.5 185t364.5 64.5q238 0 417 -95t279.5 -265t100.5 -397q0 -178 -49.5 -309.5t-137.5 -203t-207 -71.5q-123 0 -186 70.5t-57 191.5l43 -4q-51 -127 -145.5 -192.5t-198.5 -65.5q-160 0 -248 100.5t-88 274.5q0 150 57 267.5 t157.5 185t227.5 67.5q111 0 181.5 -55.5t93.5 -155.5h-27l22 129q10 72 84 72q35 0 53.5 -20.5t10.5 -61.5l-78 -449q-6 -29 -9 -53.5t-3 -46.5q0 -68 30.5 -100.5t90.5 -32.5q78 0 134 57t89 161.5t33 244.5q0 193 -84 334t-233.5 219.5t-354.5 78.5q-227 0 -397 -97 t-265.5 -272t-95.5 -411q0 -240 90 -412t254 -263t387 -91q147 0 266 39t207 111q29 25 55.5 20.5t41 -25t11.5 -47t-32 -49.5q-96 -82 -236.5 -129t-312.5 -47q-195 0 -355.5 62.5t-276 180.5t-178 281.5t-62.5 368.5zM700 496q0 -119 53.5 -182.5t149.5 -63.5 q88 0 156.5 53t107.5 147.5t39 213.5q0 113 -49 168t-151 55q-86 0 -157 -50.5t-110 -138.5t-39 -202z" />
<glyph unicode="A" horiz-adv-x="1501" d="M70 47q-1 6 -1 12q0 24 13 52l559 1265q18 43 47 62.5t64 19.5t62.5 -19.5t47.5 -62.5l559 -1265q14 -30 14 -57q-1 -4 -1 -8q-2 -30 -22.5 -45t-57.5 -15q-41 0 -65.5 21.5t-43.5 62.5l-145 340l88 -50h-877l88 50l-145 -340q-18 -45 -40.5 -64.5t-59.5 -19.5t-58.5 16 t-25.5 45zM379 516h741l-47 -43l-321 756h-4l-320 -756z" />
<glyph unicode="B" horiz-adv-x="1390" d="M174 102v1239q0 49 26.5 76t75.5 27h486q150 0 255 -45t160.5 -129t55.5 -203q0 -133 -78 -223t-213 -121v31q152 -18 239 -111.5t87 -243.5q0 -193 -126 -296t-356 -103h-510q-49 0 -75.5 26.5t-26.5 75.5zM358 150h408q160 0 237.5 62t77.5 191t-77.5 190.5 t-237.5 61.5h-408v-505zM358 807h375q156 0 235 62.5t79 181.5t-79 181t-235 62h-375v-487z" />
<glyph unicode="C" horiz-adv-x="1382" d="M121 723q0 170 47 306t135 233.5t216 148.5t290 51q123 0 236.5 -34.5t195.5 -98.5q33 -23 43 -51.5t3 -54t-27 -43.5q-20 -17 -48 -18h-2q-27 0 -59 22q-72 55 -157 80.5t-181 25.5q-158 0 -267.5 -66.5t-165.5 -192.5t-56 -308q0 -180 56 -308t165.5 -194.5 t267.5 -66.5q96 0 183 26.5t161 81.5q30 21 56 21h5q28 -2 46 -17.5t25 -41t-1 -52.5t-37 -47q-84 -72 -199.5 -107.5t-242.5 -35.5q-215 0 -368.5 90t-236.5 257t-83 394z" />
<glyph unicode="D" horiz-adv-x="1529" d="M174 102v1239q0 49 26.5 76t75.5 27h396q354 0 545.5 -185.5t191.5 -535.5q0 -174 -49 -309t-143.5 -226.5t-230.5 -139.5t-314 -48h-396q-49 0 -75.5 26.5t-26.5 75.5zM365 162h294q139 0 242 34.5t171.5 104.5t103 175.5t34.5 246.5q0 281 -138 420t-413 139h-294 v-1120z" />
<glyph unicode="E" horiz-adv-x="1200" d="M174 102v1239q0 49 26.5 76t75.5 27h754q39 0 60.5 -19.5t21.5 -56.5q0 -39 -21.5 -59.5t-60.5 -20.5h-672v-477h629q39 0 59.5 -20.5t20.5 -57.5q0 -39 -20.5 -58.5t-59.5 -19.5h-629v-499h672q39 0 60.5 -19.5t21.5 -58.5t-21.5 -58.5t-60.5 -19.5h-754 q-49 0 -75.5 26.5t-26.5 75.5z" />
<glyph unicode="F" horiz-adv-x="1128" d="M174 88v1253q0 49 26.5 76t75.5 27h736q41 0 61.5 -19.5t20.5 -56.5q0 -39 -20.5 -59.5t-61.5 -20.5h-647v-483h606q39 0 59.5 -20.5t20.5 -55.5q0 -39 -20.5 -59.5t-59.5 -20.5h-606v-561q-1 -102 -91 -102q-47 0 -73.5 26.5t-26.5 75.5z" />
<glyph unicode="G" horiz-adv-x="1492" d="M121 721q0 172 47 308t138 233.5t221 148.5t294 51q127 0 246 -33.5t217 -109.5q25 -18 32 -43t1 -49.5t-23.5 -43t-43 -21.5t-54.5 16q-84 61 -175 87.5t-200 26.5q-162 0 -274.5 -66.5t-168.5 -194.5t-56 -310q0 -281 132 -426t392 -145q96 0 187 18t175 51l-41 -102 v493h-278q-37 0 -58.5 20.5t-21.5 55.5t21.5 53.5t58.5 18.5h362q37 0 58.5 -20.5t21.5 -59.5v-526q0 -33 -12 -56.5t-41 -34.5q-86 -35 -204.5 -57t-233.5 -22q-231 0 -392 89t-244 255t-83 395z" />
<glyph unicode="H" horiz-adv-x="1564" d="M174 84v1276q0 49 24.5 73.5t69.5 24.5q47 0 72 -24.5t25 -73.5v-547h835v547q0 49 24.5 73.5t71.5 24.5q45 0 70 -24.5t25 -73.5v-1276q0 -47 -25 -72.5t-70 -25.5q-47 0 -71.5 25.5t-24.5 72.5v567h-835v-567q0 -47 -24 -72.5t-73 -25.5q-45 0 -69.5 25.5t-24.5 72.5z " />
<glyph unicode="I" horiz-adv-x="536" d="M174 84v1276q0 49 24.5 73.5t69.5 24.5q47 0 72 -24.5t25 -73.5v-1276q0 -47 -24 -72.5t-73 -25.5q-45 0 -69.5 25.5t-24.5 72.5z" />
<glyph unicode="J" horiz-adv-x="677" d="M-27 72q0 29 17.5 50t54.5 23l64 7q100 8 153 69.5t53 167.5v973q0 47 25 71.5t70 24.5t69.5 -24.5t24.5 -71.5v-973q0 -121 -42 -206t-124 -133t-205 -58l-67 -4h-6q-39 0 -62 22q-25 25 -25 62z" />
<glyph unicode="K" horiz-adv-x="1298" d="M174 84v1278q0 47 24.5 71.5t69.5 24.5q47 0 72 -24.5t25 -71.5v-571h4l647 616q29 27 54.5 39t55.5 12q43 0 62.5 -21.5t15.5 -51t-30 -56.5l-676 -635l2 97l706 -664q33 -31 35 -64.5t-19.5 -55t-64.5 -21.5q-35 0 -58.5 14t-54.5 45l-675 633h-4v-594q0 -47 -24 -72.5 t-73 -25.5q-45 0 -69.5 25.5t-24.5 72.5z" />
<glyph unicode="L" horiz-adv-x="1122" d="M174 98v1258q0 47 24.5 71.5t69.5 24.5q47 0 72 -24.5t25 -71.5v-1192h651q43 0 64.5 -20.5t21.5 -59.5q0 -41 -21.5 -62.5t-64.5 -21.5h-746q-45 0 -70.5 26.5t-25.5 71.5z" />
<glyph unicode="M" horiz-adv-x="1757" d="M178 76v1292q0 43 23.5 66.5t64.5 23.5q37 0 58.5 -14t40.5 -49l548 -1030h-63l549 1030q18 35 38.5 49t57.5 14q41 0 63.5 -23.5t22.5 -66.5v-1292q0 -41 -21.5 -65.5t-64.5 -24.5t-64.5 24.5t-21.5 65.5v1104h45l-491 -920q-16 -27 -34 -40t-48 -13q-29 0 -48.5 14.5 t-33.5 38.5l-498 922h49v-1106q0 -41 -21.5 -65.5t-64.5 -24.5q-41 0 -63.5 24.5t-22.5 65.5z" />
<glyph unicode="N" horiz-adv-x="1517" d="M174 78v1284q0 47 22.5 71.5t59.5 24.5q35 0 53.5 -12t40.5 -43l869 -1151h-52v1114q0 45 23.5 68.5t66.5 23.5t66 -23.5t23 -68.5v-1288q0 -43 -21.5 -67.5t-56.5 -24.5q-33 0 -54.5 13t-44.5 44l-866 1151h47v-1116q0 -43 -22.5 -67.5t-65.5 -24.5q-41 0 -64.5 24.5 t-23.5 67.5z" />
<glyph unicode="O" horiz-adv-x="1579" d="M121 723q0 170 47 306t134 233.5t211 148.5t278 51q205 0 354 -90t231 -256t82 -391q0 -170 -47 -307t-134 -235.5t-209.5 -149.5t-276.5 -51q-205 0 -354.5 91t-232.5 258t-83 392zM322 723q0 -270 123 -421.5t346 -151.5q147 0 251.5 67.5t161 196.5t56.5 309 q0 272 -122 421.5t-347 149.5q-147 0 -253 -66.5t-161 -194.5t-55 -310z" />
<glyph unicode="P" horiz-adv-x="1304" d="M174 84v1264q0 47 25.5 71.5t70.5 24.5h488q233 0 359 -115t126 -321q0 -209 -126 -324t-359 -115h-393v-485q0 -47 -24 -72.5t-73 -25.5q-45 0 -69.5 25.5t-24.5 72.5zM365 723h368q160 0 241 72.5t81 212.5q0 139 -81 209.5t-241 70.5h-368v-565z" />
<glyph unicode="Q" horiz-adv-x="1579" d="M121 723q0 170 47 306t134 233.5t211 148.5t278 51q205 0 354 -90t231 -256t82 -391q0 -170 -47 -307t-134 -235.5t-209.5 -149.5t-276.5 -51q-205 0 -354.5 91t-232.5 258t-83 392zM322 723q0 -270 123 -421.5t346 -151.5q147 0 251.5 67.5t161 196.5t56.5 309 q0 272 -122 421.5t-347 149.5q-147 0 -253 -66.5t-161 -194.5t-55 -310zM788 -18l154 63q96 0 152.5 -34t111.5 -122l94 -151q20 -30 20 -54q0 -4 -1 -8q-4 -28 -22.5 -47.5t-47 -24.5t-57.5 6t-49 44l-133 217q-33 53 -88.5 82t-133.5 29z" />
<glyph unicode="R" horiz-adv-x="1378" d="M174 84v1264q0 47 25.5 71.5t70.5 24.5h488q233 0 359 -109.5t126 -310.5q0 -131 -57.5 -224t-166 -142.5t-261.5 -49.5l20 29h45q82 0 142.5 -41t107.5 -131l189 -346q16 -30 16 -57v-6q-2 -30 -22.5 -50t-59.5 -20q-41 0 -65.5 17t-43.5 52l-221 406q-45 86 -102 113.5 t-154 27.5h-245v-518q0 -47 -24 -72.5t-73 -25.5q-45 0 -69.5 25.5t-24.5 72.5zM365 750h362q164 0 246 68.5t82 201.5t-82 200.5t-246 67.5h-362v-538z" />
<glyph unicode="S" horiz-adv-x="1265" d="M103.5 216q5.5 26 22.5 44.5t42 22.5t53 -17q94 -63 197.5 -92t228.5 -29q180 0 265 65.5t85 172.5q0 88 -61.5 138t-206.5 79l-217 45q-193 41 -288 135t-95 252q0 96 39 175t110.5 136.5t169 88t216.5 30.5q127 0 238.5 -34.5t201.5 -101.5q25 -18 33 -44.5t3 -51 t-22.5 -40.5t-43 -18.5t-56.5 18.5q-82 57 -168 82.5t-188 25.5q-104 0 -181.5 -32.5t-119.5 -91t-42 -136.5q0 -94 57.5 -147t192.5 -82l215 -43q205 -43 304.5 -132t99.5 -239q0 -94 -38 -169.5t-107.5 -130t-170 -84t-225.5 -29.5q-96 0 -186 15t-170 46t-144 76 q-27 18 -38 44.5t-5.5 52.5z" />
<glyph unicode="T" horiz-adv-x="1243" d="M-6 1364q0 39 22.5 59.5t61.5 20.5h1087q41 0 62.5 -20.5t21.5 -59.5t-21.5 -60.5t-62.5 -21.5h-448v-1198q0 -47 -23.5 -72.5t-70.5 -25.5t-72 25.5t-25 72.5v1198h-448q-39 0 -61.5 21.5t-22.5 60.5z" />
<glyph unicode="U" horiz-adv-x="1497" d="M164 578v784q0 49 24.5 72.5t69.5 23.5q47 0 71.5 -23.5t24.5 -72.5v-778q0 -219 100.5 -326.5t295.5 -107.5t295 107.5t100 326.5v778q0 49 24.5 72.5t69.5 23.5t69.5 -23.5t24.5 -72.5v-784q0 -195 -66.5 -328t-196.5 -200.5t-320 -67.5q-143 0 -253 37.5t-183.5 112.5 t-111.5 186.5t-38 259.5z" />
<glyph unicode="V" horiz-adv-x="1421" d="M34 1400q7 28 30.5 43t56.5 15q43 0 64.5 -18.5t37.5 -55.5l529 -1226h-72l526 1226q16 37 39 55.5t64 18.5q33 0 54 -16t27 -44q1 -7 1 -16q0 -22 -11 -49l-557 -1267q-16 -41 -41.5 -60.5t-68.5 -19.5t-70 19.5t-45 60.5l-555 1267q-11 27 -11 49q0 10 2 18z" />
<glyph unicode="W" horiz-adv-x="2260" d="M94 1346q-8 20 -8 38q0 24 14 42q24 32 78 32q39 0 61.5 -18.5t36.5 -61.5l412 -1208h-74l422 1204q16 43 39 63.5t60 20.5q39 0 60.5 -20.5t35.5 -65.5l414 -1202h-66l416 1208q14 41 36.5 60.5t63.5 19.5q47 0 69 -32q13 -19 14 -43q0 -17 -7 -37l-451 -1276 q-14 -43 -38.5 -63.5t-65.5 -20.5q-43 0 -67.5 20.5t-41.5 65.5l-399 1147h45l-401 -1149q-16 -43 -40 -63.5t-65 -20.5t-65.5 20.5t-40.5 65.5z" />
<glyph unicode="X" horiz-adv-x="1341" d="M81 56v7q0 27 19 54l492 657v-74l-463 623q-22 31 -22 58q1 3 1 7q4 30 27 50t58 20q31 0 54 -13t46 -48l409 -559h-59l406 559q23 35 46 48t56 13q37 0 61 -20q23 -20 26 -50v-6q0 -28 -24 -59l-462 -623v74l489 -657q21 -29 21 -57q0 -34 -27 -54q-25 -20 -64 -20 q-27 0 -51 14t-49 47l-436 596h72l-435 -596q-25 -33 -49 -47t-53 -14q-37 0 -61.5 20t-27.5 50z" />
<glyph unicode="Y" horiz-adv-x="1230" d="M58 1438q22 20 61 20q31 0 55.5 -14t46.5 -47l422 -582h-47l422 582q23 35 45 48t57 13q37 0 58.5 -19.5t22.5 -50.5v-2q0 -29 -23 -61l-508 -704l41 127v-662q-1 -100 -97 -100q-45 0 -69.5 25.5t-24.5 74.5v662l41 -127l-508 704q-19 28 -19 58q0 33 24 55z" />
<glyph unicode="Z" horiz-adv-x="1214" d="M84 1364q0 39 22.5 59.5t65.5 20.5h879q37 0 60.5 -15.5t32.5 -41t1 -58.5t-35 -67l-838 -1168v68h824q43 0 65.5 -20.5t22.5 -59.5t-22.5 -60.5t-65.5 -21.5h-910q-37 0 -60.5 15.5t-32.5 41t0 58t34 67.5l838 1168v-68h-793q-43 0 -65.5 21.5t-22.5 60.5z" />
<glyph unicode="[" horiz-adv-x="663" d="M221 -289v1653q0 35 24.5 57.5t57.5 22.5h283q35 0 55.5 -20.5t20.5 -51.5t-20.5 -52.5t-55.5 -21.5h-178v-1521h178q35 0 55.5 -21.5t20.5 -52.5t-20.5 -51.5t-55.5 -20.5h-283q-33 0 -57.5 23.5t-24.5 56.5z" />
<glyph unicode="\" horiz-adv-x="593" d="M-18 1434q-8 33 0 54t27.5 33.5t43 12.5t44 -13.5t30.5 -41.5l485 -1502q8 -33 0 -55t-28.5 -33.5t-44 -11.5t-44 12t-30.5 43z" />
<glyph unicode="]" horiz-adv-x="663" d="M4 -297q0 31 20.5 52.5t53.5 21.5h178v1521h-178q-33 0 -53.5 21.5t-20.5 52.5t20.5 51.5t53.5 20.5h282q35 0 58.5 -22.5t23.5 -57.5v-1653q0 -33 -23.5 -56.5t-58.5 -23.5h-282q-33 0 -53.5 20.5t-20.5 51.5z" />
<glyph unicode="^" d="M132.5 301q-15.5 29 2.5 70l387 868q14 35 37 48t55 13q66 0 93 -61l387 -868q18 -41 3.5 -70t-63.5 -29q-25 0 -42 13.5t-31 44.5l-392 887h93l-394 -887q-14 -31 -30 -44.5t-43 -13.5q-47 0 -62.5 29z" />
<glyph unicode="_" horiz-adv-x="1024" d="M27 -59q0 25 18 42t47 17h842q27 0 45 -17.5t18 -41.5q0 -27 -18 -43.5t-45 -16.5h-842q-29 0 -47 16.5t-18 43.5z" />
<glyph unicode="`" horiz-adv-x="739" d="M205.5 1505.5q3.5 24.5 22 42t43 23.5t49 -3t41.5 -42l166 -326q12 -27 5 -47t-27.5 -31.5t-43.5 -7.5t-37 27l-204 311q-18 29 -14.5 53.5z" />
<glyph unicode="a" horiz-adv-x="1091" d="M106 289q0 111 55.5 174t186.5 91t352 28h97v-119h-92q-158 0 -249 -14.5t-128 -50.5t-37 -99q0 -80 56 -131t155 -51q78 0 137 38t94 102.5t35 148.5v235q0 121 -49 175t-166 54q-68 0 -139.5 -18t-149.5 -57q-31 -14 -53.5 -9t-35.5 24t-14 43t10 46.5t40 32.5 q90 45 179 64.5t167 19.5q133 0 219 -42t129 -129t43 -222v-541q0 -47 -22.5 -71.5t-65.5 -24.5q-41 0 -64.5 24.5t-23.5 71.5v145h19q-16 -76 -61.5 -131t-112 -84.5t-150.5 -29.5q-102 0 -185 40.5t-129.5 110.5t-46.5 156z" />
<glyph unicode="b" horiz-adv-x="1202" d="M150 82v1282q0 47 24.5 70.5t67.5 23.5q45 0 69.5 -23.5t24.5 -70.5v-592h-23q33 111 129.5 177.5t229.5 66.5t232.5 -62.5t153.5 -178.5t54 -275q0 -158 -55.5 -276t-153.5 -180t-231 -62q-135 0 -231.5 67.5t-129.5 181.5l23 31v-180q0 -47 -23.5 -71.5t-68.5 -24.5 q-43 0 -67.5 24.5t-24.5 71.5zM334 500q0 -180 80 -275.5t215 -95.5q88 0 154.5 43t103.5 125t37 203q0 180 -80 274t-215 94q-90 0 -156.5 -42t-102.5 -123.5t-36 -202.5z" />
<glyph unicode="c" horiz-adv-x="952" d="M90 506q0 119 34 213t97.5 160.5t154.5 101.5t206 35q72 0 151.5 -22.5t147.5 -73.5q23 -16 28.5 -38t0.5 -44.5t-20.5 -38t-39 -17.5t-49.5 15q-49 37 -103.5 53t-103.5 16q-76 0 -134.5 -24.5t-98 -70.5t-60 -112.5t-20.5 -154.5q0 -174 81.5 -273.5t231.5 -99.5 q49 0 102.5 15.5t104.5 52.5q27 16 49 13t37.5 -18.5t19.5 -37t-3 -44t-30 -36.5q-66 -49 -143 -71.5t-149 -22.5q-152 0 -262.5 64.5t-170 182t-59.5 277.5z" />
<glyph unicode="d" horiz-adv-x="1202" d="M90 500q0 160 54.5 275.5t153.5 178t232 62.5t229.5 -66.5t129.5 -177.5h-23v592q0 47 23.5 70.5t68.5 23.5t70 -23.5t25 -70.5v-1282q0 -47 -24.5 -71.5t-70.5 -24.5q-43 0 -67.5 24.5t-24.5 71.5v186l23 -37q-31 -115 -128.5 -182t-230.5 -67q-131 0 -230 62 t-154.5 180t-55.5 276zM279 500q0 -180 80.5 -275.5t213.5 -95.5q90 0 157 43t102.5 125t35.5 203q0 180 -79.5 274t-215.5 94q-88 0 -154.5 -42t-103 -123.5t-36.5 -202.5z" />
<glyph unicode="e" horiz-adv-x="1093" d="M90 496q0 156 62.5 272.5t172 182t250.5 65.5q100 0 181.5 -34t138.5 -97.5t87 -154.5t30 -206q0 -33 -19.5 -50t-56.5 -17h-700v118h653l-35 -28q0 106 -31.5 181t-92 114t-150.5 39q-98 0 -168 -46.5t-107 -129t-37 -191.5v-12q0 -184 88 -278.5t254 -94.5 q66 0 134.5 16.5t132.5 59.5q31 18 56 17t41.5 -16.5t20.5 -37t-6 -46t-39 -42.5q-68 -47 -161 -72.5t-179 -25.5q-162 0 -277.5 62t-179 178t-63.5 274z" />
<glyph unicode="f" horiz-adv-x="696" d="M6 926q0 35 20.5 53t57.5 18h174l-51 -49v76q0 199 97 302.5t286 119.5l63 4q31 4 49.5 -9.5t24.5 -34t1 -42t-19.5 -37.5t-36.5 -18l-45 -2q-123 -10 -178.5 -73t-55.5 -185v-82l-26 30h235q39 0 59.5 -18t20.5 -53q0 -33 -20.5 -52.5t-59.5 -19.5h-209v-772 q0 -96 -92 -96q-45 0 -69.5 24.5t-24.5 71.5v772h-123q-37 0 -57.5 19.5t-20.5 52.5z" />
<glyph unicode="g" horiz-adv-x="1208" d="M90 520q0 113 32 204t90 155.5t140 100.5t185 36q133 0 231 -67.5t127 -182.5l-23 -29v181q0 47 25 70.5t70 23.5q43 0 67.5 -23.5t24.5 -70.5v-840q0 -231 -118 -348t-343 -117q-111 0 -214 24.5t-187 75.5q-27 16 -36 38t-4 44.5t20.5 40t37 22.5t43.5 -10 q90 -51 172 -69.5t156 -18.5q145 0 218 75t73 218v221h18q-29 -115 -128 -182t-230 -67q-135 0 -235.5 62.5t-156 174t-55.5 258.5zM279 520q0 -160 81 -254t218 -94q92 0 158.5 42t102 121t35.5 185q0 162 -79.5 255t-216.5 93q-92 0 -159 -42t-103.5 -119.5t-36.5 -186.5z " />
<glyph unicode="h" horiz-adv-x="1171" d="M150 82v1282q0 47 24.5 70.5t67.5 23.5q45 0 69.5 -23.5t24.5 -70.5v-584h-27q43 117 140.5 176.5t222.5 59.5q121 0 198.5 -44t116.5 -132t39 -222v-536q0 -47 -23.5 -71.5t-68.5 -24.5t-69.5 24.5t-24.5 71.5v526q0 133 -51.5 194.5t-163.5 61.5q-131 0 -210 -81 t-79 -218v-483q0 -96 -94 -96q-43 0 -67.5 24.5t-24.5 71.5z" />
<glyph unicode="i" horiz-adv-x="485" d="M123 1337q0 53 31.5 81t87.5 28q59 0 88.5 -27.5t29.5 -81.5q0 -49 -29.5 -78.5t-88.5 -29.5q-55 0 -87 29.5t-32 78.5zM150 90v817q0 49 24.5 75t67.5 26q45 0 69.5 -26t24.5 -75v-817q0 -47 -23.5 -73.5t-70.5 -26.5q-43 0 -67.5 26.5t-24.5 73.5z" />
<glyph unicode="j" horiz-adv-x="493" d="M-115 -302.5q4 21.5 19.5 37t42.5 17.5q109 6 160 58.5t51 162.5v945q0 47 24.5 70.5t69.5 23.5q43 0 67.5 -23.5t24.5 -70.5v-930q0 -127 -42 -208t-124 -122t-203 -47q-33 -2 -55 10t-30.5 33.5t-4.5 43zM131 1337q0 53 32 81t87 28q57 0 88 -27.5t31 -81.5 q0 -49 -31 -78.5t-88 -29.5q-55 0 -87 29.5t-32 78.5z" />
<glyph unicode="k" horiz-adv-x="1040" d="M150 82v1282q0 47 24.5 70.5t67.5 23.5q45 0 69.5 -23.5t24.5 -70.5v-807h4l401 391q31 31 55.5 47.5t63.5 16.5t59.5 -19.5t20.5 -49.5t-29 -58l-426 -414v92l465 -448q28 -28 28 -57q0 -32 -22 -52t-57 -20q-41 0 -66.5 16t-58.5 51l-434 410h-4v-381q0 -96 -94 -96 q-43 0 -67.5 24.5t-24.5 71.5z" />
<glyph unicode="l" horiz-adv-x="616" d="M150 336v1028q0 47 24.5 70.5t67.5 23.5q45 0 69.5 -23.5t24.5 -70.5v-1014q0 -106 44 -158.5t126 -52.5q18 0 32.5 1t28.5 3q23 2 33 -12t10 -57q0 -39 -17.5 -60.5t-55.5 -27.5q-18 -2 -37 -3t-37 -1q-154 0 -233.5 91t-79.5 263z" />
<glyph unicode="m" horiz-adv-x="1763" d="M154 82v836q0 47 24.5 70.5t67.5 23.5t66.5 -23.5t23.5 -70.5v-175l-23 37q39 113 126 174.5t208 61.5q127 0 205 -60.5t104 -183.5h-28q37 113 132 178.5t222 65.5q113 0 185.5 -44t109.5 -131t37 -223v-536q0 -47 -24.5 -71.5t-67.5 -24.5q-45 0 -70 24.5t-25 71.5v528 q0 131 -45 192.5t-151 61.5q-117 0 -185.5 -81t-68.5 -222v-479q0 -47 -23.5 -71.5t-68.5 -24.5t-69.5 24.5t-24.5 71.5v528q0 131 -45.5 192.5t-151.5 61.5q-117 0 -185.5 -81t-68.5 -222v-479q0 -96 -94 -96q-43 0 -67.5 24.5t-24.5 71.5z" />
<glyph unicode="n" horiz-adv-x="1171" d="M150 82v836q0 47 24.5 70.5t67.5 23.5t66.5 -23.5t23.5 -70.5v-168l-23 30q43 117 140.5 176.5t222.5 59.5q121 0 198.5 -43t116.5 -131t39 -224v-536q0 -47 -23.5 -71.5t-68.5 -24.5t-69.5 24.5t-24.5 71.5v526q0 133 -51.5 194.5t-163.5 61.5q-131 0 -210 -81t-79 -218 v-483q0 -96 -94 -96q-43 0 -67.5 24.5t-24.5 71.5z" />
<glyph unicode="o" horiz-adv-x="1146" d="M90 500q0 119 34 214t97.5 162.5t152.5 103.5t199 36q147 0 256 -63.5t168.5 -179.5t59.5 -273q0 -119 -34 -215.5t-97.5 -164t-152.5 -103t-200 -35.5q-147 0 -255.5 63.5t-168 180t-59.5 274.5zM279 500q0 -180 80.5 -275.5t213.5 -95.5q90 0 157 43t102.5 125 t35.5 203q0 180 -79.5 274t-215.5 94q-88 0 -154.5 -42t-103 -123.5t-36.5 -202.5z" />
<glyph unicode="p" horiz-adv-x="1202" d="M150 -289v1207q0 47 24.5 70.5t67.5 23.5q45 0 68.5 -23.5t23.5 -70.5v-187l-23 37q33 113 129.5 180.5t231.5 67.5q133 0 231 -62.5t153.5 -178.5t55.5 -275q0 -158 -54 -276t-153.5 -180t-232.5 -62t-229.5 67.5t-129.5 177.5h23v-516q0 -45 -24.5 -69.5t-69.5 -24.5 q-43 0 -67.5 24.5t-24.5 69.5zM334 500q0 -180 80 -275.5t215 -95.5q88 0 154.5 43t103.5 125t37 203q0 180 -80 274t-215 94q-90 0 -156.5 -42t-102.5 -123.5t-36 -202.5z" />
<glyph unicode="q" horiz-adv-x="1202" d="M90 500q0 160 55.5 275.5t154.5 178t230 62.5q133 0 230.5 -67.5t128.5 -180.5l-23 -37v187q0 47 24.5 70.5t67.5 23.5q45 0 70 -23.5t25 -70.5v-1207q0 -45 -25 -69.5t-70 -24.5t-68.5 24.5t-23.5 69.5v516h23q-33 -111 -129 -178t-230 -67q-133 0 -232 62t-153.5 180 t-54.5 276zM279 500q0 -180 80.5 -275.5t213.5 -95.5q90 0 157 43t102.5 125t35.5 203q0 180 -79.5 274t-215.5 94q-88 0 -154.5 -42t-103 -123.5t-36.5 -202.5z" />
<glyph unicode="r" horiz-adv-x="747" d="M150 82v836q0 47 24.5 70.5t67.5 23.5t66.5 -23.5t23.5 -70.5v-158h-21q33 123 123 186.5t228 71.5q33 2 53 -15.5t22 -58.5v-7q-1 -33 -19 -55q-20 -24 -63 -28l-37 -2q-135 -14 -207.5 -88t-72.5 -203v-479q0 -47 -23.5 -71.5t-68.5 -24.5q-47 0 -71.5 24.5t-24.5 71.5 z" />
<glyph unicode="s" horiz-adv-x="989" d="M95 156.5q3 21.5 17.5 38t36 19.5t46.5 -11q80 -45 154.5 -63.5t148.5 -18.5q113 0 170 41t57 108q0 57 -38 89t-118 49l-190 38q-127 29 -191.5 95.5t-64.5 171.5q0 92 50 160.5t140 105.5t207 37q90 0 171 -23.5t147 -70.5q25 -14 32 -36t1.5 -43.5t-19.5 -35.5 t-36.5 -17.5t-49.5 11.5q-59 41 -121.5 58.5t-124.5 17.5q-111 0 -167 -43t-56 -113q0 -53 34 -88t107 -51l191 -39q133 -29 200.5 -91.5t67.5 -168.5q0 -139 -109.5 -220t-293.5 -81q-92 0 -185.5 21.5t-175.5 74.5q-23 14 -32 35.5t-6 43z" />
<glyph unicode="t" horiz-adv-x="733" d="M-8 926q0 35 20.5 53t57.5 18h131v224q0 47 24.5 70.5t69.5 23.5t68.5 -23.5t23.5 -70.5v-224h248q39 0 59.5 -18t20.5 -53q0 -33 -20.5 -52.5t-59.5 -19.5h-248v-487q0 -113 47 -170.5t156 -57.5q39 0 65.5 7.5t46.5 7.5q18 2 32 -12.5t14 -53.5q0 -29 -9.5 -52.5 t-36.5 -31.5q-25 -8 -65.5 -15t-73.5 -7q-121 0 -201.5 43t-120.5 124.5t-40 200.5v504h-131q-37 0 -57.5 19.5t-20.5 52.5z" />
<glyph unicode="u" horiz-adv-x="1157" d="M145 381v537q0 47 24 70.5t69 23.5t69.5 -23.5t24.5 -70.5v-537q0 -127 51 -187.5t162 -60.5q123 0 199.5 82t76.5 217v486q0 47 23.5 70.5t68.5 23.5t70 -23.5t25 -70.5v-836q0 -96 -90 -96q-45 0 -69 24.5t-24 71.5v178l27 -35q-41 -119 -132 -181t-214 -62 q-121 0 -202 45t-120 133t-39 221z" />
<glyph unicode="v" horiz-adv-x="1060" d="M53 946q4 28 27.5 47t64.5 19q35 0 55.5 -16.5t39.5 -57.5l321 -793h-57l330 793q16 41 37.5 57.5t60.5 16.5q35 0 54.5 -18.5t23.5 -47t-13 -61.5l-350 -813q-18 -45 -48 -65.5t-71 -20.5q-39 0 -67.5 20.5t-48.5 65.5l-349 811q-11 27 -11 51q0 6 1 12z" />
<glyph unicode="w" horiz-adv-x="1728" d="M78 950q6 28 28.5 45t59.5 17q35 0 55.5 -16.5t34.5 -59.5l279 -786h-50l287 790q14 37 38 54.5t58 17.5q37 0 61.5 -17.5t35.5 -54.5l282 -790h-47l283 790q14 41 36.5 56.5t55.5 15.5q37 0 55.5 -18.5t21.5 -48.5t-10 -62l-305 -813q-14 -43 -43.5 -63.5t-68.5 -20.5 t-69 20.5t-46 63.5l-293 802h94l-293 -802q-16 -43 -44.5 -63.5t-69.5 -20.5q-39 0 -67.5 19.5t-45.5 64.5l-305 813q-10 27 -10 49q0 9 2 18z" />
<glyph unicode="x" horiz-adv-x="1085" d="M93 58q0 30 26 63l354 440v-92l-332 410q-27 32 -27 61v4q2 30 24 49t55 19q35 0 58 -12.5t44 -38.5l283 -359h-66l283 359q20 27 43.5 39t56.5 12t54.5 -18.5t22.5 -49.5v-2q0 -30 -26 -63l-330 -406v82l353 -434q27 -30 27 -59v-4q-2 -30 -24 -50t-54 -20 q-35 0 -58.5 12t-44.5 39l-305 383h63l-301 -383q-20 -25 -43.5 -38t-58.5 -13q-32 0 -54 18q-24 20 -23 52z" />
<glyph unicode="y" horiz-adv-x="1058" d="M53 946q4 29 27.5 47.5t64.5 18.5q35 0 55.5 -16.5t39.5 -57.5l321 -793h-57l327 793q16 41 39 57.5t62 16.5q35 0 54.5 -18.5t23.5 -47t-13 -61.5l-516 -1194q-20 -43 -41.5 -58.5t-60.5 -15.5q-33 0 -54.5 17.5t-24.5 47.5q-1 5 -1 10q0 25 12 52l140 315v-77l-388 901 q-11 27 -11 51q0 6 1 12z" />
<glyph unicode="z" horiz-adv-x="954" d="M94 926q0 35 19.5 53t54.5 18h625q35 0 56 -14t28.5 -36.5t1 -48.5t-28.5 -50l-576 -756v51h562q73 0 73 -69q0 -35 -19.5 -54.5t-53.5 -19.5h-656q-31 0 -49 14.5t-25.5 37t0 49t29.5 53.5l567 747v-47h-534q-35 0 -54.5 19.5t-19.5 52.5z" />
<glyph unicode="{" horiz-adv-x="739" d="M82 539q0 31 18.5 52t46.5 21q86 4 118 43t32 121v451q0 104 56.5 160.5t158.5 56.5h145q35 0 57.5 -20.5t22.5 -51.5t-20.5 -52.5t-50.5 -21.5h-95q-43 0 -65.5 -22.5t-22.5 -67.5v-452q0 -61 -24.5 -111.5t-66.5 -81.5t-95 -31v9q53 0 95 -29t66.5 -79t24.5 -114v-452 q0 -45 22.5 -67.5t65.5 -22.5h95q31 0 51 -21.5t20 -52.5t-22.5 -51.5t-57.5 -20.5h-145q-68 0 -116 25t-73.5 74t-25.5 118v451q0 84 -32 123t-118 41q-29 2 -47 23.5t-18 52.5z" />
<glyph unicode="|" horiz-adv-x="552" d="M184 -291v1655q0 47 23.5 70.5t68.5 23.5t70 -23.5t25 -70.5v-1655q-1 -94 -95 -94q-45 0 -68.5 24.5t-23.5 69.5z" />
<glyph unicode="}" horiz-adv-x="739" d="M4 -297q0 31 19.5 52.5t50.5 21.5h96q43 0 64.5 22.5t21.5 67.5v452q0 63 24.5 113.5t67.5 80.5t96 30v-8q-53 0 -96 29.5t-67.5 79.5t-24.5 112v452q0 45 -21.5 67.5t-64.5 22.5h-96q-31 0 -50.5 21.5t-19.5 52.5t22.5 51.5t55.5 20.5h145q70 0 118 -24.5t72.5 -74 t24.5 -118.5v-451q0 -82 33 -122t117 -42q31 0 48 -22.5t17 -52.5q0 -29 -17 -50.5t-48 -23.5q-84 0 -117 -40t-33 -124v-451q0 -104 -55 -160.5t-160 -56.5h-145q-33 0 -55.5 20.5t-22.5 51.5z" />
<glyph unicode="~" d="M130 528.5q-7 24.5 9 53.5q41 78 104.5 115.5t139.5 37.5q51 0 109.5 -17.5t138.5 -62.5q74 -39 121 -59.5t84 -20.5q43 0 80.5 18.5t68.5 70.5q16 29 42 31.5t46.5 -10.5t27.5 -37.5t-9 -51.5q-43 -78 -106.5 -117t-137.5 -39q-53 0 -112.5 19.5t-141.5 64.5t-125 61.5 t-76 16.5q-43 0 -80 -18.5t-67 -69.5q-18 -29 -43 -33t-45.5 9.5t-27.5 38z" />
<glyph unicode="&#xa1;" horiz-adv-x="477" d="M117 885q0 53 34.5 87t88.5 34q57 0 88.5 -34t31.5 -87t-31.5 -87t-88.5 -34q-53 0 -88 33.5t-35 87.5zM131 -262l45 813q2 37 19.5 54.5t44.5 17.5t44 -17.5t17 -54.5l43 -813q4 -55 -23.5 -88t-80.5 -33q-55 0 -84 33t-25 88z" />
<glyph unicode="&#xa2;" d="M182 500q0 100 30 187t86 153.5t135 109.5t173 56l-31 -58v230q0 35 23 57t55 22q33 0 55.5 -22.5t22.5 -56.5v-222l-45 54q80 0 163 -23.5t144 -71.5q25 -16 32 -38.5t2 -44t-21.5 -37t-39 -17.5t-51.5 17q-47 31 -105 48t-118 17q-74 0 -132 -26.5t-100 -73.5 t-64.5 -112.5t-22.5 -145.5q0 -164 85 -263.5t232 -99.5q57 0 115.5 16.5t109.5 49.5q33 20 55.5 17t38 -19.5t18.5 -39t-6 -45t-32 -36.5q-59 -45 -143 -70.5t-164 -27.5l49 45v-199q0 -35 -21.5 -57.5t-56.5 -22.5q-33 0 -55.5 22.5t-22.5 57.5v207l33 -47 q-129 14 -224 81.5t-148.5 178t-53.5 250.5z" />
<glyph unicode="&#xa3;" d="M82 80q0 35 23.5 57.5t56.5 22.5h164l-35 -33v567l33 -39h-170q-29 0 -50.5 20.5t-21.5 49.5q0 31 21.5 49.5t50.5 18.5h170l-33 -37v282q0 133 50 227.5t150.5 145.5t249.5 51q104 0 210 -33.5t175 -93.5q27 -20 34 -45.5t-2 -48t-27.5 -37t-43 -15.5t-53.5 19 q-66 51 -138.5 74t-152.5 23q-131 0 -196.5 -65.5t-65.5 -192.5v-287l-20 33h323q31 0 52.5 -18.5t21.5 -49.5q0 -29 -21.5 -49.5t-52.5 -20.5h-303v-495h588q35 0 58.5 -22.5t23.5 -57.5q0 -33 -23.5 -56.5t-58.5 -23.5h-907q-33 0 -56.5 23.5t-23.5 56.5z" />
<glyph unicode="&#xa4;" d="M82 24q0 27 20 48l119 121q-47 66 -73.5 144.5t-26.5 164.5q0 88 25.5 167t74.5 142l-119 123q-20 20 -20 46t20 46q18 20 45 20.5t50 -22.5l116 -121q61 51 139 79t162 28t160 -27t139 -76l113 117q20 23 49 24t47 -20q23 -23 23 -49.5t-23 -48.5l-116 -117 q49 -66 74.5 -144.5t25.5 -166.5t-26.5 -167t-75.5 -145l118 -118q20 -23 20.5 -48.5t-20.5 -46.5q-18 -18 -45.5 -18t-46.5 21l-117 118q-61 -49 -137 -76.5t-162 -27.5q-84 0 -161.5 28.5t-141.5 75.5l-116 -118q-20 -20 -46.5 -21.5t-46.5 18.5t-20 47zM285 502 q0 -96 44 -176t118.5 -127t164.5 -47q92 0 167 47t119 127t44 176q0 98 -44 177t-118.5 127t-167.5 46q-90 0 -164.5 -47t-118.5 -126t-44 -177z" />
<glyph unicode="&#xa5;" d="M48 1389.5q3 29.5 24.5 49t58.5 19.5q31 0 52.5 -13t41.5 -46l414 -586h-47l412 586q20 33 42.5 46t53.5 13q37 0 59.5 -19.5t24.5 -49t-21 -62.5l-397 -557v33h256q37 0 56.5 -18.5t19.5 -51.5q0 -31 -19.5 -49t-56.5 -18h-313v-179h313q37 0 56.5 -18t19.5 -49 q0 -33 -19.5 -51.5t-56.5 -18.5h-313v-264q-1 -100 -95 -100q-45 0 -69.5 25.5t-24.5 74.5v264h-313q-37 0 -56.5 18.5t-19.5 51.5q0 31 19.5 49t56.5 18h313v179h-313q-37 0 -56.5 18t-19.5 49q0 33 19.5 51.5t56.5 18.5h260v-33l-404 561q-18 29 -15 58.5z" />
<glyph unicode="&#xa6;" horiz-adv-x="552" d="M184 233q0 47 23.5 72t68.5 25t70 -24.5t25 -72.5v-522q-1 -94 -95 -94q-45 0 -68.5 24.5t-23.5 69.5v522zM184 842v522q0 47 23.5 70.5t68.5 23.5t70 -23.5t25 -70.5v-522q-1 -94 -95 -94q-45 0 -68.5 24.5t-23.5 69.5z" />
<glyph unicode="&#xa7;" horiz-adv-x="1128" d="M82 659q0 88 44 167t118 132l-17 -53q-27 29 -44 75t-17 112q0 117 56.5 198.5t156.5 126.5t225 45q106 0 198.5 -25.5t162.5 -70.5q23 -16 31 -37.5t3.5 -43t-19.5 -38t-36.5 -19.5t-48.5 13q-61 37 -138 58.5t-155 21.5q-74 0 -131 -24.5t-90 -73.5t-33 -119 q0 -74 38 -126t140 -101l232 -107q109 -51 171 -104.5t88.5 -115t26.5 -136.5q0 -88 -43 -167t-116 -130l16 53q27 -29 44.5 -76t17.5 -112q0 -113 -57.5 -196t-159 -128t-232.5 -45q-111 0 -206 24.5t-163 71.5q-23 14 -29.5 36t-2.5 42t18 36.5t36.5 20.5t49.5 -12 q61 -37 141 -58.5t158 -21.5q80 0 138.5 25.5t92 74t33.5 119.5q0 72 -37.5 126.5t-140.5 99.5l-231 108q-109 51 -171.5 104.5t-90 115t-27.5 134.5zM252 688q0 -72 45 -128t164 -114l198 -92q72 -35 119 -70.5t74 -70.5l-53 -4q39 37 58.5 82t19.5 94q0 74 -45.5 131 t-163.5 113l-201 92q-70 35 -117 70.5t-76 68.5l56 4q-39 -35 -58.5 -80t-19.5 -96z" />
<glyph unicode="&#xa8;" horiz-adv-x="978" d="M204 1337q0 49 28 75t77 26t75.5 -26t26.5 -75t-26.5 -75.5t-75.5 -26.5t-77 26.5t-28 75.5zM569 1337q0 49 26.5 75t75.5 26t76 -26t27 -75t-26 -75.5t-77 -26.5q-49 0 -75.5 26.5t-26.5 75.5z" />
<glyph unicode="&#xa9;" horiz-adv-x="1669" d="M94 723q0 158 56.5 293t157 234.5t235.5 155.5t293 56t293 -56t234 -155.5t155.5 -234.5t56.5 -293t-56.5 -293t-155.5 -235.5t-234 -156.5t-293 -56t-293 56t-235.5 156.5t-157 235.5t-56.5 293zM193 723q0 -137 48 -255t135 -206t205 -137t255 -49t253.5 49t203.5 137 t135.5 206t48.5 255t-48.5 255t-135.5 205t-203.5 136t-253.5 49t-255 -49t-205 -136t-135 -205t-48 -255zM434 727q0 203 116 319.5t314 116.5q68 0 136.5 -20.5t123.5 -59.5q20 -14 27.5 -33.5t4.5 -40t-16.5 -33.5t-33 -16.5t-43.5 11.5q-47 31 -95 45t-94 14 q-129 0 -202.5 -80t-73.5 -225q0 -143 73.5 -227t202.5 -84q45 0 92.5 13t98.5 46q29 18 51.5 10t33.5 -30.5t6 -47t-30 -43.5q-55 -39 -124.5 -60t-137.5 -21q-199 0 -314.5 121.5t-115.5 324.5z" />
<glyph unicode="&#xaa;" horiz-adv-x="675" d="M53 1028q0 92 85 133t237 41h119v-76h-115q-100 0 -148.5 -23.5t-48.5 -72.5q0 -41 30 -69.5t95 -28.5q51 0 88 22.5t59.5 63.5t22.5 98v117q0 68 -35.5 98.5t-109.5 30.5q-39 0 -82 -8t-88 -27q-27 -10 -45.5 -1t-24.5 27.5t3 38t34 29.5q51 25 104.5 33t104.5 8 q88 0 147.5 -26.5t88 -77.5t28.5 -129v-328q0 -61 -59 -61q-31 0 -46.5 18.5t-15.5 44.5v60h-4q-35 -63 -81.5 -93t-116.5 -30q-98 0 -162 53t-64 135z" />
<glyph unicode="&#xab;" horiz-adv-x="927" d="M115 542.5q0 30.5 20 63.5l162 273q16 27 42 34t52 -6q29 -12 39 -41.5t-8 -64.5l-125 -256l125 -258q16 -35 9 -66t-38 -41q-27 -10 -52.5 -3t-39.5 30l-166 274q-20 31 -20 61.5zM498 542.5q0 30.5 20 63.5l162 273q16 27 42 34t52 -6q29 -12 39 -41.5t-8 -64.5 l-125 -256l125 -258q16 -35 9 -66t-38 -41q-27 -10 -52.5 -3t-39.5 30l-166 274q-20 31 -20 61.5z" />
<glyph unicode="&#xac;" d="M100 797q0 33 18.5 51t53.5 18h868q35 0 54.5 -19.5t19.5 -55.5v-431q0 -73 -72 -73q-37 0 -55 19.5t-18 53.5v367h-797q-35 0 -53.5 18.5t-18.5 51.5z" />
<glyph unicode="&#xad;" horiz-adv-x="874" d="M131 547q0 33 22.5 54.5t55.5 21.5h457q31 0 54 -21.5t23 -54.5t-23.5 -55.5t-53.5 -22.5h-457q-33 0 -55.5 22.5t-22.5 55.5z" />
<glyph unicode="&#xae;" horiz-adv-x="1669" d="M94 723q0 158 56.5 293t157 234.5t235.5 155.5t293 56t293 -56t234 -155.5t155.5 -234.5t56.5 -293t-56.5 -293t-155.5 -235.5t-234 -156.5t-293 -56t-293 56t-235.5 156.5t-157 235.5t-56.5 293zM193 723q0 -137 48 -255t135 -206t205 -137t255 -49t253.5 49t203.5 137 t135.5 206t48.5 255t-48.5 255t-135.5 205t-203.5 136t-253.5 49t-255 -49t-205 -136t-135 -205t-48 -255zM535 358v707q0 43 23.5 66.5t66.5 23.5h268q139 0 214 -67.5t75 -184.5t-75 -179t-210 -62l29 20q63 0 103 -25.5t69 -103.5l65 -178q16 -45 -6 -70.5t-63 -25.5 q-27 0 -44.5 16t-27.5 43l-78 217q-18 49 -54 66.5t-87 17.5h-146l29 20v-301q0 -79 -76 -79t-75 79zM684 756h188q82 0 124 33.5t42 107.5q0 72 -41 106.5t-125 34.5h-188v-282z" />
<glyph unicode="&#xaf;" horiz-adv-x="1038" d="M205 1337q0 29 16 44.5t49 15.5h498q66 0 65 -60q0 -29 -17 -45t-48 -16h-498q-66 0 -65 61z" />
<glyph unicode="&#xb0;" horiz-adv-x="763" d="M74 1157q0 86 41 154.5t110.5 109.5t157.5 41t156.5 -40t108.5 -108.5t40 -156.5q0 -86 -40 -156.5t-108.5 -110.5t-156.5 -40t-157.5 41t-110.5 110.5t-41 155.5zM203 1157q0 -82 50 -134t130 -52q78 0 128 52t50 134q0 80 -50 133t-128 53q-80 0 -130 -53t-50 -133z " />
<glyph unicode="&#xb1;" d="M100 70q0 33 18.5 51t53.5 18h885q35 0 53 -18.5t18 -50.5q0 -33 -18 -51.5t-53 -18.5h-885q-35 0 -53.5 18.5t-18.5 51.5zM100 676q0 33 18.5 51t55.5 18h369v281q0 35 18.5 54.5t54.5 19.5q35 0 52.5 -19.5t17.5 -54.5v-281h371q35 0 53 -18t18 -51t-18 -51.5 t-53 -18.5h-371v-280q0 -35 -17.5 -54.5t-54.5 -19.5q-35 0 -53 19.5t-18 54.5v280h-369q-37 0 -55.5 18.5t-18.5 51.5z" />
<glyph unicode="&#xb2;" horiz-adv-x="778" d="M81 1327.5q5 26.5 34 45.5q53 39 122.5 59t139.5 20q86 0 147.5 -29.5t94 -83.5t32.5 -128q0 -70 -31.5 -135.5t-103.5 -141.5l-231 -243v20h350q68 0 67 -65q0 -33 -17 -50.5t-50 -17.5h-457q-33 0 -54.5 18.5t-21.5 49.5q0 25 11.5 45t29.5 39l238 254q55 61 79.5 110 t24.5 98q0 63 -34.5 96t-102.5 33q-41 0 -87 -15t-85 -42q-29 -18 -52.5 -11t-35.5 27.5t-7 47z" />
<glyph unicode="&#xb3;" horiz-adv-x="778" d="M76 693.5q-6 25.5 6 47t35.5 29t56.5 -13.5q45 -29 93 -42t100 -13q72 0 116.5 31.5t44.5 99.5q0 63 -44 90t-122 27h-98q-35 0 -53 17.5t-18 49.5q0 31 18 48.5t53 17.5h76q78 0 122 30.5t44 92.5q0 53 -39 84.5t-111 31.5q-41 0 -87 -14t-85 -39q-33 -20 -58.5 -14 t-37.5 27.5t-7 47t34 44.5q53 39 123.5 59t140.5 20q129 0 204.5 -61t75.5 -164q0 -84 -51 -140t-123 -75v21q88 -12 142.5 -67.5t54.5 -149.5q0 -78 -40 -133.5t-106.5 -84t-154.5 -28.5q-80 0 -149.5 20.5t-122.5 57.5q-27 20 -33 45.5z" />
<glyph unicode="&#xb4;" horiz-adv-x="739" d="M207 1153.5q-8 20.5 4 46.5l168 326q14 33 39 42t50.5 3t44 -23.5t21.5 -43t-13 -52.5l-205 -311q-16 -23 -38 -27t-42.5 7.5t-28.5 32z" />
<glyph unicode="&#xb5;" d="M184 -289v1207q0 47 24.5 70.5t67.5 23.5q45 0 70 -23.5t25 -70.5v-535q0 -127 51 -186.5t164 -59.5q121 0 197.5 81t76.5 216v484q0 47 24.5 70.5t69.5 23.5q43 0 68 -23.5t25 -70.5v-836q0 -96 -91 -96q-43 0 -66.5 23.5t-23.5 60.5v155h15q-31 -119 -113 -181 t-186 -62q-86 0 -149.5 31.5t-98.5 115.5h22l11 -416q4 -47 -20 -71.5t-71 -24.5q-43 0 -67.5 24.5t-24.5 69.5z" />
<glyph unicode="&#xb6;" horiz-adv-x="1220" d="M88 1034q0 121 51 213t145.5 144.5t219.5 52.5h450q45 0 70 -24.5t25 -69.5v-1659q0 -74 -74 -74q-35 0 -53.5 19.5t-18.5 54.5v1614h-256v-1614q0 -74 -74 -74q-35 0 -53 19.5t-18 54.5v932q-125 0 -218.5 52t-144.5 145t-51 214z" />
<glyph unicode="&#xb7;" horiz-adv-x="477" d="M117 547q0 53 34.5 86t88.5 33q57 0 88.5 -33t31.5 -86t-31.5 -87t-88.5 -34q-53 0 -88 34t-35 87z" />
<glyph unicode="&#xb8;" horiz-adv-x="833" d="M207 -302.5q6 19.5 24.5 29t42.5 -0.5q25 -8 51.5 -13.5t59.5 -5.5q55 0 87 18.5t32 55.5q0 25 -18.5 39t-59.5 14q-16 0 -31.5 -1t-34.5 -7q-16 -4 -27.5 -4t-21.5 8q-8 6 -10 18.5t0 32.5l25 160h112l-26 -156l-54 17q25 6 49.5 10t44.5 4q76 0 125.5 -37t49.5 -104 q0 -76 -65 -123t-167 -47q-39 0 -79 5t-72 19q-25 8 -34 28.5t-3 40z" />
<glyph unicode="&#xb9;" horiz-adv-x="778" d="M156 1272.5q6 26.5 39 46.5l167 101q20 14 42 22t45 8t38 -9t22 -24.5t7 -37.5v-668h102q70 0 70 -65q0 -33 -18.5 -50.5t-51.5 -17.5h-391q-68 0 -67 68q0 31 17.5 48t49.5 17h138v596h67l-170 -102q-33 -20 -60.5 -12t-39.5 30.5t-6 49z" />
<glyph unicode="&#xba;" horiz-adv-x="700" d="M45 1153q0 96 40 164.5t108.5 106.5t156.5 38t156.5 -38t108.5 -106.5t40 -164.5q0 -94 -40 -164.5t-108.5 -108.5t-156.5 -38t-156.5 38t-108.5 108.5t-40 164.5zM176 1153q0 -102 47 -155.5t127 -53.5q82 0 128 53.5t46 155.5t-46 155.5t-128 53.5q-80 0 -127 -53.5 t-47 -155.5z" />
<glyph unicode="&#xbb;" horiz-adv-x="927" d="M114.5 221q-8.5 31 8.5 66l127 258l-127 256q-16 35 -6 64.5t39 41.5q27 12 52 5t40 -33l164 -273q18 -33 18 -62.5t-18 -62.5l-166 -274q-14 -23 -40.5 -30t-53.5 3q-29 10 -37.5 41zM497.5 221q-8.5 31 8.5 66l127 258l-127 256q-16 35 -6 64.5t39 41.5q27 12 52 5 t40 -33l164 -273q18 -33 18 -62.5t-18 -62.5l-166 -274q-14 -23 -40.5 -30t-53.5 3q-29 10 -37.5 41z" />
<glyph unicode="&#xbc;" horiz-adv-x="1839" d="M156 1272.5q6 26.5 39 46.5l167 101q20 14 42 22t45 8t38 -9t22 -24.5t7 -37.5v-668h102q70 0 70 -65q0 -33 -18.5 -50.5t-51.5 -17.5h-391q-68 0 -67 68q0 31 17.5 48t49.5 17h138v596h67l-170 -102q-33 -20 -60.5 -12t-39.5 30.5t-6 49zM504 26.5q-4 24.5 13 51.5 l786 1362q16 27 37.5 35t43 3t37 -21.5t18.5 -40t-13 -50.5l-787 -1362q-16 -27 -37.5 -35t-42 -3t-36 20.5t-19.5 40zM1122 233q0 23 11.5 44.5t27.5 46.5l340 497q10 14 33 33.5t62 19.5q37 0 57 -21.5t20 -59.5v-496h66q29 0 46 -16.5t17 -47.5q0 -37 -17 -53t-46 -16 h-66v-98q0 -35 -20 -54.5t-55 -19.5q-37 0 -57.5 19.5t-20.5 54.5v98h-320q-37 0 -57.5 20.5t-20.5 48.5zM1258 260v37h262v399h37z" />
<glyph unicode="&#xbd;" horiz-adv-x="1929" d="M156 1272.5q6 26.5 39 46.5l167 101q20 14 42 22t45 8t38 -9t22 -24.5t7 -37.5v-668h102q70 0 70 -65q0 -33 -18.5 -50.5t-51.5 -17.5h-391q-68 0 -67 68q0 31 17.5 48t49.5 17h138v596h67l-170 -102q-33 -20 -60.5 -12t-39.5 30.5t-6 49zM504 26.5q-4 24.5 13 51.5 l786 1362q16 27 37.5 35t43 3t37 -21.5t18.5 -40t-13 -50.5l-787 -1362q-16 -27 -37.5 -35t-42 -3t-36 20.5t-19.5 40zM1232 749.5q5 26.5 34 45.5q53 39 122.5 59t139.5 20q86 0 147.5 -29.5t94 -83.5t32.5 -128q0 -70 -31.5 -135.5t-103.5 -141.5l-231 -243v20h350 q68 0 67 -65q0 -33 -17 -50.5t-50 -17.5h-457q-33 0 -54.5 18.5t-21.5 49.5q0 25 11.5 45t29.5 39l238 254q55 61 79.5 110t24.5 98q0 63 -34.5 96t-102.5 33q-41 0 -87 -15t-85 -42q-29 -18 -52.5 -11t-35.5 27.5t-7 47z" />
<glyph unicode="&#xbe;" horiz-adv-x="1839" d="M76 693.5q-6 25.5 6 47t35.5 29t56.5 -13.5q45 -29 93 -42t100 -13q72 0 116.5 31.5t44.5 99.5q0 63 -44 90t-122 27h-98q-35 0 -53 17.5t-18 49.5q0 31 18 48.5t53 17.5h76q78 0 122 30.5t44 92.5q0 53 -39 84.5t-111 31.5q-41 0 -87 -14t-85 -39q-33 -20 -58.5 -14 t-37.5 27.5t-7 47t34 44.5q53 39 123.5 59t140.5 20q129 0 204.5 -61t75.5 -164q0 -84 -51 -140t-123 -75v21q88 -12 142.5 -67.5t54.5 -149.5q0 -78 -40 -133.5t-106.5 -84t-154.5 -28.5q-80 0 -149.5 20.5t-122.5 57.5q-27 20 -33 45.5zM504 26.5q-4 24.5 13 51.5 l786 1362q16 27 37.5 35t43 3t37 -21.5t18.5 -40t-13 -50.5l-787 -1362q-16 -27 -37.5 -35t-42 -3t-36 20.5t-19.5 40zM1122 233q0 23 11.5 44.5t27.5 46.5l340 497q10 14 33 33.5t62 19.5q37 0 57 -21.5t20 -59.5v-496h66q29 0 46 -16.5t17 -47.5q0 -37 -17 -53t-46 -16 h-66v-98q0 -35 -20 -54.5t-55 -19.5q-37 0 -57.5 19.5t-20.5 54.5v98h-320q-37 0 -57.5 20.5t-20.5 48.5zM1258 260v37h262v399h37z" />
<glyph unicode="&#xbf;" horiz-adv-x="915" d="M47 -80q0 88 40 166t146 178q66 59 104 108.5t56.5 95.5t24.5 93q4 27 19.5 42t43.5 15q29 0 45.5 -18t16.5 -53q0 -57 -15.5 -113.5t-52.5 -114t-104 -124.5q-78 -78 -105.5 -133.5t-27.5 -114.5q0 -76 58 -123t161 -47q90 0 169 25.5t150 74.5q35 20 63.5 19.5t47 -17 t23.5 -41t-7 -52.5t-47 -48q-82 -57 -185 -91t-222 -34q-121 0 -211.5 39t-140.5 108.5t-50 159.5zM362 883q0 55 33 89t88 34q57 0 89 -34t32 -89q0 -51 -32 -85t-89 -34q-55 0 -88 33.5t-33 85.5z" />
<glyph unicode="&#xc0;" horiz-adv-x="1501" d="M70 47q-4 29 12 64l559 1265q18 43 47 62.5t64 19.5t62.5 -19.5t47.5 -62.5l559 -1265q16 -35 13.5 -65t-23 -45t-57.5 -15q-41 0 -65.5 21.5t-43.5 62.5l-145 340l88 -50h-877l88 50l-145 -340q-18 -45 -40.5 -64.5t-59.5 -19.5t-58.5 16t-25.5 45zM379 516h741l-47 -43 l-321 756h-4l-320 -756zM446 1867q1 23 16.5 40.5t39 26t49 2t43.5 -32.5l176 -261q14 -23 9.5 -43t-23 -33.5t-41.5 -11t-41 22.5l-209 242q-20 25 -19 48z" />
<glyph unicode="&#xc1;" horiz-adv-x="1501" d="M70 47q-4 29 12 64l559 1265q18 43 47 62.5t64 19.5t62.5 -19.5t47.5 -62.5l559 -1265q16 -35 13.5 -65t-23 -45t-57.5 -15q-41 0 -65.5 21.5t-43.5 62.5l-145 340l88 -50h-877l88 50l-145 -340q-18 -45 -40.5 -64.5t-59.5 -19.5t-58.5 16t-25.5 45zM379 516h741l-47 -43 l-321 756h-4l-320 -756zM724 1599.5q-5 20.5 10 42.5l178 261q18 27 42.5 33t49 -2.5t40 -26t16.5 -41t-19 -47.5l-209 -242q-18 -20 -42 -22.5t-42.5 11t-23.5 34z" />
<glyph unicode="&#xc2;" horiz-adv-x="1501" d="M70 47q-4 29 12 64l559 1265q18 43 47 62.5t64 19.5t62.5 -19.5t47.5 -62.5l559 -1265q16 -35 13.5 -65t-23 -45t-57.5 -15q-41 0 -65.5 21.5t-43.5 62.5l-145 340l88 -50h-877l88 50l-145 -340q-18 -45 -40.5 -64.5t-59.5 -19.5t-58.5 16t-25.5 45zM379 516h741l-47 -43 l-321 756h-4l-320 -756zM452 1592.5q-5 19.5 11 43.5l174 240q23 35 51.5 49t63.5 14t63.5 -14t53.5 -49l172 -240q16 -25 11 -44t-22.5 -31.5t-41 -10.5t-43.5 25l-193 227l-190 -227q-20 -23 -44 -25t-42.5 10.5t-23.5 32z" />
<glyph unicode="&#xc3;" horiz-adv-x="1501" d="M70 47q-4 29 12 64l559 1265q18 43 47 62.5t64 19.5t62.5 -19.5t47.5 -62.5l559 -1265q16 -35 13.5 -65t-23 -45t-57.5 -15q-41 0 -65.5 21.5t-43.5 62.5l-145 340l88 -50h-877l88 50l-145 -340q-18 -45 -40.5 -64.5t-59.5 -19.5t-58.5 16t-25.5 45zM324 1655 q23 109 88.5 169t157.5 60q57 0 106 -22.5t94 -52t87 -52t83 -22.5q53 0 88 32.5t46 85.5q6 25 21 35t36 8q25 0 40 -16t9 -45q-23 -109 -86 -170t-158 -61q-57 0 -107 23.5t-95 53t-87 52t-83 22.5q-53 0 -88 -32.5t-46 -86.5q-6 -23 -20 -34t-37 -11q-25 2 -40 18.5 t-9 45.5zM379 516h741l-47 -43l-321 756h-4l-320 -756z" />
<glyph unicode="&#xc4;" horiz-adv-x="1501" d="M70 47q-4 29 12 64l559 1265q18 43 47 62.5t64 19.5t62.5 -19.5t47.5 -62.5l559 -1265q16 -35 13.5 -65t-23 -45t-57.5 -15q-41 0 -65.5 21.5t-43.5 62.5l-145 340l88 -50h-877l88 50l-145 -340q-18 -45 -40.5 -64.5t-59.5 -19.5t-58.5 16t-25.5 45zM379 516h741l-47 -43 l-321 756h-4l-320 -756zM467 1739q0 47 28 73.5t77 26.5t75.5 -26.5t26.5 -73.5q0 -49 -26.5 -76t-75.5 -27t-77 27t-28 76zM832 1739q0 47 26.5 73.5t75.5 26.5t76 -26.5t27 -73.5q0 -49 -26 -76t-77 -27q-49 0 -75.5 27t-26.5 76z" />
<glyph unicode="&#xc5;" horiz-adv-x="1501" d="M70 47q-4 29 12 64l559 1265q18 43 47 62.5t64 19.5t62.5 -19.5t47.5 -62.5l559 -1265q16 -35 13.5 -65t-23 -45t-57.5 -15q-41 0 -65.5 21.5t-43.5 62.5l-145 340l88 -50h-877l88 50l-145 -340q-18 -45 -40.5 -64.5t-59.5 -19.5t-58.5 16t-25.5 45zM379 516h741l-47 -43 l-321 756h-4l-320 -756zM506 1792q0 68 33 122t89 86t124 32q70 0 125 -32t88 -86t33 -122t-33 -122t-88 -87t-125 -33q-68 0 -124 33t-89 87t-33 122zM609 1792q0 -61 41 -103t102 -42q63 0 103 42t40 103t-40 102t-103 41q-61 0 -102 -41t-41 -102z" />
<glyph unicode="&#xc6;" horiz-adv-x="2015" d="M6 48q0 28 17 58l784 1283q16 29 40.5 42t57.5 13h936q41 0 62.5 -19.5t21.5 -56.5q0 -39 -21.5 -59.5t-62.5 -20.5h-848l43 62l125 -590l-65 51h704q41 0 61.5 -20.5t20.5 -57.5q0 -39 -20.5 -58.5t-61.5 -19.5h-672l46 50l131 -609l-74 60h610q41 0 62.5 -19.5 t21.5 -58.5t-21.5 -58.5t-62.5 -19.5h-614q-74 0 -90 74l-74 342l67 -56h-798l76 52l-218 -365q-18 -31 -40.5 -46t-57.5 -15q-43 0 -64.5 17t-21.5 45zM422 516h665l-34 -49l-162 756h-4l-447 -752z" />
<glyph unicode="&#xc7;" horiz-adv-x="1382" d="M121 723q0 170 47 306t135 233.5t216 148.5t290 51q123 0 236.5 -34.5t195.5 -98.5q33 -23 43 -51.5t3 -54t-26.5 -43t-48 -18.5t-61.5 22q-72 55 -157 80.5t-181 25.5q-158 0 -267.5 -66.5t-165.5 -192.5t-56 -308q0 -180 56 -308t165.5 -194.5t267.5 -66.5 q96 0 183 26.5t161 81.5q33 23 60.5 21t46 -17.5t25.5 -41t-1 -52.5t-37 -47q-84 -72 -199.5 -107.5t-242.5 -35.5q-215 0 -368.5 90t-236.5 257t-83 394zM609 -302.5q6 19.5 24.5 29t42.5 -0.5q25 -8 51.5 -13.5t59.5 -5.5q55 0 87 18.5t32 55.5q0 25 -18.5 39t-59.5 14 q-16 0 -31.5 -1t-34.5 -7q-16 -4 -27.5 -4t-21.5 8q-8 6 -10 18.5t0 32.5l25 160h112l-26 -156l-54 17q25 6 49.5 10t44.5 4q76 0 125.5 -37t49.5 -104q0 -76 -65 -123t-167 -47q-39 0 -79 5t-72 19q-25 8 -34 28.5t-3 40z" />
<glyph unicode="&#xc8;" horiz-adv-x="1200" d="M174 102v1239q0 49 26.5 76t75.5 27h754q39 0 60.5 -19.5t21.5 -56.5q0 -39 -21.5 -59.5t-60.5 -20.5h-672v-477h629q39 0 59.5 -20.5t20.5 -57.5q0 -39 -20.5 -58.5t-59.5 -19.5h-629v-499h672q39 0 60.5 -19.5t21.5 -58.5t-21.5 -58.5t-60.5 -19.5h-754 q-49 0 -75.5 26.5t-26.5 75.5zM360 1867q1 23 16.5 40.5t39 26t49 2t43.5 -32.5l176 -261q14 -23 9.5 -43t-23 -33.5t-41.5 -11t-41 22.5l-209 242q-20 25 -19 48z" />
<glyph unicode="&#xc9;" horiz-adv-x="1200" d="M174 102v1239q0 49 26.5 76t75.5 27h754q39 0 60.5 -19.5t21.5 -56.5q0 -39 -21.5 -59.5t-60.5 -20.5h-672v-477h629q39 0 59.5 -20.5t20.5 -57.5q0 -39 -20.5 -58.5t-59.5 -19.5h-629v-499h672q39 0 60.5 -19.5t21.5 -58.5t-21.5 -58.5t-60.5 -19.5h-754 q-49 0 -75.5 26.5t-26.5 75.5zM638 1599.5q-5 20.5 10 42.5l178 261q18 27 42.5 33t49 -2.5t40 -26t16.5 -41t-19 -47.5l-209 -242q-18 -20 -42 -22.5t-42.5 11t-23.5 34z" />
<glyph unicode="&#xca;" horiz-adv-x="1200" d="M174 102v1239q0 49 26.5 76t75.5 27h754q39 0 60.5 -19.5t21.5 -56.5q0 -39 -21.5 -59.5t-60.5 -20.5h-672v-477h629q39 0 59.5 -20.5t20.5 -57.5q0 -39 -20.5 -58.5t-59.5 -19.5h-629v-499h672q39 0 60.5 -19.5t21.5 -58.5t-21.5 -58.5t-60.5 -19.5h-754 q-49 0 -75.5 26.5t-26.5 75.5zM366 1592.5q-5 19.5 11 43.5l174 240q23 35 51.5 49t63.5 14t63.5 -14t53.5 -49l172 -240q16 -25 11 -44t-22.5 -31.5t-41 -10.5t-43.5 25l-193 227l-190 -227q-20 -23 -44 -25t-42.5 10.5t-23.5 32z" />
<glyph unicode="&#xcb;" horiz-adv-x="1200" d="M174 102v1239q0 49 26.5 76t75.5 27h754q39 0 60.5 -19.5t21.5 -56.5q0 -39 -21.5 -59.5t-60.5 -20.5h-672v-477h629q39 0 59.5 -20.5t20.5 -57.5q0 -39 -20.5 -58.5t-59.5 -19.5h-629v-499h672q39 0 60.5 -19.5t21.5 -58.5t-21.5 -58.5t-60.5 -19.5h-754 q-49 0 -75.5 26.5t-26.5 75.5zM381 1739q0 47 28 73.5t77 26.5t75.5 -26.5t26.5 -73.5q0 -49 -26.5 -76t-75.5 -27t-77 27t-28 76zM746 1739q0 47 26.5 73.5t75.5 26.5t76 -26.5t27 -73.5q0 -49 -26 -76t-77 -27q-49 0 -75.5 27t-26.5 76z" />
<glyph unicode="&#xcc;" horiz-adv-x="536" d="M-38 1867q1 23 16.5 40.5t39 26t49 2t43.5 -32.5l176 -261q14 -23 9.5 -43t-23 -33.5t-41.5 -11t-41 22.5l-209 242q-20 25 -19 48zM174 84v1276q0 49 24.5 73.5t69.5 24.5q47 0 72 -24.5t25 -73.5v-1276q0 -47 -24 -72.5t-73 -25.5q-45 0 -69.5 25.5t-24.5 72.5z" />
<glyph unicode="&#xcd;" horiz-adv-x="536" d="M174 84v1276q0 49 24.5 73.5t69.5 24.5q47 0 72 -24.5t25 -73.5v-1276q0 -47 -24 -72.5t-73 -25.5q-45 0 -69.5 25.5t-24.5 72.5zM240 1599.5q-5 20.5 10 42.5l178 261q18 27 42.5 33t49 -2.5t40 -26t16.5 -41t-19 -47.5l-209 -242q-18 -20 -42 -22.5t-42.5 11t-23.5 34z " />
<glyph unicode="&#xce;" horiz-adv-x="536" d="M-32 1592.5q-5 19.5 11 43.5l174 240q23 35 51.5 49t63.5 14t63.5 -14t53.5 -49l172 -240q16 -25 11 -44t-22.5 -31.5t-41 -10.5t-43.5 25l-193 227l-190 -227q-20 -23 -44 -25t-42.5 10.5t-23.5 32zM174 84v1276q0 49 24.5 73.5t69.5 24.5q47 0 72 -24.5t25 -73.5v-1276 q0 -47 -24 -72.5t-73 -25.5q-45 0 -69.5 25.5t-24.5 72.5z" />
<glyph unicode="&#xcf;" horiz-adv-x="536" d="M-17 1739q0 47 28 73.5t77 26.5t75.5 -26.5t26.5 -73.5q0 -49 -26.5 -76t-75.5 -27t-77 27t-28 76zM174 84v1276q0 49 24.5 73.5t69.5 24.5q47 0 72 -24.5t25 -73.5v-1276q0 -47 -24 -72.5t-73 -25.5q-45 0 -69.5 25.5t-24.5 72.5zM348 1739q0 47 26.5 73.5t75.5 26.5 t76 -26.5t27 -73.5q0 -49 -26 -76t-77 -27q-49 0 -75.5 27t-26.5 76z" />
<glyph unicode="&#xd0;" horiz-adv-x="1529" d="M-22 733q0 35 19.5 53.5t55.5 18.5h650q35 0 55 -17.5t20 -54.5q0 -35 -20.5 -54.5t-54.5 -19.5h-650q-37 0 -56 19.5t-19 54.5zM174 102v1239q0 49 26.5 76t75.5 27h396q354 0 545.5 -185.5t191.5 -535.5q0 -174 -49 -309t-143.5 -226.5t-230.5 -139.5t-314 -48h-396 q-49 0 -75.5 26.5t-26.5 75.5zM365 162h294q139 0 242 34.5t171.5 104.5t103 175.5t34.5 246.5q0 281 -138 420t-413 139h-294v-1120z" />
<glyph unicode="&#xd1;" horiz-adv-x="1517" d="M174 78v1284q0 47 22.5 71.5t59.5 24.5q35 0 53.5 -12t40.5 -43l869 -1151h-52v1114q0 45 23.5 68.5t66.5 23.5t66 -23.5t23 -68.5v-1288q0 -43 -21.5 -67.5t-56.5 -24.5q-33 0 -54.5 13t-44.5 44l-866 1151h47v-1116q0 -43 -22.5 -67.5t-65.5 -24.5q-41 0 -64.5 24.5 t-23.5 67.5zM332 1655q23 109 88.5 169t157.5 60q57 0 106 -22.5t94 -52t87 -52t83 -22.5q53 0 88 32.5t46 85.5q6 25 21 35t36 8q25 0 40 -16t9 -45q-23 -109 -86 -170t-158 -61q-57 0 -107 23.5t-95 53t-87 52t-83 22.5q-53 0 -88 -32.5t-46 -86.5q-6 -23 -20 -34t-37 -11 q-25 2 -40 18.5t-9 45.5z" />
<glyph unicode="&#xd2;" horiz-adv-x="1579" d="M121 723q0 170 47 306t134 233.5t211 148.5t278 51q205 0 354 -90t231 -256t82 -391q0 -170 -47 -307t-134 -235.5t-209.5 -149.5t-276.5 -51q-205 0 -354.5 91t-232.5 258t-83 392zM322 723q0 -270 123 -421.5t346 -151.5q147 0 251.5 67.5t161 196.5t56.5 309 q0 272 -122 421.5t-347 149.5q-147 0 -253 -66.5t-161 -194.5t-55 -310zM482 1867q1 23 16.5 40.5t39 26t49 2t43.5 -32.5l176 -261q14 -23 9.5 -43t-23 -33.5t-41.5 -11t-41 22.5l-209 242q-20 25 -19 48z" />
<glyph unicode="&#xd3;" horiz-adv-x="1579" d="M121 723q0 170 47 306t134 233.5t211 148.5t278 51q205 0 354 -90t231 -256t82 -391q0 -170 -47 -307t-134 -235.5t-209.5 -149.5t-276.5 -51q-205 0 -354.5 91t-232.5 258t-83 392zM322 723q0 -270 123 -421.5t346 -151.5q147 0 251.5 67.5t161 196.5t56.5 309 q0 272 -122 421.5t-347 149.5q-147 0 -253 -66.5t-161 -194.5t-55 -310zM760 1599.5q-5 20.5 10 42.5l178 261q18 27 42.5 33t49 -2.5t40 -26t16.5 -41t-19 -47.5l-209 -242q-18 -20 -42 -22.5t-42.5 11t-23.5 34z" />
<glyph unicode="&#xd4;" horiz-adv-x="1579" d="M121 723q0 170 47 306t134 233.5t211 148.5t278 51q205 0 354 -90t231 -256t82 -391q0 -170 -47 -307t-134 -235.5t-209.5 -149.5t-276.5 -51q-205 0 -354.5 91t-232.5 258t-83 392zM322 723q0 -270 123 -421.5t346 -151.5q147 0 251.5 67.5t161 196.5t56.5 309 q0 272 -122 421.5t-347 149.5q-147 0 -253 -66.5t-161 -194.5t-55 -310zM488 1592.5q-5 19.5 11 43.5l174 240q23 35 51.5 49t63.5 14t63.5 -14t53.5 -49l172 -240q16 -25 11 -44t-22.5 -31.5t-41 -10.5t-43.5 25l-193 227l-190 -227q-20 -23 -44 -25t-42.5 10.5t-23.5 32z " />
<glyph unicode="&#xd5;" horiz-adv-x="1579" d="M121 723q0 170 47 306t134 233.5t211 148.5t278 51q205 0 354 -90t231 -256t82 -391q0 -170 -47 -307t-134 -235.5t-209.5 -149.5t-276.5 -51q-205 0 -354.5 91t-232.5 258t-83 392zM322 723q0 -270 123 -421.5t346 -151.5q147 0 251.5 67.5t161 196.5t56.5 309 q0 272 -122 421.5t-347 149.5q-147 0 -253 -66.5t-161 -194.5t-55 -310zM360 1655q23 109 88.5 169t157.5 60q57 0 106 -22.5t94 -52t87 -52t83 -22.5q53 0 88 32.5t46 85.5q6 25 21 35t36 8q25 0 40 -16t9 -45q-23 -109 -86 -170t-158 -61q-57 0 -107 23.5t-95 53t-87 52 t-83 22.5q-53 0 -88 -32.5t-46 -86.5q-6 -23 -20 -34t-37 -11q-25 2 -40 18.5t-9 45.5z" />
<glyph unicode="&#xd6;" horiz-adv-x="1579" d="M121 723q0 170 47 306t134 233.5t211 148.5t278 51q205 0 354 -90t231 -256t82 -391q0 -170 -47 -307t-134 -235.5t-209.5 -149.5t-276.5 -51q-205 0 -354.5 91t-232.5 258t-83 392zM322 723q0 -270 123 -421.5t346 -151.5q147 0 251.5 67.5t161 196.5t56.5 309 q0 272 -122 421.5t-347 149.5q-147 0 -253 -66.5t-161 -194.5t-55 -310zM503 1739q0 47 28 73.5t77 26.5t75.5 -26.5t26.5 -73.5q0 -49 -26.5 -76t-75.5 -27t-77 27t-28 76zM868 1739q0 47 26.5 73.5t75.5 26.5t76 -26.5t27 -73.5q0 -49 -26 -76t-77 -27q-49 0 -75.5 27 t-26.5 76z" />
<glyph unicode="&#xd7;" d="M148.5 970.5q-3.5 22.5 7 41t30 30t42 8.5t44.5 -24l342 -344l342 344q27 25 54.5 23t48 -21.5t22.5 -46.5t-24 -55l-344 -342l338 -340q20 -20 23 -43t-7 -41.5t-28.5 -28.5t-41 -8t-43.5 22l-340 340l-340 -340q-25 -25 -52 -22.5t-46.5 22t-20.5 47t23 52.5l338 340 l-344 344q-20 20 -23.5 42.5z" />
<glyph unicode="&#xd8;" horiz-adv-x="1579" d="M121 723q0 170 47 306t134 233.5t211 148.5t278 51q205 0 354 -90t231 -256t82 -391q0 -170 -47 -307t-134 -235.5t-209.5 -149.5t-276.5 -51q-205 0 -354.5 91t-232.5 258t-83 392zM284 -26.5q-3 24.5 13 51.5l86 145l54 92l590 1012l43 76l88 149q14 25 35.5 33t45 2 t40 -22.5t19.5 -40t-13 -52.5l-86 -145l-56 -92l-590 -1010l-43 -76l-86 -151q-16 -25 -37.5 -33t-44 -2t-39 22.5t-19.5 41zM322 723q0 -270 123 -421.5t346 -151.5q147 0 251.5 67.5t161 196.5t56.5 309q0 272 -122 421.5t-347 149.5q-147 0 -253 -66.5t-161 -194.5 t-55 -310z" />
<glyph unicode="&#xd9;" horiz-adv-x="1497" d="M164 578v784q0 49 24.5 72.5t69.5 23.5q47 0 71.5 -23.5t24.5 -72.5v-778q0 -219 100.5 -326.5t295.5 -107.5t295 107.5t100 326.5v778q0 49 24.5 72.5t69.5 23.5t69.5 -23.5t24.5 -72.5v-784q0 -195 -66.5 -328t-196.5 -200.5t-320 -67.5q-143 0 -253 37.5t-183.5 112.5 t-111.5 186.5t-38 259.5zM444 1867q1 23 16.5 40.5t39 26t49 2t43.5 -32.5l176 -261q14 -23 9.5 -43t-23 -33.5t-41.5 -11t-41 22.5l-209 242q-20 25 -19 48z" />
<glyph unicode="&#xda;" horiz-adv-x="1497" d="M164 578v784q0 49 24.5 72.5t69.5 23.5q47 0 71.5 -23.5t24.5 -72.5v-778q0 -219 100.5 -326.5t295.5 -107.5t295 107.5t100 326.5v778q0 49 24.5 72.5t69.5 23.5t69.5 -23.5t24.5 -72.5v-784q0 -195 -66.5 -328t-196.5 -200.5t-320 -67.5q-143 0 -253 37.5t-183.5 112.5 t-111.5 186.5t-38 259.5zM722 1599.5q-5 20.5 10 42.5l178 261q18 27 42.5 33t49 -2.5t40 -26t16.5 -41t-19 -47.5l-209 -242q-18 -20 -42 -22.5t-42.5 11t-23.5 34z" />
<glyph unicode="&#xdb;" horiz-adv-x="1497" d="M164 578v784q0 49 24.5 72.5t69.5 23.5q47 0 71.5 -23.5t24.5 -72.5v-778q0 -219 100.5 -326.5t295.5 -107.5t295 107.5t100 326.5v778q0 49 24.5 72.5t69.5 23.5t69.5 -23.5t24.5 -72.5v-784q0 -195 -66.5 -328t-196.5 -200.5t-320 -67.5q-143 0 -253 37.5t-183.5 112.5 t-111.5 186.5t-38 259.5zM450 1592.5q-5 19.5 11 43.5l174 240q23 35 51.5 49t63.5 14t63.5 -14t53.5 -49l172 -240q16 -25 11 -44t-22.5 -31.5t-41 -10.5t-43.5 25l-193 227l-190 -227q-20 -23 -44 -25t-42.5 10.5t-23.5 32z" />
<glyph unicode="&#xdc;" horiz-adv-x="1497" d="M164 578v784q0 49 24.5 72.5t69.5 23.5q47 0 71.5 -23.5t24.5 -72.5v-778q0 -219 100.5 -326.5t295.5 -107.5t295 107.5t100 326.5v778q0 49 24.5 72.5t69.5 23.5t69.5 -23.5t24.5 -72.5v-784q0 -195 -66.5 -328t-196.5 -200.5t-320 -67.5q-143 0 -253 37.5t-183.5 112.5 t-111.5 186.5t-38 259.5zM465 1739q0 47 28 73.5t77 26.5t75.5 -26.5t26.5 -73.5q0 -49 -26.5 -76t-75.5 -27t-77 27t-28 76zM830 1739q0 47 26.5 73.5t75.5 26.5t76 -26.5t27 -73.5q0 -49 -26 -76t-77 -27q-49 0 -75.5 27t-26.5 76z" />
<glyph unicode="&#xdd;" horiz-adv-x="1230" d="M34 1385.5q1 31.5 23.5 52t61.5 20.5q31 0 55.5 -14t46.5 -47l422 -582h-47l422 582q23 35 45 48t57 13q37 0 58.5 -19.5t22.5 -50t-23 -63.5l-508 -704l41 127v-662q-1 -100 -97 -100q-45 0 -69.5 25.5t-24.5 74.5v662l41 -127l-508 704q-20 29 -19 60.5zM586 1599.5 q-5 20.5 10 42.5l178 261q18 27 42.5 33t49 -2.5t40 -26t16.5 -41t-19 -47.5l-209 -242q-18 -20 -42 -22.5t-42.5 11t-23.5 34z" />
<glyph unicode="&#xde;" horiz-adv-x="1308" d="M174 90v1266q0 47 25.5 71.5t70.5 24.5t70 -23.5t25 -64.5v-176h395q233 0 359 -115t126 -323q0 -207 -126 -323t-359 -116h-395v-221q0 -47 -24 -72.5t-73 -25.5q-45 0 -69.5 25.5t-24.5 72.5zM365 467h370q160 0 242 71.5t82 211.5q0 139 -82 210.5t-242 71.5h-370 v-565z" />
<glyph unicode="&#xdf;" horiz-adv-x="1277" d="M150 82v891q0 233 124.5 361t352.5 128q113 0 192.5 -32.5t122.5 -92t43 -143.5q0 -76 -35 -137.5t-116 -134.5q-47 -41 -74 -71t-36 -53.5t-9 -52.5q0 -51 46 -87.5t167 -73.5q158 -49 225.5 -120t67.5 -179q0 -92 -47.5 -160t-133 -105.5t-198.5 -37.5 q-88 0 -179.5 24.5t-162.5 73.5q-25 14 -33 36.5t-4 45t19.5 39t38 19.5t48.5 -13q68 -43 140.5 -61.5t134.5 -18.5q94 0 147 40t53 109q0 57 -46 96.5t-164 73.5q-164 51 -229.5 117t-65.5 164q0 43 13 83t48 84t94 97q61 53 86 96t25 93q0 66 -46 102.5t-132 36.5 q-141 0 -216 -84t-75 -238v-915q0 -47 -24.5 -71.5t-69.5 -24.5q-43 0 -67.5 24.5t-24.5 71.5z" />
<glyph unicode="&#xe0;" horiz-adv-x="1091" d="M106 289q0 111 55.5 174t186.5 91t352 28h97v-119h-92q-158 0 -249 -14.5t-128 -50.5t-37 -99q0 -80 56 -131t155 -51q78 0 137 38t94 102.5t35 148.5v235q0 121 -49 175t-166 54q-68 0 -139.5 -18t-149.5 -57q-31 -14 -53.5 -9t-35.5 24t-14 43t10 46.5t40 32.5 q90 45 179 64.5t167 19.5q133 0 219 -42t129 -129t43 -222v-541q0 -47 -22.5 -71.5t-65.5 -24.5q-41 0 -64.5 24.5t-23.5 71.5v145h19q-16 -76 -61.5 -131t-112 -84.5t-150.5 -29.5q-102 0 -185 40.5t-129.5 110.5t-46.5 156zM268.5 1505.5q3.5 24.5 22 42t43 23.5t49 -3 t41.5 -42l166 -326q12 -27 5 -47t-27.5 -31.5t-43.5 -7.5t-37 27l-204 311q-18 29 -14.5 53.5z" />
<glyph unicode="&#xe1;" horiz-adv-x="1091" d="M106 289q0 111 55.5 174t186.5 91t352 28h97v-119h-92q-158 0 -249 -14.5t-128 -50.5t-37 -99q0 -80 56 -131t155 -51q78 0 137 38t94 102.5t35 148.5v235q0 121 -49 175t-166 54q-68 0 -139.5 -18t-149.5 -57q-31 -14 -53.5 -9t-35.5 24t-14 43t10 46.5t40 32.5 q90 45 179 64.5t167 19.5q133 0 219 -42t129 -129t43 -222v-541q0 -47 -22.5 -71.5t-65.5 -24.5q-41 0 -64.5 24.5t-23.5 71.5v145h19q-16 -76 -61.5 -131t-112 -84.5t-150.5 -29.5q-102 0 -185 40.5t-129.5 110.5t-46.5 156zM524 1153.5q-8 20.5 4 46.5l168 326 q14 33 39 42t50.5 3t44 -23.5t21.5 -43t-13 -52.5l-205 -311q-16 -23 -38 -27t-42.5 7.5t-28.5 32z" />
<glyph unicode="&#xe2;" horiz-adv-x="1091" d="M106 289q0 111 55.5 174t186.5 91t352 28h97v-119h-92q-158 0 -249 -14.5t-128 -50.5t-37 -99q0 -80 56 -131t155 -51q78 0 137 38t94 102.5t35 148.5v235q0 121 -49 175t-166 54q-68 0 -139.5 -18t-149.5 -57q-31 -14 -53.5 -9t-35.5 24t-14 43t10 46.5t40 32.5 q90 45 179 64.5t167 19.5q133 0 219 -42t129 -129t43 -222v-541q0 -47 -22.5 -71.5t-65.5 -24.5q-41 0 -64.5 24.5t-23.5 71.5v145h19q-16 -76 -61.5 -131t-112 -84.5t-150.5 -29.5q-102 0 -185 40.5t-129.5 110.5t-46.5 156zM277.5 1150.5q-7.5 20.5 7.5 47.5l163 303 q20 37 48 53.5t63 16.5t63.5 -16.5t47.5 -53.5l163 -303q14 -27 7 -47.5t-26 -30.5t-40.5 -6t-36.5 27l-178 284l-178 -284q-14 -23 -36 -27t-41 6t-26.5 30.5z" />
<glyph unicode="&#xe3;" horiz-adv-x="1091" d="M106 289q0 111 55.5 174t186.5 91t352 28h97v-119h-92q-158 0 -249 -14.5t-128 -50.5t-37 -99q0 -80 56 -131t155 -51q78 0 137 38t94 102.5t35 148.5v235q0 121 -49 175t-166 54q-68 0 -139.5 -18t-149.5 -57q-31 -14 -53.5 -9t-35.5 24t-14 43t10 46.5t40 32.5 q90 45 179 64.5t167 19.5q133 0 219 -42t129 -129t43 -222v-541q0 -47 -22.5 -71.5t-65.5 -24.5q-41 0 -64.5 24.5t-23.5 71.5v145h19q-16 -76 -61.5 -131t-112 -84.5t-150.5 -29.5q-102 0 -185 40.5t-129.5 110.5t-46.5 156zM190 1262q8 47 24.5 88t44.5 72.5t64.5 51 t85.5 19.5t88 -23.5t72 -53.5t66 -52.5t71 -22.5q45 0 77 34t42 91q4 18 18.5 28.5t39.5 10.5q25 -2 38 -17t7 -46q-10 -61 -38 -113.5t-72 -84.5t-109 -32q-49 0 -88 22.5t-73 52.5t-67 52.5t-69 22.5q-45 0 -77 -33t-42 -90q-4 -20 -18.5 -30.5t-39.5 -8.5q-25 0 -38 15.5 t-7 46.5z" />
<glyph unicode="&#xe4;" horiz-adv-x="1091" d="M106 289q0 111 55.5 174t186.5 91t352 28h97v-119h-92q-158 0 -249 -14.5t-128 -50.5t-37 -99q0 -80 56 -131t155 -51q78 0 137 38t94 102.5t35 148.5v235q0 121 -49 175t-166 54q-68 0 -139.5 -18t-149.5 -57q-31 -14 -53.5 -9t-35.5 24t-14 43t10 46.5t40 32.5 q90 45 179 64.5t167 19.5q133 0 219 -42t129 -129t43 -222v-541q0 -47 -22.5 -71.5t-65.5 -24.5q-41 0 -64.5 24.5t-23.5 71.5v145h19q-16 -76 -61.5 -131t-112 -84.5t-150.5 -29.5q-102 0 -185 40.5t-129.5 110.5t-46.5 156zM274 1337q0 49 28 75t77 26t75.5 -26t26.5 -75 t-26.5 -75.5t-75.5 -26.5t-77 26.5t-28 75.5zM639 1337q0 49 26.5 75t75.5 26t76 -26t27 -75t-26 -75.5t-77 -26.5q-49 0 -75.5 26.5t-26.5 75.5z" />
<glyph unicode="&#xe5;" horiz-adv-x="1091" d="M106 289q0 111 55.5 174t186.5 91t352 28h97v-119h-92q-158 0 -249 -14.5t-128 -50.5t-37 -99q0 -80 56 -131t155 -51q78 0 137 38t94 102.5t35 148.5v235q0 121 -49 175t-166 54q-68 0 -139.5 -18t-149.5 -57q-31 -14 -53.5 -9t-35.5 24t-14 43t10 46.5t40 32.5 q90 45 179 64.5t167 19.5q133 0 219 -42t129 -129t43 -222v-541q0 -47 -22.5 -71.5t-65.5 -24.5q-41 0 -64.5 24.5t-23.5 71.5v145h19q-16 -76 -61.5 -131t-112 -84.5t-150.5 -29.5q-102 0 -185 40.5t-129.5 110.5t-46.5 156zM313 1360q0 68 33 122t89 85.5t124 31.5 q70 0 125 -31.5t88 -86t33 -121.5q0 -66 -33 -121t-88 -88t-125 -33q-68 0 -124 33t-89 88t-33 121zM416 1360q0 -61 41 -103.5t102 -42.5q63 0 103 42t40 104q0 61 -40 102t-103 41q-61 0 -102 -41t-41 -102z" />
<glyph unicode="&#xe6;" horiz-adv-x="1765" d="M106 289q0 111 56.5 174t187.5 90t355 27h92v-117h-92q-158 0 -249 -14.5t-128 -50.5t-37 -99q0 -80 56 -131t157 -51q82 0 141.5 39t93 106.5t33.5 153.5v221q0 123 -51 178t-164 55q-70 0 -141.5 -18t-149.5 -57q-31 -14 -54.5 -9t-35.5 24t-13 43t10 46.5t40 32.5 q90 45 179 64.5t167 19.5q147 0 235.5 -59.5t120.5 -180.5h-51q51 117 156.5 178.5t232.5 63.5q98 0 178 -34t136.5 -97.5t86 -154.5t29.5 -206v-6q0 -29 -19 -43t-56 -14h-672v117h620l-30 -27q0 104 -31 177t-91.5 112t-150.5 39q-92 0 -159.5 -43t-103.5 -124t-36 -194 v-14q0 -184 83 -280.5t249 -96.5q59 0 130 17.5t134 58.5q31 18 56.5 17t42 -16.5t20.5 -37t-6 -46t-39 -42.5q-70 -47 -161 -72.5t-177 -25.5q-174 0 -294 77.5t-167 231.5h43q-29 -143 -131 -226t-256 -83q-111 0 -195.5 40.5t-132 110.5t-47.5 156z" />
<glyph unicode="&#xe7;" horiz-adv-x="952" d="M90 506q0 119 34 213t97.5 160.5t154.5 101.5t206 35q72 0 151.5 -22.5t147.5 -73.5q23 -16 28.5 -38t0.5 -44.5t-20.5 -38t-39 -17.5t-49.5 15q-49 37 -103.5 53t-103.5 16q-76 0 -134.5 -24.5t-98 -70.5t-60 -112.5t-20.5 -154.5q0 -174 81.5 -273.5t231.5 -99.5 q49 0 102.5 15.5t104.5 52.5q27 16 49 13t37.5 -18.5t19.5 -37t-3 -44t-30 -36.5q-66 -49 -143 -71.5t-149 -22.5q-152 0 -262.5 64.5t-170 182t-59.5 277.5zM389 -302.5q6 19.5 24.5 29t42.5 -0.5q25 -8 51.5 -13.5t59.5 -5.5q55 0 87 18.5t32 55.5q0 25 -18.5 39t-59.5 14 q-16 0 -31.5 -1t-34.5 -7q-16 -4 -27.5 -4t-21.5 8q-8 6 -10 18.5t0 32.5l25 160h112l-26 -156l-54 17q25 6 49.5 10t44.5 4q76 0 125.5 -37t49.5 -104q0 -76 -65 -123t-167 -47q-39 0 -79 5t-72 19q-25 8 -34 28.5t-3 40z" />
<glyph unicode="&#xe8;" horiz-adv-x="1093" d="M90 496q0 156 62.5 272.5t172 182t250.5 65.5q100 0 181.5 -34t138.5 -97.5t87 -154.5t30 -206q0 -33 -19.5 -50t-56.5 -17h-700v118h653l-35 -28q0 106 -31.5 181t-92 114t-150.5 39q-98 0 -168 -46.5t-107 -129t-37 -191.5v-12q0 -184 88 -278.5t254 -94.5 q66 0 134.5 16.5t132.5 59.5q31 18 56 17t41.5 -16.5t20.5 -37t-6 -46t-39 -42.5q-68 -47 -161 -72.5t-179 -25.5q-162 0 -277.5 62t-179 178t-63.5 274zM284.5 1505.5q3.5 24.5 22 42t43 23.5t49 -3t41.5 -42l166 -326q12 -27 5 -47t-27.5 -31.5t-43.5 -7.5t-37 27 l-204 311q-18 29 -14.5 53.5z" />
<glyph unicode="&#xe9;" horiz-adv-x="1093" d="M90 496q0 156 62.5 272.5t172 182t250.5 65.5q100 0 181.5 -34t138.5 -97.5t87 -154.5t30 -206q0 -33 -19.5 -50t-56.5 -17h-700v118h653l-35 -28q0 106 -31.5 181t-92 114t-150.5 39q-98 0 -168 -46.5t-107 -129t-37 -191.5v-12q0 -184 88 -278.5t254 -94.5 q66 0 134.5 16.5t132.5 59.5q31 18 56 17t41.5 -16.5t20.5 -37t-6 -46t-39 -42.5q-68 -47 -161 -72.5t-179 -25.5q-162 0 -277.5 62t-179 178t-63.5 274zM540 1153.5q-8 20.5 4 46.5l168 326q14 33 39 42t50.5 3t44 -23.5t21.5 -43t-13 -52.5l-205 -311q-16 -23 -38 -27 t-42.5 7.5t-28.5 32z" />
<glyph unicode="&#xea;" horiz-adv-x="1093" d="M90 496q0 156 62.5 272.5t172 182t250.5 65.5q100 0 181.5 -34t138.5 -97.5t87 -154.5t30 -206q0 -33 -19.5 -50t-56.5 -17h-700v118h653l-35 -28q0 106 -31.5 181t-92 114t-150.5 39q-98 0 -168 -46.5t-107 -129t-37 -191.5v-12q0 -184 88 -278.5t254 -94.5 q66 0 134.5 16.5t132.5 59.5q31 18 56 17t41.5 -16.5t20.5 -37t-6 -46t-39 -42.5q-68 -47 -161 -72.5t-179 -25.5q-162 0 -277.5 62t-179 178t-63.5 274zM293.5 1150.5q-7.5 20.5 7.5 47.5l163 303q20 37 48 53.5t63 16.5t63.5 -16.5t47.5 -53.5l163 -303q14 -27 7 -47.5 t-26 -30.5t-40.5 -6t-36.5 27l-178 284l-178 -284q-14 -23 -36 -27t-41 6t-26.5 30.5z" />
<glyph unicode="&#xeb;" horiz-adv-x="1093" d="M90 496q0 156 62.5 272.5t172 182t250.5 65.5q100 0 181.5 -34t138.5 -97.5t87 -154.5t30 -206q0 -33 -19.5 -50t-56.5 -17h-700v118h653l-35 -28q0 106 -31.5 181t-92 114t-150.5 39q-98 0 -168 -46.5t-107 -129t-37 -191.5v-12q0 -184 88 -278.5t254 -94.5 q66 0 134.5 16.5t132.5 59.5q31 18 56 17t41.5 -16.5t20.5 -37t-6 -46t-39 -42.5q-68 -47 -161 -72.5t-179 -25.5q-162 0 -277.5 62t-179 178t-63.5 274zM290 1337q0 49 28 75t77 26t75.5 -26t26.5 -75t-26.5 -75.5t-75.5 -26.5t-77 26.5t-28 75.5zM655 1337q0 49 26.5 75 t75.5 26t76 -26t27 -75t-26 -75.5t-77 -26.5q-49 0 -75.5 26.5t-26.5 75.5z" />
<glyph unicode="&#xec;" horiz-adv-x="485" d="M-48.5 1505.5q3.5 24.5 22 42t43 23.5t49 -3t41.5 -42l166 -326q12 -27 5 -47t-27.5 -31.5t-43.5 -7.5t-37 27l-204 311q-18 29 -14.5 53.5zM150 90v817q0 49 24.5 75t67.5 26q45 0 69.5 -26t24.5 -75v-817q0 -47 -23.5 -73.5t-70.5 -26.5q-43 0 -67.5 26.5t-24.5 73.5z " />
<glyph unicode="&#xed;" horiz-adv-x="485" d="M150 90v817q0 49 24.5 75t67.5 26q45 0 69.5 -26t24.5 -75v-817q0 -47 -23.5 -73.5t-70.5 -26.5q-43 0 -67.5 26.5t-24.5 73.5zM207 1153.5q-8 20.5 4 46.5l168 326q14 33 39 42t50.5 3t44 -23.5t21.5 -43t-13 -52.5l-205 -311q-16 -23 -38 -27t-42.5 7.5t-28.5 32z" />
<glyph unicode="&#xee;" horiz-adv-x="485" d="M-39.5 1150.5q-7.5 20.5 7.5 47.5l163 303q20 37 48 53.5t63 16.5t63.5 -16.5t47.5 -53.5l163 -303q14 -27 7 -47.5t-26 -30.5t-40.5 -6t-36.5 27l-178 284l-178 -284q-14 -23 -36 -27t-41 6t-26.5 30.5zM150 90v817q0 49 24.5 75t67.5 26q45 0 69.5 -26t24.5 -75v-817 q0 -47 -23.5 -73.5t-70.5 -26.5q-43 0 -67.5 26.5t-24.5 73.5z" />
<glyph unicode="&#xef;" horiz-adv-x="485" d="M-43 1337q0 49 28 75t77 26t75.5 -26t26.5 -75t-26.5 -75.5t-75.5 -26.5t-77 26.5t-28 75.5zM150 90v817q0 49 24.5 75t67.5 26q45 0 69.5 -26t24.5 -75v-817q0 -47 -23.5 -73.5t-70.5 -26.5q-43 0 -67.5 26.5t-24.5 73.5zM322 1337q0 49 26.5 75t75.5 26t76 -26t27 -75 t-26 -75.5t-77 -26.5q-49 0 -75.5 26.5t-26.5 75.5z" />
<glyph unicode="&#xf0;" horiz-adv-x="1157" d="M90 455q0 141 59.5 246.5t165 165t244.5 59.5q98 0 175 -33t129 -99.5t73 -172.5h-47q2 197 -79 344t-216 235h43l-305 -135q-37 -16 -62.5 -6t-36 31.5t0 48t49.5 43.5l219 96l6 -27q-39 20 -82 38t-90 32q-37 10 -51.5 34.5t-7 49.5t32 38t63.5 5q84 -23 155.5 -53.5 t135.5 -69.5l-52 2l254 111q35 16 60.5 7t37 -31.5t2 -47.5t-45.5 -41l-183 -80l6 25q104 -80 176 -184.5t109 -229.5t37 -272q0 -145 -32 -257t-95.5 -189t-155.5 -116.5t-215 -39.5q-141 0 -249.5 59t-168 165.5t-59.5 248.5zM279 455q0 -154 77.5 -240t214.5 -86 q92 0 159 40t102.5 113.5t35.5 172.5q0 150 -78.5 236.5t-216.5 86.5q-92 0 -157.5 -39t-101 -111.5t-35.5 -172.5z" />
<glyph unicode="&#xf1;" horiz-adv-x="1171" d="M150 82v836q0 47 24.5 70.5t67.5 23.5t66.5 -23.5t23.5 -70.5v-168l-23 30q43 117 140.5 176.5t222.5 59.5q121 0 198.5 -43t116.5 -131t39 -224v-536q0 -47 -23.5 -71.5t-68.5 -24.5t-69.5 24.5t-24.5 71.5v526q0 133 -51.5 194.5t-163.5 61.5q-131 0 -210 -81t-79 -218 v-483q0 -96 -94 -96q-43 0 -67.5 24.5t-24.5 71.5zM219 1262q8 47 24.5 88t44.5 72.5t64.5 51t85.5 19.5t88 -23.5t72 -53.5t66 -52.5t71 -22.5q45 0 77 34t42 91q4 18 18.5 28.5t39.5 10.5q25 -2 38 -17t7 -46q-10 -61 -38 -113.5t-72 -84.5t-109 -32q-49 0 -88 22.5 t-73 52.5t-67 52.5t-69 22.5q-45 0 -77 -33t-42 -90q-4 -20 -18.5 -30.5t-39.5 -8.5q-25 0 -38 15.5t-7 46.5z" />
<glyph unicode="&#xf2;" horiz-adv-x="1146" d="M90 500q0 119 34 214t97.5 162.5t152.5 103.5t199 36q147 0 256 -63.5t168.5 -179.5t59.5 -273q0 -119 -34 -215.5t-97.5 -164t-152.5 -103t-200 -35.5q-147 0 -255.5 63.5t-168 180t-59.5 274.5zM279 500q0 -180 80.5 -275.5t213.5 -95.5q90 0 157 43t102.5 125 t35.5 203q0 180 -79.5 274t-215.5 94q-88 0 -154.5 -42t-103 -123.5t-36.5 -202.5zM282.5 1505.5q3.5 24.5 22 42t43 23.5t49 -3t41.5 -42l166 -326q12 -27 5 -47t-27.5 -31.5t-43.5 -7.5t-37 27l-204 311q-18 29 -14.5 53.5z" />
<glyph unicode="&#xf3;" horiz-adv-x="1146" d="M90 500q0 119 34 214t97.5 162.5t152.5 103.5t199 36q147 0 256 -63.5t168.5 -179.5t59.5 -273q0 -119 -34 -215.5t-97.5 -164t-152.5 -103t-200 -35.5q-147 0 -255.5 63.5t-168 180t-59.5 274.5zM279 500q0 -180 80.5 -275.5t213.5 -95.5q90 0 157 43t102.5 125 t35.5 203q0 180 -79.5 274t-215.5 94q-88 0 -154.5 -42t-103 -123.5t-36.5 -202.5zM538 1153.5q-8 20.5 4 46.5l168 326q14 33 39 42t50.5 3t44 -23.5t21.5 -43t-13 -52.5l-205 -311q-16 -23 -38 -27t-42.5 7.5t-28.5 32z" />
<glyph unicode="&#xf4;" horiz-adv-x="1146" d="M90 500q0 119 34 214t97.5 162.5t152.5 103.5t199 36q147 0 256 -63.5t168.5 -179.5t59.5 -273q0 -119 -34 -215.5t-97.5 -164t-152.5 -103t-200 -35.5q-147 0 -255.5 63.5t-168 180t-59.5 274.5zM279 500q0 -180 80.5 -275.5t213.5 -95.5q90 0 157 43t102.5 125 t35.5 203q0 180 -79.5 274t-215.5 94q-88 0 -154.5 -42t-103 -123.5t-36.5 -202.5zM291.5 1150.5q-7.5 20.5 7.5 47.5l163 303q20 37 48 53.5t63 16.5t63.5 -16.5t47.5 -53.5l163 -303q14 -27 7 -47.5t-26 -30.5t-40.5 -6t-36.5 27l-178 284l-178 -284q-14 -23 -36 -27 t-41 6t-26.5 30.5z" />
<glyph unicode="&#xf5;" horiz-adv-x="1146" d="M90 500q0 119 34 214t97.5 162.5t152.5 103.5t199 36q147 0 256 -63.5t168.5 -179.5t59.5 -273q0 -119 -34 -215.5t-97.5 -164t-152.5 -103t-200 -35.5q-147 0 -255.5 63.5t-168 180t-59.5 274.5zM204 1262q8 47 24.5 88t44.5 72.5t64.5 51t85.5 19.5t88 -23.5t72 -53.5 t66 -52.5t71 -22.5q45 0 77 34t42 91q4 18 18.5 28.5t39.5 10.5q25 -2 38 -17t7 -46q-10 -61 -38 -113.5t-72 -84.5t-109 -32q-49 0 -88 22.5t-73 52.5t-67 52.5t-69 22.5q-45 0 -77 -33t-42 -90q-4 -20 -18.5 -30.5t-39.5 -8.5q-25 0 -38 15.5t-7 46.5zM279 500 q0 -180 80.5 -275.5t213.5 -95.5q90 0 157 43t102.5 125t35.5 203q0 180 -79.5 274t-215.5 94q-88 0 -154.5 -42t-103 -123.5t-36.5 -202.5z" />
<glyph unicode="&#xf6;" horiz-adv-x="1146" d="M90 500q0 119 34 214t97.5 162.5t152.5 103.5t199 36q147 0 256 -63.5t168.5 -179.5t59.5 -273q0 -119 -34 -215.5t-97.5 -164t-152.5 -103t-200 -35.5q-147 0 -255.5 63.5t-168 180t-59.5 274.5zM279 500q0 -180 80.5 -275.5t213.5 -95.5q90 0 157 43t102.5 125 t35.5 203q0 180 -79.5 274t-215.5 94q-88 0 -154.5 -42t-103 -123.5t-36.5 -202.5zM288 1337q0 49 28 75t77 26t75.5 -26t26.5 -75t-26.5 -75.5t-75.5 -26.5t-77 26.5t-28 75.5zM653 1337q0 49 26.5 75t75.5 26t76 -26t27 -75t-26 -75.5t-77 -26.5q-49 0 -75.5 26.5 t-26.5 75.5z" />
<glyph unicode="&#xf7;" d="M100 588q0 33 18.5 51t53.5 18h885q35 0 53 -18t18 -51t-18 -51.5t-53 -18.5h-885q-35 0 -53.5 18.5t-18.5 51.5zM506 180q0 47 25.5 71.5t70.5 24.5t70.5 -24.5t25.5 -71.5q0 -45 -24.5 -69.5t-71.5 -24.5q-45 0 -70.5 24.5t-25.5 69.5zM506 993q0 47 25.5 72t70.5 25 t70.5 -25t25.5 -72q0 -45 -24.5 -70.5t-71.5 -25.5q-45 0 -70.5 25.5t-25.5 70.5z" />
<glyph unicode="&#xf8;" horiz-adv-x="1146" d="M90 500q0 119 34 214t97.5 162.5t152.5 103.5t199 36q147 0 256 -63.5t168.5 -179.5t59.5 -273q0 -119 -34 -215.5t-97.5 -164t-152.5 -103t-200 -35.5q-147 0 -255.5 63.5t-168 180t-59.5 274.5zM205 -49.5q-8 24.5 10 53.5l614 1057q16 29 41 32t45.5 -9.5t28.5 -37 t-8 -53.5l-617 -1056q-16 -27 -40.5 -31t-45 8t-28.5 36.5zM279 500q0 -180 80.5 -275.5t213.5 -95.5q90 0 157 43t102.5 125t35.5 203q0 180 -79.5 274t-215.5 94q-88 0 -154.5 -42t-103 -123.5t-36.5 -202.5z" />
<glyph unicode="&#xf9;" horiz-adv-x="1157" d="M145 381v537q0 47 24 70.5t69 23.5t69.5 -23.5t24.5 -70.5v-537q0 -127 51 -187.5t162 -60.5q123 0 199.5 82t76.5 217v486q0 47 23.5 70.5t68.5 23.5t70 -23.5t25 -70.5v-836q0 -96 -90 -96q-45 0 -69 24.5t-24 71.5v178l27 -35q-41 -119 -132 -181t-214 -62 q-121 0 -202 45t-120 133t-39 221zM287.5 1507.5q3.5 24.5 22 42t43 23.5t49 -3t41.5 -42l166 -326q12 -27 5 -47t-27.5 -31.5t-43.5 -7.5t-37 27l-204 311q-18 29 -14.5 53.5z" />
<glyph unicode="&#xfa;" horiz-adv-x="1157" d="M145 381v537q0 47 24 70.5t69 23.5t69.5 -23.5t24.5 -70.5v-537q0 -127 51 -187.5t162 -60.5q123 0 199.5 82t76.5 217v486q0 47 23.5 70.5t68.5 23.5t70 -23.5t25 -70.5v-836q0 -96 -90 -96q-45 0 -69 24.5t-24 71.5v178l27 -35q-41 -119 -132 -181t-214 -62 q-121 0 -202 45t-120 133t-39 221zM543 1155.5q-8 20.5 4 46.5l168 326q14 33 39 42t50.5 3t44 -23.5t21.5 -43t-13 -52.5l-205 -311q-16 -23 -38 -27t-42.5 7.5t-28.5 32z" />
<glyph unicode="&#xfb;" horiz-adv-x="1157" d="M145 381v537q0 47 24 70.5t69 23.5t69.5 -23.5t24.5 -70.5v-537q0 -127 51 -187.5t162 -60.5q123 0 199.5 82t76.5 217v486q0 47 23.5 70.5t68.5 23.5t70 -23.5t25 -70.5v-836q0 -96 -90 -96q-45 0 -69 24.5t-24 71.5v178l27 -35q-41 -119 -132 -181t-214 -62 q-121 0 -202 45t-120 133t-39 221zM296.5 1152.5q-7.5 20.5 7.5 47.5l163 303q20 37 48 53.5t63 16.5t63.5 -16.5t47.5 -53.5l163 -303q14 -27 7 -47.5t-26 -30.5t-40.5 -6t-36.5 27l-178 284l-178 -284q-14 -23 -36 -27t-41 6t-26.5 30.5z" />
<glyph unicode="&#xfc;" horiz-adv-x="1157" d="M145 381v537q0 47 24 70.5t69 23.5t69.5 -23.5t24.5 -70.5v-537q0 -127 51 -187.5t162 -60.5q123 0 199.5 82t76.5 217v486q0 47 23.5 70.5t68.5 23.5t70 -23.5t25 -70.5v-836q0 -96 -90 -96q-45 0 -69 24.5t-24 71.5v178l27 -35q-41 -119 -132 -181t-214 -62 q-121 0 -202 45t-120 133t-39 221zM293 1339q0 49 28 75t77 26t75.5 -26t26.5 -75t-26.5 -75.5t-75.5 -26.5t-77 26.5t-28 75.5zM658 1339q0 49 26.5 75t75.5 26t76 -26t27 -75t-26 -75.5t-77 -26.5q-49 0 -75.5 26.5t-26.5 75.5z" />
<glyph unicode="&#xfd;" horiz-adv-x="1058" d="M53 946.5q4 28.5 27.5 47t64.5 18.5q35 0 55.5 -16.5t39.5 -57.5l321 -793h-57l327 793q16 41 39 57.5t62 16.5q35 0 54.5 -18.5t23.5 -47t-13 -61.5l-516 -1194q-20 -43 -41.5 -58.5t-60.5 -15.5q-33 0 -54.5 17.5t-24.5 47t11 62.5l140 315v-77l-388 901 q-14 35 -10 63.5zM495 1153.5q-8 20.5 4 46.5l168 326q14 33 39 42t50.5 3t44 -23.5t21.5 -43t-13 -52.5l-205 -311q-16 -23 -38 -27t-42.5 7.5t-28.5 32z" />
<glyph unicode="&#xfe;" horiz-adv-x="1202" d="M150 -289v1653q0 47 24.5 70.5t67.5 23.5q45 0 69.5 -23.5t24.5 -70.5v-596h-25q33 113 129.5 180.5t231.5 67.5q133 0 231 -62.5t153.5 -178.5t55.5 -275q0 -158 -54 -276t-153.5 -180t-232.5 -62t-229.5 67.5t-129.5 177.5h23v-516q0 -45 -24.5 -69.5t-69.5 -24.5 q-43 0 -67.5 24.5t-24.5 69.5zM334 500q0 -180 80 -275.5t215 -95.5q88 0 154.5 43t103.5 125t37 203q0 180 -80 274t-215 94q-90 0 -156.5 -42t-102.5 -123.5t-36 -202.5z" />
<glyph unicode="&#xff;" horiz-adv-x="1058" d="M53 946.5q4 28.5 27.5 47t64.5 18.5q35 0 55.5 -16.5t39.5 -57.5l321 -793h-57l327 793q16 41 39 57.5t62 16.5q35 0 54.5 -18.5t23.5 -47t-13 -61.5l-516 -1194q-20 -43 -41.5 -58.5t-60.5 -15.5q-33 0 -54.5 17.5t-24.5 47t11 62.5l140 315v-77l-388 901 q-14 35 -10 63.5zM245 1337q0 49 28 75t77 26t75.5 -26t26.5 -75t-26.5 -75.5t-75.5 -26.5t-77 26.5t-28 75.5zM610 1337q0 49 26.5 75t75.5 26t76 -26t27 -75t-26 -75.5t-77 -26.5q-49 0 -75.5 26.5t-26.5 75.5z" />
<glyph unicode="&#x152;" horiz-adv-x="2148" d="M121 723q0 174 49 309t143.5 226.5t231.5 138.5t313 47h1120q39 0 59.5 -19.5t20.5 -56.5q0 -39 -20.5 -59.5t-59.5 -20.5h-673v-477h630q39 0 59.5 -20.5t20.5 -57.5q0 -39 -20.5 -58.5t-59.5 -19.5h-630v-499h673q39 0 59.5 -19.5t20.5 -58.5t-20.5 -58.5t-59.5 -19.5 h-1120q-352 0 -544.5 187.5t-192.5 535.5zM322 723q0 -281 137 -421t411 -140h250v1120h-250q-137 0 -240.5 -34t-172 -104.5t-102 -175t-33.5 -245.5z" />
<glyph unicode="&#x153;" horiz-adv-x="1865" d="M90 500q0 119 34 214t97.5 162.5t151.5 103.5t196 36q152 0 260.5 -76t157.5 -213h-49q45 131 155.5 210t260.5 79q133 0 229 -59.5t148.5 -169t52.5 -263.5q0 -33 -19.5 -50t-56.5 -17h-690v118h641l-33 -26q0 106 -31.5 180t-92 113t-150.5 39q-96 0 -163 -46.5 t-100.5 -129t-33.5 -191.5v-12q0 -182 84 -277.5t245 -95.5q63 0 131 16.5t134 59.5q31 18 56.5 17t41.5 -16.5t20.5 -37t-7 -46t-38.5 -42.5q-70 -47 -161 -72.5t-175 -25.5q-170 0 -288.5 74.5t-165.5 217.5h53q-49 -137 -156.5 -214.5t-259.5 -77.5q-145 0 -252.5 63.5 t-167 180t-59.5 274.5zM279 500q0 -180 80.5 -275.5t213.5 -95.5q90 0 157 43t102.5 125t35.5 203q0 180 -79.5 274t-215.5 94q-88 0 -154.5 -42t-103 -123.5t-36.5 -202.5z" />
<glyph unicode="&#x178;" horiz-adv-x="1230" d="M34 1385.5q1 31.5 23.5 52t61.5 20.5q31 0 55.5 -14t46.5 -47l422 -582h-47l422 582q23 35 45 48t57 13q37 0 58.5 -19.5t22.5 -50t-23 -63.5l-508 -704l41 127v-662q-1 -100 -97 -100q-45 0 -69.5 25.5t-24.5 74.5v662l41 -127l-508 704q-20 29 -19 60.5zM329 1739 q0 47 28 73.5t77 26.5t75.5 -26.5t26.5 -73.5q0 -49 -26.5 -76t-75.5 -27t-77 27t-28 76zM694 1739q0 47 26.5 73.5t75.5 26.5t76 -26.5t27 -73.5q0 -49 -26 -76t-77 -27q-49 0 -75.5 27t-26.5 76z" />
<glyph unicode="&#x2c6;" horiz-adv-x="976" d="M205.5 1150.5q-7.5 20.5 7.5 47.5l163 303q20 37 48 53.5t63 16.5t63.5 -16.5t47.5 -53.5l163 -303q14 -27 7 -47.5t-26 -30.5t-40.5 -6t-36.5 27l-178 284l-178 -284q-14 -23 -36 -27t-41 6t-26.5 30.5z" />
<glyph unicode="&#x2dc;" horiz-adv-x="1150" d="M206 1262q8 47 24.5 88t44.5 72.5t64.5 51t85.5 19.5t88 -23.5t72 -53.5t66 -52.5t71 -22.5q45 0 77 34t42 91q4 18 18.5 28.5t39.5 10.5q25 -2 38 -17t7 -46q-10 -61 -38 -113.5t-72 -84.5t-109 -32q-49 0 -88 22.5t-73 52.5t-67 52.5t-69 22.5q-45 0 -77 -33t-42 -90 q-4 -20 -18.5 -30.5t-39.5 -8.5q-25 0 -38 15.5t-7 46.5z" />
<glyph unicode="&#x2000;" horiz-adv-x="1016" />
<glyph unicode="&#x2001;" horiz-adv-x="2032" />
<glyph unicode="&#x2002;" horiz-adv-x="1016" />
<glyph unicode="&#x2003;" horiz-adv-x="2032" />
<glyph unicode="&#x2004;" horiz-adv-x="677" />
<glyph unicode="&#x2005;" horiz-adv-x="508" />
<glyph unicode="&#x2006;" horiz-adv-x="338" />
<glyph unicode="&#x2007;" horiz-adv-x="338" />
<glyph unicode="&#x2008;" horiz-adv-x="254" />
<glyph unicode="&#x2009;" horiz-adv-x="406" />
<glyph unicode="&#x200a;" horiz-adv-x="112" />
<glyph unicode="&#x2010;" horiz-adv-x="874" d="M131 547q0 33 22.5 54.5t55.5 21.5h457q31 0 54 -21.5t23 -54.5t-23.5 -55.5t-53.5 -22.5h-457q-33 0 -55.5 22.5t-22.5 55.5z" />
<glyph unicode="&#x2011;" horiz-adv-x="874" d="M131 547q0 33 22.5 54.5t55.5 21.5h457q31 0 54 -21.5t23 -54.5t-23.5 -55.5t-53.5 -22.5h-457q-33 0 -55.5 22.5t-22.5 55.5z" />
<glyph unicode="&#x2012;" horiz-adv-x="874" d="M131 547q0 33 22.5 54.5t55.5 21.5h457q31 0 54 -21.5t23 -54.5t-23.5 -55.5t-53.5 -22.5h-457q-33 0 -55.5 22.5t-22.5 55.5z" />
<glyph unicode="&#x2013;" horiz-adv-x="1024" d="M-14 547q0 25 18.5 42t46.5 17h924q27 0 45 -17.5t18 -41.5q0 -25 -18.5 -42.5t-44.5 -17.5h-924q-29 0 -47 17.5t-18 42.5z" />
<glyph unicode="&#x2014;" horiz-adv-x="2048" d="M-14 547q0 25 18.5 42t46.5 17h1948q27 0 45 -17.5t18 -41.5q0 -25 -18.5 -42.5t-44.5 -17.5h-1948q-29 0 -47 17.5t-18 42.5z" />
<glyph unicode="&#x2018;" horiz-adv-x="477" d="M117 1130q0 43 9 91.5t30.5 97.5t60.5 96q20 27 44 31t41 -8.5t19.5 -37t-20.5 -52.5q-35 -43 -48 -89.5t-13 -82.5l-9 47q57 0 93 -34t36 -89q0 -51 -32.5 -85t-87.5 -34t-89 39t-34 110z" />
<glyph unicode="&#x2019;" horiz-adv-x="477" d="M117 1331q0 53 32.5 87t88.5 34q55 0 88.5 -38t33.5 -111q0 -43 -9 -91.5t-29.5 -97.5t-61.5 -96q-20 -27 -43.5 -31t-41 8.5t-19.5 37t20 52.5q35 43 48.5 89.5t13.5 82.5l8 -47q-57 0 -93 33t-36 88z" />
<glyph unicode="&#x201a;" horiz-adv-x="477" d="M117 115q0 53 32.5 85.5t88.5 32.5q55 0 88.5 -37.5t33.5 -111.5q0 -43 -9 -91t-29.5 -97.5t-61.5 -96.5q-20 -27 -43.5 -31t-41 8.5t-19.5 37t20 53.5q35 45 48.5 90t13.5 84l8 -49q-57 0 -93 33.5t-36 89.5z" />
<glyph unicode="&#x201c;" horiz-adv-x="829" d="M117 1130q0 43 9 91.5t30.5 97.5t60.5 96q20 27 44 31t41 -8.5t19.5 -37t-20.5 -52.5q-35 -43 -48 -89.5t-13 -82.5l-9 47q57 0 93 -34t36 -89q0 -51 -32.5 -85t-87.5 -34t-89 39t-34 110zM469 1130q0 43 9 91.5t30.5 97.5t60.5 96q20 27 44 31t41 -8.5t19.5 -37 t-20.5 -52.5q-35 -43 -48 -89.5t-13 -82.5l-9 47q57 0 93 -34t36 -89q0 -51 -32.5 -85t-87.5 -34t-89 39t-34 110z" />
<glyph unicode="&#x201d;" horiz-adv-x="829" d="M117 1331q0 53 32.5 87t88.5 34q55 0 88.5 -38t33.5 -111q0 -43 -9 -91.5t-29.5 -97.5t-61.5 -96q-20 -27 -43.5 -31t-41 8.5t-19.5 37t20 52.5q35 43 48.5 89.5t13.5 82.5l8 -47q-57 0 -93 33t-36 88zM469 1331q0 53 32.5 87t88.5 34q55 0 88.5 -38t33.5 -111 q0 -43 -9 -91.5t-29.5 -97.5t-61.5 -96q-20 -27 -43.5 -31t-41 8.5t-19.5 37t20 52.5q35 43 48.5 89.5t13.5 82.5l8 -47q-57 0 -93 33t-36 88z" />
<glyph unicode="&#x201e;" horiz-adv-x="829" d="M117 115q0 53 32.5 85.5t88.5 32.5q55 0 88.5 -37.5t33.5 -111.5q0 -43 -9 -91t-29.5 -97.5t-61.5 -96.5q-20 -27 -43.5 -31t-41 8.5t-19.5 37t20 53.5q35 45 48.5 90t13.5 84l8 -49q-57 0 -93 33.5t-36 89.5zM469 115q0 53 32.5 85.5t88.5 32.5q55 0 88.5 -37.5 t33.5 -111.5q0 -43 -9 -91t-29.5 -97.5t-61.5 -96.5q-20 -27 -43.5 -31t-41 8.5t-19.5 37t20 53.5q35 45 48.5 90t13.5 84l8 -49q-57 0 -93 33.5t-36 89.5z" />
<glyph unicode="&#x2022;" horiz-adv-x="1073" d="M166 543q0 94 48 177t132 135t191 52q98 0 183 -47t136 -130t51 -187q0 -100 -50 -182t-134 -131.5t-186 -49.5q-100 0 -184.5 48t-135.5 130t-51 185z" />
<glyph unicode="&#x2026;" horiz-adv-x="1433" d="M117 115q0 53 34.5 85.5t88.5 32.5q57 0 88.5 -32.5t31.5 -85.5t-31.5 -88t-88.5 -35q-53 0 -88 34.5t-35 88.5zM596 115q0 53 34.5 85.5t88.5 32.5q57 0 88.5 -32.5t31.5 -85.5t-31.5 -88t-88.5 -35q-53 0 -88 34.5t-35 88.5zM1073 115q0 53 34.5 85.5t88.5 32.5 q57 0 88.5 -32.5t31.5 -85.5t-31.5 -88t-88.5 -35q-53 0 -88 34.5t-35 88.5z" />
<glyph unicode="&#x202f;" horiz-adv-x="406" />
<glyph unicode="&#x2039;" horiz-adv-x="544" d="M115 542.5q0 30.5 20 63.5l162 273q16 27 42 34t52 -6q29 -12 39 -41.5t-8 -64.5l-125 -256l125 -258q16 -35 9 -66t-38 -41q-27 -10 -52.5 -3t-39.5 30l-166 274q-20 31 -20 61.5z" />
<glyph unicode="&#x203a;" horiz-adv-x="544" d="M114.5 221q-8.5 31 8.5 66l127 258l-127 256q-16 35 -6 64.5t39 41.5q27 12 52 5t40 -33l164 -273q18 -33 18 -62.5t-18 -62.5l-166 -274q-14 -23 -40.5 -30t-53.5 3q-29 10 -37.5 41z" />
<glyph unicode="&#x205f;" horiz-adv-x="508" />
<glyph unicode="&#x20ac;" d="M29 565q0 31 20.5 50.5t48.5 19.5h164l-29 -37q-4 59 -4 127t7 121l28 -35h-166q-29 0 -49 20.5t-20 49.5t20.5 48t48.5 19h183l-39 -43q27 180 100.5 304t189 188.5t261.5 64.5q106 0 201.5 -33.5t170.5 -109.5q23 -20 28 -45t-3 -47.5t-24.5 -35.5t-42 -12t-50.5 23 q-55 51 -123.5 72.5t-142.5 21.5q-94 0 -171 -42t-127 -127t-73 -216l-37 37h320q31 0 50 -19.5t19 -47.5q0 -29 -19 -49.5t-50 -20.5h-332l39 35q-6 -51 -6 -119t6 -125l-37 33h330q31 0 50 -20.5t19 -49.5q0 -27 -19 -47t-50 -20h-309l26 37q23 -131 73 -217.5t127 -128.5 t171 -42q76 0 140.5 21.5t125.5 73.5q29 23 52.5 23.5t41 -12.5t24.5 -34.5t2 -45t-26 -46.5q-72 -74 -170 -109.5t-204 -35.5q-145 0 -261 64.5t-190 189t-100 303.5l28 -41h-172q-29 0 -49 19.5t-20 47.5z" />
<glyph unicode="&#x2122;" horiz-adv-x="1906" d="M6 1372q0 35 19.5 53.5t54.5 18.5h600q37 0 56.5 -18.5t19.5 -53.5q0 -33 -19.5 -51t-56.5 -18h-215v-646q0 -43 -21.5 -65.5t-62.5 -22.5t-63.5 22.5t-22.5 65.5v646h-215q-35 0 -54.5 18t-19.5 51zM872 647v729q0 27 10.5 44.5t27 26.5t36.5 9q33 0 51.5 -12t34.5 -41 l299 -535h-41l297 535q16 29 33.5 41t52.5 12q31 0 52.5 -19.5t21.5 -60.5v-729q0 -78 -74 -78q-37 0 -56.5 20.5t-19.5 57.5v561h35l-266 -471q-12 -18 -24.5 -25t-30.5 -7t-31.5 7t-26.5 25l-268 471h37v-561q0 -78 -74 -78q-35 0 -55.5 20.5t-20.5 57.5z" />
<glyph unicode="&#x25fc;" horiz-adv-x="1013" d="M0 0v1014h1014v-1014h-1014z" />
</font>
</defs>
</svg>
