<svg id="layer1" xmlns="http://www.w3.org/2000/svg" width="75.956" height="47.718" viewBox="0 0 75.956 47.718">
  <g id="g10">
    <g id="g12">
      <path id="path14" d="M398.136,108.911h0a5.154,5.154,0,0,0-.7,2.127,13.679,13.679,0,0,1-.662,2.728,7.221,7.221,0,0,1-2.3,3.165,30.218,30.218,0,0,0-5.32-8.939,7.576,7.576,0,0,1,3.976-.361,14.521,14.521,0,0,1,2.744.8,5.572,5.572,0,0,0,2.239.477Z" transform="translate(-327.261 -90.412)" fill="#084b9a"/>
      <path id="path16" d="M314.594,31.1h0a5.3,5.3,0,0,0,.49,2.181,13.8,13.8,0,0,1,.826,2.683,7.035,7.035,0,0,1-.374,3.881,31.335,31.335,0,0,0-9.186-5.171,7.426,7.426,0,0,1,3.262-2.262,14.748,14.748,0,0,1,2.8-.636,5.523,5.523,0,0,0,2.184-.679Z" transform="translate(-257.623 -26.153)" fill="#084b9a"/>
      <path id="path18" d="M431.81,200.14a7.492,7.492,0,0,1,3.612,1.621,14.143,14.143,0,0,1,1.972,2.039,5.457,5.457,0,0,0,1.689,1.5h-6.816A29.9,29.9,0,0,0,431.81,200.14Z" transform="translate(-363.127 -168.306)" fill="#084b9a"/>
      <path id="path20" d="M111.8,31.12h0a5.484,5.484,0,0,0,2.184.678,14.633,14.633,0,0,1,2.8.636,7.4,7.4,0,0,1,3.262,2.26,31.4,31.4,0,0,0-9.187,5.171,7,7,0,0,1-.371-3.881,13.594,13.594,0,0,1,.826-2.683A5.218,5.218,0,0,0,111.8,31.12Z" transform="translate(-92.808 -26.17)" fill="#084b9a"/>
      <path id="path22" d="M32,108.908h0a5.664,5.664,0,0,0,2.241-.477,14.5,14.5,0,0,1,2.753-.806,7.6,7.6,0,0,1,3.976.361,30.192,30.192,0,0,0-5.313,8.942,7.188,7.188,0,0,1-2.3-3.165,13.558,13.558,0,0,1-.663-2.726,5.17,5.17,0,0,0-.7-2.127Z" transform="translate(-26.91 -90.408)" fill="#084b9a"/>
      <path id="path24" d="M0,205.3a5.3,5.3,0,0,0,1.688-1.5,14.14,14.14,0,0,1,1.971-2.038,7.457,7.457,0,0,1,3.609-1.622,29.893,29.893,0,0,0-.455,5.163Z" transform="translate(0 -168.306)" fill="#084b9a"/>
      <path id="path26" d="M210.728,0h0a5.219,5.219,0,0,0,1.543,1.645,14.008,14.008,0,0,1,2.092,1.92,7.113,7.113,0,0,1,1.67,3.545,32.2,32.2,0,0,0-10.612,0,7.129,7.129,0,0,1,1.672-3.545,14.239,14.239,0,0,1,2.093-1.909,5.309,5.309,0,0,0,1.543-1.64Z" transform="translate(-172.746)" fill="#084b9a"/>
    </g>
    <g id="g28" transform="translate(9.772 9.997)">
      <path id="path30" d="M174.949,216.251h2.344c.307-1.928-.3-3.413-2.3-3.059-1.688.3-3.5,1.933-4.6,3.059l3.091-.013c.345-.219,1.018-.477,1.3-.285A.364.364,0,0,1,174.949,216.251Z" transform="translate(-153.069 -189.235)" fill="#084b9a"/>
      <path id="path32" d="M106.9,153.2h2.927a19.285,19.285,0,0,0-2.025-9.844,9.3,9.3,0,0,0-7-5.044c-4.562-.655-9.166,1.234-13.057,3.918A48.531,48.531,0,0,0,76.95,153.2h3.864c3.477-4.8,11.479-12.088,17.364-12.141a7.69,7.69,0,0,1,5.193,1.643c1.021.889,2.259,2.613,2.2,4.013-.037.822-.8,1.085-1.517.822a3.258,3.258,0,0,1-1.355-1.234,5.715,5.715,0,0,0-5.47-2.27c-2.613.352-5.852,2.329-7.94,4.135a49.943,49.943,0,0,0-5.012,5.023h4.155a21.2,21.2,0,0,1,5.2-4.571,11.849,11.849,0,0,1,2.306-1.1c2.135-.716,4.26-.534,5.2,2.055a7.979,7.979,0,0,1,.318,3.549v.065h2.823v-.083a22.988,22.988,0,0,1,.064-2.386c.072-.765.318-1.559,1.055-1.645,1.552-.318,1.478,3.046,1.508,4.124Z" transform="translate(-74.483 -126.198)" fill="#084b9a"/>
      <path id="path34" d="M99.862,119.6h2.954a29.709,29.709,0,0,0-1.169-10.049,18.049,18.049,0,0,0-.7-1.85,15.81,15.81,0,0,0-2.48-3.817,16.914,16.914,0,0,0-3.954-3.375,15.332,15.332,0,0,0-1.377-.748h0a14.113,14.113,0,0,0-1.463-.6h0c-5.744-1.985-11.552-.573-16.424,2.009-.954.5-1.863,1.051-2.742,1.626s-1.689,1.179-2.478,1.794h0a33.708,33.708,0,0,0-3.229,2.906c-.223.232-.447.469-.663.709-.579.636-1.478,1.536-1.207,2.465.21.736,1.183.52,1.524.266a9.861,9.861,0,0,0,1.581-1.113c.665-.547,1.292-1.136,1.948-1.691A32.9,32.9,0,0,1,78.125,103q.892-.382,1.783-.687c.592-.205,1.177-.377,1.761-.523h0c5.063-1.284,10.585-.452,14.116,3.579,3.4,3.883,4.019,9.077,4.072,14.24Zm-36.583-4.39a9.8,9.8,0,0,0,.975-1.08,1.461,1.461,0,0,0,.334-1.551,1.1,1.1,0,0,0-.3-.385,1.04,1.04,0,0,0-.423-.205,1.254,1.254,0,0,0-1.231.509,5.118,5.118,0,0,0-1.174,2.206,1.591,1.591,0,0,0-.014.425,1.012,1.012,0,0,0,.111.371h0a.541.541,0,0,0,.49.289.783.783,0,0,0,.15,0,1.009,1.009,0,0,0,.169-.029h0A2.139,2.139,0,0,0,63.278,115.212Z" transform="translate(-61.44 -92.603)" fill="#084b9a"/>
      <path id="path36" d="M134.738,89.855h.032a1.322,1.322,0,0,0,1.155-.636,1.539,1.539,0,0,0,.159-.347,2.143,2.143,0,0,0,.08-.458h0v-.035h0c.234-7.977-2.275-14.582-6.54-19.069a20.122,20.122,0,0,0-5.7-4.223H123.9a22.071,22.071,0,0,0-11.611-2.147,23.724,23.724,0,0,0-4.587.838h0a26.258,26.258,0,0,0-11.032,6.607c-.6.6-1.177,1.241-1.726,1.877q-.409.477-.8.988a38.751,38.751,0,0,1,6.964-4.716q.826-.433,1.661-.808t1.691-.7h0a26.044,26.044,0,0,1,6.421-1.573,24.433,24.433,0,0,1,6.428.159,19.912,19.912,0,0,1,4.4,1.18q.4.159.775.34c.253.121.495.243.736.377h0c4.772,2.545,8.083,7.762,9.543,13.657a28.79,28.79,0,0,1,.845,7.08h0v.067a1.7,1.7,0,0,0,.636,1.414.81.81,0,0,0,.231.1h0a.9.9,0,0,0,.269.033Z" transform="translate(-88.947 -62.854)" fill="#084b9a"/>
      <path id="path38" d="M295.676,65.44a28.207,28.207,0,0,1,19.806,26.59h-5.675A29.23,29.23,0,0,0,295.67,65.44Z" transform="translate(-258.414 -65.029)" fill="#084b9a"/>
    </g>
    <path id="path40" d="M61.562,257.792h-2.3L58.7,259.74H56.87l2.421-7.461h2.321L64.1,259.74H62.192Zm-2.033-1.263h1.759q-.689-2.185-.9-3h-.022L60,254.946l-.477,1.583Zm10.463,1.263H67.707l-.569,1.948H65.308l2.419-7.461H70.05l2.488,7.461H70.63Zm-2.034-1.263H69.72q-.692-2.185-.9-3H68.8l-.363,1.416-.477,1.583Zm6.318,3.181v-7.331a16.61,16.61,0,0,1,2.434-.159,5.052,5.052,0,0,1,3.515,1,3.386,3.386,0,0,1,1.055,2.61,3.677,3.677,0,0,1-1.21,2.949,5.65,5.65,0,0,1-3.744,1.04,16.969,16.969,0,0,1-2.049-.111Zm1.762-6.111v4.859a3.84,3.84,0,0,0,.636.033,2.861,2.861,0,0,0,2.031-.673,2.513,2.513,0,0,0,.717-1.928,2.22,2.22,0,0,0-.655-1.75,2.739,2.739,0,0,0-1.9-.6,4.548,4.548,0,0,0-.845.065Zm7.135-1.317h1.762v2.877h3.011v-2.881h1.761v7.461H87.947v-3.1H84.936v3.11H83.173Zm12.92,5.513h-2.3l-.568,1.948H91.406l2.418-7.465h2.321l2.489,7.461h-1.9l-.636-1.948Zm-2.034-1.263H95.82q-.692-2.185-.9-3h-.017l-.363,1.416-.477,1.583Zm10.464,1.263h-2.3l-.568,1.948H99.836l2.419-7.461h2.322l2.488,7.461h-1.9l-.636-1.948Zm-2.034-1.263h1.762q-.693-2.185-.9-3h-.019l-.363,1.416-.477,1.583Zm6.316,3.211v-7.364a14.294,14.294,0,0,1,2.375-.159,4.312,4.312,0,0,1,2.5.558,1.864,1.864,0,0,1,.76,1.6,1.8,1.8,0,0,1-.382,1.121,2.068,2.068,0,0,1-.993.706v.043a1.862,1.862,0,0,1,1.034,1.373q.585,2,.636,2.127h-1.8A8.47,8.47,0,0,1,112.4,258a1.909,1.909,0,0,0-.421-.929,1.215,1.215,0,0,0-.873-.264h-.547v2.933Zm1.738-6.2v2.055h.727a1.67,1.67,0,0,0,1.04-.291.932.932,0,0,0,.38-.781.911.911,0,0,0-.342-.763,1.559,1.559,0,0,0-.977-.267,3.912,3.912,0,0,0-.829.056Z" transform="translate(-47.824 -212.101)" fill="#084b9a"/>
  </g>
</svg>
