<svg xmlns="http://www.w3.org/2000/svg" width="38" height="38" viewBox="0 0 38 38">
  <g id="Aadhaar" transform="translate(18696 4901)">
    <g id="Group_8333" data-name="Group 8333" transform="translate(-18696 -4901)">
      <circle id="Ellipse_87" data-name="Ellipse 87" cx="18.765" cy="18.765" r="18.765" transform="translate(0.235 0.235)" fill="#d3d3d3"/>
      <path id="Path_13435" data-name="Path 13435" d="M1047.112,217.182a18.907,18.907,0,0,1-10.623-3.245,19.052,19.052,0,0,1-6.884-8.36,18.974,18.974,0,0,1,1.752-18.019,19.058,19.058,0,0,1,8.359-6.884,18.976,18.976,0,0,1,18.019,1.752,19.058,19.058,0,0,1,6.884,8.359,18.976,18.976,0,0,1-1.752,18.019,19.055,19.055,0,0,1-8.359,6.884A18.879,18.879,0,0,1,1047.112,217.182Zm0-37.531a18.531,18.531,0,1,0,18.531,18.531A18.552,18.552,0,0,0,1047.112,179.651Z" transform="translate(-1028.112 -179.182)" fill="#d3d3d3"/>
    </g>
    <g id="Group_8367" data-name="Group 8367" transform="translate(-18688.873 -4890.075)">
      <g id="Group_8360" data-name="Group 8360" transform="translate(9.501 3.174)">
        <g id="Group_8334" data-name="Group 8334" transform="translate(6.074 1.511)">
          <path id="Path_13436" data-name="Path 13436" d="M1080.152,213.516a4.318,4.318,0,0,0-1.493-3.449l-.542-.4a4.347,4.347,0,0,1,1.865,1.229,3.813,3.813,0,0,1,.99,2.615Z" transform="translate(-1078.117 -209.671)"/>
        </g>
        <g id="Group_8335" data-name="Group 8335" transform="translate(8.216 2.485)">
          <path id="Path_13437" data-name="Path 13437" d="M1084.5,213.581a3.848,3.848,0,0,0-.771-1.291,1.279,1.279,0,0,1,.991.073,1.03,1.03,0,0,0,.3.061.811.811,0,0,0-.089.269,2.475,2.475,0,0,1-.068.33A1.173,1.173,0,0,1,1084.5,213.581Z" transform="translate(-1083.731 -212.224)"/>
        </g>
        <g id="Group_8336" data-name="Group 8336" transform="translate(6.33 0.725)">
          <path id="Path_13438" data-name="Path 13438" d="M1080.1,208.874a3.847,3.847,0,0,0-1.312-.735,1.28,1.28,0,0,1,.895-.431,1.037,1.037,0,0,0,.29-.1.8.8,0,0,0,.057.278,2.461,2.461,0,0,1,.106.32A1.173,1.173,0,0,1,1080.1,208.874Z" transform="translate(-1078.789 -207.612)"/>
        </g>
        <g id="Group_8337" data-name="Group 8337" transform="translate(3.975)">
          <path id="Path_13439" data-name="Path 13439" d="M1074.118,206.749a3.848,3.848,0,0,0-1.5,0,1.282,1.282,0,0,1,.568-.814,1.035,1.035,0,0,0,.205-.227.8.8,0,0,0,.186.214,2.5,2.5,0,0,1,.249.227A1.173,1.173,0,0,1,1074.118,206.749Z" transform="translate(-1072.614 -205.711)"/>
        </g>
        <g id="Group_8338" data-name="Group 8338" transform="translate(1.83 0.72)">
          <path id="Path_13440" data-name="Path 13440" d="M1068.34,208.093a3.854,3.854,0,0,0-1.274.8,1.28,1.28,0,0,1,.051-.992,1.025,1.025,0,0,0,.054-.3.817.817,0,0,0,.271.083,2.463,2.463,0,0,1,.332.06A1.174,1.174,0,0,1,1068.34,208.093Z" transform="translate(-1066.991 -207.599)"/>
        </g>
        <g id="Group_8339" data-name="Group 8339" transform="translate(0 2.498)">
          <path id="Path_13441" data-name="Path 13441" d="M1063.451,212.315a3.847,3.847,0,0,0-.687,1.338,1.28,1.28,0,0,1-.463-.879,1.029,1.029,0,0,0-.107-.286.818.818,0,0,0,.276-.067,2.461,2.461,0,0,1,.316-.117A1.172,1.172,0,0,1,1063.451,212.315Z" transform="translate(-1062.194 -212.259)"/>
        </g>
        <g id="Group_8340" data-name="Group 8340" transform="translate(9.191 4.615)">
          <path id="Path_13442" data-name="Path 13442" d="M1087.337,218.557s-.1-.035-.3-.292a1.236,1.236,0,0,0-.67-.442c-.083-.013-.077-.015-.077-.015a5.149,5.149,0,0,1,.066.747Z" transform="translate(-1086.287 -217.808)"/>
        </g>
        <g id="Group_8341" data-name="Group 8341" transform="translate(1.431 1.436)">
          <path id="Path_13443" data-name="Path 13443" d="M1071.875,213.409s.262.092.2-.507a3.657,3.657,0,0,0-1.185-2.681,2.866,2.866,0,0,0-2.39-.681,3.8,3.8,0,0,0-2.454,1.448l.37-.27a4.41,4.41,0,0,1,2.354-.848,2.653,2.653,0,0,1,1.7.49,3.538,3.538,0,0,1,.9,1.095,5.026,5.026,0,0,1,.344,1.508C1071.68,213.5,1071.875,213.409,1071.875,213.409Z" transform="translate(-1066.007 -209.489)"/>
          <path id="Path_13444" data-name="Path 13444" d="M1071.784,213.409a.1.1,0,0,1-.055-.018c-.073-.051-.1-.2-.088-.442a5.07,5.07,0,0,0-.343-1.5,3.553,3.553,0,0,0-.9-1.09l-.047-.03a2.641,2.641,0,0,0-1.649-.459,3.318,3.318,0,0,0-1.578.394,5.735,5.735,0,0,0-.769.452l-.413.3.03-.043a3.478,3.478,0,0,1,1.559-1.2,3.916,3.916,0,0,1,.9-.251,2.6,2.6,0,0,1,.779-.027,2.9,2.9,0,0,1,1.619.71,3.567,3.567,0,0,1,1.171,2.5c.006.066.011.128.017.188.027.259,0,.425-.087.491a.135.135,0,0,1-.121.026A.087.087,0,0,1,1071.784,213.409Zm-3.207-3.566q.066,0,.131,0a2.653,2.653,0,0,1,1.657.462l.047.03a3.564,3.564,0,0,1,.9,1.1,5.08,5.08,0,0,1,.345,1.513c-.018.294.034.394.08.426a.075.075,0,0,0,.07.01l0,0h0a.119.119,0,0,0,.108-.022c.054-.043.112-.161.08-.475-.006-.06-.011-.122-.017-.188a3.554,3.554,0,0,0-1.165-2.487,2.881,2.881,0,0,0-1.608-.7,2.584,2.584,0,0,0-.774.027,3.916,3.916,0,0,0-.9.251,3.479,3.479,0,0,0-1.519,1.149l.326-.238a5.773,5.773,0,0,1,.771-.454A3.524,3.524,0,0,1,1068.577,209.844Z" transform="translate(-1065.946 -209.475)"/>
        </g>
        <g id="Group_8342" data-name="Group 8342" transform="translate(1.165 2.261)">
          <path id="Path_13445" data-name="Path 13445" d="M1070.333,214.746h.427a3.185,3.185,0,0,0-.755-2.405,2.41,2.41,0,0,0-1.859-.67,3.719,3.719,0,0,0-2.012.82c-.967.784-.857.922-.857.922s.011.172.2.1c.172-.111.2-.135.2-.135a5.647,5.647,0,0,1,1.883-1.164,2.065,2.065,0,0,1,1.344-.039,1.712,1.712,0,0,1,.836.518,3.372,3.372,0,0,1,.577,1.453Z" transform="translate(-1065.265 -211.651)"/>
          <path id="Path_13446" data-name="Path 13446" d="M1070.753,214.741h-.444l-.012-.612a3.388,3.388,0,0,0-.574-1.447,1.722,1.722,0,0,0-.831-.515h0a2.068,2.068,0,0,0-1.338.039h0a5.668,5.668,0,0,0-1.878,1.162s-.034.026-.2.135h0a.168.168,0,0,1-.154,0,.146.146,0,0,1-.059-.1c-.015-.026-.047-.2.86-.932a3.762,3.762,0,0,1,2.017-.822,1.916,1.916,0,0,1,.588.027,2.629,2.629,0,0,1,1.277.645,2.535,2.535,0,0,1,.724,1.516,4.048,4.048,0,0,1,.034.9Zm-.427-.018h.41a4.064,4.064,0,0,0-.035-.885,2.519,2.519,0,0,0-.718-1.5,2.613,2.613,0,0,0-1.268-.641,1.9,1.9,0,0,0-.583-.027,3.747,3.747,0,0,0-2.008.818c-.934.757-.856.908-.855.91l0,0v0a.131.131,0,0,0,.05.093.153.153,0,0,0,.137,0c.169-.108.2-.134.2-.134a5.674,5.674,0,0,1,1.885-1.166,2.086,2.086,0,0,1,1.349-.039,1.738,1.738,0,0,1,.84.52,3.4,3.4,0,0,1,.579,1.458Z" transform="translate(-1065.249 -211.637)"/>
        </g>
        <g id="Group_8343" data-name="Group 8343" transform="translate(0.666 4.255)">
          <path id="Path_13447" data-name="Path 13447" d="M1064.383,216.915a.2.2,0,0,0-.277.088,1.352,1.352,0,0,0-.133.275s-.042.1.036.14.117.011.117.011.071-.01.186-.161S1064.5,217.052,1064.383,216.915Z" transform="translate(-1063.953 -216.879)"/>
          <path id="Path_13448" data-name="Path 13448" d="M1064.072,217.433a.175.175,0,0,1-.08-.022.115.115,0,0,1-.041-.151,1.379,1.379,0,0,1,.134-.277.2.2,0,0,1,.289-.091l0,0c.111.131.057.2-.042.327l-.029.037c-.106.139-.176.161-.19.164A.084.084,0,0,1,1064.072,217.433Zm.194-.55a.175.175,0,0,0-.043.005.207.207,0,0,0-.123.1,1.347,1.347,0,0,0-.132.273s-.038.093.031.129.106.013.108.012h0s.069-.013.18-.158l.029-.037c.1-.127.144-.185.043-.3A.222.222,0,0,0,1064.266,216.883Z" transform="translate(-1063.939 -216.865)"/>
        </g>
        <g id="Group_8344" data-name="Group 8344" transform="translate(1.019 3.172)">
          <path id="Path_13449" data-name="Path 13449" d="M1064.913,216.226s1.4-1.9,2.614-2.089a1.468,1.468,0,0,1,1.924.84,2.834,2.834,0,0,1,.213,1.248l-.421,0-.04-.4s-.042-.288-.27-.14a.422.422,0,0,0-.069.246c0,.152,0,.3,0,.3h-.407a1.077,1.077,0,0,0-.156-.718c-.217-.269-.643-.1-.643-.1a1.8,1.8,0,0,0-.683.416c-.341.26-.4.4-.4.4h-.6a7.635,7.635,0,0,1,.916-.883,3.007,3.007,0,0,1,.912-.43.822.822,0,0,1,.834.32c.377.455.43.008.43.008a1.011,1.011,0,0,0-.822-.749c-.736-.182-2.08.945-2.08.945a5.434,5.434,0,0,0-.69.794C1065.249,216.222,1064.913,216.226,1064.913,216.226Z" transform="translate(-1064.895 -214.042)"/>
          <path id="Path_13450" data-name="Path 13450" d="M1064.866,216.221l.011-.014a9.452,9.452,0,0,1,.853-.974,3.783,3.783,0,0,1,1.767-1.118,1.873,1.873,0,0,1,.937-.047,1.349,1.349,0,0,1,.6.311,1.532,1.532,0,0,1,.4.582,2.859,2.859,0,0,1,.213,1.252v.008l-.437,0-.041-.409s-.02-.129-.1-.165a.164.164,0,0,0-.156.03.42.42,0,0,0-.066.239c0,.151-.005.3-.005.3v.008h-.426v-.01a1.077,1.077,0,0,0-.154-.711c-.21-.261-.629-.1-.633-.1a1.806,1.806,0,0,0-.681.414h0a1.245,1.245,0,0,0-.395.4l0,.006h-.626l.013-.015a7.567,7.567,0,0,1,.917-.884,2.962,2.962,0,0,1,.915-.431.837.837,0,0,1,.844.323c.126.153.228.219.3.2s.109-.169.112-.183a1.013,1.013,0,0,0-.816-.74c-.723-.179-2.058.932-2.072.943a5.5,5.5,0,0,0-.687.79l0,.006h-.006c-.22,0-.555,0-.558,0Zm.333-.02.237,0a5.458,5.458,0,0,1,.69-.792,6.926,6.926,0,0,1,.766-.542,2.077,2.077,0,0,1,1.322-.405,1.142,1.142,0,0,1,.693.446.824.824,0,0,1,.137.31h0c0,.007-.022.17-.125.2-.082.024-.19-.044-.322-.2a.818.818,0,0,0-.824-.317,3.012,3.012,0,0,0-.908.427h0a7.222,7.222,0,0,0-.9.866h.574a1.329,1.329,0,0,1,.4-.4,1.83,1.83,0,0,1,.687-.418s.434-.165.653.106a1.076,1.076,0,0,1,.159.714h.389c0-.033.007-.158,0-.288a.426.426,0,0,1,.071-.251l0,0a.18.18,0,0,1,.174-.032c.088.04.109.173.109.179l.039.394.4,0a2.848,2.848,0,0,0-.212-1.235,1.458,1.458,0,0,0-1.914-.835,3.764,3.764,0,0,0-1.758,1.113,9.565,9.565,0,0,0-.84.958Z" transform="translate(-1064.866 -214.028)"/>
        </g>
        <g id="Group_8345" data-name="Group 8345" transform="translate(3.17 4.899)">
          <path id="Path_13451" data-name="Path 13451" d="M1070.558,219.028a1.462,1.462,0,0,1,.732-.448c.369-.042.259.448.259.448h-.339s-.01-.077-.111-.042l-.1.035Z" transform="translate(-1070.538 -218.568)"/>
          <path id="Path_13452" data-name="Path 13452" d="M1070.505,219.022l.014-.015a1.482,1.482,0,0,1,.738-.452.235.235,0,0,1,.213.065.523.523,0,0,1,.055.394v.007h-.354v-.008a.054.054,0,0,0-.024-.035.089.089,0,0,0-.076,0l-.1.035Zm.679-.018h.325a.5.5,0,0,0-.052-.371.217.217,0,0,0-.2-.06,1.414,1.414,0,0,0-.713.43l.417-.006.1-.035a.1.1,0,0,1,.092,0A.071.071,0,0,1,1071.184,219Z" transform="translate(-1070.505 -218.553)"/>
        </g>
        <g id="Group_8346" data-name="Group 8346" transform="translate(0.594 5.73)">
          <path id="Path_13453" data-name="Path 13453" d="M1064.626,221.986a.09.09,0,0,1-.085-.06l-.3-.845-.317.846a.09.09,0,0,1-.168-.063l.4-1.076a.09.09,0,0,1,.084-.058h0a.09.09,0,0,1,.084.06l.381,1.076a.089.089,0,0,1-.084.119Z" transform="translate(-1063.751 -220.731)"/>
        </g>
        <g id="Group_8347" data-name="Group 8347" transform="translate(0.74 6.415)">
          <path id="Path_13454" data-name="Path 13454" d="M1064.725,222.707h-.5a.09.09,0,0,1,0-.179h.5a.09.09,0,0,1,0,.179Z" transform="translate(-1064.135 -222.528)"/>
        </g>
        <g id="Group_8348" data-name="Group 8348" transform="translate(1.83 5.73)">
          <path id="Path_13455" data-name="Path 13455" d="M1067.865,221.986a.089.089,0,0,1-.084-.06l-.3-.845-.318.846a.089.089,0,0,1-.167-.063l.4-1.076a.09.09,0,0,1,.084-.058h0a.089.089,0,0,1,.083.06l.381,1.076a.089.089,0,0,1-.084.119Z" transform="translate(-1066.991 -220.731)"/>
        </g>
        <g id="Group_8349" data-name="Group 8349" transform="translate(1.976 6.415)">
          <path id="Path_13456" data-name="Path 13456" d="M1067.965,222.707h-.5a.09.09,0,0,1,0-.179h.5a.09.09,0,1,1,0,.179Z" transform="translate(-1067.375 -222.528)"/>
        </g>
        <g id="Group_8350" data-name="Group 8350" transform="translate(5.609 5.73)">
          <path id="Path_13457" data-name="Path 13457" d="M1077.771,221.986a.089.089,0,0,1-.084-.06l-.3-.845-.318.846a.089.089,0,1,1-.167-.063l.4-1.076a.09.09,0,0,1,.084-.058h0a.089.089,0,0,1,.083.06l.381,1.076a.089.089,0,0,1-.084.119Z" transform="translate(-1076.897 -220.731)"/>
        </g>
        <g id="Group_8351" data-name="Group 8351" transform="translate(5.755 6.415)">
          <path id="Path_13458" data-name="Path 13458" d="M1077.871,222.707h-.5a.09.09,0,0,1,0-.179h.5a.09.09,0,1,1,0,.179Z" transform="translate(-1077.281 -222.528)"/>
        </g>
        <g id="Group_8352" data-name="Group 8352" transform="translate(6.826 5.73)">
          <path id="Path_13459" data-name="Path 13459" d="M1080.964,221.986a.09.09,0,0,1-.084-.06l-.3-.845-.317.846a.09.09,0,0,1-.168-.063l.4-1.076a.09.09,0,0,1,.084-.058h0a.09.09,0,0,1,.084.06l.381,1.076a.09.09,0,0,1-.055.114A.092.092,0,0,1,1080.964,221.986Z" transform="translate(-1080.089 -220.731)"/>
        </g>
        <g id="Group_8353" data-name="Group 8353" transform="translate(6.973 6.415)">
          <path id="Path_13460" data-name="Path 13460" d="M1081.063,222.707h-.5a.09.09,0,1,1,0-.179h.5a.09.09,0,1,1,0,.179Z" transform="translate(-1080.473 -222.528)"/>
        </g>
        <g id="Group_8354" data-name="Group 8354" transform="translate(3.101 5.79)">
          <path id="Path_13461" data-name="Path 13461" d="M1070.654,221.973a1.4,1.4,0,0,1-.24-.02.089.089,0,0,1-.073-.086l-.018-.834a.09.09,0,0,1,.056-.085,1.011,1.011,0,0,1,.671,0,.091.091,0,0,1,.039.029c.014.018.334.441.131.764A.65.65,0,0,1,1070.654,221.973Zm-.135-.186c.165.018.453.014.55-.142.116-.185-.053-.46-.106-.539a.856.856,0,0,0-.459-.012Z" transform="translate(-1070.323 -220.889)"/>
        </g>
        <g id="Group_8355" data-name="Group 8355" transform="translate(4.399 5.731)">
          <path id="Path_13462" data-name="Path 13462" d="M1073.814,221.987a.089.089,0,0,1-.089-.09v-1.074a.089.089,0,1,1,.179,0V221.9A.089.089,0,0,1,1073.814,221.987Z" transform="translate(-1073.725 -220.734)"/>
        </g>
        <g id="Group_8356" data-name="Group 8356" transform="translate(5.134 5.731)">
          <path id="Path_13463" data-name="Path 13463" d="M1075.743,221.953a.09.09,0,0,1-.09-.089v-1.04a.09.09,0,0,1,.179,0v1.04A.09.09,0,0,1,1075.743,221.953Z" transform="translate(-1075.653 -220.734)"/>
        </g>
        <g id="Group_8357" data-name="Group 8357" transform="translate(4.488 6.264)">
          <rect id="Rectangle_1424" data-name="Rectangle 1424" width="0.736" height="0.179"/>
        </g>
        <g id="Group_8358" data-name="Group 8358" transform="translate(8.143 5.788)">
          <path id="Path_13464" data-name="Path 13464" d="M1083.63,222.08a.089.089,0,0,1-.089-.09v-.937a.089.089,0,0,1,.038-.074.475.475,0,0,1,.634.056.25.25,0,0,1,.069.248c-.056.175-.322.245-.374.257l-.021,0h-.168v.446A.089.089,0,0,1,1083.63,222.08Zm.09-.714h.158c.09-.023.218-.081.235-.135.008-.023-.014-.054-.033-.076a.283.283,0,0,0-.359-.05Z" transform="translate(-1083.541 -220.884)"/>
        </g>
        <g id="Group_8359" data-name="Group 8359" transform="translate(8.401 6.27)">
          <path id="Path_13465" data-name="Path 13465" d="M1084.584,222.861h-.014a.09.09,0,0,1-.075-.1c.056-.375-.2-.432-.207-.434a.089.089,0,1,1,.036-.175.51.51,0,0,1,.348.636A.089.089,0,0,1,1084.584,222.861Z" transform="translate(-1084.217 -222.147)"/>
        </g>
      </g>
      <g id="Group_8361" data-name="Group 8361" transform="translate(0 1.923)">
        <path id="Path_13466" data-name="Path 13466" d="M1056.2,217.133h-16.485a2.422,2.422,0,0,1-2.425-2.421v-9.86a2.423,2.423,0,0,1,2.425-2.421h16.744a2.422,2.422,0,0,1,2.425,2.421v9.968c0,.008,0,.015,0,.022a2.288,2.288,0,0,1-.495,1.373,2.333,2.333,0,0,1-.956.682A3.5,3.5,0,0,1,1056.2,217.133Zm-.015-.942a2.515,2.515,0,0,0,.919-.177,1.271,1.271,0,0,0,.838-1.206v-9.957a1.482,1.482,0,0,0-1.483-1.479h-16.744a1.482,1.482,0,0,0-1.482,1.479v9.86a1.482,1.482,0,0,0,1.482,1.479h16.47Zm2.228-1.371Z" transform="translate(-1037.288 -202.431)"/>
      </g>
      <g id="Group_8362" data-name="Group 8362" transform="translate(1.923 0)">
        <path id="Path_13467" data-name="Path 13467" d="M1061.528,212.074a.471.471,0,0,1-.047-.94,1.448,1.448,0,0,0,1.5-1.366v-9.957a1.483,1.483,0,0,0-1.483-1.479h-16.744a1.488,1.488,0,0,0-1.483,1.459.471.471,0,0,1-.471.464h-.007a.471.471,0,0,1-.464-.478,2.421,2.421,0,0,1,2.425-2.387H1061.5a2.421,2.421,0,0,1,2.425,2.421v9.968c0,.007,0,.015,0,.022a2.2,2.2,0,0,1-.969,1.8,3.053,3.053,0,0,1-1.377.467A.412.412,0,0,1,1061.528,212.074Z" transform="translate(-1042.329 -197.391)"/>
      </g>
      <g id="Group_8363" data-name="Group 8363" transform="translate(1.677 10.499)">
        <path id="Path_13468" data-name="Path 13468" d="M1058.619,225.855h-16.464a.471.471,0,1,1,0-.942h16.464a.471.471,0,0,1,0,.942Z" transform="translate(-1041.684 -224.913)"/>
      </g>
      <g id="Group_8364" data-name="Group 8364" transform="translate(1.677 12.037)">
        <path id="Path_13469" data-name="Path 13469" d="M1058.619,229.888h-16.464a.471.471,0,1,1,0-.942h16.464a.471.471,0,0,1,0,.942Z" transform="translate(-1041.684 -228.946)"/>
      </g>
      <g id="Group_8365" data-name="Group 8365" transform="translate(1.677 13.576)">
        <path id="Path_13470" data-name="Path 13470" d="M1058.619,233.921h-16.464a.471.471,0,1,1,0-.942h16.464a.471.471,0,0,1,0,.942Z" transform="translate(-1041.684 -232.979)"/>
      </g>
      <g id="Group_8366" data-name="Group 8366" transform="translate(1.989 4.088)">
        <path id="Path_13471" data-name="Path 13471" d="M1048.356,212.9h-5.384a.471.471,0,0,1-.471-.471v-3.846a.471.471,0,0,1,.471-.471h5.384a.471.471,0,0,1,.471.471v3.846A.471.471,0,0,1,1048.356,212.9Zm-4.913-.942h4.442v-2.9h-4.442Z" transform="translate(-1042.501 -208.108)"/>
      </g>
    </g>
  </g>
</svg>
