<svg xmlns="http://www.w3.org/2000/svg" width="43.151" height="15" viewBox="0 0 43.151 15">
  <g id="american-express" transform="translate(0 -164.4)">
    <path id="Path_12054" data-name="Path 12054" d="M43.2,187.118h1.507l-.753-1.918Z" transform="translate(-39.501 -19.019)" fill="#2fabf7"/>
    <path id="Path_12055" data-name="Path 12055" d="M241.118,187.668a1.335,1.335,0,0,0-.548-.068H239.2v1.1h1.37a1.335,1.335,0,0,0,.548-.068.533.533,0,0,0,.205-.479A.381.381,0,0,0,241.118,187.668Z" transform="translate(-218.721 -21.214)" fill="#228fe0"/>
    <path id="Path_12056" data-name="Path 12056" d="M37.055,164.4v.822l-.411-.822H33.425v.822l-.411-.822H28.63a4.17,4.17,0,0,0-1.918.411V164.4H23.63v.411a1.975,1.975,0,0,0-1.3-.411H11.3l-.753,1.712L9.795,164.4H6.3v.822L5.89,164.4H2.945l-1.37,3.219L0,171.181H3.493l.411-1.1h.959l.411,1.1H9.247v-.822l.342.822h1.986l.342-.822v.822h9.521V169.4h.137c.137,0,.137,0,.137.205v1.507h4.932V170.7a4.1,4.1,0,0,0,1.849.411h2.055l.411-1.1h.959l.411,1.1H36.3v-1.027l.616,1.027h3.219V164.4ZM13.9,170.153H12.74v-3.767L11.1,170.153H10.068l-1.644-3.767v3.767H6.1l-.479-1.027H3.288l-.411,1.1h-1.3l2.055-4.863H5.342l1.918,4.589v-4.589H9.11l1.507,3.288,1.37-3.288H13.9Zm4.658-3.767H15.89v.89h2.6v.959h-2.6v.959h2.671v1.027H14.726v-4.863h3.836Zm5.137,1.986a1.714,1.714,0,0,1,.205.89v.959H22.74v-.616a1.632,1.632,0,0,0-.205-.959c-.205-.205-.411-.205-.822-.205H20.479v1.781H19.315v-4.863h2.6a2.626,2.626,0,0,1,1.37.205,1.167,1.167,0,0,1,.548,1.1,1.364,1.364,0,0,1-.822,1.3A1.3,1.3,0,0,1,23.7,168.373Zm2.055,1.781H24.589V165.29h1.164Zm13.493,0H37.6l-2.192-3.63v3.63H33.082l-.411-1.027h-2.4l-.411,1.1h-1.3a2.059,2.059,0,0,1-2.26-2.4,2.807,2.807,0,0,1,.616-1.918,2.159,2.159,0,0,1,1.712-.548h1.1v1.027h-1.1a1.263,1.263,0,0,0-.89.274,1.608,1.608,0,0,0-.342,1.1,1.49,1.49,0,0,0,.342,1.164,1.092,1.092,0,0,0,.822.274h.479l1.575-3.767h1.712l1.918,4.589v-4.589h1.712l1.986,3.356v-3.356H39.11v4.726Z" fill="#0571c1"/>
    <g id="Group_5294" data-name="Group 5294" transform="translate(17.26 166.181)">
      <path id="Path_12057" data-name="Path 12057" d="M358.4,187.118h1.575l-.753-1.918Z" transform="translate(-344.975 -185.2)" fill="#228fe0"/>
      <path id="Path_12058" data-name="Path 12058" d="M203.381,281.1v-3.9l-1.781,1.918Z" transform="translate(-201.6 -269.323)" fill="#228fe0"/>
    </g>
    <path id="Path_12059" data-name="Path 12059" d="M136.8,282.8v.89h2.534v.959H136.8v1.027h2.808l1.3-1.438-1.233-1.438Z" transform="translate(-125.088 -108.263)" fill="#2fabf7"/>
    <path id="SVGCleanerId_0" d="M237.438,282.8H236v1.233h1.507c.411,0,.685-.205.685-.616A.691.691,0,0,0,237.438,282.8Z" transform="translate(-215.795 -108.263)" fill="#228fe0"/>
    <path id="Path_12060" data-name="Path 12060" d="M144.488,263.482V260.4h-2.877a2.247,2.247,0,0,0-1.438.411V260.4h-3.151a2.174,2.174,0,0,0-1.37.411V260.4H130.1v.411a2.648,2.648,0,0,0-1.507-.411h-3.7v.411a2.6,2.6,0,0,0-1.575-.411h-4.11l-.959,1.027-.89-1.027H111.2v6.712h6.027l.959-1.027.89,1.027h3.7v-1.575h.479a4.166,4.166,0,0,0,1.575-.206v1.849h3.082V265.4h.137c.205,0,.205,0,.205.205v1.575h9.315a2.685,2.685,0,0,0,1.575-.411v.411h2.945a3.077,3.077,0,0,0,1.644-.342h0a2.332,2.332,0,0,0,1.1-2.055A2.623,2.623,0,0,0,144.488,263.482Zm-21.233,1.1h-1.37v1.644h-2.192l-1.37-1.575-1.438,1.575h-4.521v-4.863h4.589l1.37,1.575,1.438-1.575h3.63c.89,0,1.918.274,1.918,1.575C125.241,264.3,124.282,264.578,123.255,264.578Zm6.849-.274a1.554,1.554,0,0,1,.205.89v.959h-1.164v-.616a1.529,1.529,0,0,0-.205-.959c-.137-.205-.411-.205-.822-.205h-1.233v1.781h-1.164V261.29h2.6a2.758,2.758,0,0,1,1.37.205,1.212,1.212,0,0,1,.616,1.1,1.364,1.364,0,0,1-.822,1.3A1.171,1.171,0,0,1,130.1,264.3Zm4.726-1.986h-2.671v.89h2.6v.959h-2.6v.959h2.671v1.027h-3.836V261.29h3.836Zm2.877,3.836h-2.192v-1.027h2.192a.578.578,0,0,0,.479-.137.5.5,0,0,0,0-.685.579.579,0,0,0-.411-.137c-1.1-.068-2.4,0-2.4-1.507,0-.685.411-1.438,1.644-1.438h2.26v1.164h-2.123a1.016,1.016,0,0,0-.479.068c-.137.069-.137.205-.137.342,0,.205.137.274.274.342a.869.869,0,0,0,.411.068h.616a1.744,1.744,0,0,1,1.3.411,1.418,1.418,0,0,1,.342,1.027C139.488,265.674,138.871,266.153,137.707,266.153Zm5.89-.479a2,2,0,0,1-1.438.479h-2.192v-1.027h2.192a.578.578,0,0,0,.479-.137.5.5,0,0,0,0-.685.579.579,0,0,0-.411-.137c-1.1-.068-2.4,0-2.4-1.507,0-.685.411-1.438,1.644-1.438h2.26v1.164h-2.055a1.016,1.016,0,0,0-.479.068c-.137.069-.137.205-.137.342,0,.205.068.274.274.342a.869.869,0,0,0,.411.068h.616a1.744,1.744,0,0,1,1.3.411.067.067,0,0,1,.068.068,1.573,1.573,0,0,1,.274.959A1.394,1.394,0,0,1,143.6,265.674Z" transform="translate(-101.679 -87.781)" fill="#0571c1"/>
    <path id="SVGCleanerId_1" d="M297.118,283.668a1.335,1.335,0,0,0-.548-.068H295.2v1.1h1.37a1.335,1.335,0,0,0,.548-.068.533.533,0,0,0,.205-.479A.381.381,0,0,0,297.118,283.668Z" transform="translate(-269.926 -108.995)" fill="#228fe0"/>
    <g id="Group_5295" data-name="Group 5295" transform="translate(17.26 166.181)">
      <path id="Path_12061" data-name="Path 12061" d="M241.118,187.668a1.335,1.335,0,0,0-.548-.068H239.2v1.1h1.37a1.335,1.335,0,0,0,.548-.068.533.533,0,0,0,.205-.479A.381.381,0,0,0,241.118,187.668Z" transform="translate(-235.981 -187.395)" fill="#228fe0"/>
      <path id="Path_12062" data-name="Path 12062" d="M358.4,187.118h1.575l-.753-1.918Z" transform="translate(-344.975 -185.2)" fill="#228fe0"/>
      <path id="Path_12063" data-name="Path 12063" d="M203.381,281.1v-3.9l-1.781,1.918Z" transform="translate(-201.6 -269.323)" fill="#228fe0"/>
    </g>
    <g id="Group_5296" data-name="Group 5296" transform="translate(20.205 174.537)">
      <path id="SVGCleanerId_0_1_" d="M237.438,282.8H236v1.233h1.507c.411,0,.685-.205.685-.616A.691.691,0,0,0,237.438,282.8Z" transform="translate(-236 -282.8)" fill="#228fe0"/>
    </g>
    <g id="Group_5297" data-name="Group 5297" transform="translate(25.274 174.605)">
      <path id="SVGCleanerId_1_1_" d="M297.118,283.668a1.335,1.335,0,0,0-.548-.068H295.2v1.1h1.37a1.335,1.335,0,0,0,.548-.068.533.533,0,0,0,.205-.479A.381.381,0,0,0,297.118,283.668Z" transform="translate(-295.2 -283.6)" fill="#228fe0"/>
    </g>
    <g id="Group_5298" data-name="Group 5298" transform="translate(0 164.4)">
      <path id="Path_12064" data-name="Path 12064" d="M122.844,266.016l-.959-1.027v1.164h-2.26l-1.37-1.575-1.507,1.575h-4.521v-4.795h4.589l1.438,1.575.685-.822-1.712-1.712H111.2v6.712h6.027l1.027-1.027.89,1.027h3.7Z" transform="translate(-101.679 -252.181)" fill="#2fabf7"/>
      <path id="Path_12065" data-name="Path 12065" d="M14.041,171.112l-.89-.959H12.74v-.411l-1.027-1.027-.685,1.438h-.959l-1.644-3.767v3.767H6.1l-.479-1.027H3.288l-.479,1.027H1.575l2.055-4.795H5.342l1.918,4.589v-4.589H8.288l-.959-.959H6.3v.822l-.342-.822H2.945l-1.37,3.219L0,171.112H3.562l.411-1.027h.959l.479,1.027H9.247v-.822l.342.822h1.986l.342-.822v.822Z" transform="translate(0 -164.4)" fill="#2fabf7"/>
      <path id="Path_12066" data-name="Path 12066" d="M115.5,194.3l-1.1-1.1.822,1.781Z" transform="translate(-104.605 -190.734)" fill="#2fabf7"/>
    </g>
    <g id="Group_5299" data-name="Group 5299" transform="translate(6.781 164.468)">
      <path id="Path_12067" data-name="Path 12067" d="M201.523,264.575a2.505,2.505,0,0,0,1.1-1.849l-.959-.959a2.026,2.026,0,0,1,.137.685,1.394,1.394,0,0,1-.411,1.027,2,2,0,0,1-1.438.479h-2.192v-1.027h2.192a.578.578,0,0,0,.479-.137.5.5,0,0,0,0-.685.579.579,0,0,0-.411-.137c-1.1-.068-2.4,0-2.4-1.507,0-.685.411-1.3,1.438-1.438l-.753-.753c-.137.068-.205.137-.274.137V258h-3.151a2.174,2.174,0,0,0-1.37.411V258h-5.616v.411a2.648,2.648,0,0,0-1.507-.411h-3.7v.411a2.6,2.6,0,0,0-1.575-.411H177l-.959,1.027-.89-1.027H174.4l2.055,2.055,1.027-1.1h3.63c.89,0,1.918.274,1.918,1.575,0,1.37-.959,1.644-1.986,1.644h-1.37v1.027l1.027,1.027v-1.027h.342a4.167,4.167,0,0,0,1.575-.205v1.849H185.7v-1.781h.137c.205,0,.205,0,.205.205v1.575h9.315a2.685,2.685,0,0,0,1.575-.411v.411h2.945a2.717,2.717,0,0,0,1.644-.274Zm-13.63-2.466a1.554,1.554,0,0,1,.205.89v.959h-1.164v-.616a1.529,1.529,0,0,0-.205-.959c-.137-.205-.411-.205-.822-.205h-1.233v1.781H183.51V259.1h2.6a2.758,2.758,0,0,1,1.37.205,1.212,1.212,0,0,1,.616,1.1,1.364,1.364,0,0,1-.822,1.3A1.171,1.171,0,0,1,187.893,262.11Zm4.726-1.986h-2.671v.89h2.6v.959h-2.6v.959h2.671v1.027h-3.836V259.1h3.836Zm2.877,3.836H193.3v-1.027H195.5a.578.578,0,0,0,.479-.137.5.5,0,0,0,0-.685.579.579,0,0,0-.411-.137c-1.1-.068-2.4,0-2.4-1.507,0-.685.411-1.438,1.644-1.438h2.26v1.164h-2.123a1.015,1.015,0,0,0-.479.069c-.137.068-.137.205-.137.342,0,.205.137.274.274.342a.869.869,0,0,0,.411.068h.616a1.744,1.744,0,0,1,1.3.411,1.418,1.418,0,0,1,.342,1.027C197.277,263.479,196.66,263.959,195.5,263.959Z" transform="translate(-166.249 -250.055)" fill="#228fe0"/>
      <path id="Path_12068" data-name="Path 12068" d="M459.2,284.011c0,.205.068.274.274.342a.869.869,0,0,0,.411.068h.616a1.989,1.989,0,0,1,.959.206l-1.027-1.027h-.616a1.016,1.016,0,0,0-.479.068A.523.523,0,0,0,459.2,284.011Z" transform="translate(-426.666 -273.463)" fill="#228fe0"/>
      <path id="Path_12069" data-name="Path 12069" d="M431.2,240.4l.137.205h.069Z" transform="translate(-401.063 -233.962)" fill="#228fe0"/>
      <path id="Path_12070" data-name="Path 12070" d="M387.2,196.4l1.164,2.808v-1.644Z" transform="translate(-360.83 -193.729)" fill="#228fe0"/>
      <path id="Path_12071" data-name="Path 12071" d="M93.858,170.132h.137c.137,0,.137,0,.137.205v1.507h4.932v-.411a4.1,4.1,0,0,0,1.849.411h2.055l.411-1.1h.959l.411,1.1h3.973v-.685l-.959-.959v.753h-2.329l-.342-1.1h-2.4l-.411,1.1h-1.3a2.059,2.059,0,0,1-2.26-2.4,2.808,2.808,0,0,1,.616-1.918,2.159,2.159,0,0,1,1.712-.548h1.1v1.027h-1.1a1.263,1.263,0,0,0-.89.274,1.608,1.608,0,0,0-.342,1.1,1.49,1.49,0,0,0,.342,1.164,1.092,1.092,0,0,0,.822.274h.479l1.575-3.767h.685l-.959-.959h-1.781a4.17,4.17,0,0,0-1.918.411V165.2H96.049v.411a1.975,1.975,0,0,0-1.3-.411H83.721l-.753,1.712-.753-1.712H79.2l.959.959h1.37l1.164,2.534.411.411,1.233-3.014h1.918v4.863H85.09v-3.767l-1.164,2.74,1.986,1.986h7.877Zm3.151-4.041h1.164v4.863H97.008Zm-6.027,1.027H88.31v.89h2.6v.959h-2.6v.959h2.671v1.027H87.145V166.09h3.836Zm1.918,3.767H91.734v-4.863h2.6a2.626,2.626,0,0,1,1.37.205,1.167,1.167,0,0,1,.548,1.1,1.364,1.364,0,0,1-.822,1.3.9.9,0,0,1,.548.411,1.714,1.714,0,0,1,.205.89v.959H95.022v-.616a1.632,1.632,0,0,0-.205-.959c-.068-.137-.274-.137-.685-.137H92.9v1.712Z" transform="translate(-79.2 -165.2)" fill="#228fe0"/>
    </g>
  </g>
</svg>
