<svg xmlns="http://www.w3.org/2000/svg" width="194.945" height="50.053" viewBox="0 0 194.945 50.053">
  <g id="Group_8059" data-name="Group 8059" transform="translate(-1.632 -1.384)">
    <g id="Appzillon" transform="translate(1.632 1.384)" style="isolation: isolate">
      <g id="Group_7855" data-name="Group 7855" style="isolation: isolate">
        <path id="Path_13178" data-name="Path 13178" d="M1.681,15.745a14.311,14.311,0,0,1,3.854-10.4A12.5,12.5,0,0,1,15,1.416,13.091,13.091,0,0,1,24.34,5.244a12.855,12.855,0,0,1,3.878,9.618V37.68H26.071V16.138H3.827V37.582h-2.2ZM26.023,13.93a10.294,10.294,0,0,0-3.561-7.483A11.14,11.14,0,0,0,15,3.379h-.585A11.054,11.054,0,0,0,7.461,6.642a10.35,10.35,0,0,0-3.39,7.287Z" transform="translate(-1.632 -1.367)" fill="#1c3371"/>
        <path id="Path_13179" data-name="Path 13179" d="M22.592,34.4V9.32h7.9q6.245,0,9.586,3.435a11.828,11.828,0,0,1,3.342,8.588,11.366,11.366,0,0,1-3.584,8.514,12.323,12.323,0,0,1-8.9,3.46H24.885V47.2H22.592Zm8.049-3.288q4.925,0,7.633-2.748a9.807,9.807,0,0,0,2.806-6.919,9.344,9.344,0,0,0-2.829-7.189,11,11,0,0,0-8.05-2.871H24.885V31.108Z" transform="translate(9.36 2.85)" fill="#1c3371"/>
        <path id="Path_13180" data-name="Path 13180" d="M38.912,34.4V9.32h7.9q6.245,0,9.586,3.435a11.828,11.828,0,0,1,3.342,8.588,11.366,11.366,0,0,1-3.584,8.514,12.326,12.326,0,0,1-8.9,3.46H41.2V47.2H38.912Zm8.047-3.288q4.928,0,7.634-2.748A9.807,9.807,0,0,0,57.4,21.441a9.349,9.349,0,0,0-2.829-7.189,11,11,0,0,0-8.05-2.871H41.2V31.108Z" transform="translate(17.918 2.85)" fill="#1c3371"/>
        <path id="Path_13181" data-name="Path 13181" d="M75.85,9.369v2.306L58.24,31.206H75.948v2.208H55.167V31.108l17.708-19.58H55.167V9.32Z" transform="translate(26.443 2.85)" fill="#1c3371"/>
        <path id="Path_13182" data-name="Path 13182" d="M74.261,4.484h-.049a1.184,1.184,0,0,1-.976-.417,1.469,1.469,0,0,1-.341-.957V2.963a1.551,1.551,0,0,1,.341-.81,1.245,1.245,0,0,1,.927-.417h.1a1.175,1.175,0,0,1,1,.417,1.532,1.532,0,0,1,.316.957v.147a1.559,1.559,0,0,1-.338.81,1.25,1.25,0,0,1-.93.417ZM73.09,14h2.293V37.411H73.09Z" transform="translate(35.739 -1.196)" fill="#1c3371"/>
        <path id="Path_13183" data-name="Path 13183" d="M79.615,26.509V1.384h2.293V37.6H79.615Z" transform="translate(39.263 -1.384)" fill="#1c3371"/>
        <path id="Path_13184" data-name="Path 13184" d="M86.3,26.509V1.384H88.6V37.6H86.3Z" transform="translate(42.771 -1.384)" fill="#1c3371"/>
        <path id="Path_13185" data-name="Path 13185" d="M112.309,30.115A11.747,11.747,0,0,1,103.7,33.7a11.619,11.619,0,0,1-8.634-3.558,11.807,11.807,0,0,1-3.608-8.661,11.9,11.9,0,0,1,3.683-8.759,12.05,12.05,0,0,1,17.22.123,11.958,11.958,0,0,1,3.535,8.637A11.762,11.762,0,0,1,112.309,30.115ZM93.795,21.429v.147a9.833,9.833,0,0,0,2.977,7.14,9.574,9.574,0,0,0,14-.147,9.744,9.744,0,0,0,2.732-7.14,9.666,9.666,0,0,0-2.9-6.944,9.707,9.707,0,0,0-13.831-.049,9.715,9.715,0,0,0-3.024,6.944Z" transform="translate(45.472 2.764)" fill="#1c3371"/>
        <path id="Path_13186" data-name="Path 13186" d="M130.957,18.68V33.5h-2.293V19.22a7.211,7.211,0,0,0-2.291-5.4,8.19,8.19,0,0,0-5.464-2.355h-.245a7.807,7.807,0,0,0-5.852,2.552,8.43,8.43,0,0,0-2.441,6.036v13.4h-2.293V19.269a9.179,9.179,0,0,1,3.366-7.263A11.22,11.22,0,0,1,121.1,9.16h.389a9.8,9.8,0,0,1,5.685,2.552,11.374,11.374,0,0,1,3.537,5.005,7.142,7.142,0,0,1,.22.981,6.646,6.646,0,0,1,.073.981Z" transform="translate(55.239 2.764)" fill="#1c3371"/>
      </g>
    </g>
    <g id="TM" transform="translate(187.964 11.083)" style="isolation: isolate">
      <g id="Group_7856" data-name="Group 7856" style="isolation: isolate">
        <path id="Path_13187" data-name="Path 13187" d="M127.285,8.209H125.87v3.9h-.588v-3.9h-1.418v-.5h3.421Z" transform="translate(-123.864 -7.709)" fill="#1c3371"/>
        <path id="Path_13188" data-name="Path 13188" d="M131.078,7.709v4.4h-.518V8.874q0-.064,0-.138c0-.048.006-.1.011-.15l-1.5,2.748a.228.228,0,0,1-.213.138h-.085a.227.227,0,0,1-.213-.138l-1.532-2.76a2.4,2.4,0,0,1,.02.3V12.1h-.518v-4.4h.434a.394.394,0,0,1,.122.015.174.174,0,0,1,.084.086l1.508,2.705c.026.049.05.1.073.155s.046.106.066.161c.02-.055.043-.109.064-.163a1.475,1.475,0,0,1,.073-.156l1.482-2.7a.157.157,0,0,1,.079-.086.438.438,0,0,1,.125-.015Z" transform="translate(-122.465 -7.709)" fill="#1c3371"/>
      </g>
    </g>
  </g>
</svg>
