<svg xmlns="http://www.w3.org/2000/svg" viewBox="0 0 40 40"><defs><style>.cls-1{fill:#d3d3d3;}.cls-2{fill:#5d5e5e;}</style></defs><g id="Layer_2" data-name="Layer 2"><g id="Layer_1-2" data-name="Layer 1"><g id="Group_7904" data-name="Group 7904"><g id="Ellipse_60-2" data-name="Ellipse 60-2"><circle class="cls-1" cx="20" cy="20" r="20"/></g><g id="Icon_feather-arrow-up-circle" data-name="Icon feather-arrow-up-circle"><g id="Path_13192" data-name="Path 13192"><path class="cls-2" d="M12.42,21a1,1,0,0,1-.7-1.71l7.57-7.57a1,1,0,0,1,.71-.3h0a1,1,0,0,1,.71.3l7.57,7.57a1,1,0,0,1,0,1.42,1,1,0,0,1-1.41,0L20,13.84l-6.87,6.87A1,1,0,0,1,12.42,21Z"/></g><g id="Path_13193" data-name="Path 13193"><path class="cls-2" d="M20,28.58a1,1,0,0,1-1-1V12.42a1,1,0,0,1,2,0V27.58A1,1,0,0,1,20,28.58Z"/></g></g></g></g></g></svg>