<svg xmlns="http://www.w3.org/2000/svg" width="11.701" height="15.587" viewBox="0 0 11.701 15.587">
  <g id="Group_5793" data-name="Group 5793" transform="translate(-868.484 -500.834)">
    <path id="Icon_awesome-sort-up" data-name="Icon awesome-sort-up" d="M10.948,10.224H2.087A.9.9,0,0,1,1.454,8.7l4.43-4.43a.89.89,0,0,1,1.262,0l4.43,4.43A.893.893,0,0,1,10.948,10.224Z" transform="translate(867.926 497.229)" fill="none" stroke="#a0a0a0" stroke-width="0.8"/>
    <path id="Icon_awesome-sort-down" data-name="Icon awesome-sort-down" d="M2.1,20.25h9.04a.913.913,0,0,1,.646,1.557l-4.52,4.52a.908.908,0,0,1-1.288,0l-4.524-4.52A.913.913,0,0,1,2.1,20.25Z" transform="translate(867.709 489.426)" fill="none" stroke="#e0e0e0" stroke-width="0.8"/>
  </g>
</svg>
