<svg xmlns="http://www.w3.org/2000/svg" width="44.778" height="37" viewBox="0 0 44.778 37">
  <g id="Camera" transform="translate(-0.5 -3.5)">
    <path id="Path_13487" data-name="Path 13487" d="M40.389,40.5h-35A4.894,4.894,0,0,1,.5,35.611V14.222A4.894,4.894,0,0,1,5.389,9.333h7.243l3.592-5.388a1,1,0,0,1,.832-.445H28.722a1,1,0,0,1,.832.445l3.592,5.388h7.243a4.894,4.894,0,0,1,4.889,4.889V35.611A4.894,4.894,0,0,1,40.389,40.5Zm-35-29.167A2.892,2.892,0,0,0,2.5,14.222V35.611A2.892,2.892,0,0,0,5.389,38.5h35a2.892,2.892,0,0,0,2.889-2.889V14.222a2.892,2.892,0,0,0-2.889-2.889H32.611a1,1,0,0,1-.832-.445L28.187,5.5h-10.6L14,10.888a1,1,0,0,1-.832.445Z" transform="translate(0 0)"/>
    <path id="Path_13488" data-name="Path 13488" d="M19.778,12.5A8.778,8.778,0,1,1,11,21.278,8.788,8.788,0,0,1,19.778,12.5Zm0,15.556A6.778,6.778,0,1,0,13,21.278,6.785,6.785,0,0,0,19.778,28.056Z" transform="translate(3.111 2.667)"/>
  </g>
</svg>
