<svg xmlns="http://www.w3.org/2000/svg" width="21.5" height="19.5" viewBox="0 0 21.5 19.5">
  <g id="Cards" transform="translate(-1.25 -2.25)">
    <path id="Path_13313" data-name="Path 13313" d="M19,13.36H2a.75.75,0,0,1,0-1.5H19a.75.75,0,0,1,0,1.5Z"/>
    <path id="Path_13314" data-name="Path 13314" d="M15.22,21.75H5.78c-3.43,0-4.53-1.09-4.53-4.48V10.28c0-2.69.61-4.28,3.71-4.46.26-.01.53-.02.82-.02h9.44c3.43,0,4.53,1.09,4.53,4.48v7.15C19.71,20.7,18.61,21.75,15.22,21.75ZM5.78,7.3c-.27,0-.52.01-.75.02-1.79.11-2.28.49-2.28,2.96v6.99c0,2.56.42,2.98,3.03,2.98h9.44c2.58,0,3-.4,3.03-2.83V10.28c0-2.56-.42-2.98-3.03-2.98Z"/>
    <path id="Path_13315" data-name="Path 13315" d="M19,18.18a.727.727,0,0,1-.51-.2.756.756,0,0,1-.24-.55V10.28c0-2.56-.42-2.98-3.03-2.98H5.78c-.27,0-.52.01-.75.02a.761.761,0,0,1-.55-.21.747.747,0,0,1-.23-.55C4.29,3.3,5.39,2.25,8.78,2.25h9.44c3.43,0,4.53,1.09,4.53,4.48v6.99c0,2.69-.61,4.28-3.71,4.46ZM5.78,5.8h9.44c3.43,0,4.53,1.09,4.53,4.48V16.6c1.16-.21,1.5-.81,1.5-2.88V6.73c0-2.56-.42-2.98-3.03-2.98H8.78C6.5,3.75,5.91,4.06,5.78,5.8Z"/>
    <path id="Path_13316" data-name="Path 13316" d="M6.96,18.56H5.24a.75.75,0,0,1,0-1.5H6.96a.75.75,0,0,1,0,1.5Z"/>
    <path id="Path_13317" data-name="Path 13317" d="M12.55,18.56H9.11a.75.75,0,0,1,0-1.5h3.44a.75.75,0,0,1,0,1.5Z"/>
  </g>
</svg>
