<svg xmlns="http://www.w3.org/2000/svg" width="24.495" height="24.5" viewBox="0 0 24.495 24.5">
  <g id="CASA" transform="translate(0.193 0.25)">
    <g id="Page-1_37_" transform="translate(0.057 0)">
      <g id="_x30_38---Cutomer-Satisfaction" transform="translate(0 0)">
        <path id="Shape_120_" d="M6.224,14.7a4,4,0,0,0-2.968,3.862v.062a.818.818,0,0,0-.556.429l-.6,1.181-1.336.19a.821.821,0,0,0-.672.564.808.808,0,0,0,.215.84l.961.916-.227,1.294a.811.811,0,0,0,.322.8.831.831,0,0,0,.88.07l1.2-.615,1.2.615a.83.83,0,0,0,.878-.07.812.812,0,0,0,.322-.8l-.112-.64H7.944l-.04.216a1.163,1.163,0,0,0,.461,1.144,1.214,1.214,0,0,0,.726.24,1.227,1.227,0,0,0,.558-.135l2.411-1.223,2.4,1.223a1.216,1.216,0,0,0,1.284-.106,1.163,1.163,0,0,0,.46-1.143l-.04-.216h2.215l-.112.64a.812.812,0,0,0,.322.8.831.831,0,0,0,.88.07l1.2-.615,1.2.615a.831.831,0,0,0,.88-.07.811.811,0,0,0,.32-.8l-.227-1.292.962-.917a.808.808,0,0,0,.215-.84.821.821,0,0,0-.673-.564L22,20.233l-.6-1.181a.819.819,0,0,0-.556-.429v-.062A4,4,0,0,0,17.884,14.7l-3.164-.844a4.054,4.054,0,0,1-.372-1.895c.306-.258.58-.5.794-.7a1.6,1.6,0,0,0,.511-1.172V9.749a1.594,1.594,0,0,0,.378-2.939,2.351,2.351,0,0,0,.422-1.41,3.26,3.26,0,0,0-2.269-3.087,1.154,1.154,0,0,1,.2-.157.4.4,0,0,0-.021-.72A5.68,5.68,0,0,0,12.054,1,3.565,3.565,0,0,0,8.975,2.687,2.418,2.418,0,0,0,7.655,5a3.332,3.332,0,0,0,.52,1.756,1.6,1.6,0,0,0,.28,2.992v.338a1.6,1.6,0,0,0,.511,1.172c.214.2.487.445.794.7a4.067,4.067,0,0,1-.371,1.895ZM4.986,22.237a.606.606,0,0,0-.179.544l.244,1.394.394-.069-.44.088-1.28-.658a.617.617,0,0,0-.566,0l-1.28.658.183.356-.23-.374.245-1.4a.606.606,0,0,0-.182-.545L.881,21.215l1.431-.2a.614.614,0,0,0,.464-.331L3.443,19.4c.021,0,.025.01.028.014l.64,1.268a.615.615,0,0,0,.463.331l1.449.235Zm10.281,1.88a.416.416,0,0,1-.445.036l-2.4-1.223a.817.817,0,0,0-.738,0l-2.4,1.223a.415.415,0,0,1-.445-.036.363.363,0,0,1-.149-.36l.458-2.589a.781.781,0,0,0-.235-.707l-1.94-1.839a.356.356,0,0,1-.1-.377.39.39,0,0,1,.329-.268L9.886,17.6a.8.8,0,0,0,.6-.428l1.2-2.356a.418.418,0,0,1,.733,0l1.2,2.356a.8.8,0,0,0,.6.428l2.683.378a.39.39,0,0,1,.329.268.355.355,0,0,1-.1.377l-1.941,1.834a.78.78,0,0,0-.235.706l.458,2.589a.363.363,0,0,1-.15.361v0Zm-4.291-9.665a3.022,3.022,0,0,1-.813-.367,4.7,4.7,0,0,0,.375-1.506c.049.036.1.074.144.11A1.611,1.611,0,0,0,11.63,13h.847a1.608,1.608,0,0,0,.948-.311c.049-.036.1-.074.145-.11a4.687,4.687,0,0,0,.375,1.506,3.023,3.023,0,0,1-.813.367,1.217,1.217,0,0,0-2.155,0Zm9.716,4.961.64,1.268a.615.615,0,0,0,.463.331l1.449.235-1.032.987a.608.608,0,0,0-.181.545l.245,1.394.394-.069-.44.088-1.28-.658a.617.617,0,0,0-.566,0l-1.28.658.183.356-.229-.374L19.3,22.78a.607.607,0,0,0-.179-.545l-1.017-1.019,1.431-.2A.614.614,0,0,0,20,20.681l.667-1.283C20.686,19.4,20.692,19.408,20.692,19.412Zm-6.144-4.774,3.13.835a3.2,3.2,0,0,1,2.374,3.088v.3a.833.833,0,0,0-.129.186l-.6,1.182-1.336.19a.822.822,0,0,0-.673.564.81.81,0,0,0,.215.84l.809.77H16.023l-.28-1.56L17.684,19.2A1.16,1.16,0,0,0,18,18a1.189,1.189,0,0,0-.979-.817l-2.686-.378L13.5,15.172a3.663,3.663,0,0,0,1.048-.533ZM9.381,3.381a.408.408,0,0,0,.231-.2A2.759,2.759,0,0,1,12.054,1.8a5.62,5.62,0,0,1,1.372.157,2.1,2.1,0,0,0-.258.416.4.4,0,0,0,.29.563A2.624,2.624,0,0,1,15.653,5.4a1.72,1.72,0,0,1-.13.68,1.227,1.227,0,0,0-1.1-.68H13.254a3.432,3.432,0,0,1-1.864-.431A2.607,2.607,0,0,0,10.054,4.6,1.511,1.511,0,0,0,8.59,5.774,2.37,2.37,0,0,1,8.455,5a1.61,1.61,0,0,1,.926-1.62Zm.129,7.292a.8.8,0,0,1-.256-.586V9.4a.4.4,0,0,0-.4-.4.8.8,0,0,1-.4-1.488V7.8a.4.4,0,0,0,.8,0V6.6c0-.049.016-1.2.8-1.2a1.84,1.84,0,0,1,.968.28,4.208,4.208,0,0,0,2.231.52h1.173a.424.424,0,0,1,.4.264.4.4,0,0,1,.03.136V7.8a.4.4,0,0,0,.8,0V7.512A.8.8,0,0,1,15.253,9a.4.4,0,0,0-.4.4v.687a.8.8,0,0,1-.256.586,18.2,18.2,0,0,1-1.64,1.367.816.816,0,0,1-.48.16H11.63a.818.818,0,0,1-.48-.16,18.25,18.25,0,0,1-1.64-1.367Zm1.1,4.5-.834,1.636-2.683.378A1.189,1.189,0,0,0,6.112,18a1.16,1.16,0,0,0,.314,1.2l1.938,1.819L8.084,22.6H5.765l.811-.771a.81.81,0,0,0,.215-.84.822.822,0,0,0-.673-.564l-1.336-.19-.6-1.182a.832.832,0,0,0-.13-.185v-.3A3.2,3.2,0,0,1,6.43,15.473l3.13-.835a3.667,3.667,0,0,0,1.048.533Z" transform="translate(-0.057 -1)"/>
        <path id="Shape_120__-_Outline" data-name="Shape_120_ - Outline" d="M19.085,25.25a1.078,1.078,0,0,1-1.064-1.258l.061-.346h-1.62a1.423,1.423,0,0,1-.571,1.311,1.454,1.454,0,0,1-.874.289,1.472,1.472,0,0,1-.671-.163L12.06,23.919l-2.3,1.165a1.47,1.47,0,0,1-1.546-.128,1.421,1.421,0,0,1-.569-1.31H6.027l.061.347A1.077,1.077,0,0,1,5.024,25.25a1.085,1.085,0,0,1-.5-.122l-1.082-.556-1.083.557a1.084,1.084,0,0,1-.5.122h0A1.078,1.078,0,0,1,.8,23.992L1,22.831l-.864-.823a1.062,1.062,0,0,1-.28-1.1,1.075,1.075,0,0,1,.876-.734L1.94,20l.537-1.065a1.065,1.065,0,0,1,.531-.5,4.258,4.258,0,0,1,3.152-3.983l3.049-.813a3.836,3.836,0,0,0,.3-1.565c-.318-.271-.564-.495-.718-.639a1.86,1.86,0,0,1-.59-1.354V9.933a1.846,1.846,0,0,1-.374-3.268A3.578,3.578,0,0,1,7.4,5.01,2.664,2.664,0,0,1,8.8,2.5,3.791,3.791,0,0,1,12.053.752a5.9,5.9,0,0,1,2.409.454l.006,0a.649.649,0,0,1,.214,1.032A3.5,3.5,0,0,1,16.7,5.4a2.622,2.622,0,0,1-.33,1.338,1.844,1.844,0,0,1-.47,3.2v.154a1.861,1.861,0,0,1-.59,1.355c-.163.152-.415.381-.718.639a3.823,3.823,0,0,0,.305,1.565l3.048.813A4.258,4.258,0,0,1,21.1,18.441a1.064,1.064,0,0,1,.531.5L22.168,20l1.206.171a1.075,1.075,0,0,1,.876.736,1.062,1.062,0,0,1-.282,1.1l-.864.824.2,1.16a1.076,1.076,0,0,1-1.062,1.257,1.085,1.085,0,0,1-.5-.122l-1.081-.556-1.083.557A1.084,1.084,0,0,1,19.085,25.25Zm-3.222-2.1h2.814l-.163.933a.565.565,0,0,0,.223.554.581.581,0,0,0,.617.051l1.313-.675,1.311.674a.585.585,0,0,0,.27.066.577.577,0,0,0,.347-.115.565.565,0,0,0,.223-.555l-.25-1.425,1.059-1.01a.561.561,0,0,0,.15-.581.574.574,0,0,0-.468-.394l-1.467-.208-.655-1.3a.566.566,0,0,0-.386-.3l-.2-.043v-.263a3.757,3.757,0,0,0-2.783-3.62l-3.277-.874-.049-.106A4.321,4.321,0,0,1,14.1,11.95l.005-.109.084-.07c.333-.281.611-.533.784-.694a1.359,1.359,0,0,0,.431-.989V9.555l.188-.048A1.344,1.344,0,0,0,15.91,7.03L15.667,6.9l.159-.227a2.116,2.116,0,0,0,.377-1.26V5.4a3,3,0,0,0-2.1-2.85l-.4-.127.3-.291a1.406,1.406,0,0,1,.248-.191l.014-.008a.15.15,0,0,0-.006-.269,5.4,5.4,0,0,0-2.206-.414H12.05A3.294,3.294,0,0,0,9.187,2.819l-.037.06-.062.032A2.165,2.165,0,0,0,7.9,4.985V5a3.079,3.079,0,0,0,.481,1.625l.153.24-.258.12a1.346,1.346,0,0,0,.236,2.523l.188.048v.532a1.359,1.359,0,0,0,.431.989c.164.154.433.4.784.694l.084.07.005.109a4.335,4.335,0,0,1-.394,2.011l-.049.106-3.277.874a3.757,3.757,0,0,0-2.783,3.62v.263l-.2.043a.566.566,0,0,0-.386.3l-.654,1.3L.8,20.67a.574.574,0,0,0-.469.393.561.561,0,0,0,.148.582l1.059,1.009-.25,1.426a.565.565,0,0,0,.223.554.581.581,0,0,0,.617.051l1.312-.675,1.311.674a.584.584,0,0,0,.269.066.576.576,0,0,0,.346-.114A.566.566,0,0,0,5.6,24.08l-.163-.934H8.245l-.095.511a.918.918,0,0,0,.362.9.972.972,0,0,0,.577.192.982.982,0,0,0,.445-.107l2.526-1.281,2.513,1.281a.971.971,0,0,0,.443.108.959.959,0,0,0,.578-.192.92.92,0,0,0,.364-.9ZM1.85,24.68l-.279-.455.011-.064-.038-.075.057-.029.232-1.32a.355.355,0,0,0-.107-.32l-.006-.006L.352,21.038l1.925-.274a.365.365,0,0,0,.276-.2l.738-1.42h.152a.274.274,0,0,1,.251.153l.639,1.267a.365.365,0,0,0,.274.2h.005l1.944.316-1.4,1.338a.355.355,0,0,0-.106.32l.2,1.148L5.4,23.86l.092.491-.525.1-.019-.01-.1.018-.014-.077-1.223-.629a.373.373,0,0,0-.337,0L2.217,24.3l.068.133Zm.22-2.625a.854.854,0,0,1,.254.767l-.166.948.887-.456a.882.882,0,0,1,.795,0l.886.456-.166-.945a.854.854,0,0,1,.253-.768l.672-.643-.951-.154a.866.866,0,0,1-.648-.465l-.437-.867L3,20.8a.863.863,0,0,1-.651.463l-.936.133Zm17,2.623-.278-.455.011-.064-.039-.075.057-.029.231-1.318a.356.356,0,0,0-.105-.321l0,0-1.371-1.373,1.926-.274a.364.364,0,0,0,.274-.2l.738-1.421h.152a.273.273,0,0,1,.259.171l.63,1.249a.365.365,0,0,0,.275.2h0l1.945.316-1.4,1.334a.358.358,0,0,0-.107.322l.2,1.147.148-.026.092.491-.525.1-.019-.01-.1.018-.014-.077-1.223-.629a.373.373,0,0,0-.337,0l-1.058.544.068.133Zm.224-2.622a.855.855,0,0,1,.25.768l-.165.944.887-.456a.882.882,0,0,1,.795,0l.886.456-.166-.945a.857.857,0,0,1,.255-.77l.668-.639-.951-.154a.866.866,0,0,1-.648-.465l-.437-.866-.451.869a.863.863,0,0,1-.649.463l-.936.133Zm-10.206,2.4a.669.669,0,0,1-.4-.132.615.615,0,0,1-.247-.605L8.9,21.124a.529.529,0,0,0-.159-.481L6.806,18.806a.605.605,0,0,1-.169-.639.641.641,0,0,1,.534-.437l2.68-.377a.55.55,0,0,0,.416-.295l1.2-2.362a.668.668,0,0,1,1.171,0l0,.007,1.2,2.356a.553.553,0,0,0,.415.294l2.68.378a.641.641,0,0,1,.535.438.6.6,0,0,1-.17.638l-1.939,1.832a.529.529,0,0,0-.16.481l.458,2.59a.615.615,0,0,1-.147.514v.014l-.1.079a.666.666,0,0,1-.712.058l-2.4-1.221a.577.577,0,0,0-.511,0L9.4,24.375A.663.663,0,0,1,9.092,24.451Zm2.818-9.518-1.2,2.352a1.051,1.051,0,0,1-.792.563l-2.69.379a.14.14,0,0,0-.118.1.106.106,0,0,0,.03.113l.006.005,1.94,1.839a1.026,1.026,0,0,1,.309.932L8.938,23.8a.113.113,0,0,0,.046.112l.007.005a.167.167,0,0,0,.177.014l2.4-1.224a1.085,1.085,0,0,1,.964,0l2.4,1.223a.166.166,0,0,0,.151.005l.038-.028a.113.113,0,0,0,.047-.112l-.458-2.589a1.026,1.026,0,0,1,.31-.932l1.946-1.838a.105.105,0,0,0,.03-.112.141.141,0,0,0-.119-.1h-.008l-2.683-.378a1.054,1.054,0,0,1-.791-.562l-1.2-2.352a.168.168,0,0,0-.291,0ZM8.293,22.847H5.139l1.264-1.2a.563.563,0,0,0,.149-.581.575.575,0,0,0-.468-.393l-1.467-.208-.655-1.3a.579.579,0,0,0-.09-.127l-.067-.072v-.4a3.454,3.454,0,0,1,2.56-3.33l3.245-.865.1.071a3.411,3.411,0,0,0,.977.5l.28.09L9.938,17.037l-2.812.4a.943.943,0,0,0-.776.646.914.914,0,0,0,.246.941l2.037,1.912Zm-1.9-.5H7.875l.22-1.236L6.255,19.384a1.416,1.416,0,0,1-.381-1.458,1.444,1.444,0,0,1,1.185-.989l2.552-.359.646-1.267a3.908,3.908,0,0,1-.746-.4l-3.016.8a2.953,2.953,0,0,0-2.189,2.847v.213a1.082,1.082,0,0,1,.1.161L4.946,20l1.206.171a1.076,1.076,0,0,1,.876.735,1.064,1.064,0,0,1-.281,1.1Zm12.578.5H15.814l-.341-1.9,2.039-1.927a.914.914,0,0,0,.247-.942.942.942,0,0,0-.773-.645l-2.817-.4-1.026-2.015.28-.09a3.407,3.407,0,0,0,.976-.5l.1-.071,3.246.866a3.454,3.454,0,0,1,2.56,3.329v.4l-.066.072a.583.583,0,0,0-.09.13l-.654,1.3-1.465.208a.575.575,0,0,0-.47.393.563.563,0,0,0,.148.582Zm-2.735-.5h1.485l-.356-.339a1.064,1.064,0,0,1-.28-1.1,1.077,1.077,0,0,1,.877-.734L19.163,20l.537-1.065a1.087,1.087,0,0,1,.1-.163v-.214a2.953,2.953,0,0,0-2.189-2.846L14.6,14.91a3.9,3.9,0,0,1-.745.4l.646,1.269,2.557.36a1.443,1.443,0,0,1,1.182.989,1.416,1.416,0,0,1-.382,1.459l-1.842,1.74ZM13,14.747l-.094-.18a.967.967,0,0,0-1.713,0l-.094.18-.2-.055a3.27,3.27,0,0,1-.881-.4l-.179-.115.085-.195a4.437,4.437,0,0,0,.355-1.426l.035-.452.363.271.066.05.076.058a1.352,1.352,0,0,0,.8.263h.847a1.349,1.349,0,0,0,.8-.263l.074-.056.07-.053.363-.267.035.449a4.427,4.427,0,0,0,.355,1.426l.085.195-.179.115a3.27,3.27,0,0,1-.881.4Zm-2.529-.768a2.768,2.768,0,0,0,.391.175,1.467,1.467,0,0,1,2.374,0,2.769,2.769,0,0,0,.391-.175,4.919,4.919,0,0,1-.26-.961,1.845,1.845,0,0,1-.894.23H11.63a1.848,1.848,0,0,1-.895-.231A4.93,4.93,0,0,1,10.476,13.979ZM11.63,12.45A1.062,1.062,0,0,1,11,12.241a18.575,18.575,0,0,1-1.663-1.386A1.055,1.055,0,0,1,9,10.087V9.4a.15.15,0,0,0-.15-.15h0A1.047,1.047,0,0,1,8.33,7.295L8.7,7.079V7.8a.15.15,0,0,0,.3,0V6.6c0-.5.219-1.45,1.05-1.45a2.089,2.089,0,0,1,1.094.314,3.974,3.974,0,0,0,2.093.486h1.185a.672.672,0,0,1,.628.419.645.645,0,0,1,.049.22V7.8a.15.15,0,1,0,.3,0V7.079l.375.216a1.047,1.047,0,0,1-.523,1.955.151.151,0,0,0-.152.15v.687a1.056,1.056,0,0,1-.335.769,18.515,18.515,0,0,1-1.661,1.385,1.059,1.059,0,0,1-.627.209Zm-3.323-4.3a.547.547,0,0,0,.545.6h0a.651.651,0,0,1,.65.65v.687a.554.554,0,0,0,.176.4A18.075,18.075,0,0,0,11.3,11.839a.564.564,0,0,0,.333.111h.846a.561.561,0,0,0,.331-.111,18.02,18.02,0,0,0,1.617-1.348.555.555,0,0,0,.177-.4V9.4a.651.651,0,0,1,.65-.65.547.547,0,0,0,.547-.6A.65.65,0,0,1,14.6,7.8V6.607a.149.149,0,0,0-.011-.047.174.174,0,0,0-.161-.11H13.259A4.476,4.476,0,0,1,10.9,5.9l-.012-.007a1.589,1.589,0,0,0-.836-.242c-.542,0-.549.94-.549.95V7.8a.65.65,0,0,1-1.2.351Zm7.237-1.467L15.3,6.192a.972.972,0,0,0-.873-.541H13.26a3.7,3.7,0,0,1-1.993-.463l-.006,0a2.358,2.358,0,0,0-1.207-.333,1.256,1.256,0,0,0-1.221.978l-.193.839-.287-.812A2.615,2.615,0,0,1,8.2,5,1.85,1.85,0,0,1,9.3,3.145a.158.158,0,0,0,.091-.078L9.4,3.056a3.018,3.018,0,0,1,2.66-1.5h.05a5.877,5.877,0,0,1,1.379.164l.38.092-.244.306a1.848,1.848,0,0,0-.227.366.151.151,0,0,0,0,.132.149.149,0,0,0,.106.079A2.876,2.876,0,0,1,15.9,5.4a1.955,1.955,0,0,1-.149.775Zm-2.3-1.533h1.18a1.471,1.471,0,0,1,.974.366q0-.056,0-.113a2.379,2.379,0,0,0-1.991-2.221.65.65,0,0,1-.47-.914q.033-.071.071-.14a5.376,5.376,0,0,0-.908-.077h-.056A2.517,2.517,0,0,0,9.831,3.3a.655.655,0,0,1-.369.316A1.365,1.365,0,0,0,8.7,4.988a1.755,1.755,0,0,1,1.348-.637,2.859,2.859,0,0,1,1.461.4,3.2,3.2,0,0,0,1.726.4Z" transform="translate(-0.057 -1)"/>
      </g>
    </g>
  </g>
</svg>
