<svg width="20" height="20" viewBox="0 0 20 20" fill="none" xmlns="http://www.w3.org/2000/svg">
<g id="shopping-cart-01">
<path id="Icon" d="M11.6666 1.89118V5.33329C11.6666 5.8 11.6666 6.03336 11.7575 6.21162C11.8374 6.36842 11.9649 6.4959 12.1217 6.5758C12.2999 6.66663 12.5333 6.66663 13 6.66663H16.4421M16.6666 8.32348V14.3333C16.6666 15.7334 16.6666 16.4335 16.3942 16.9683C16.1545 17.4387 15.772 17.8211 15.3016 18.0608C14.7668 18.3333 14.0668 18.3333 12.6666 18.3333H7.33331C5.93318 18.3333 5.23312 18.3333 4.69834 18.0608C4.22793 17.8211 3.84548 17.4387 3.6058 16.9683C3.33331 16.4335 3.33331 15.7334 3.33331 14.3333V5.66663C3.33331 4.26649 3.33331 3.56643 3.6058 3.03165C3.84548 2.56124 4.22793 2.17879 4.69834 1.93911C5.23312 1.66663 5.93318 1.66663 7.33331 1.66663H10.0098C10.6213 1.66663 10.927 1.66663 11.2147 1.7357C11.4698 1.79694 11.7137 1.89795 11.9374 2.03503C12.1897 2.18963 12.4058 2.40582 12.8382 2.8382L15.4951 5.49505C15.9275 5.92743 16.1436 6.14362 16.2982 6.39591C16.4353 6.61959 16.5363 6.86346 16.5976 7.11855C16.6666 7.40627 16.6666 7.712 16.6666 8.32348Z" stroke="#004886" stroke-width="1.66667" stroke-linecap="round" stroke-linejoin="round"/>
</g>
</svg>
