<svg xmlns="http://www.w3.org/2000/svg" width="21.5" height="21.5" viewBox="0 0 21.5 21.5">
  <g id="Group_8188" data-name="Group 8188" transform="translate(-1.25 -1.25)">
    <path id="Path_13676" data-name="Path 13676" d="M15,22.75H9c-5.43,0-7.75-2.32-7.75-7.75V9C1.25,3.57,3.57,1.25,9,1.25h6c5.43,0,7.75,2.32,7.75,7.75v6C22.75,20.43,20.43,22.75,15,22.75Zm-6-20C4.39,2.75,2.75,4.39,2.75,9v6c0,4.61,1.64,6.25,6.25,6.25h6c4.61,0,6.25-1.64,6.25-6.25V9c0-4.61-1.64-6.25-6.25-6.25Z" fill="#1c3371"/>
    <path id="Path_13677" data-name="Path 13677" d="M16,19.75H8A3.381,3.381,0,0,1,4.25,16V8A3.381,3.381,0,0,1,8,4.25h8A3.381,3.381,0,0,1,19.75,8v8A3.381,3.381,0,0,1,16,19.75Zm-8-14c-1.58,0-2.25.67-2.25,2.25v8c0,1.58.67,2.25,2.25,2.25h8c1.58,0,2.25-.67,2.25-2.25V8c0-1.58-.67-2.25-2.25-2.25Z" fill="#1c3371"/>
    <path id="Path_13678" data-name="Path 13678" d="M7.48,15.25H5a.75.75,0,0,1,0-1.5H7.48a1.75,1.75,0,0,0,0-3.5H5a.75.75,0,0,1,0-1.5H7.48a3.25,3.25,0,0,1,0,6.5Z" fill="#1c3371"/>
    <path id="Path_13679" data-name="Path 13679" d="M19,10.74H16a.75.75,0,0,1,0-1.5h3a.75.75,0,0,1,0,1.5Z" fill="#1c3371"/>
    <path id="Path_13680" data-name="Path 13680" d="M19,14.75H16a.75.75,0,0,1,0-1.5h3a.75.75,0,0,1,0,1.5Z" fill="#1c3371"/>
    <path id="Path_13681" data-name="Path 13681" d="M7.25,13a1,1,0,0,1-.38-.08,1.155,1.155,0,0,1-.33-.21A.99.99,0,0,1,6.25,12a1.052,1.052,0,0,1,.29-.71,1.017,1.017,0,0,1,1.09-.21.933.933,0,0,1,.33.21,1.052,1.052,0,0,1,.29.71.99.99,0,0,1-.29.71,1.155,1.155,0,0,1-.33.21A1,1,0,0,1,7.25,13Z" fill="#1c3371"/>
  </g>
</svg>
