<svg xmlns="http://www.w3.org/2000/svg" width="38" height="38" viewBox="0 0 38 38">
  <g id="Electricity_Bill_With_BG" data-name="Electricity Bill With BG" transform="translate(-364 -721)">
    <g id="Group_8380" data-name="Group 8380" transform="translate(364 721)">
      <circle id="Ellipse_89" data-name="Ellipse 89" cx="18.765" cy="18.765" r="18.765" transform="translate(0.234 0.235)" fill="#d3d3d3"/>
      <path id="Path_13480" data-name="Path 13480" d="M1047.953,327.694a18.912,18.912,0,0,1-10.623-3.245,19.065,19.065,0,0,1-6.884-8.36,18.969,18.969,0,0,1,1.752-18.019,19.05,19.05,0,0,1,8.359-6.884,18.977,18.977,0,0,1,18.019,1.752,19.061,19.061,0,0,1,6.883,8.359,18.976,18.976,0,0,1-1.752,18.019,19.049,19.049,0,0,1-8.359,6.884A18.88,18.88,0,0,1,1047.953,327.694Zm0-37.531a18.531,18.531,0,1,0,18.531,18.531A18.552,18.552,0,0,0,1047.953,290.163Z" transform="translate(-1028.953 -289.694)" fill="#d3d3d3"/>
    </g>
    <g id="Group_8384" data-name="Group 8384" transform="translate(374.924 731.925)">
      <g id="Group_8381" data-name="Group 8381" transform="translate(6.189 0.917)">
        <path id="Path_13481" data-name="Path 13481" d="M1064.979,316.787l.677-5.222h-2.347l4.349-6.213-.58,4.2h2.236Zm-.23-5.972h1.76l-.324,2.5,1.8-3.011h-1.773l.272-1.971Z" transform="translate(-1063.309 -305.352)"/>
      </g>
      <g id="Group_8382" data-name="Group 8382" transform="translate(0 0)">
        <path id="Path_13482" data-name="Path 13482" d="M1055.491,318.957a5.533,5.533,0,0,1-.9-.072c-.392,0-4.152-.008-7.946-.047a3.165,3.165,0,0,1-2.839-.765,4.395,4.395,0,0,1-.8-3.426l.054-.31h2.733v-12h12.961l-.04,6.3c0,.171.081,4.661,0,7.594a2.6,2.6,0,0,1-.927,2.062A3.686,3.686,0,0,1,1055.491,318.957Zm-8.9-.869h.027c4,.041,7.96.047,8,.047h.036l.035.007a4.848,4.848,0,0,0,.808.064,2.944,2.944,0,0,0,1.811-.508,1.862,1.862,0,0,0,.645-1.5c.082-2.958,0-7.518,0-7.564v-.009l.035-5.547h-11.456v12H1043.7a3.356,3.356,0,0,0,.642,2.469,2.487,2.487,0,0,0,2.224.536Z" transform="translate(-1042.935 -302.332)"/>
      </g>
      <g id="Group_8383" data-name="Group 8383" transform="translate(3.224 12.004)">
        <path id="Path_13483" data-name="Path 13483" d="M1063.389,346.372a3.03,3.03,0,0,1-.736-.085,2.267,2.267,0,0,1-1.052-.581,4.131,4.131,0,0,1-.877-3.108h-7.176v-.75h8.031l-.07.434c0,.019-.3,1.99.618,2.889a2.075,2.075,0,0,0,1.906.388l.134.738A4.363,4.363,0,0,1,1063.389,346.372Z" transform="translate(-1053.548 -341.848)"/>
      </g>
    </g>
  </g>
</svg>
