<svg xmlns="http://www.w3.org/2000/svg" xmlns:xlink="http://www.w3.org/1999/xlink" width="452" height="305" viewBox="0 0 452 305">
  <defs>
    <linearGradient id="linear-gradient" x1="0.5" x2="0.5" y2="1" gradientUnits="objectBoundingBox">
      <stop offset="0" stop-color="#fff"/>
      <stop offset="1" stop-color="#bee1e3"/>
    </linearGradient>
    <filter id="Rectangle_1126" x="0" y="0" width="452" height="305" filterUnits="userSpaceOnUse">
      <feOffset dy="1" input="SourceAlpha"/>
      <feGaussianBlur stdDeviation="8" result="blur"/>
      <feFlood flood-opacity="0.161"/>
      <feComposite operator="in" in2="blur"/>
      <feComposite in="SourceGraphic"/>
    </filter>
  </defs>
  <g id="Group_8144" data-name="Group 8144" transform="translate(-678 -233)">
    <g id="Group_8141" data-name="Group 8141">
      <g id="Group_8064" data-name="Group 8064" transform="translate(50 86)">
        <g transform="matrix(1, 0, 0, 1, 628, 147)" filter="url(#Rectangle_1126)">
          <rect id="Rectangle_1126-2" data-name="Rectangle 1126" width="404" height="257" rx="10" transform="translate(24 23)" fill="url(#linear-gradient)"/>
        </g>
      </g>
      <path id="Rectangle_1423" data-name="Rectangle 1423" d="M0,0H405a0,0,0,0,1,0,0V67a10,10,0,0,1-10,10H10A10,10,0,0,1,0,67V0A0,0,0,0,1,0,0Z" transform="translate(702 436)" fill="#fff"/>
      <line id="Line_28" data-name="Line 28" x2="403.471" transform="translate(702.529 434)" fill="none" stroke="#d3d3d3" stroke-width="3"/>
    </g>
    <g id="surface1" transform="translate(869.395 275.867)">
      <path id="Path_13228" data-name="Path 13228" d="M66.575-93.275l-.7-.219-.733.11-.295-.11-.293-.074-.221-.221-.11-.293.4-1.028-.074-.295-.221-.219-.11-.221.219-.588-.331-1.432-.072-.11-.4-.4-.11-.219-.4,1.432-.11.514-.221.4-1.322,1.432-.183.331-.844.992-.293.11-.4.295-.625.44-.807.588-.183.623-.625.4-.11.514-.514.4-.11.4v.112l-.4.4-.074.625-.329.183-.295.623-.918.623-.293.478-.623.735-.735.623-1.211.7-.112.221-.183.478-.331.44-.7.4-.221.185-.183.916-.219.514-.7.4-1.432.625-.221.183-.183.44-.514.293.11.809-.11.219-.4.514-.219.074v.331l.219.4-.11.183-.295.331-.331.074-.072.221.072.293-.072.11-.514.221H43.925l-.074.074v.11l.183.221v.11l-.11.074.514.331.11.4-.11.295-.074.219-1.028.295-.331.11-.4.4v.11h-.074l-.514.295-.623.11-.7.183-.623.625-.221.514-.295.293-1.137.809-1.908.219-1.544.11-1.613.185h-.625l-1.834-.295-.625-.293h-.293l-.809.074h-.4l-2.057-.809-1.834-.11H21.2l-.807.44-1.028.7-.295.4-.331.293-.514.625-.293.11-.623.183-.992.11-.844-.183-1.836.074-1.211-.183-1.615-.11-.514-.4-.219-.293-.516-.331-.183-.992-.331-1.358-.293-.074-.918.514-.4-.331-.623-.293-.183-.11-1.028.11-.809.293-.11-.183L4.9-73.3l-.112-.4.185-.4.514-.623.11-.185-.11-.11-.112-.11-.588-.183-.11-.221-.11-.588.11-.331.7-.918L.605-75.322l1.028,3.45,7.857,6.425,4.075,11.233L53.029-48.6l2.35-2.864L57.214-68.2l7.636-3.045-4.479-10.5,7.636-.735-.11-.4-.183-.514-.221-.7.112-.623-.221-4.185-.074-.918-.11-1.1.11-.918-.331-.514-.4-.733Zm0,0" transform="translate(0 98.73)" fill="#835f4f"/>
    </g>
    <g id="Group_8069" data-name="Group 8069" transform="translate(12959.726 15656)">
      <path id="Path_149" data-name="Path 149" d="M132.8,379.686a7.1,7.1,0,0,1-7.1,7.1H90.176a7.1,7.1,0,0,1-7.1-7.1v-25.2a7.1,7.1,0,0,1,7.1-7.1H125.7a7.1,7.1,0,0,1,7.1,7.1Z" transform="translate(-12316.801 -15661.386)" fill="#dbbc7d" fill-rule="evenodd"/>
      <path id="Path_150" data-name="Path 150" d="M132.8,359.8v-.909h-9.109V347.386h-.909v11.508H115.4a8.145,8.145,0,0,0-7.012-5.675v-5.833h-.908v5.77a8.149,8.149,0,0,0-7.627,5.738h-6.7V347.386h-.909v11.508H83.075v.909h9.169v12.89H83.075v.913h9.169V386.79h.909V373.606h6.509a8.187,8.187,0,0,0,7.82,6.349v6.835h.908v-6.9a8.167,8.167,0,0,0,7.2-6.285h7.191V386.79h.909V373.606H132.8v-.913H127.37V359.8Zm-33.266,12.89H93.153V359.8h6.441a7.993,7.993,0,0,0,1.766,6.751,8.131,8.131,0,0,0-1.919,5.23A7.944,7.944,0,0,0,99.535,372.693Zm8.092,6.367a7.253,7.253,0,0,1-5.327-12.2l.283-.307-.283-.307a7.276,7.276,0,1,1,10.654,0l-.287.307.287.307a7.252,7.252,0,0,1-5.327,12.2Zm18.833-6.367H115.719a7.306,7.306,0,0,0-1.826-6.138,8.125,8.125,0,0,0,1.919-5.228,8.3,8.3,0,0,0-.152-1.523h10.8Z" transform="translate(-12316.801 -15661.386)" fill="#d8d8d8" style="mix-blend-mode: multiply;isolation: isolate"/>
    </g>
  </g>
</svg>
