<svg xmlns="http://www.w3.org/2000/svg" width="38" height="38" viewBox="0 0 38 38">
  <g id="E-Statement" transform="translate(-298 -218)">
    <circle id="Ellipse_77" data-name="Ellipse 77" cx="19" cy="19" r="19" transform="translate(298 218)" fill="#d3d3d3"/>
    <g id="Group_8294" data-name="Group 8294" transform="translate(-851.313 -437.342)">
      <g id="Group_8280" data-name="Group 8280" transform="translate(1156.352 662.342)" opacity="0">
        <rect id="Rectangle_1421" data-name="Rectangle 1421" width="23.923" height="24"/>
      </g>
      <g id="Group_8293" data-name="Group 8293" transform="translate(1156.313 663.842)">
        <g id="Group_8285" data-name="Group 8285" transform="translate(13.875 5.021)">
          <g id="Group_8281" data-name="Group 8281">
            <path id="Path_13386" data-name="Path 13386" d="M1198.582,689.841a5.055,5.055,0,1,1,5.063-5.054A5.064,5.064,0,0,1,1198.582,689.841Zm0-9.359a4.3,4.3,0,1,0,4.313,4.3A4.314,4.314,0,0,0,1198.582,680.482Z" transform="translate(-1193.519 -679.732)"/>
          </g>
          <g id="Group_8282" data-name="Group 8282" transform="translate(4.737 0.095)">
            <path id="Path_13387" data-name="Path 13387" d="M1206.765,689.862l-.579-.476.067-.08c.038-.045.077-.091.111-.136a6.684,6.684,0,0,0-.159-8.658.5.5,0,0,1-.054-.078l.3-.164.286-.286.021.029a7.43,7.43,0,0,1,.193,9.618c-.034.046-.082.1-.129.158Z" transform="translate(-1206.15 -679.984)"/>
          </g>
          <g id="Group_8283" data-name="Group 8283" transform="translate(2.911 0.095)">
            <path id="Path_13388" data-name="Path 13388" d="M1203.143,689.861l-.064-.077c-.046-.054-.091-.108-.132-.162a7.433,7.433,0,0,1,.18-9.59.4.4,0,0,1,.042-.049l.265.265.328.18-.073.1a6.685,6.685,0,0,0-.151,8.631c.04.053.078.1.115.141l.071.086Z" transform="translate(-1201.282 -679.984)"/>
          </g>
          <g id="Group_8284" data-name="Group 8284" transform="translate(0.375 4.68)">
            <rect id="Rectangle_1422" data-name="Rectangle 1422" width="9.375" height="0.75"/>
          </g>
        </g>
        <g id="Group_8286" data-name="Group 8286" transform="translate(7.39)">
          <g id="Path_52" data-name="Path 52">
            <path id="Path_13389" data-name="Path 13389" d="M1176.514,670.842a.393.393,0,0,1-.1-.013.375.375,0,0,1-.263-.461,5.462,5.462,0,0,1,10.1-1.108.375.375,0,0,1-.664.349,4.711,4.711,0,0,0-8.715.957A.376.376,0,0,1,1176.514,670.842Z" transform="translate(-1176.138 -666.344)"/>
          </g>
          <g id="Path_53" data-name="Path 53" transform="translate(8.177 1.689)">
            <path id="Path_13390" data-name="Path 13390" d="M1199.684,673.054a.359.359,0,0,1-.063-.005l-1.366-.234a.375.375,0,0,1,.127-.739l1.1.188.666-1.221a.375.375,0,0,1,.658.36l-.795,1.456A.376.376,0,0,1,1199.684,673.054Z" transform="translate(-1197.943 -670.848)"/>
          </g>
        </g>
        <g id="Group_33" data-name="Group 33" transform="translate(6.831 15.721)">
          <g id="Path_54" data-name="Path 54" transform="translate(1.116)">
            <path id="Path_13391" data-name="Path 13391" d="M1182.867,713.543a5.454,5.454,0,0,1-5.232-3.931.375.375,0,1,1,.72-.209,4.714,4.714,0,0,0,9.209-.8.375.375,0,1,1,.745.082,5.419,5.419,0,0,1-.555,1.862A5.473,5.473,0,0,1,1182.867,713.543Z" transform="translate(-1177.62 -708.266)"/>
          </g>
          <g id="Path_55" data-name="Path 55" transform="translate(0 0.418)">
            <path id="Path_13392" data-name="Path 13392" d="M1175.019,711.4a.375.375,0,0,1-.287-.617l1.069-1.267a.376.376,0,0,1,.423-.108l1.293.5a.375.375,0,0,1-.272.7l-1.043-.405-.9,1.062A.374.374,0,0,1,1175.019,711.4Z" transform="translate(-1174.644 -709.379)"/>
          </g>
        </g>
        <g id="Group_8292" data-name="Group 8292" transform="translate(0 4.835)">
          <g id="Group_8287" data-name="Group 8287">
            <path id="Path_13393" data-name="Path 13393" d="M1164.286,689.895a3.668,3.668,0,0,1-.572-.044c-.3,0-2.592-.005-4.939-.029a2.107,2.107,0,0,1-1.882-.521,2.89,2.89,0,0,1-.539-2.26l.054-.311h1.684v-7.492h8.371l-.025,4.07c0,.133.05,2.919,0,4.744a1.756,1.756,0,0,1-.631,1.393A2.448,2.448,0,0,1,1164.286,689.895Zm-5.557-.823h.027c2.521.026,4.991.029,4.991.029l.071.007a2.156,2.156,0,0,0,1.52-.249,1.031,1.031,0,0,0,.349-.827c.051-1.844,0-4.686,0-4.714v-.009l.021-3.32h-6.867v7.492h-1.776a1.836,1.836,0,0,0,.37,1.3,1.422,1.422,0,0,0,1.267.292Z" transform="translate(-1156.313 -679.238)"/>
          </g>
          <g id="Group_8288" data-name="Group 8288" transform="translate(2.153 7.492)">
            <path id="Path_13394" data-name="Path 13394" d="M1168.192,702.323a1.661,1.661,0,0,1-1.211-.456,2.6,2.6,0,0,1-.6-1.9h-4.331v-.75h5.176l-.068.434a2.232,2.232,0,0,0,.346,1.681,1.148,1.148,0,0,0,1.065.2l.133.738A2.894,2.894,0,0,1,1168.192,702.323Z" transform="translate(-1162.054 -699.217)"/>
          </g>
          <g id="Group_8289" data-name="Group 8289" transform="translate(4.977 2.237)">
            <path id="Path_13395" data-name="Path 13395" d="M1172.929,685.954h-2.968a.375.375,0,0,1,0-.75h2.968a.375.375,0,0,1,0,.75Z" transform="translate(-1169.586 -685.204)"/>
          </g>
          <g id="Group_8290" data-name="Group 8290" transform="translate(4.977 4.032)">
            <path id="Path_13396" data-name="Path 13396" d="M1172.874,690.741h-2.913a.375.375,0,0,1,0-.75h2.913a.375.375,0,0,1,0,.75Z" transform="translate(-1169.586 -689.991)"/>
          </g>
          <g id="Group_8291" data-name="Group 8291" transform="translate(4.977 5.853)">
            <path id="Path_13397" data-name="Path 13397" d="M1172.874,695.6h-2.913a.375.375,0,0,1,0-.75h2.913a.375.375,0,0,1,0,.75Z" transform="translate(-1169.586 -694.847)"/>
          </g>
        </g>
      </g>
    </g>
  </g>
</svg>
