<svg xmlns="http://www.w3.org/2000/svg" width="37" height="37" viewBox="0 0 37 37">
  <g id="Gallery" transform="translate(-3.5 -3.5)">
    <path id="Path_13484" data-name="Path 13484" d="M8.389,3.5H35.611A4.894,4.894,0,0,1,40.5,8.389V35.611A4.894,4.894,0,0,1,35.611,40.5H8.389A4.894,4.894,0,0,1,3.5,35.611V8.389A4.894,4.894,0,0,1,8.389,3.5Zm27.222,35A2.892,2.892,0,0,0,38.5,35.611V8.389A2.892,2.892,0,0,0,35.611,5.5H8.389A2.892,2.892,0,0,0,5.5,8.389V35.611A2.892,2.892,0,0,0,8.389,38.5Z" transform="translate(0 0)"/>
    <path id="Path_13485" data-name="Path 13485" d="M13.417,9.5A3.917,3.917,0,1,1,9.5,13.417,3.921,3.921,0,0,1,13.417,9.5Zm0,5.833A1.917,1.917,0,1,0,11.5,13.417,1.919,1.919,0,0,0,13.417,15.333Z" transform="translate(1.778 1.778)"/>
    <path id="Path_13486" data-name="Path 13486" d="M7.5,37.389a1,1,0,0,1-.707-1.707L28.182,14.293A1,1,0,0,1,28.889,14h0a1,1,0,0,1,.707.293l9.722,9.722A1,1,0,0,1,37.9,25.429l-9.015-9.015L8.207,37.1A1,1,0,0,1,7.5,37.389Z" transform="translate(0.889 3.111)"/>
  </g>
</svg>
