<svg width="60" height="60" viewBox="0 0 60 60" fill="none" xmlns="http://www.w3.org/2000/svg">
<path d="M22.4995 30L27.4995 35L38.7495 23.75M18.3339 9.54671C20.3435 9.38634 22.2513 8.59611 23.7857 7.28852C27.3663 4.23712 32.6327 4.23712 36.2133 7.28852C37.7477 8.59611 39.6555 9.38634 41.6651 9.54671C46.3547 9.92094 50.0785 13.6448 50.4528 18.3344C50.6131 20.344 51.4034 22.2518 52.711 23.7861C55.7624 27.3668 55.7624 32.6332 52.711 36.2138C51.4034 37.7482 50.6131 39.656 50.4528 41.6656C50.0785 46.3551 46.3547 50.079 41.6651 50.4532C39.6555 50.6136 37.7477 51.4038 36.2133 52.7114C32.6327 55.7628 27.3663 55.7628 23.7857 52.7114C22.2513 51.4038 20.3435 50.6136 18.3339 50.4532C13.6444 50.079 9.92048 46.3551 9.54625 41.6656C9.38588 39.656 8.59566 37.7482 7.28806 36.2138C4.23666 32.6332 4.23666 27.3668 7.28806 23.7861C8.59566 22.2518 9.38588 20.344 9.54625 18.3344C9.92048 13.6448 13.6444 9.92094 18.3339 9.54671Z" stroke="#039855" stroke-width="5" stroke-linecap="round" stroke-linejoin="round"/>
</svg>
