<svg xmlns="http://www.w3.org/2000/svg" width="27" height="36" viewBox="0 0 27 36">
  <path id="Path_12517" data-name="Path 12517" d="M-1966.375,36h-20.25A3.379,3.379,0,0,1-1990,32.625V3.375A3.379,3.379,0,0,1-1986.625,0h20.25A3.379,3.379,0,0,1-1963,3.375v29.25A3.379,3.379,0,0,1-1966.375,36ZM-1985,24a1,1,0,0,0-1,1v1a1,1,0,0,0,1,1h17a1,1,0,0,0,1-1V25a1,1,0,0,0-1-1Zm0-6a1,1,0,0,0-1,1v1a1,1,0,0,0,1,1h17a1,1,0,0,0,1-1V19a1,1,0,0,0-1-1Zm0-6a1,1,0,0,0-1,1v1a1,1,0,0,0,1,1h17a1,1,0,0,0,1-1V13a1,1,0,0,0-1-1Zm5.125-9.75A1.126,1.126,0,0,0-1981,3.375a1.126,1.126,0,0,0,1.125,1.125h6.75A1.126,1.126,0,0,0-1972,3.375a1.126,1.126,0,0,0-1.125-1.125Z" transform="translate(1990)"/>
</svg>
