<svg xmlns="http://www.w3.org/2000/svg" width="27" height="36" viewBox="0 0 27 36">
  <path id="ID_Front" data-name="ID Front" d="M23.625,0H3.375A3.376,3.376,0,0,0,0,3.375v29.25A3.376,3.376,0,0,0,3.375,36h20.25A3.376,3.376,0,0,0,27,32.625V3.375A3.376,3.376,0,0,0,23.625,0Zm-13.5,2.25h6.75a1.125,1.125,0,0,1,0,2.25h-6.75a1.125,1.125,0,0,1,0-2.25Zm3.375,9A4.5,4.5,0,1,1,9,15.75,4.5,4.5,0,0,1,13.5,11.25ZM21.375,27.9A1.474,1.474,0,0,1,19.8,29.25H7.2A1.474,1.474,0,0,1,5.625,27.9V26.55c0-2.236,2.116-4.05,4.725-4.05H10.7a7.242,7.242,0,0,0,5.6,0h.352c2.609,0,4.725,1.814,4.725,4.05Z"/>
</svg>
