<svg xmlns="http://www.w3.org/2000/svg" width="18.68" height="21.507" viewBox="0 0 18.68 21.507">
  <g id="Insurance" transform="translate(-2.65 -1.252)">
    <path id="Path_13332" data-name="Path 13332" d="M12,22.76a5.09,5.09,0,0,1-3.02-.95L4.68,18.6a5.6,5.6,0,0,1-2.03-4.04V7.12A4.209,4.209,0,0,1,5.23,3.4l4.99-1.87a5.784,5.784,0,0,1,3.54,0L18.75,3.4a4.209,4.209,0,0,1,2.58,3.72v7.43a5.585,5.585,0,0,1-2.03,4.04L15,21.8A4.93,4.93,0,0,1,12,22.76ZM10.75,2.94,5.76,4.81a2.74,2.74,0,0,0-1.6,2.32v7.43A4.134,4.134,0,0,0,5.58,17.4l4.3,3.21a3.823,3.823,0,0,0,4.25,0l4.3-3.21a4.114,4.114,0,0,0,1.42-2.84V7.12a2.766,2.766,0,0,0-1.6-2.32L13.26,2.93A4.377,4.377,0,0,0,10.75,2.94Z"/>
    <path id="Path_13333" data-name="Path 13333" d="M10.66,14.23a.742.742,0,0,1-.53-.22L8.52,12.4a.75.75,0,1,1,1.06-1.06l1.08,1.08,3.77-3.77a.75.75,0,0,1,1.06,1.06l-4.3,4.3A.742.742,0,0,1,10.66,14.23Z"/>
  </g>
</svg>
