<svg xmlns="http://www.w3.org/2000/svg" width="38" height="38" viewBox="0 0 38 38">
  <g id="InternetBanking" transform="translate(-301 -70)">
    <circle id="Ellipse_75" data-name="Ellipse 75" cx="19" cy="19" r="19" transform="translate(301 70)" fill="#d3d3d3"/>
    <g id="Group_8278" data-name="Group 8278" transform="translate(-843.4 -509.367)">
      <g id="Group_8259" data-name="Group 8259" transform="translate(1151.4 586.367)" opacity="0">
        <rect id="Rectangle_1420" data-name="Rectangle 1420" width="24" height="24"/>
      </g>
      <g id="Group_8277" data-name="Group 8277" transform="translate(1152.13 586.642)">
        <g id="Group_8273" data-name="Group 8273" transform="translate(1.85 6.352)">
          <g id="Group_8260" data-name="Group 8260">
            <path id="Path_13370" data-name="Path 13370" d="M1176.754,609.718H1158.28l9.237-5.678Zm-15.822-.75h13.17l-6.585-4.048Z" transform="translate(-1158.28 -604.04)"/>
          </g>
          <g id="Group_8261" data-name="Group 8261" transform="translate(0.951 4.928)">
            <path id="Path_13371" data-name="Path 13371" d="M1177.389,619.34h-16.572v-1.783h.75v1.033h15.072v-.658h-3.469v-.75h4.219Z" transform="translate(-1160.816 -617.182)"/>
          </g>
          <g id="Group_8262" data-name="Group 8262" transform="translate(2.374 6.71)">
            <path id="Path_13372" data-name="Path 13372" d="M1167.939,623.532h-3.328v-1.6h.75v.848h1.828v-.848h.75Z" transform="translate(-1164.611 -621.934)"/>
          </g>
          <g id="Group_8263" data-name="Group 8263" transform="translate(7.575 6.71)">
            <path id="Path_13373" data-name="Path 13373" d="M1181.809,623.532h-3.328v-1.6h.75v.848h1.828v-.848h.75Z" transform="translate(-1178.48 -621.934)"/>
          </g>
          <g id="Group_8264" data-name="Group 8264" transform="translate(0.952 7.933)">
            <path id="Path_13374" data-name="Path 13374" d="M1177.986,634.357h-17.167v-1.982h.976v.749h-.227v.485h15.67v-.485h-1.128v-1.3h-13.884v-2.043h.536v-4.59h.749v5.339h-.536v.546h13.884v1.3h1.128Z" transform="translate(-1160.818 -625.193)"/>
          </g>
          <g id="Group_8265" data-name="Group 8265" transform="translate(4.328 7.933)">
            <path id="Path_13375" data-name="Path 13375" d="M1171.2,631.453h-.75v-.946h-.624V625.2h.75v4.562h.624Z" transform="translate(-1169.821 -625.195)"/>
          </g>
          <g id="Group_8266" data-name="Group 8266" transform="translate(9.523 7.933)">
            <path id="Path_13376" data-name="Path 13376" d="M1185.048,631.453h-.75v-.946h-.624V625.2h.75v4.562h.624Z" transform="translate(-1183.674 -625.195)"/>
          </g>
          <g id="Group_8267" data-name="Group 8267" transform="translate(7.576 7.933)">
            <path id="Path_13377" data-name="Path 13377" d="M1179.231,631.453h-.75v-1.7h.624V625.2h.75v5.312h-.624Z" transform="translate(-1178.481 -625.195)"/>
          </g>
          <g id="Group_8268" data-name="Group 8268" transform="translate(12.968 6.71)">
            <path id="Path_13378" data-name="Path 13378" d="M1196.188,623.532h-3.328v-1.6h.75v.848h1.828v-.848h.75Z" transform="translate(-1192.86 -621.934)"/>
          </g>
          <g id="Group_8269" data-name="Group 8269" transform="translate(14.915 7.933)">
            <path id="Path_13379" data-name="Path 13379" d="M1199.428,631.453h-.75v-.946h-.624V625.2h.75v4.562h.624Z" transform="translate(-1198.054 -625.195)"/>
          </g>
          <g id="Group_8270" data-name="Group 8270" transform="translate(12.968 7.933)">
            <path id="Path_13380" data-name="Path 13380" d="M1193.611,631.453h-.75v-1.7h.624V625.2h.75v5.312h-.624Z" transform="translate(-1192.861 -625.195)"/>
          </g>
          <g id="Group_8271" data-name="Group 8271" transform="translate(1.56 13.816)">
            <path id="Path_13381" data-name="Path 13381" d="M1177.685,642.93H1162.44v-2.047h1.19v.75h-.44v.547h14.495Z" transform="translate(-1162.44 -640.883)"/>
          </g>
          <g id="Group_8272" data-name="Group 8272" transform="translate(7.565 1.497)">
            <path id="Path_13382" data-name="Path 13382" d="M1180.126,611.375a1.672,1.672,0,1,1,1.672-1.672A1.674,1.674,0,0,1,1180.126,611.375Zm0-2.594a.922.922,0,1,0,.922.922A.924.924,0,0,0,1180.126,608.781Z" transform="translate(-1178.454 -608.031)"/>
          </g>
        </g>
        <g id="Group_8274" data-name="Group 8274" transform="translate(6.894 4.908)">
          <path id="Path_13383" data-name="Path 13383" d="M1172.1,602.535a.375.375,0,0,1-.258-.647,6.187,6.187,0,0,1,8.519,0,.375.375,0,1,1-.516.544,5.437,5.437,0,0,0-7.487,0A.375.375,0,0,1,1172.1,602.535Z" transform="translate(-1171.73 -600.188)"/>
        </g>
        <g id="Group_8275" data-name="Group 8275" transform="translate(4.371 2.14)">
          <path id="Path_13384" data-name="Path 13384" d="M1178.426,596.161a.374.374,0,0,1-.258-.1,9.1,9.1,0,0,0-12.531,0,.375.375,0,0,1-.516-.544,9.849,9.849,0,0,1,13.563,0,.375.375,0,0,1-.258.647Z" transform="translate(-1165.004 -592.807)"/>
        </g>
        <g id="Group_8276" data-name="Group 8276">
          <path id="Path_13385" data-name="Path 13385" d="M1175.512,592.2a.373.373,0,0,1-.258-.1,15.451,15.451,0,0,0-21.275,0,.375.375,0,1,1-.516-.544,16.2,16.2,0,0,1,22.306,0,.375.375,0,0,1-.258.647Z" transform="translate(-1153.347 -587.101)"/>
        </g>
      </g>
    </g>
  </g>
</svg>
