<svg xmlns="http://www.w3.org/2000/svg" width="19.5" height="21.5" viewBox="0 0 19.5 21.5">
  <g id="Investment" transform="translate(-2.25 -1.25)">
    <path id="Path_13328" data-name="Path 13328" d="M21,22.75H3a.75.75,0,0,1,0-1.5H21a.75.75,0,0,1,0,1.5Z"/>
    <path id="Path_13329" data-name="Path 13329" d="M5.6,19.75H4A1.758,1.758,0,0,1,2.25,18V9.38A1.758,1.758,0,0,1,4,7.63H5.6A1.758,1.758,0,0,1,7.35,9.38V18A1.758,1.758,0,0,1,5.6,19.75ZM4,9.12a.248.248,0,0,0-.25.25V18a.248.248,0,0,0,.25.25H5.6A.248.248,0,0,0,5.85,18V9.38a.248.248,0,0,0-.25-.25H4Z"/>
    <path id="Path_13330" data-name="Path 13330" d="M12.8,19.75H11.2A1.758,1.758,0,0,1,9.45,18V6.19A1.758,1.758,0,0,1,11.2,4.44h1.6a1.758,1.758,0,0,1,1.75,1.75V18A1.758,1.758,0,0,1,12.8,19.75ZM11.2,5.94a.248.248,0,0,0-.25.25V18a.248.248,0,0,0,.25.25h1.6a.248.248,0,0,0,.25-.25V6.19a.248.248,0,0,0-.25-.25Z"/>
    <path id="Path_13331" data-name="Path 13331" d="M20,19.75H18.4A1.758,1.758,0,0,1,16.65,18V3A1.758,1.758,0,0,1,18.4,1.25H20A1.758,1.758,0,0,1,21.75,3V18A1.758,1.758,0,0,1,20,19.75Zm-1.6-17a.248.248,0,0,0-.25.25V18a.248.248,0,0,0,.25.25H20a.248.248,0,0,0,.25-.25V3A.248.248,0,0,0,20,2.75Z"/>
  </g>
</svg>
