<svg xmlns="http://www.w3.org/2000/svg" width="21.5" height="21.5" viewBox="0 0 21.5 21.5">
  <g id="Group_8192" data-name="Group 8192" transform="translate(-1.25 -1.25)">
    <path id="Path_13694" data-name="Path 13694" d="M6.88,18.9a.755.755,0,0,1-.75-.75V16.08a.75.75,0,0,1,1.5,0v2.07A.749.749,0,0,1,6.88,18.9Z" fill="#1c3371"/>
    <path id="Path_13695" data-name="Path 13695" d="M12,18.9a.755.755,0,0,1-.75-.75V14a.75.75,0,0,1,1.5,0v4.15A.749.749,0,0,1,12,18.9Z" fill="#1c3371"/>
    <path id="Path_13696" data-name="Path 13696" d="M17.12,18.9a.755.755,0,0,1-.75-.75V11.93a.75.75,0,0,1,1.5,0v6.22A.743.743,0,0,1,17.12,18.9Z" fill="#1c3371"/>
    <path id="Path_13697" data-name="Path 13697" d="M6.88,13.18a.757.757,0,0,1-.73-.57.748.748,0,0,1,.55-.91,18.123,18.123,0,0,0,9.39-5.8l.46-.54a.752.752,0,1,1,1.14.98l-.46.54A19.513,19.513,0,0,1,7.06,13.16.554.554,0,0,1,6.88,13.18Z" fill="#1c3371"/>
    <path id="Path_13698" data-name="Path 13698" d="M17.12,9.52a.755.755,0,0,1-.75-.75V6.6H14.19a.75.75,0,1,1,0-1.5h2.93a.755.755,0,0,1,.75.75V8.78A.741.741,0,0,1,17.12,9.52Z" fill="#1c3371"/>
    <path id="Path_13699" data-name="Path 13699" d="M15,22.75H9c-5.43,0-7.75-2.32-7.75-7.75V9C1.25,3.57,3.57,1.25,9,1.25h6c5.43,0,7.75,2.32,7.75,7.75v6C22.75,20.43,20.43,22.75,15,22.75Zm-6-20C4.39,2.75,2.75,4.39,2.75,9v6c0,4.61,1.64,6.25,6.25,6.25h6c4.61,0,6.25-1.64,6.25-6.25V9c0-4.61-1.64-6.25-6.25-6.25Z" fill="#1c3371"/>
  </g>
</svg>
