<svg id="kyc" xmlns="http://www.w3.org/2000/svg" width="79.998" height="79.998" viewBox="0 0 79.998 79.998">
  <path id="Path_13109" data-name="Path 13109" d="M152.212,35.331a9.082,9.082,0,0,1-9.094-9.094,9.182,9.182,0,0,1,.344-2.437H120.994a1.6,1.6,0,0,0-1.594,1.594V75.956a1.6,1.6,0,0,0,1.594,1.594h34.531a1.6,1.6,0,0,0,1.594-1.594V33.894a9.085,9.085,0,0,1-4.906,1.437Z" transform="translate(-82.088 -16.363)" fill="#edf4fc"/>
  <path id="Path_13110" data-name="Path 13110" d="M63.643,28.744H63.3a6.834,6.834,0,0,0-3.469.969A6.753,6.753,0,0,0,54.019,26.4H50.55A12.31,12.31,0,0,0,38.3,38.65v5.469a4.887,4.887,0,0,1,3.844-1.031v-.562a.627.627,0,0,1,.625-.625h.125c2.156.437,8.531,1.219,12.875-4.219a.644.644,0,0,1,.906-.094c.031,0,.031.031.063.031a11.612,11.612,0,0,0,6.906,2.969Z" transform="translate(-26.331 -18.15)" fill="#818182"/>
  <path id="Path_13111" data-name="Path 13111" d="M72.168,64.856a11.509,11.509,0,0,1-6.906-2.969.641.641,0,0,0-.906,0c-.031.031-.031.031-.031.062-4.344,5.437-10.719,4.687-12.875,4.219a.641.641,0,0,0-.75.5v9.656A11.831,11.831,0,0,0,72.168,83.2Z" transform="translate(-34.856 -42.419)" fill="#f9d0b4"/>
  <path id="Path_13112" data-name="Path 13112" d="M196.787,208.656H196.1v-.719a.937.937,0,1,0-1.875,0v.687h-.687a.937.937,0,0,0,0,1.875h.688v.688a.937.937,0,1,0,1.875,0V210.5h.688a.94.94,0,0,0,.937-.937A.9.9,0,0,0,196.787,208.656Z" transform="translate(-132.413 -142.313)" fill="#70d6f9"/>
  <circle id="Ellipse_43" data-name="Ellipse 43" cx="1" cy="1" r="1" transform="translate(16.562 1.312)" fill="#70d6f9"/>
  <circle id="Ellipse_44" data-name="Ellipse 44" cx="1" cy="1" r="1" transform="translate(74.374 65.999)" fill="#f5c84c"/>
  <circle id="Ellipse_45" data-name="Ellipse 45" cx="1" cy="1" r="1" transform="translate(58.437 72.874)" fill="#87d147"/>
  <path id="Path_13113" data-name="Path 13113" d="M33.094,21.509A3.067,3.067,0,0,1,30.625,19.1c0-.031-.031-.062-.062-.031a.031.031,0,0,0-.031.031,3.027,3.027,0,0,1-2.469,2.406.067.067,0,0,0-.062.062c0,.031.031.031.063.063a3.067,3.067,0,0,1,2.469,2.406c0,.031.031.062.062.031a.031.031,0,0,0,.031-.031,3.027,3.027,0,0,1,2.469-2.406.062.062,0,1,0,0-.125Z" transform="translate(-19.25 -13.103)" fill="#f5c84c"/>
  <path id="Path_13114" data-name="Path 13114" d="M39.031,133.687a2.176,2.176,0,0,1-1.719-1.656.031.031,0,0,0-.031-.031c-.031,0-.031,0-.031.031a2.136,2.136,0,0,1-1.719,1.656.031.031,0,0,0-.031.031c0,.031,0,.031.031.031a2.176,2.176,0,0,1,1.719,1.656.031.031,0,0,0,.031.031c.031,0,.031,0,.031-.031a2.136,2.136,0,0,1,1.719-1.656c.031,0,0-.031,0-.062Z" transform="translate(-24.406 -90.751)" fill="#fc657e"/>
  <path id="Path_13115" data-name="Path 13115" d="M38.046,88.627V79.659a4.955,4.955,0,1,0-1.594,9.781,4.729,4.729,0,0,0,1.625,0A7.064,7.064,0,0,1,38.046,88.627Z" transform="translate(-22.203 -54.721)" fill="#f9d0b4"/>
  <path id="Path_13116" data-name="Path 13116" d="M55.047,158.369H40.609a1.6,1.6,0,0,1-1.594-1.594v-9.437l-1.656-.812a3.816,3.816,0,0,1-2.125-3.437V141.4a11.709,11.709,0,0,1-11.687,0v1.687a3.816,3.816,0,0,1-2.125,3.437L18.641,147.9a10.455,10.455,0,0,1-2.156.781l-8.75,2.187a5.031,5.031,0,0,0-3.781,4.594L2.485,174.118A2.128,2.128,0,0,0,4.422,176.4H54.2a2.127,2.127,0,0,0,2.125-2.125v-.156Z" transform="translate(-1.704 -97.213)" fill="#70d6f9"/>
  <path id="Path_13117" data-name="Path 13117" d="M76.225,147.437l-1.656-.812a3.816,3.816,0,0,1-2.125-3.437V141.5a11.709,11.709,0,0,1-11.687,0v1.687a3.816,3.816,0,0,1-2.125,3.437l-2.031,1a11.806,11.806,0,0,0,19.625.562Z" transform="translate(-38.913 -97.282)" fill="#f9d0b4"/>
  <path id="Path_13118" data-name="Path 13118" d="M76.725,119.214a6.2,6.2,0,0,1-5.281-2.906.805.805,0,0,1,.25-1.094.778.778,0,0,1,1.094.25,4.669,4.669,0,0,0,7.906,0,.793.793,0,1,1,1.344.844A6.367,6.367,0,0,1,76.725,119.214Z" transform="translate(-49.038 -79.121)"/>
  <circle id="Ellipse_46" data-name="Ellipse 46" cx="1.406" cy="1.406" r="1.406" transform="translate(21.187 28.937)"/>
  <circle id="Ellipse_47" data-name="Ellipse 47" cx="1.406" cy="1.406" r="1.406" transform="translate(31.625 28.937)"/>
  <path id="Path_13119" data-name="Path 13119" d="M35.55,88.569A5.734,5.734,0,1,1,35.519,77.1c.312,0,.625.031.937.062a.778.778,0,0,1,.656.781v8.969a6.541,6.541,0,0,0,.031.75.758.758,0,0,1-.656.812,4.769,4.769,0,0,1-.937.094Zm0-9.906a4.156,4.156,0,0,0,0,8.312V78.662Z" transform="translate(-20.488 -53.007)"/>
  <path id="Path_13120" data-name="Path 13120" d="M52.5,175.6H2.906A2.9,2.9,0,0,1,0,172.694v-.219l1.469-18.656a5.756,5.756,0,0,1,4.375-5.281l8.75-2.187a11.767,11.767,0,0,0,2-.719l2.781-1.375a2.967,2.967,0,0,0,1.687-2.719v-1.687a.774.774,0,0,1,.781-.781.742.742,0,0,1,.375.094,10.958,10.958,0,0,0,10.906,0,.771.771,0,0,1,1.062.281.832.832,0,0,1,.094.375v1.687a3.022,3.022,0,0,0,1.687,2.719l1.656.812a.749.749,0,0,1,.438.688v9.437a.807.807,0,0,0,.812.812H53.312a.783.783,0,0,1,.781.719l1.25,15.781a2.9,2.9,0,0,1-2.656,3.125H52.5ZM22.625,141.1v.406a4.585,4.585,0,0,1-2.562,4.125l-2.781,1.375a9.736,9.736,0,0,1-2.312.844l-8.75,2.187a4.165,4.165,0,0,0-3.187,3.875L1.562,172.6a1.352,1.352,0,0,0,1.219,1.437H52.5a1.334,1.334,0,0,0,1.344-1.344V172.6l-1.187-15.062H38.937a2.374,2.374,0,0,1-2.375-2.375v-8.937l-1.219-.594a4.564,4.564,0,0,1-2.562-4.125V141.1A12.752,12.752,0,0,1,22.625,141.1Z" transform="translate(0 -95.601)"/>
  <path id="Path_13121" data-name="Path 13121" d="M64.9,152.257a12.545,12.545,0,0,1-10.656-5.875.805.805,0,0,1,.25-1.094.109.109,0,0,0,.063-.031l2.031-1a2.967,2.967,0,0,0,1.687-2.719v-1.687a.774.774,0,0,1,.781-.781.742.742,0,0,1,.375.094,10.958,10.958,0,0,0,10.906,0,.771.771,0,0,1,1.062.281.832.832,0,0,1,.094.375v1.687a3.022,3.022,0,0,0,1.687,2.719l1.656.812a.749.749,0,0,1,.437.687v.719a.93.93,0,0,1-.156.469A12.491,12.491,0,0,1,64.9,152.257Zm-8.844-6.031a11.031,11.031,0,0,0,17.687,0l-1.219-.594a4.564,4.564,0,0,1-2.562-4.125V141.1a12.425,12.425,0,0,1-10.125,0v.406a4.585,4.585,0,0,1-2.562,4.125Z" transform="translate(-37.213 -95.601)"/>
  <circle id="Ellipse_48" data-name="Ellipse 48" cx="9.094" cy="9.094" r="9.094" transform="translate(61.03 0.781)" fill="#87d147"/>
  <path id="Path_13122" data-name="Path 13122" d="M210.841,27.4l-2.781-2.781a1.569,1.569,0,0,1,2.187-2.25l.031.031,1.687,1.687L215.5,20.56a1.569,1.569,0,0,1,2.25,2.187l-.031.031L213.091,27.4A1.584,1.584,0,0,1,210.841,27.4Z" transform="translate(-142.717 -13.81)" fill="#edf4fc"/>
  <path id="Path_13123" data-name="Path 13123" d="M202.675,19.75a9.875,9.875,0,1,1,9.875-9.875A9.876,9.876,0,0,1,202.675,19.75Zm0-18.187a8.312,8.312,0,1,0,8.312,8.312A8.309,8.309,0,0,0,202.675,1.562Z" transform="translate(-132.551)"/>
  <path id="Path_13124" data-name="Path 13124" d="M210.247,26.934a2.341,2.341,0,0,1-1.656-.687l-2.781-2.781a2.343,2.343,0,0,1,3.25-3.375l.063.063,1.125,1.125,2.969-2.969a2.343,2.343,0,0,1,3.375,3.25l-.062.063L211.9,26.247a2.341,2.341,0,0,1-1.656.687Zm-.562-1.781a.753.753,0,0,0,.563.219.9.9,0,0,0,.562-.219l4.625-4.625a.755.755,0,0,0,0-1.094.814.814,0,0,0-1.094,0l-3.531,3.531a.755.755,0,0,1-1.094,0l-1.687-1.687a.814.814,0,0,0-1.094,0,.755.755,0,0,0,0,1.094Z" transform="translate(-140.998 -12.09)"/>
  <path id="Path_13125" data-name="Path 13125" d="M153.806,76.58H119.275a2.374,2.374,0,0,1-2.375-2.375V23.675a2.374,2.374,0,0,1,2.375-2.375h22.468a.774.774,0,0,1,.781.781.532.532,0,0,1-.031.219,8.32,8.32,0,0,0,12.5,9.219.805.805,0,0,1,1.094.25.687.687,0,0,1,.125.406V74.237A2.415,2.415,0,0,1,153.806,76.58ZM119.275,22.862a.807.807,0,0,0-.812.812V74.237a.807.807,0,0,0,.812.813h34.531a.807.807,0,0,0,.813-.812V33.487a9.862,9.862,0,0,1-13.094-4.844,9.683,9.683,0,0,1-.75-5.781Z" transform="translate(-80.369 -14.644)"/>
  <path id="Path_13126" data-name="Path 13126" d="M36.581,43.181A.774.774,0,0,1,35.8,42.4V36.931A13.063,13.063,0,0,1,48.831,23.9H52.3a7.592,7.592,0,0,1,6.062,3.062,7.567,7.567,0,0,1,3.594-.719.811.811,0,0,1,.75.781V38.837a.774.774,0,0,1-.781.781h-.094a12.375,12.375,0,0,1-7.25-3.062c-4.531,5.594-11.156,4.875-13.344,4.437v.375a.774.774,0,0,1-.781.781h-.125a4.663,4.663,0,0,0-.656-.062,4.1,4.1,0,0,0-2.594.906.71.71,0,0,1-.5.187Zm12.25-17.719A11.5,11.5,0,0,0,37.362,36.931v4.094a5.286,5.286,0,0,1,2.312-.469,1.392,1.392,0,0,1,1.656-1.094c2.344.437,8.156,1.031,12.125-3.969a1.4,1.4,0,0,1,2-.219.431.431,0,0,0,.125.094,10.2,10.2,0,0,0,5.594,2.594V27.837a5.545,5.545,0,0,0-2.625.844.771.771,0,0,1-1.062-.281,6.077,6.077,0,0,0-5.125-2.937Z" transform="translate(-24.613 -16.431)"/>
  <path id="Path_13127" data-name="Path 13127" d="M60.825,87.313A12.63,12.63,0,0,1,48.2,74.688V65.126a1.333,1.333,0,0,1,.531-1.094,1.38,1.38,0,0,1,1.187-.281c2.281.469,8.094,1.062,12.062-3.937a1.4,1.4,0,0,1,2-.219.431.431,0,0,0,.125.094,10.736,10.736,0,0,0,6.469,2.75.778.778,0,0,1,.687.781V81.594a.93.93,0,0,1-.156.469A12.9,12.9,0,0,1,60.825,87.313Zm-11.062-22v9.344A11.073,11.073,0,0,0,69.7,81.282V63.845a12.024,12.024,0,0,1-6.562-2.969c-4.562,5.594-11.187,4.875-13.375,4.437Z" transform="translate(-33.138 -40.751)"/>
  <path id="Path_13128" data-name="Path 13128" d="M171.719,69.862H160.781a.781.781,0,0,1,0-1.562h10.937a.781.781,0,1,1,0,1.562Z" transform="translate(-110.001 -46.957)"/>
  <path id="Path_13129" data-name="Path 13129" d="M171.631,89.862h-20.25a.781.781,0,0,1,0-1.562h20.25a.781.781,0,1,1,0,1.562Z" transform="translate(-103.538 -60.707)"/>
  <path id="Path_13130" data-name="Path 13130" d="M171.631,102.562h-20.25a.781.781,0,0,1,0-1.562h20.25a.781.781,0,1,1,0,1.562Z" transform="translate(-103.538 -69.438)"/>
  <path id="Path_13131" data-name="Path 13131" d="M171.631,115.262h-20.25a.781.781,0,1,1,0-1.562h20.25a.781.781,0,1,1,0,1.562Z" transform="translate(-103.538 -78.169)"/>
  <path id="Path_13132" data-name="Path 13132" d="M171.631,127.962h-20.25a.781.781,0,0,1,0-1.562h20.25a.774.774,0,0,1,.781.781A.794.794,0,0,1,171.631,127.962Z" transform="translate(-103.538 -86.901)"/>
  <path id="Path_13133" data-name="Path 13133" d="M171.631,140.562h-20.25a.781.781,0,0,1,0-1.562h20.25a.781.781,0,1,1,0,1.562Z" transform="translate(-103.538 -95.563)"/>
  <path id="Path_13134" data-name="Path 13134" d="M171.631,153.262h-20.25a.781.781,0,0,1,0-1.562h20.25a.781.781,0,1,1,0,1.562Z" transform="translate(-103.538 -104.294)"/>
  <path id="Path_13135" data-name="Path 13135" d="M138.875,89.862h-.594a.781.781,0,0,1,0-1.562h.594a.781.781,0,0,1,0,1.562Z" transform="translate(-94.532 -60.707)"/>
  <path id="Path_13136" data-name="Path 13136" d="M138.875,102.562h-.594a.781.781,0,0,1,0-1.562h.594a.781.781,0,0,1,0,1.562Z" transform="translate(-94.532 -69.438)"/>
  <path id="Path_13137" data-name="Path 13137" d="M138.875,115.262h-.594a.781.781,0,1,1,0-1.562h.594a.781.781,0,1,1,0,1.562Z" transform="translate(-94.532 -78.169)"/>
  <path id="Path_13138" data-name="Path 13138" d="M138.875,127.962h-.594a.781.781,0,0,1,0-1.562h.594a.774.774,0,0,1,.781.781A.794.794,0,0,1,138.875,127.962Z" transform="translate(-94.532 -86.901)"/>
  <path id="Path_13139" data-name="Path 13139" d="M138.875,140.562h-.594a.781.781,0,0,1,0-1.562h.594a.781.781,0,0,1,0,1.562Z" transform="translate(-94.532 -95.563)"/>
  <path id="Path_13140" data-name="Path 13140" d="M138.875,153.262h-.594a.781.781,0,0,1,0-1.562h.594a.781.781,0,0,1,0,1.562Z" transform="translate(-94.532 -104.294)"/>
  <path id="Path_13141" data-name="Path 13141" d="M31.281,223.094a.774.774,0,0,1-.781-.781V210.281a.781.781,0,1,1,1.562,0v12.031A.774.774,0,0,1,31.281,223.094Z" transform="translate(-20.969 -144.032)"/>
  <path id="Path_13142" data-name="Path 13142" d="M143.281,223.094a.774.774,0,0,1-.781-.781V210.281a.781.781,0,1,1,1.562,0v12.031A.774.774,0,0,1,143.281,223.094Z" transform="translate(-97.969 -144.032)"/>
</svg>
