<svg xmlns="http://www.w3.org/2000/svg" width="16" height="16" viewBox="0 0 16 16">
  <g id="Group_8193" data-name="Group 8193" transform="translate(-1.25 -1.25)">
    <path id="Path_13700" data-name="Path 13700" d="M9.25,17.25a8,8,0,1,1,8-8A8.007,8.007,0,0,1,9.25,17.25Zm0-14.884A6.884,6.884,0,1,0,16.134,9.25,6.892,6.892,0,0,0,9.25,2.366Z" transform="translate(0 0)" fill="#1c3371"/>
    <path id="Path_13701" data-name="Path 13701" d="M9,16.25H8c-.41,0-.75-.244-.75-.538s.32-.531.73-.538a15.486,15.486,0,0,1,0-11.846c-.41-.007-.73-.244-.73-.538S7.59,2.25,8,2.25H9a.893.893,0,0,1,.61.223.417.417,0,0,1,.1.488,14.747,14.747,0,0,0,0,12.586.417.417,0,0,1-.1.488A.925.925,0,0,1,9,16.25Z" transform="translate(-1.646)" fill="#1c3371"/>
    <path id="Path_13702" data-name="Path 13702" d="M15,16.25a.914.914,0,0,1-.24-.029c-.39-.093-.61-.4-.47-.682a14.752,14.752,0,0,0,0-12.588c-.13-.28.08-.589.47-.682a.843.843,0,0,1,.95.337,15.478,15.478,0,0,1,0,13.263A.757.757,0,0,1,15,16.25Z" transform="translate(-3.855 0)" fill="#1c3371"/>
    <path id="Path_13703" data-name="Path 13703" d="M9.251,17.2a15.539,15.539,0,0,1-5.924-1.18c-.007.4-.244.73-.539.73S2.25,16.41,2.25,16V15a.893.893,0,0,1,.223-.61.418.418,0,0,1,.488-.1,14.753,14.753,0,0,0,12.588,0,.418.418,0,0,1,.488.1.86.86,0,0,1,.223.61v1c0,.41-.244.75-.539.75s-.531-.32-.539-.73A15.6,15.6,0,0,1,9.251,17.2Z" transform="translate(0 -3.854)" fill="#1c3371"/>
    <path id="Path_13704" data-name="Path 13704" d="M15.709,9.75a.362.362,0,0,1-.172-.04,14.745,14.745,0,0,0-12.585,0c-.287.13-.589-.08-.682-.47a.856.856,0,0,1,.345-.95,15.471,15.471,0,0,1,13.259,0,.839.839,0,0,1,.337.95A.574.574,0,0,1,15.709,9.75Z" transform="translate(0 -1.645)" fill="#1c3371"/>
  </g>
</svg>
