<svg xmlns="http://www.w3.org/2000/svg" width="21.48" height="22.08" viewBox="0 0 21.48 22.08">
  <g id="Loans" transform="translate(-1.26 -1.25)">
    <path id="Path_13325" data-name="Path 13325" d="M19.42,11.75H16a.755.755,0,0,1-.75-.75V4.01a2.766,2.766,0,0,1,2.76-2.76h.01A4.746,4.746,0,0,1,22.74,6V8.42A3.141,3.141,0,0,1,19.42,11.75Zm-2.67-1.5h2.67a1.669,1.669,0,0,0,1.83-1.83V6a3.272,3.272,0,0,0-.95-2.3,3.312,3.312,0,0,0-2.28-.95h-.01a1.257,1.257,0,0,0-.89.37,1.24,1.24,0,0,0-.37.89Z"/>
    <path id="Path_13326" data-name="Path 13326" d="M9,23.33a1.708,1.708,0,0,1-1.24-.52L6.1,21.14a.246.246,0,0,0-.33-.02L4.06,22.4A1.748,1.748,0,0,1,1.26,21V6c0-3.02,1.73-4.75,4.75-4.75h12a.75.75,0,0,1,0,1.5A1.25,1.25,0,0,0,16.76,4V21a1.755,1.755,0,0,1-2.8,1.41l-1.71-1.28a.243.243,0,0,0-.32.02l-1.68,1.68A1.814,1.814,0,0,1,9,23.33ZM5.91,19.57a1.724,1.724,0,0,1,1.25.52l1.66,1.67a.259.259,0,0,0,.18.07c-.01-.02.12-.01.18-.07l1.68-1.68a1.74,1.74,0,0,1,2.29-.15l1.7,1.27a.229.229,0,0,0,.26.02.249.249,0,0,0,.14-.22V4a2.745,2.745,0,0,1,.3-1.25H6C3.78,2.75,2.75,3.78,2.75,6V21a.253.253,0,0,0,.14.23.234.234,0,0,0,.26-.03l1.71-1.28A1.766,1.766,0,0,1,5.91,19.57Z"/>
    <path id="Path_13327" data-name="Path 13327" d="M11.75,10.75H6.25a.75.75,0,0,1,0-1.5h5.5a.75.75,0,0,1,0,1.5Z"/>
  </g>
</svg>
