<svg id="Group_7863" data-name="Group 7863" xmlns="http://www.w3.org/2000/svg" width="462.52" height="392.39" viewBox="0 0 462.52 392.39">
  <path id="Path_13193" data-name="Path 13193" d="M661.863,251.987H648.151a2.64,2.64,0,0,1-2.637-2.637V235.637A2.64,2.64,0,0,1,648.151,233h13.713a2.64,2.64,0,0,1,2.637,2.637V249.35A2.64,2.64,0,0,1,661.863,251.987Zm-13.713-17.932a1.584,1.584,0,0,0-1.582,1.582V249.35a1.584,1.584,0,0,0,1.582,1.582h13.712a1.584,1.584,0,0,0,1.582-1.582V235.637a1.584,1.584,0,0,0-1.582-1.582Z" transform="translate(-390.25 -151.252)" fill="#d3d3d3"/>
  <path id="Path_13194" data-name="Path 13194" d="M358.863,96.987H345.151a2.64,2.64,0,0,1-2.637-2.637V80.637A2.64,2.64,0,0,1,345.151,78h13.713a2.64,2.64,0,0,1,2.637,2.637V94.35a2.64,2.64,0,0,1-2.637,2.637ZM345.151,79.055a1.584,1.584,0,0,0-1.582,1.582V94.35a1.584,1.584,0,0,0,1.582,1.582h13.713a1.584,1.584,0,0,0,1.582-1.582V80.637a1.584,1.584,0,0,0-1.582-1.582Z" transform="translate(-247.053 -78)" fill="#d3d3d3"/>
  <path id="Path_13195" data-name="Path 13195" d="M645.863,238.987H632.151a2.64,2.64,0,0,1-2.637-2.637V222.637A2.64,2.64,0,0,1,632.151,220h13.713a2.64,2.64,0,0,1,2.637,2.637V236.35A2.64,2.64,0,0,1,645.863,238.987Zm-13.713-17.932a1.584,1.584,0,0,0-1.582,1.582V236.35a1.584,1.584,0,0,0,1.582,1.582h13.713a1.584,1.584,0,0,0,1.582-1.582V222.637a1.584,1.584,0,0,0-1.582-1.582Z" transform="translate(-382.688 -145.108)" fill="#d3d3d3"/>
  <path id="Path_13196" data-name="Path 13196" d="M193.863,455.987H180.151a2.64,2.64,0,0,1-2.637-2.637V439.637A2.64,2.64,0,0,1,180.151,437h13.713a2.64,2.64,0,0,1,2.637,2.637V453.35a2.64,2.64,0,0,1-2.637,2.637Zm-13.713-17.932a1.584,1.584,0,0,0-1.582,1.582V453.35a1.584,1.584,0,0,0,1.582,1.582h13.713a1.584,1.584,0,0,0,1.582-1.582V439.637a1.584,1.584,0,0,0-1.582-1.582Z" transform="translate(-169.075 -247.661)" fill="#d3d3d3"/>
  <path id="Path_13197" data-name="Path 13197" d="M177.863,442.987H164.151a2.64,2.64,0,0,1-2.637-2.637V426.637A2.64,2.64,0,0,1,164.151,424h13.713a2.64,2.64,0,0,1,2.637,2.637V440.35A2.64,2.64,0,0,1,177.863,442.987Zm-13.713-17.932a1.584,1.584,0,0,0-1.582,1.582V440.35a1.584,1.584,0,0,0,1.582,1.582h13.713a1.584,1.584,0,0,0,1.582-1.582V426.637a1.584,1.584,0,0,0-1.582-1.582Z" transform="translate(-161.514 -241.518)" fill="#d3d3d3"/>
  <path id="Path_13198" data-name="Path 13198" d="M238.937,164.038h126.9a26.977,26.977,0,0,1,26.316,21.044l64.121,284.412a21.8,21.8,0,0,1-20.2,26.572l-130.456,6.428a28.8,28.8,0,0,1-29.762-23.642L239.488,277.769l-2.706.773-6.96-38.113,2.785-.7L222.455,183.6a16.609,16.609,0,0,1,16.482-19.565Z" transform="translate(-190.189 -118.661)" fill="#3f3d56"/>
  <path id="Path_13199" data-name="Path 13199" d="M360.355,175.664h14.813a18.643,18.643,0,0,1,18.215,14.669L454.93,472.425a11.552,11.552,0,0,1-10.531,13.99l-130.034,8.522a14.961,14.961,0,0,1-15.7-12.277L246.144,191.09a13.1,13.1,0,0,1,12.9-15.427h14.053a6.184,6.184,0,0,1,5.972,4.577h0a5.46,5.46,0,0,0,5.272,4.04h66.713a9.333,9.333,0,0,0,9.305-8.617Z" transform="translate(-201.411 -124.155)" fill="#fff"/>
  <path id="Path_13200" data-name="Path 13200" d="M104,188.606H245.068L260.1,256.322l-142.912,2.637Z" transform="translate(-49.15 -89.134)" fill="#547e26"/>
  <path id="Path_13201" data-name="Path 13201" d="M358,431.754h33.211l1.055,6.358H359.055Z" transform="translate(-169.189 -204.045)" fill="#547e26"/>
  <rect id="Rectangle_5" data-name="Rectangle 5" width="140.883" height="0.663" transform="translate(74.982 198.259) rotate(-1.213)" fill="#2f2e41" opacity="0.151"/>
  <rect id="Rectangle_6" data-name="Rectangle 6" width="143.541" height="0.663" transform="matrix(1, -0.023, 0.023, 1, 76.638, 218.142)" fill="#2f2e41" opacity="0.151"/>
  <path id="Path_13202" data-name="Path 13202" d="M384,560.754h33.211l1.055,6.358H385.055Z" transform="translate(-181.476 -265.009)" fill="#547e26"/>
  <rect id="Rectangle_7" data-name="Rectangle 7" width="140.883" height="0.663" transform="translate(88.694 266.295) rotate(-1.213)" fill="#2f2e41" opacity="0.151"/>
  <rect id="Rectangle_8" data-name="Rectangle 8" width="143.541" height="0.663" transform="matrix(1, -0.023, 0.023, 1, 90.35, 286.177)" fill="#2f2e41" opacity="0.151"/>
  <path id="Path_13203" data-name="Path 13203" d="M607.25,709.487h-6.284l-2.989-24.238h9.274Z" transform="translate(-282.601 -323.845)" fill="#a0616a"/>
  <path id="Path_13204" data-name="Path 13204" d="M761.956,813.459H741.693V813.2a7.887,7.887,0,0,1,7.886-7.886h12.377Z" transform="translate(-435.704 -421.726)" fill="#2f2e41"/>
  <path id="Path_13205" data-name="Path 13205" d="M750.509,702.264l-6.116,1.44L735.926,680.8l9.028-2.126Z" transform="translate(-347.795 -320.736)" fill="#a0616a"/>
  <path id="Path_13206" data-name="Path 13206" d="M912.78,804.848l-19.723,4.644-.059-.25a7.887,7.887,0,0,1,5.869-9.484h0l12.046-2.837Z" transform="translate(-507.109 -417.759)" fill="#2f2e41"/>
  <path id="Path_13207" data-name="Path 13207" d="M764.876,577.274c.012-1.263.386-31.072,8.557-42.344l.121-.166,28.476,3.928-.637,6.256c1.253,1.218,11.1,11.513,13.949,35.892l30.224,81.175-14.051,1.277-41.594-88.613L767.91,671H753.981Z" transform="translate(-441.511 -293.865)" fill="#2f2e41"/>
  <path id="Path_13208" data-name="Path 13208" d="M784.539,492.734l2.784-14.614c-.545-.7-2.959-4.07-2.422-8.018.351-2.576,1.888-4.835,4.572-6.716l7.215-16.835.1-.057c.486-.286,11.973-6.929,18.236-.662.157.121,15.576,12.361,9.384,28.873l-7.644,22.934Z" transform="translate(-455.952 -250.568)" fill="#547e26"/>
  <path id="Path_13209" data-name="Path 13209" d="M760.961,556.066a5.168,5.168,0,0,0,4.364-6.614l14.9-10.735-8.919-3.393-12.781,10.714a5.2,5.2,0,0,0,2.437,10.027Z" transform="translate(-442.059 -294.13)" fill="#a0616a"/>
  <path id="Path_13210" data-name="Path 13210" d="M771.369,495.666l22.747-17.922-6.763-23.1a8.3,8.3,0,0,1,.838-6.57,7.678,7.678,0,0,1,5.035-3.634c3.894-.824,7.429,1.356,10.5,6.482l.023.046c.509,1.244,12.359,30.537,3.311,36.8-8.851,6.128-29.376,15.048-29.583,15.138l-.241.1Z" transform="translate(-449.728 -251.095)" fill="#547e26"/>
  <circle id="Ellipse_1" data-name="Ellipse 1" cx="13.78" cy="13.78" r="13.78" transform="translate(338.093 161.612)" fill="#a0616a"/>
  <circle id="Ellipse_2" data-name="Ellipse 2" cx="12.191" cy="12.191" r="12.191" transform="translate(361.285 146.091)" fill="#2f2e41"/>
  <path id="Path_13211" data-name="Path 13211" d="M872.721,387.039a12.191,12.191,0,0,1-18.826-6.4,12.191,12.191,0,1,0,23.781-5A12.187,12.187,0,0,1,872.721,387.039Z" transform="translate(-488.729 -218.662)" fill="#2f2e41"/>
  <path id="Path_13212" data-name="Path 13212" d="M798.37,388.668c2.128-3.81,2.943-5.4,5.687-7.718,2.427-2.049,5.411-2.651,7.819-.709a14.5,14.5,0,1,1-8.6,11.6C801.182,391.55,800.463,388.962,798.37,388.668Z" transform="translate(-462.489 -220.278)" fill="#2f2e41"/>
  <path id="Path_13213" data-name="Path 13213" d="M856.955,821.055H656.014a.527.527,0,0,1,0-1.055H856.955a.527.527,0,1,1,0,1.055Z" transform="translate(-394.963 -428.665)" fill="#3f3d56"/>
</svg>
