<svg xmlns="http://www.w3.org/2000/svg" width="25.104" height="34.244" viewBox="0 0 25.104 34.244">
  <g id="Group_7857" data-name="Group 7857" transform="translate(-1.632 -1.43)">
    <g id="Appzillon" transform="translate(1.632 1.384)" style="isolation: isolate">
      <g id="Group_7855" data-name="Group 7855" style="isolation: isolate">
        <path id="Path_13178" data-name="Path 13178" d="M1.678,14.947A13.514,13.514,0,0,1,5.317,5.123a11.808,11.808,0,0,1,8.936-3.707,12.362,12.362,0,0,1,8.821,3.614,12.139,12.139,0,0,1,3.662,9.082V35.66H24.71V15.317H3.7v20.25H1.632Zm22.985-1.714A9.72,9.72,0,0,0,21.3,6.166a10.519,10.519,0,0,0-7.048-2.9H13.7A10.438,10.438,0,0,0,7.137,6.351a9.773,9.773,0,0,0-3.2,6.881Z" transform="translate(-1.632 -1.37)" fill="#fff"/>
      </g>
    </g>
  </g>
</svg>
