<svg xmlns="http://www.w3.org/2000/svg" width="148" height="38" viewBox="0 0 148 38">
  <g id="Group_7855" data-name="Group 7855" transform="translate(-1.632 -1.384)">
    <g id="Appzillon" transform="translate(1.632 1.384)" style="isolation: isolate">
      <g id="Group_7855-2" data-name="Group 7855" style="isolation: isolate">
        <path id="Path_13178" data-name="Path 13178" d="M1.669,12.294A10.865,10.865,0,0,1,4.595,4.4a9.493,9.493,0,0,1,7.185-2.98,9.939,9.939,0,0,1,7.092,2.906,9.759,9.759,0,0,1,2.944,7.3V28.947h-1.63V12.593H3.3v16.28H1.632Zm18.48-1.378a7.815,7.815,0,0,0-2.7-5.681,8.457,8.457,0,0,0-5.666-2.328h-.444A8.392,8.392,0,0,0,6.058,5.384a7.857,7.857,0,0,0-2.574,5.532Z" transform="translate(-1.632 -1.379)" fill="#fff"/>
        <path id="Path_13179" data-name="Path 13179" d="M22.592,28.357V9.32h6q4.741,0,7.277,2.608a8.979,8.979,0,0,1,2.537,6.52,8.629,8.629,0,0,1-2.721,6.464,9.356,9.356,0,0,1-6.76,2.626H24.333V38.081H22.592Zm6.111-2.5A7.765,7.765,0,0,0,34.5,23.775a7.446,7.446,0,0,0,2.131-5.253,7.094,7.094,0,0,0-2.148-5.458,8.354,8.354,0,0,0-6.112-2.179H24.333V25.861Z" transform="translate(1.665 -0.081)" fill="#fff"/>
        <path id="Path_13180" data-name="Path 13180" d="M38.912,28.357V9.32h6q4.741,0,7.277,2.608a8.979,8.979,0,0,1,2.537,6.52A8.629,8.629,0,0,1,52,24.911a9.358,9.358,0,0,1-6.76,2.626H40.653V38.081H38.912Zm6.109-2.5a7.766,7.766,0,0,0,5.8-2.086,7.446,7.446,0,0,0,2.131-5.253A7.1,7.1,0,0,0,50.8,13.064a8.354,8.354,0,0,0-6.112-2.179H40.653V25.861Z" transform="translate(4.233 -0.081)" fill="#fff"/>
        <path id="Path_13181" data-name="Path 13181" d="M70.869,9.357v1.751L57.5,25.936H70.944v1.676H55.167V25.861L68.61,11H55.167V9.32Z" transform="translate(6.79 -0.081)" fill="#fff"/>
        <path id="Path_13182" data-name="Path 13182" d="M73.932,3.822h-.037a.9.9,0,0,1-.741-.317,1.115,1.115,0,0,1-.259-.726V2.667a1.178,1.178,0,0,1,.259-.615.946.946,0,0,1,.7-.317h.074a.892.892,0,0,1,.759.317,1.163,1.163,0,0,1,.24.726v.112a1.184,1.184,0,0,1-.257.615.949.949,0,0,1-.706.317Zm-.889,7.227h1.741V28.82H73.043Z" transform="translate(9.579 -1.326)" fill="#fff"/>
        <path id="Path_13183" data-name="Path 13183" d="M79.615,20.459V1.384h1.741V28.878H79.615Z" transform="translate(10.636 -1.384)" fill="#fff"/>
        <path id="Path_13184" data-name="Path 13184" d="M86.3,20.459V1.384h1.741V28.878H86.3Z" transform="translate(11.688 -1.384)" fill="#fff"/>
        <path id="Path_13185" data-name="Path 13185" d="M107.287,25.068a8.918,8.918,0,0,1-6.538,2.72,8.821,8.821,0,0,1-6.555-2.7,8.964,8.964,0,0,1-2.739-6.575,9.038,9.038,0,0,1,2.8-6.65,9.148,9.148,0,0,1,13.073.093,9.078,9.078,0,0,1,2.684,6.557A8.929,8.929,0,0,1,107.287,25.068ZM93.231,18.474v.112a7.465,7.465,0,0,0,2.26,5.421,7.268,7.268,0,0,0,10.629-.112,7.4,7.4,0,0,0,2.074-5.421,7.338,7.338,0,0,0-2.2-5.272,7.369,7.369,0,0,0-10.5-.037,7.376,7.376,0,0,0-2.3,5.272Z" transform="translate(12.499 -0.107)" fill="#fff"/>
        <path id="Path_13186" data-name="Path 13186" d="M125.93,16.388V27.639h-1.741V16.8a5.475,5.475,0,0,0-1.739-4.1,6.218,6.218,0,0,0-4.148-1.788h-.186a5.927,5.927,0,0,0-4.443,1.937,6.4,6.4,0,0,0-1.853,4.582V27.6h-1.741V16.835a6.969,6.969,0,0,1,2.555-5.514,8.518,8.518,0,0,1,5.814-2.161h.3a7.441,7.441,0,0,1,4.316,1.937,8.635,8.635,0,0,1,2.685,3.8,5.423,5.423,0,0,1,.167.745,5.047,5.047,0,0,1,.056.745Z" transform="translate(15.429 -0.107)" fill="#fff"/>
      </g>
    </g>
    <g id="TM" transform="translate(143.093 8.748)" style="isolation: isolate">
      <g id="Group_7856" data-name="Group 7856" style="isolation: isolate">
        <path id="Path_13187" data-name="Path 13187" d="M126.461,8.089h-1.074v2.957h-.447V8.089h-1.076v-.38h2.6Z" transform="translate(-123.864 -7.709)" fill="#fff"/>
        <path id="Path_13188" data-name="Path 13188" d="M129.983,7.709v3.337h-.393V8.594q0-.049,0-.1c0-.036,0-.076.008-.114l-1.139,2.086a.173.173,0,0,1-.162.1h-.065a.172.172,0,0,1-.162-.1l-1.163-2.1a1.824,1.824,0,0,1,.015.228v2.452h-.394V7.709h.33a.3.3,0,0,1,.093.012.132.132,0,0,1,.064.065l1.145,2.054c.02.037.038.076.056.118s.035.08.05.122c.015-.042.032-.083.049-.123a1.122,1.122,0,0,1,.056-.119L129.5,7.786a.119.119,0,0,1,.06-.065.333.333,0,0,1,.095-.012Z" transform="translate(-123.444 -7.709)" fill="#fff"/>
      </g>
    </g>
  </g>
</svg>
