<svg xmlns="http://www.w3.org/2000/svg" width="25" height="15" viewBox="0 0 25 15">
  <g id="mastercard" transform="translate(0 -100.8)">
    <path id="Path_12028" data-name="Path 12028" d="M216.6,108.3a7.5,7.5,0,1,1-15,0h0a7.5,7.5,0,1,1,15,0Z" transform="translate(-191.6 0)" fill="#ffb600"/>
    <path id="Path_12029" data-name="Path 12029" d="M209.1,100.8a7.519,7.519,0,0,1,7.5,7.5h0a7.5,7.5,0,1,1-15,0" transform="translate(-191.6)" fill="#f7981d"/>
    <path id="Path_12030" data-name="Path 12030" d="M352.8,100.8a7.519,7.519,0,0,1,7.5,7.5h0a7.494,7.494,0,0,1-7.5,7.5" transform="translate(-335.3)" fill="#ff8500"/>
    <path id="Path_12031" data-name="Path 12031" d="M7.421,100.8a7.5,7.5,0,0,0,.079,15,7.587,7.587,0,0,0,5.04-1.944h0a7.131,7.131,0,0,0,.754-.794H11.746a9.154,9.154,0,0,1-.556-.754h2.659a5.084,5.084,0,0,0,.437-.794H10.754a4.73,4.73,0,0,1-.317-.794h4.127a7.88,7.88,0,0,0,.4-2.381,10.242,10.242,0,0,0-.159-1.587H10.2a5.8,5.8,0,0,1,.2-.794h4.127a4.73,4.73,0,0,0-.317-.794H10.714a7.87,7.87,0,0,1,.437-.794H13.81a3.774,3.774,0,0,0-.6-.794H11.746a6.764,6.764,0,0,1,.754-.754,7.323,7.323,0,0,0-5.04-1.944C7.46,100.8,7.46,100.8,7.421,100.8Z" fill="#ff5050"/>
    <path id="Path_12032" data-name="Path 12032" d="M0,109.821a7.494,7.494,0,0,0,7.5,7.5,7.587,7.587,0,0,0,5.04-1.944h0a7.13,7.13,0,0,0,.754-.794H11.746a9.157,9.157,0,0,1-.556-.754h2.659a5.082,5.082,0,0,0,.437-.794H10.754a4.729,4.729,0,0,1-.317-.794h4.127a7.88,7.88,0,0,0,.4-2.381,10.243,10.243,0,0,0-.159-1.587H10.2a5.8,5.8,0,0,1,.2-.794h4.127a4.729,4.729,0,0,0-.317-.794H10.714a7.868,7.868,0,0,1,.437-.794H13.81a3.774,3.774,0,0,0-.6-.794H11.746a6.763,6.763,0,0,1,.754-.754A7.323,7.323,0,0,0,7.46,102.4h-.04" transform="translate(0 -1.521)" fill="#e52836"/>
    <path id="Path_12033" data-name="Path 12033" d="M149.679,117.321a7.587,7.587,0,0,0,5.04-1.944h0a7.129,7.129,0,0,0,.754-.794h-1.548a9.153,9.153,0,0,1-.556-.754h2.659a5.082,5.082,0,0,0,.437-.794h-3.532a4.729,4.729,0,0,1-.317-.794h4.127a7.88,7.88,0,0,0,.4-2.381,10.242,10.242,0,0,0-.159-1.587h-4.6a5.806,5.806,0,0,1,.2-.794H156.7a4.732,4.732,0,0,0-.317-.794h-3.492a7.87,7.87,0,0,1,.437-.794h2.659a3.774,3.774,0,0,0-.6-.794h-1.468a6.762,6.762,0,0,1,.754-.754,7.323,7.323,0,0,0-5.04-1.944h-.04" transform="translate(-142.179 -1.521)" fill="#cb2026"/>
    <g id="Group_5292" data-name="Group 5292" transform="translate(0.714 106.356)">
      <path id="Path_12034" data-name="Path 12034" d="M182.751,223.492l.119-.675a1.721,1.721,0,0,1-.2.04c-.278,0-.317-.159-.278-.238l.238-1.389h.437l.119-.754h-.4l.079-.476h-.794s-.476,2.619-.476,2.937a.6.6,0,0,0,.635.675A1.218,1.218,0,0,0,182.751,223.492Z" transform="translate(-173.306 -219.643)" fill="#fff"/>
      <path id="Path_12035" data-name="Path 12035" d="M210.4,230.489a1.262,1.262,0,0,0,1.389,1.389,2.06,2.06,0,0,0,.833-.119l.159-.754a2.379,2.379,0,0,1-.833.2c-.873,0-.714-.635-.714-.635h1.627a5.145,5.145,0,0,0,.119-.714,1.075,1.075,0,0,0-1.151-1.151C211,228.624,210.4,229.5,210.4,230.489Zm1.389-1.151c.437,0,.357.516.357.556h-.873C211.273,229.855,211.352,229.339,211.789,229.339Z" transform="translate(-200.678 -227.91)" fill="#fff"/>
      <path id="Path_12036" data-name="Path 12036" d="M298.183,216.649l.159-.873a1.95,1.95,0,0,1-.675.2c-.556,0-.794-.437-.794-.913,0-.952.476-1.468,1.032-1.468a1.325,1.325,0,0,1,.714.238l.119-.833a2.79,2.79,0,0,0-.913-.2c-.913,0-1.825.794-1.825,2.3,0,.992.476,1.667,1.429,1.667A3.562,3.562,0,0,0,298.183,216.649Z" transform="translate(-282.032 -212.8)" fill="#fff"/>
      <path id="Path_12037" data-name="Path 12037" d="M87.908,227.2a2.81,2.81,0,0,0-.952.159l-.119.675a2.346,2.346,0,0,1,.873-.159c.278,0,.516.04.516.278,0,.159-.04.2-.04.2h-.357c-.675,0-1.429.278-1.429,1.19,0,.714.476.873.754.873a1.192,1.192,0,0,0,.833-.357l-.04.317h.714l.317-2.183A.941.941,0,0,0,87.908,227.2Zm.159,1.786c0,.119-.079.754-.556.754a.31.31,0,0,1-.317-.317c0-.2.119-.476.714-.476A.626.626,0,0,0,88.067,228.986Z" transform="translate(-82.829 -226.486)" fill="#fff"/>
      <path id="Path_12038" data-name="Path 12038" d="M136.113,229.654a1.017,1.017,0,0,0,1.19-1.032c0-.992-.952-.794-.952-1.19,0-.2.159-.278.436-.278.119,0,.556.04.556.04l.119-.714a3.014,3.014,0,0,0-.754-.079c-.6,0-1.19.238-1.19,1.032,0,.913.992.833.992,1.19,0,.238-.278.278-.476.278a2.594,2.594,0,0,1-.714-.119l-.119.714C135.24,229.575,135.438,229.654,136.113,229.654Z" transform="translate(-129.208 -225.725)" fill="#fff"/>
      <path id="Path_12039" data-name="Path 12039" d="M429.462,214.4l-.159,1.071a1.1,1.1,0,0,0-.754-.4c-.714,0-1.349.873-1.349,1.9,0,.635.317,1.31.992,1.31a1.059,1.059,0,0,0,.754-.317l-.04.278h.794l.6-3.81Zm-.357,2.1c0,.437-.2.992-.635.992-.278,0-.437-.238-.437-.635,0-.635.278-1.032.635-1.032C428.946,215.829,429.1,216.027,429.1,216.5Z" transform="translate(-406.724 -214.321)" fill="#fff"/>
      <path id="Path_12040" data-name="Path 12040" d="M15.154,218.21l.476-2.857.079,2.857h.556l1.032-2.857-.437,2.857h.833l.635-3.809h-1.31l-.794,2.341-.04-2.341H15.035L14.4,218.21Z" transform="translate(-14.4 -214.321)" fill="#fff"/>
      <path id="Path_12041" data-name="Path 12041" d="M260.873,231.9c.238-1.31.278-2.381.833-2.183a3.115,3.115,0,0,1,.278-.913h-.159c-.357,0-.635.476-.635.476l.079-.436h-.754l-.516,3.1h.873Z" transform="translate(-247.817 -228.006)" fill="#fff"/>
      <path id="Path_12042" data-name="Path 12042" d="M347.908,227.2a2.81,2.81,0,0,0-.952.159l-.119.675a2.345,2.345,0,0,1,.873-.159c.278,0,.516.04.516.278,0,.159-.04.2-.04.2h-.357c-.675,0-1.429.278-1.429,1.19,0,.714.476.873.754.873a1.192,1.192,0,0,0,.833-.357l-.04.317h.714l.317-2.183A.927.927,0,0,0,347.908,227.2Zm.2,1.786c0,.119-.079.754-.556.754a.31.31,0,0,1-.317-.317c0-.2.119-.476.714-.476C348.067,228.986,348.067,228.986,348.106,228.986Z" transform="translate(-329.932 -226.486)" fill="#fff"/>
      <path id="Path_12043" data-name="Path 12043" d="M395.273,231.9c.238-1.31.278-2.381.833-2.183a3.113,3.113,0,0,1,.278-.913h-.159c-.357,0-.635.476-.635.476l.079-.436h-.754l-.516,3.1h.873Z" transform="translate(-375.551 -228.006)" fill="#fff"/>
    </g>
    <g id="Group_5293" data-name="Group 5293" transform="translate(0.714 106.356)">
      <path id="Path_12044" data-name="Path 12044" d="M180,222.936a.6.6,0,0,0,.635.675,1.51,1.51,0,0,0,.6-.119l.119-.675a1.719,1.719,0,0,1-.2.04c-.278,0-.317-.159-.278-.238l.238-1.389h.437l.119-.754h-.4l.079-.476" transform="translate(-171.786 -219.643)" fill="#dce5e5"/>
      <path id="Path_12045" data-name="Path 12045" d="M218.4,230.489c0,1.111.357,1.389.992,1.389a2.06,2.06,0,0,0,.833-.119l.159-.754a2.379,2.379,0,0,1-.833.2c-.873,0-.714-.635-.714-.635h1.627a5.146,5.146,0,0,0,.119-.714,1.075,1.075,0,0,0-1.151-1.151C218.6,228.624,218.4,229.5,218.4,230.489Zm.992-1.151c.437,0,.516.516.516.556h-1.032C218.876,229.855,218.956,229.339,219.392,229.339Z" transform="translate(-208.281 -227.91)" fill="#dce5e5"/>
      <path id="Path_12046" data-name="Path 12046" d="M305.786,216.649l.159-.873a1.95,1.95,0,0,1-.675.2c-.556,0-.794-.437-.794-.913,0-.952.476-1.468,1.032-1.468a1.325,1.325,0,0,1,.714.238l.119-.833a2.79,2.79,0,0,0-.913-.2c-.913,0-1.429.794-1.429,2.3,0,.992.079,1.667,1.032,1.667A3.562,3.562,0,0,0,305.786,216.649Z" transform="translate(-289.635 -212.8)" fill="#dce5e5"/>
      <path id="Path_12047" data-name="Path 12047" d="M86.837,229.594a2.346,2.346,0,0,1,.873-.159c.278,0,.516.04.516.278,0,.159-.04.2-.04.2h-.357c-.675,0-1.429.278-1.429,1.19,0,.714.476.873.754.873a1.192,1.192,0,0,0,.833-.357l-.04.317h.714l.317-2.183c0-.913-.794-.952-1.111-.952m.6,1.706a1.3,1.3,0,0,1-.952.754.31.31,0,0,1-.317-.317c0-.2.119-.476.714-.476A3.242,3.242,0,0,0,88.463,230.506Z" transform="translate(-82.829 -228.006)" fill="#dce5e5"/>
      <path id="Path_12048" data-name="Path 12048" d="M136,229.575a3.359,3.359,0,0,0,.913.079,1.017,1.017,0,0,0,1.19-1.032c0-.992-.952-.794-.952-1.19,0-.2.159-.278.436-.278.119,0,.556.04.556.04l.119-.714a3.014,3.014,0,0,0-.754-.079c-.6,0-.794.238-.794,1.032,0,.913.6.833.6,1.19,0,.238-.278.278-.476.278" transform="translate(-129.968 -225.725)" fill="#dce5e5"/>
      <path id="Path_12049" data-name="Path 12049" d="M436.851,216.232a1.1,1.1,0,0,0-.754-.4c-.714,0-.952.873-.952,1.9,0,.635-.079,1.31.6,1.31a1.06,1.06,0,0,0,.754-.317l-.04.278h.794l.6-3.81m-1.032,2.064c0,.436-.357.992-.794.992-.278,0-.437-.238-.437-.635,0-.635.278-1.032.635-1.032A.606.606,0,0,1,436.811,217.263Z" transform="translate(-414.272 -215.081)" fill="#dce5e5"/>
      <path id="Path_12050" data-name="Path 12050" d="M15.154,218.21l.476-2.857.079,2.857h.556l1.032-2.857-.437,2.857h.833l.635-3.809h-.992l-1.111,2.341-.04-2.341h-.437L14.4,218.21Z" transform="translate(-14.4 -214.321)" fill="#dce5e5"/>
      <path id="Path_12051" data-name="Path 12051" d="M260.8,231.9h.833c.238-1.31.278-2.381.833-2.183a3.113,3.113,0,0,1,.278-.913h-.159c-.357,0-.635.476-.635.476l.079-.436" transform="translate(-248.578 -228.006)" fill="#dce5e5"/>
      <path id="Path_12052" data-name="Path 12052" d="M346.837,229.594a2.346,2.346,0,0,1,.873-.159c.278,0,.516.04.516.278,0,.159-.04.2-.04.2h-.357c-.675,0-1.429.278-1.429,1.19,0,.714.476.873.754.873a1.192,1.192,0,0,0,.833-.357l-.04.317h.714l.317-2.183c0-.913-.794-.952-1.111-.952m.6,1.706a1.3,1.3,0,0,1-.952.754.31.31,0,0,1-.317-.317c0-.2.119-.476.714-.476A3.49,3.49,0,0,0,348.464,230.506Z" transform="translate(-329.932 -228.006)" fill="#dce5e5"/>
      <path id="Path_12053" data-name="Path 12053" d="M395.2,231.9h.833c.238-1.31.278-2.381.833-2.183a3.114,3.114,0,0,1,.278-.913h-.159c-.357,0-.635.476-.635.476l.079-.436" transform="translate(-376.311 -228.006)" fill="#dce5e5"/>
    </g>
  </g>
</svg>
