<svg xmlns="http://www.w3.org/2000/svg" width="38" height="38" viewBox="0 0 38 38">
  <g id="MobileBanking" transform="translate(-453 -229)">
    <circle id="Ellipse_85" data-name="Ellipse 85" cx="19" cy="19" r="19" transform="translate(453 229)" fill="#d3d3d3"/>
    <g id="Group_8246" data-name="Group 8246" transform="translate(-691.559 -265.133)">
      <g id="Group_8240" data-name="Group 8240" transform="translate(1151.558 501.133)" opacity="0">
        <rect id="Rectangle_1415" data-name="Rectangle 1415" width="24" height="24" transform="translate(0 0)" fill="#fff"/>
      </g>
      <g id="Group_8245" data-name="Group 8245" transform="translate(1156.866 502.041)">
        <g id="Group_8241" data-name="Group 8241" transform="translate(2.147 6.349)">
          <path id="Path_13359" data-name="Path 13359" d="M1176.128,529.866a4.69,4.69,0,1,1,4.691-4.69A4.7,4.7,0,0,1,1176.128,529.866Zm0-8.631a3.94,3.94,0,1,0,3.941,3.94A3.945,3.945,0,0,0,1176.128,521.235Z" transform="translate(-1171.438 -520.485)"/>
        </g>
        <g id="Group_1" data-name="Group 1" transform="translate(4.512 8.083)">
          <g id="Path_1" data-name="Path 1" transform="translate(0.18 0.257)">
            <path id="Path_13360" data-name="Path 13360" d="M1181.037,531.348l-1.339-1.263c-.589-.557-.962-.91-1.186-1.146-.021-.016-.04-.032-.06-.05l-.057-.051.012-.015c-.267-.308-.2-.376-.058-.535.094-.1.3-.234.6.043.144.129.522.025,1.011-.279.938-.582.207-1.816.176-1.869l.64-.39a2.051,2.051,0,0,1-.419,2.9,3.564,3.564,0,0,1-.687.341c.555.526,1.3,1.231,1.876,1.771Z" transform="translate(-1178.224 -525.793)"/>
          </g>
          <g id="Line_6" data-name="Line 6">
            <path id="Path_13361" data-name="Path 13361" d="M1182.021,525.858h-3.9a.375.375,0,0,1,0-.75h3.9a.375.375,0,0,1,0,.75Z" transform="translate(-1177.745 -525.108)"/>
          </g>
          <g id="Line_7" data-name="Line 7" transform="translate(0 1.364)">
            <path id="Path_13362" data-name="Path 13362" d="M1182.021,529.5h-3.9a.375.375,0,0,1,0-.75h3.9a.375.375,0,0,1,0,.75Z" transform="translate(-1177.745 -528.746)"/>
          </g>
        </g>
        <g id="Group_8242" data-name="Group 8242" transform="translate(0 0)">
          <path id="Path_13363" data-name="Path 13363" d="M1176.647,524.813h-8.671a2.121,2.121,0,0,1-2.122-2.122c0-1.634-.141-16.567-.142-16.717l0-.041a2.621,2.621,0,0,1,2.694-2.379h8.1c.873.03,2.5.523,2.5,2.177v16.721A2.28,2.28,0,0,1,1176.647,524.813Zm-10.185-18.823c.006.675.142,15.094.142,16.7a1.392,1.392,0,0,0,1.392,1.373h8.651a1.554,1.554,0,0,0,1.611-1.614V505.731c0-1.351-1.69-1.425-1.762-1.428h-8.088A1.867,1.867,0,0,0,1166.462,505.99Z" transform="translate(-1165.712 -503.554)"/>
        </g>
        <g id="Group_8243" data-name="Group 8243" transform="translate(3.384 0.375)">
          <path id="Path_13364" data-name="Path 13364" d="M1180.082,507.166h-3.87a1.56,1.56,0,0,1-1.473-1.425l0-.051v-1.138h.75v1.108c.025.14.166.755.726.755h3.755c.23-.081.727-.328.727-.667v-1.2h.75v1.2c0,.8-.823,1.257-1.31,1.4Z" transform="translate(-1174.736 -504.553)"/>
        </g>
        <g id="Group_8244" data-name="Group 8244" transform="translate(5.261 18.522)">
          <rect id="Rectangle_1416" data-name="Rectangle 1416" width="2.819" height="0.75"/>
        </g>
      </g>
    </g>
  </g>
</svg>
