<svg xmlns="http://www.w3.org/2000/svg" width="38" height="38" viewBox="0 0 38 38">
  <g id="Non_Video" data-name="Non Video" transform="translate(-1080 -627)">
    <g id="Group_8103" data-name="Group 8103" transform="translate(1080 627)">
      <circle id="Ellipse_68" data-name="Ellipse 68" cx="18.765" cy="18.765" r="18.765" transform="translate(0.235 0.235)" fill="#d3d3d3"/>
      <path id="Path_13249" data-name="Path 13249" d="M1275.5,118.5a18.916,18.916,0,0,1-10.623-3.245,19.051,19.051,0,0,1-6.883-8.359,18.977,18.977,0,0,1,1.752-18.019,19.053,19.053,0,0,1,8.359-6.883,18.976,18.976,0,0,1,18.019,1.752,19.053,19.053,0,0,1,6.883,8.359,18.976,18.976,0,0,1-1.752,18.019,19.054,19.054,0,0,1-8.359,6.883A18.882,18.882,0,0,1,1275.5,118.5Zm0-37.531A18.531,18.531,0,1,0,1294.031,99.5,18.552,18.552,0,0,0,1275.5,80.969Z" transform="translate(-1256.5 -80.5)" fill="#d3d3d3"/>
    </g>
    <g id="Group_8117" data-name="Group 8117" transform="translate(1089.975 637.925)">
      <g id="Group_8104" data-name="Group 8104" transform="translate(0 0)">
        <path id="Path_13250" data-name="Path 13250" d="M1283.939,93.844H1265.98l8.979-5.52,2.06,1.265Zm-15.386-.727h12.815l-4.729-2.908-1.679-1.031Z" transform="translate(-1265.98 -88.324)"/>
      </g>
      <g id="Group_8105" data-name="Group 8105" transform="translate(0.923 4.792)">
        <path id="Path_13251" data-name="Path 13251" d="M1285.226,106.686h-16.114v-1.733h.727v1.006h14.66v-.642h-3.375v-.727h4.1Z" transform="translate(-1269.111 -104.589)"/>
      </g>
      <g id="Group_8106" data-name="Group 8106" transform="translate(2.306 6.525)">
        <path id="Path_13252" data-name="Path 13252" d="M1277.043,112.022h-3.235v-1.553h.728v.826h1.78v-.826h.728Z" transform="translate(-1273.808 -110.469)"/>
      </g>
      <g id="Group_8107" data-name="Group 8107" transform="translate(7.364 6.525)">
        <path id="Path_13253" data-name="Path 13253" d="M1294.21,112.022h-3.235v-1.553h.727v.826h1.78v-.826h.728Z" transform="translate(-1290.975 -110.469)"/>
      </g>
      <g id="Group_8108" data-name="Group 8108" transform="translate(0.923 7.713)">
        <path id="Path_13254" data-name="Path 13254" d="M1285.882,123.415h-16.771v-1.927h.952v.727h-.224v.473h15.315v-.473h-1.1v-1.262h-13.566v-1.986h.524V114.5h.728v5.191h-.524v.531h13.566v1.262h1.1Z" transform="translate(-1269.111 -114.504)"/>
      </g>
      <g id="Group_8109" data-name="Group 8109" transform="translate(4.206 7.714)">
        <path id="Path_13255" data-name="Path 13255" d="M1281.592,120.591h-.728v-.921h-.607v-5.165h.727v4.438h.607Z" transform="translate(-1280.257 -114.506)"/>
      </g>
      <g id="Group_8110" data-name="Group 8110" transform="translate(9.258 7.714)">
        <path id="Path_13256" data-name="Path 13256" d="M1298.738,120.591h-.727v-.921h-.607v-5.165h.727v4.438h.607Z" transform="translate(-1297.403 -114.506)"/>
      </g>
      <g id="Group_8111" data-name="Group 8111" transform="translate(7.365 7.714)">
        <path id="Path_13257" data-name="Path 13257" d="M1291.7,120.591h-.728v-1.648h.607v-4.438h.727v5.165h-.607Z" transform="translate(-1290.976 -114.506)"/>
      </g>
      <g id="Group_8112" data-name="Group 8112" transform="translate(12.608 6.525)">
        <path id="Path_13258" data-name="Path 13258" d="M1312.009,112.022h-3.235v-1.553h.728v.826h1.78v-.826h.727Z" transform="translate(-1308.774 -110.469)"/>
      </g>
      <g id="Group_8113" data-name="Group 8113" transform="translate(14.502 7.714)">
        <path id="Path_13259" data-name="Path 13259" d="M1316.536,120.591h-.727v-.921h-.607v-5.165h.728v4.438h.607Z" transform="translate(-1315.202 -114.506)"/>
      </g>
      <g id="Group_8114" data-name="Group 8114" transform="translate(12.609 7.714)">
        <path id="Path_13260" data-name="Path 13260" d="M1309.5,120.591h-.727v-1.648h.607v-4.438h.728v5.165h-.607Z" transform="translate(-1308.775 -114.506)"/>
      </g>
      <g id="Group_8115" data-name="Group 8115" transform="translate(1.515 13.436)">
        <path id="Path_13261" data-name="Path 13261" d="M1285.946,135.915h-14.824v-1.989h1.156v.727h-.429v.534h14.1Z" transform="translate(-1271.121 -133.926)"/>
      </g>
      <g id="Group_8116" data-name="Group 8116" transform="translate(7.355 1.455)">
        <path id="Path_13262" data-name="Path 13262" d="M1292.568,96.514a1.625,1.625,0,1,1,1.625-1.625A1.627,1.627,0,0,1,1292.568,96.514Zm0-2.523a.9.9,0,1,0,.9.9A.9.9,0,0,0,1292.568,93.991Z" transform="translate(-1290.943 -93.264)"/>
      </g>
    </g>
  </g>
</svg>
