<svg xmlns="http://www.w3.org/2000/svg" width="242.876" height="170" viewBox="0 0 242.876 170">
  <g id="Group_6457" data-name="Group 6457" transform="translate(-85.417 -88.305)">
    <circle id="Ellipse_9" data-name="Ellipse 9" cx="85" cy="85" r="85" transform="translate(128.429 88.305)" fill="#dbe8ec"/>
    <path id="Path_13930" data-name="Path 13930" d="M328.293,162.008v-9.179a6.6,6.6,0,0,0-6.6-6.6H298.4a6.6,6.6,0,0,1-6.6-6.6v-9.18a6.6,6.6,0,0,1,6.6-6.6h.735a6.6,6.6,0,0,0,6.6-6.6h0v-9.18a6.6,6.6,0,0,0-6.6-6.6H129.879a6.6,6.6,0,0,0-6.6,6.6h0v9.18a6.6,6.6,0,0,0,6.6,6.6h0a6.6,6.6,0,0,1,6.6,6.6v9.18a6.6,6.6,0,0,1-6.6,6.6H104.356a6.6,6.6,0,0,0-6.6,6.6h0v9.179a6.6,6.6,0,0,0,6.6,6.6h10.007a6.6,6.6,0,0,1,6.6,6.6v9.173a6.6,6.6,0,0,1-6.6,6.6h-.012a6.6,6.6,0,0,0-6.6,6.6h0v9.179a6.6,6.6,0,0,0,6.6,6.6H115.8a6.6,6.6,0,0,1,6.6,6.6v9.18a6.6,6.6,0,0,1-6.6,6.6H92.016a6.6,6.6,0,0,0-6.6,6.6v9.179a6.6,6.6,0,0,0,6.6,6.6h210.66a6.6,6.6,0,0,0,6.6-6.6h0v-9.18a6.6,6.6,0,0,0-6.6-6.6h-5.724a6.6,6.6,0,0,1-6.6-6.6h0v-9.18a6.6,6.6,0,0,1,6.6-6.6h13.493a6.6,6.6,0,0,0,6.6-6.6h0v-9.168a6.6,6.6,0,0,0-6.6-6.6h-4.092a6.6,6.6,0,0,1-6.6-6.6h0v-9.18a6.6,6.6,0,0,1,6.6-6.6h15.339a6.6,6.6,0,0,0,6.6-6.6Z" transform="translate(0 -6.493)" fill="#dbe8ec"/>
    <path id="Line_2" data-name="Line 2" d="M16.373,1.5H0A1.5,1.5,0,0,1-1.5,0,1.5,1.5,0,0,1,0-1.5H16.373a1.5,1.5,0,0,1,1.5,1.5A1.5,1.5,0,0,1,16.373,1.5Z" transform="translate(237.153 90.259)" fill="#b9d4db"/>
    <path id="Line_3" data-name="Line 3" d="M16.373,1.5H0A1.5,1.5,0,0,1-1.5,0,1.5,1.5,0,0,1,0-1.5H16.373a1.5,1.5,0,0,1,1.5,1.5A1.5,1.5,0,0,1,16.373,1.5Z" transform="translate(237.153 94.977)" fill="#b9d4db"/>
    <path id="Line_4" data-name="Line 4" d="M16.373,1.5H0A1.5,1.5,0,0,1-1.5,0,1.5,1.5,0,0,1,0-1.5H16.373a1.5,1.5,0,0,1,1.5,1.5A1.5,1.5,0,0,1,16.373,1.5Z" transform="translate(237.153 99.697)" fill="#b9d4db"/>
    <path id="Line_5" data-name="Line 5" d="M16.374,1.5H0A1.5,1.5,0,0,1-1.5,0,1.5,1.5,0,0,1,0-1.5H16.374a1.5,1.5,0,0,1,1.5,1.5A1.5,1.5,0,0,1,16.374,1.5Z" transform="translate(102.517 190.492)" fill="#b9d4db"/>
    <path id="Line_6" data-name="Line 6" d="M16.374,1.5H0A1.5,1.5,0,0,1-1.5,0,1.5,1.5,0,0,1,0-1.5H16.374a1.5,1.5,0,0,1,1.5,1.5A1.5,1.5,0,0,1,16.374,1.5Z" transform="translate(102.517 195.211)" fill="#b9d4db"/>
    <path id="Line_7" data-name="Line 7" d="M16.374,1.5H0A1.5,1.5,0,0,1-1.5,0,1.5,1.5,0,0,1,0-1.5H16.374a1.5,1.5,0,0,1,1.5,1.5A1.5,1.5,0,0,1,16.374,1.5Z" transform="translate(102.517 199.931)" fill="#b9d4db"/>
    <path id="Line_8" data-name="Line 8" d="M16.374,1.5H0A1.5,1.5,0,0,1-1.5,0,1.5,1.5,0,0,1,0-1.5H16.374a1.5,1.5,0,0,1,1.5,1.5A1.5,1.5,0,0,1,16.374,1.5Z" transform="translate(298.427 233.742)" fill="#b9d4db"/>
    <path id="Line_9" data-name="Line 9" d="M16.374,1.5H0A1.5,1.5,0,0,1-1.5,0,1.5,1.5,0,0,1,0-1.5H16.374a1.5,1.5,0,0,1,1.5,1.5A1.5,1.5,0,0,1,16.374,1.5Z" transform="translate(298.427 238.461)" fill="#b9d4db"/>
    <path id="Line_10" data-name="Line 10" d="M16.374,1.5H0A1.5,1.5,0,0,1-1.5,0,1.5,1.5,0,0,1,0-1.5H16.374a1.5,1.5,0,0,1,1.5,1.5A1.5,1.5,0,0,1,16.374,1.5Z" transform="translate(298.427 243.181)" fill="#b9d4db"/>
    <circle id="Ellipse_10" data-name="Ellipse 10" cx="6.998" cy="6.998" r="6.998" transform="translate(312.271 139.111)" fill="#b9d4db"/>
    <circle id="Ellipse_11" data-name="Ellipse 11" cx="3.628" cy="3.628" r="3.628" transform="translate(297.172 147.532)" fill="#b9d4db"/>
    <circle id="Ellipse_12" data-name="Ellipse 12" cx="5.184" cy="5.184" r="5.184" transform="translate(304.83 123.801)" fill="#b9d4db"/>
    <circle id="Ellipse_15" data-name="Ellipse 15" cx="2.502" cy="2.502" r="2.502" transform="translate(101.38 228.176)" fill="#b9d4db"/>
    <circle id="Ellipse_16" data-name="Ellipse 16" cx="5.997" cy="5.997" r="5.997" transform="translate(110.289 218.273)" fill="#b9d4db"/>
    <circle id="Ellipse_17" data-name="Ellipse 17" cx="8.327" cy="8.327" r="8.327" transform="translate(159.306 118.81) rotate(-79.099)" fill="#b9d4db"/>
    <circle id="Ellipse_18" data-name="Ellipse 18" cx="4.337" cy="4.337" r="4.337" transform="translate(165.058 90.893)" fill="#b9d4db"/>
    <circle id="Ellipse_19" data-name="Ellipse 19" cx="3.754" cy="3.754" r="3.754" transform="translate(194.53 94.011)" fill="#b9d4db"/>
    <circle id="Ellipse_20" data-name="Ellipse 20" cx="2.502" cy="2.502" r="2.502" transform="translate(182.126 91.615)" fill="#b9d4db"/>
    <circle id="Ellipse_21" data-name="Ellipse 21" cx="5.997" cy="5.997" r="5.997" transform="translate(181.537 101.775)" fill="#b9d4db"/>
    <path id="Path_13931" data-name="Path 13931" d="M430.109,237.956l-55.356,29.818V200.132l55.356-17.282Z" transform="translate(-142.68 -46.626)" fill="#1c3371"/>
    <path id="Path_13932" data-name="Path 13932" d="M297.894,188.985l-65.347-6.611-13.392-19.757a1.52,1.52,0,0,1,1.258-2.374h61.557a1.52,1.52,0,0,1,1.348.817Z" transform="translate(-65.822 -35.475)" fill="#16295c"/>
    <path id="Path_13933" data-name="Path 13933" d="M311.179,278.154l-65.347-6.611V203.907l65.347,6.611Z" transform="translate(-79.105 -57.006)" fill="#16295c"/>
    <path id="Path_13934" data-name="Path 13934" d="M277.1,362.054l-66.676-2.66,17.946-22.047,65.347,6.611-15.413,17.581A1.519,1.519,0,0,1,277.1,362.054Z" transform="translate(-61.645 -122.809)" fill="#16295c"/>
    <path id="Path_13935" data-name="Path 13935" d="M362.784,194.01l55.356-17.282-67.658-6.3Z" transform="translate(-130.704 -40.497)" fill="#2e4789"/>
    <path id="Path_13936" data-name="Path 13936" d="M245.832,271.544l65.347-30.513V210.518l-65.347-6.611Z" transform="translate(-79.105 -57.006)" fill="#5c6c98"/>
  </g>
</svg>
