<svg xmlns="http://www.w3.org/2000/svg" xmlns:xlink="http://www.w3.org/1999/xlink" width="357.598" height="204.328" viewBox="0 0 357.598 204.328">
  <defs>
    <clipPath id="clip-path">
      <rect id="Rectangle_3116" data-name="Rectangle 3116" width="357.598" height="204.328" fill="none"/>
    </clipPath>
    <clipPath id="clip-path-2">
      <path id="Path_84409" data-name="Path 84409" d="M1652.355,1170.164s-3.365-8.129-2.818-9.17c.723-1.368,2.262.656,2.773.65s.107-1.346,1.461-1.566c1.04-.167,1.309,1.374,2.33,1.207s.867-2.116,2.026-1.319c1.017.7-.287,9.638-.287,9.638l-5.482.554Z" transform="translate(-1649.477 -1159.776)" fill="none"/>
    </clipPath>
    <clipPath id="clip-path-3">
      <path id="Path_84427" data-name="Path 84427" d="M1616.711,1273.26a8.394,8.394,0,0,1,2.866,1.238c7.586,5.123,9.794,16.837,10.432,22.755a3.666,3.666,0,0,1-3.153,4.025l-9.126,1.235-9.126,1.234a3.665,3.665,0,0,1-4.112-3.043c-.957-5.875-1.94-17.754,4.013-24.708a8.394,8.394,0,0,1,2.435-1.954l5.768-.781Z" transform="translate(-1603.773 -1273.26)" fill="none"/>
    </clipPath>
  </defs>
  <g id="Group_8747" data-name="Group 8747" transform="translate(-1000.402 -106.054)">
    <g id="Group_8746" data-name="Group 8746">
      <g id="Untitled-7" transform="translate(1000.402 106.054)">
        <g id="Group_8585" data-name="Group 8585" clip-path="url(#clip-path)">
          <path id="Path_84405" data-name="Path 84405" d="M357.49,204.149H-.12V-.2H357.49V204.149Z" transform="translate(0.108 0.18)" fill="#f4f6fa"/>
        </g>
        <path id="Path_84406" data-name="Path 84406" d="M337.066,680.586H618.538c5.33,0-2.721-49.6-4.135-54.754-7.8-28.452-26.606-58.753-57.9-66.417-44.379-10.864-79.724,14.233-112.781,39.343-13.29,10.1-26.912,20.384-43.928,23.517-14.706,2.708-31,3.466-44.036,11.333-15.837,9.56-22.575,29.716-18.684,46.978Z" transform="translate(-302.508 -496.309)" fill="#f4f7fc"/>
        <path id="Path_84407" data-name="Path 84407" d="M1652.355,1170.164s-3.365-8.129-2.818-9.17c.723-1.368,2.262.656,2.773.65s.107-1.346,1.461-1.566c1.04-.167,1.309,1.374,2.33,1.207s.867-2.116,2.026-1.319c1.017.7-.287,9.638-.287,9.638l-5.482.554Z" transform="translate(-1480.833 -1041.117)" fill="#f8ddc1"/>
        <g id="Group_8586" data-name="Group 8586" transform="translate(168.644 118.659)" clip-path="url(#clip-path-2)">
          <path id="Path_84408" data-name="Path 84408" d="M1651.414,1207.276a8.741,8.741,0,0,0,3.372.014c.454-.087,1-.184,1.319.152a1.247,1.247,0,0,1,.225.911c-.039,1.185-.355,2.528-1.4,3.089a3.827,3.827,0,0,1-1.842.318,9.419,9.419,0,0,1-4.649-.881,4.018,4.018,0,0,1-2.093-3.045c-.033-.47.044-.919.528-1.1a3.962,3.962,0,0,1,1.993-.069c.86.148,1.694.432,2.544.6Z" transform="translate(-1646.656 -1201.911)" fill="#dec2a1"/>
        </g>
        <path id="Path_84410" data-name="Path 84410" d="M553.564,777.071,605.34,746l51.775,31.071A2.161,2.161,0,0,1,656,781.085H554.677A2.161,2.161,0,0,1,553.564,777.071Z" transform="translate(-495.459 -669.379)" fill="#cee4f7"/>
        <path id="Path_84411" data-name="Path 84411" d="M671.36,797.51l22.76,13.159,22.76,13.159H625.84l22.76-13.159,22.76-13.159Z" transform="translate(-561.342 -715.721)" fill="#b1cfed"/>
        <path id="Path_84412" data-name="Path 84412" d="M1019.9,869.016a7.8,7.8,0,1,1-7.8-7.8,7.8,7.8,0,0,1,7.8,7.8Z" transform="translate(-901.578 -773.043)" fill="#cee4f7"/>
        <path id="Path_84413" data-name="Path 84413" d="M1033.228,883.989a6.139,6.139,0,1,1-6.139-6.139,6.139,6.139,0,0,1,6.139,6.139Z" transform="translate(-916.542 -788.012)" fill="#b1cfed"/>
        <path id="Path_84414" data-name="Path 84414" d="M740.427,1159.151H655.25V1098.01h85.177v61.141Z" transform="translate(-587.77 -983.564)" fill="#cee4f7"/>
        <path id="Path_84415" data-name="Path 84415" d="M740.427,1101.878H655.25v-3.868h85.177v3.868Z" transform="translate(-587.77 -985.767)" fill="#b1cfed"/>
        <path id="Path_84416" data-name="Path 84416" d="M738.68,1194.093h-7.05V1136.82h7.05v57.273Z" transform="translate(-656.839 -1018.506)" fill="#b1cfed"/>
        <path id="Path_84417" data-name="Path 84417" d="M1362.371,1194.093h-7.051V1136.82h7.051v57.273Z" transform="translate(-1216.771 -1018.506)" fill="#b1cfed"/>
        <path id="Path_84418" data-name="Path 84418" d="M974.812,1360.582H948v-25.436a13.406,13.406,0,0,1,13.406-13.406h0a13.406,13.406,0,0,1,13.406,13.406Z" transform="translate(-850.941 -1184.995)" fill="#182b53"/>
        <path id="Path_84419" data-name="Path 84419" d="M663.692,1708.075H559.41v-2.8H663.692v2.8Z" transform="translate(-501.655 -1530.307)" fill="#cee4f7"/>
        <path id="Path_84420" data-name="Path 84420" d="M618.943,1739.8H503.52v-6.48H618.943v6.48Z" transform="translate(-453.334 -1555.552)" fill="#b1cfed"/>
        <path id="Path_84421" data-name="Path 84421" d="M869.475,1189.68H862v-6.666a3.734,3.734,0,0,1,3.734-3.734h0a3.734,3.734,0,0,1,3.742,3.734Z" transform="translate(-773.879 -1058.625)" fill="#b1cfed"/>
        <path id="Path_84422" data-name="Path 84422" d="M994.117,1189.68H986.65v-6.666a3.734,3.734,0,0,1,3.734-3.734h0a3.734,3.734,0,0,1,3.734,3.734Z" transform="translate(-885.786 -1058.625)" fill="#b1cfed"/>
        <path id="Path_84423" data-name="Path 84423" d="M1115.565,1189.68H1108.1v-6.666a3.735,3.735,0,0,1,3.735-3.734h0a3.733,3.733,0,0,1,3.734,3.734v6.666Z" transform="translate(-994.82 -1058.625)" fill="#b1cfed"/>
        <path id="Path_84424" data-name="Path 84424" d="M1235.588,1189.68h-7.468v-6.666a3.734,3.734,0,0,1,3.734-3.734h0a3.734,3.734,0,0,1,3.734,3.734Z" transform="translate(-1102.571 -1058.625)" fill="#b1cfed"/>
        <path id="Path_84425" data-name="Path 84425" d="M1616.711,1273.26a8.394,8.394,0,0,1,2.866,1.238c7.586,5.123,9.794,16.837,10.432,22.755a3.666,3.666,0,0,1-3.153,4.025l-9.126,1.235-9.126,1.234a3.665,3.665,0,0,1-4.112-3.043c-.957-5.875-1.94-17.754,4.013-24.708a8.394,8.394,0,0,1,2.435-1.954l5.768-.781Z" transform="translate(-1439.582 -1142.589)" fill="#f8ddc1"/>
        <g id="Group_8587" data-name="Group 8587" transform="translate(164.191 130.671)" clip-path="url(#clip-path-3)">
          <path id="Path_84426" data-name="Path 84426" d="M1616.864,1260.09a3.846,3.846,0,0,1-1.994.766l-2.99.532a6.095,6.095,0,0,0-5.628,4.346,8.014,8.014,0,0,1-2.405,3.268,2.778,2.778,0,0,1-3.7-.321,4.059,4.059,0,0,1-.513-2.4c-.01-2.791.1-5.895,2.04-7.9,1.734-1.794,4.423-2.165,6.9-2.428a23.26,23.26,0,0,1,5.482-.122,10,10,0,0,1,2.533.681c.543.226.914.447.985,1.072a2.964,2.964,0,0,1-.711,2.505Z" transform="translate(-1600.047 -1257.462)" fill="#dec2a1"/>
        </g>
        <path id="Path_84428" data-name="Path 84428" d="M1580.223,1225.48h-9.24a6.231,6.231,0,0,0-2.232.413L1560.63,1229l2.913,7.525,8.372-4.878s7.065.321,8-.286c.653-.423,1.114-3.107,1.335-4.7a1.04,1.04,0,0,0-1.031-1.183Z" transform="translate(-1400.928 -1100.088)" fill="#fabfb2"/>
        <path id="Path_84429" data-name="Path 84429" d="M1028.075,1259.468l14.744-1.2a7.737,7.737,0,0,0,2.163-.5l30.783-11.916,3.74,9.662-30.389,15.722a9.652,9.652,0,0,1-2.89.955l-16.286,2.625a7.736,7.736,0,0,1-8.971-7.638h0a7.736,7.736,0,0,1,7.107-7.71Z" transform="translate(-916.138 -1118.024)" fill="#e6525c"/>
        <path id="Path_84430" data-name="Path 84430" d="M1670.917,1224.471h-7.541a.126.126,0,1,1,0-.251h7.541a.126.126,0,0,1,0,.251Z" transform="translate(-1493.214 -1099.132)" fill="#182b53"/>
        <path id="Path_84431" data-name="Path 84431" d="M1550.717,1245.88l3.74,9.662-3.165,1.639-2.791-10.443,2.217-.858Z" transform="translate(-1390.216 -1118.395)" fill="#fff"/>
        <path id="Path_84432" data-name="Path 84432" d="M1720.373,1256.886a.746.746,0,1,1-.745-.746A.746.746,0,0,1,1720.373,1256.886Z" transform="translate(-1543.236 -1127.771)" fill="#182b53"/>
        <path id="Path_84433" data-name="Path 84433" d="M1697.622,558.591a22.771,22.771,0,1,1-22.771-22.771A22.771,22.771,0,0,1,1697.622,558.591Z" transform="translate(-1482.659 -480.676)" fill="#cee4f7"/>
        <path id="Path_84434" data-name="Path 84434" d="M1694.008,557.369a20.4,20.4,0,1,0,20.4,20.4A20.422,20.422,0,0,0,1694.008,557.369Zm0,41.047a20.648,20.648,0,1,1,20.648-20.648A20.671,20.671,0,0,1,1694.008,598.416Z" transform="translate(-1501.823 -499.832)" fill="#182b53"/>
        <path id="Path_84435" data-name="Path 84435" d="M1793.213,664.711l-3.616-3.661-12.655,12.5-5.76-5.668-3.572,3.63,6.526,6.421,2.811,2.846,16.267-16.071Z" transform="translate(-1588.227 -593.001)" fill="#182b53"/>
        <path id="Path_84436" data-name="Path 84436" d="M2641.144,299.647h0a1.113,1.113,0,0,0-1.56-.212l-4.561,3.469-1.385-3.034a.657.657,0,0,0-1.244.387l1,5.635-7.408,23.522a3.664,3.664,0,0,0,2.883,4.629h0a3.664,3.664,0,0,0,4.253-3.011l4.983-24.247,2.318-1.763a3.839,3.839,0,0,0,.732-5.382Z" transform="translate(-2357.227 -269.385)" fill="#fabfb2"/>
        <path id="Path_84437" data-name="Path 84437" d="M2095.179,308.342h0a1.113,1.113,0,0,1,1.561-.213l4.561,3.469,1.386-3.033a.656.656,0,0,1,1.242.387l-1,5.634,7.411,23.526a3.665,3.665,0,0,1-2.881,4.629h0a3.666,3.666,0,0,1-4.254-3.011l-4.983-24.247-2.319-1.763a3.839,3.839,0,0,1-.733-5.382Z" transform="translate(-1880.143 -276.278)" fill="#fabfb2"/>
        <path id="Path_84438" data-name="Path 84438" d="M2582.682,1442.458l-2.739-.758-.722,4.441,1.984.449,1.478-4.132Z" transform="translate(-2315.625 -1294.304)" fill="#8bbce5"/>
        <path id="Path_84439" data-name="Path 84439" d="M2589.7,1449.56l2.74.078a4.7,4.7,0,0,1,2.228.633l.8.463-7.345,13.01h0a2.035,2.035,0,0,1-1.005-1.955l.785-8.228,1.8-4Z" transform="translate(-2322.612 -1301.174)" fill="#182b53"/>
        <path id="Path_84440" data-name="Path 84440" d="M2227.049,586.157c-2.242-1.442-4.479-3.112-6.8-4.357-3.1,3.979-6.08,8.229-10.127,11.312-1.734,1.32-3.874,1.177-5.935,1.176-1.877,0-3.755-.025-5.63,0-1.219.016-2.638.193-3.734-.475-1.538-.94-2.605-2.586-3.836-3.873q-1.872-1.958-3.742-3.921c-.3-.319-4.342-4.893-4.552-4.77l-7.49,4.365,12.957,17.3.66,26.643h25.089l.358-25.721Z" transform="translate(-1952 -521.392)" fill="#578cc9"/>
        <path id="Path_84441" data-name="Path 84441" d="M2412.79,634.037h0a2.665,2.665,0,0,0,3.365-1.993l1.955-9.1-3.61-1.074-3.427,8.63a2.666,2.666,0,0,0,1.717,3.538Z" transform="translate(-2164.427 -558.229)" fill="#fabfb2"/>
        <path id="Path_84442" data-name="Path 84442" d="M2385.19,529.529l-11.421-3.4-.115.737a38.6,38.6,0,0,1-1.929,7.475,7.554,7.554,0,0,0-.513,3.9,4.917,4.917,0,0,0,5.476,4c2.613-.374,7.157-2.629,8.5-12.708Z" transform="translate(-2128.608 -472.257)" fill="#fabfb2"/>
        <path id="Path_84443" data-name="Path 84443" d="M2409.9,586.721a.12.12,0,0,1-.036,0l-1.055-.314a.552.552,0,0,1-.31-.823l1.893-3.031a.127.127,0,0,1,.113-.065.125.125,0,0,1,.1.2l-1.894,3.031a.3.3,0,0,0,.17.45l1.054.314a.126.126,0,0,1-.035.245Z" transform="translate(-2162.293 -522.937)" fill="#182b53"/>
        <path id="Path_84444" data-name="Path 84444" d="M2442.128,587.46c-.1.32.26-.007.58.088s.484.578.58.257a.605.605,0,0,0-1.16-.345Z" transform="translate(-2192.569 -527.041)" fill="#182b53"/>
        <path id="Path_84445" data-name="Path 84445" d="M2400.979,573.972c-.095.321.26,0,.58.1s.485.567.58.247a.605.605,0,1,0-1.16-.346Z" transform="translate(-2155.626 -514.933)" fill="#182b53"/>
        <path id="Path_84446" data-name="Path 84446" d="M2442.624,565.922l2.1,1.328a.333.333,0,0,0,.459-.1h0a.332.332,0,0,0-.1-.457l-2.1-1.328a.331.331,0,0,0-.458.1h0A.331.331,0,0,0,2442.624,565.922Z" transform="translate(-2192.865 -507.538)" fill="#182b53"/>
        <path id="Path_84447" data-name="Path 84447" d="M2397.587,559.378l2.492-.088a.332.332,0,0,0,.319-.343h0a.332.332,0,0,0-.344-.32l-2.487.088a.331.331,0,0,0-.32.343h0a.331.331,0,0,0,.342.32Z" transform="translate(-2152.256 -501.545)" fill="#182b53"/>
        <path id="Path_84448" data-name="Path 84448" d="M2403.6,637.385h-.027l-2.963-.634a.126.126,0,1,1,.052-.246l2.964.636a.128.128,0,0,1,.081.054.126.126,0,0,1-.1.2Z" transform="translate(-2155.181 -571.461)" fill="#182b53"/>
        <path id="Path_84449" data-name="Path 84449" d="M2419.7,677.987a.125.125,0,0,1,0-.25,7.042,7.042,0,0,0,3.221-1,.126.126,0,0,1,.2.1.129.129,0,0,1-.063.113,7.151,7.151,0,0,1-3.351,1.038Z" transform="translate(-2172.289 -607.562)" fill="#182b53"/>
        <path id="Path_84450" data-name="Path 84450" d="M2491.233,552.847s-1.359,3.97-.588,4.884,1.449-.2,1.449-.2,2.583-3.707.666-5.268C2491.586,551.308,2491.233,552.847,2491.233,552.847Z" transform="translate(-2235.898 -495.511)" fill="#182b53"/>
        <path id="Path_84451" data-name="Path 84451" d="M2489.747,591.947c-.308,1.033.015,2.04.719,2.251s1.526-.458,1.833-1.5-.013-2.041-.719-2.252-1.526.459-1.833,1.5Z" transform="translate(-2235.204 -530.058)" fill="#fabfb2"/>
        <path id="Path_84452" data-name="Path 84452" d="M2624.809,582.468l-6.232-3.308a1.4,1.4,0,0,1-.58-1.894h0a1.4,1.4,0,0,1,1.894-.58l6.231,3.306a1.4,1.4,0,0,1,.58,1.894h0a1.395,1.395,0,0,1-1.894.58Z" transform="translate(-2350.182 -517.569)" fill="#8bbce5"/>
        <path id="Path_84453" data-name="Path 84453" d="M2171.676,579.136l6.111-3.528a1.4,1.4,0,0,1,1.912.512h0a1.395,1.395,0,0,1-.512,1.911l-6.111,3.528a1.4,1.4,0,0,1-1.911-.512h0a1.4,1.4,0,0,1,.511-1.911Z" transform="translate(-1949.016 -516.58)" fill="#8bbce5"/>
        <path id="Path_84454" data-name="Path 84454" d="M2408.069,468.757l-10.776-3.206a5.769,5.769,0,0,1,4.935-6.516c5.738-1.123,1.833,3.1,1.833,3.1s5.5,1.035,4.831,6.3Z" transform="translate(-2152.108 -411.902)" fill="#182b53"/>
        <path id="Path_84455" data-name="Path 84455" d="M2384.959,526.13s-1.137.14-1.351,2.1a6.01,6.01,0,0,0,.3,3.029,26.489,26.489,0,0,0,1.054-5.128Z" transform="translate(-2139.993 -472.338)" fill="#182b53"/>
        <path id="Path_84456" data-name="Path 84456" d="M2337.012,1050.473h-25.2v-2.113H2336.9l.112,2.113Z" transform="translate(-2075.152 -941.216)" fill="#8bbce5"/>
        <path id="Path_84457" data-name="Path 84457" d="M2422.26,1048.065h-3.31v-2.975h3.31v2.975Z" transform="translate(-2171.738 -938.269)" fill="#182b53"/>
        <path id="Path_84458" data-name="Path 84458" d="M2237.138,1042.43l-18.873,17.382-10.307-14.678-6.935-.023.022-.042-6.014.022-8.082-.027.046.055-4.238.015-13.765,29.7a5.544,5.544,0,0,0,4.116,7.818l36.181,4.628,1.361-5.909-23.869-9.41,9.469-12.651,16.848,17.76a5.544,5.544,0,0,0,8.833-.3l19.935-30.544-4.725-3.8Z" transform="translate(-1945.461 -935.163)" fill="#182b53"/>
        <path id="Path_84459" data-name="Path 84459" d="M2866.261,1027.78l-2.011,2.008,3.507,2.82,1.368-1.5-2.864-3.325Z" transform="translate(-2570.006 -922.703)" fill="#8bbce5"/>
        <path id="Path_84460" data-name="Path 84460" d="M2884.24,988.555l1.42-2.346a4.71,4.71,0,0,1,1.65-1.625l.8-.465,7.692,12.809h0a2.033,2.033,0,0,1-2.193-.091l-6.77-4.741-2.592-3.541Z" transform="translate(-2588.003 -883.395)" fill="#182b53"/>
        <path id="Path_84461" data-name="Path 84461" d="M2394.894,712.09l2.474,3.284-2.643,1.652-1.685-4.936Z" transform="translate(-2148.458 -639.287)" fill="#8bbce5"/>
        <path id="Path_84462" data-name="Path 84462" d="M2436.46,715.374l3.093,1.918,1.585-5.2h-1.7l-2.977,3.284Z" transform="translate(-2187.434 -639.285)" fill="#8bbce5"/>
        <path id="Path_84463" data-name="Path 84463" d="M2429.626,745.04l.836.518,4.129,21.954-1.153,4.3-2.776-3.806-1.792-22.5.756-.471Z" transform="translate(-2180.601 -668.627)" fill="#182b53"/>
        <path id="Path_84464" data-name="Path 84464" d="M2718.093,338.721a.126.126,0,0,1-.125-.121,8.451,8.451,0,0,0-1.268-3.436.125.125,0,0,1,.1-.2.126.126,0,0,1,.114.063,8.526,8.526,0,0,1,1.308,3.562.124.124,0,0,1-.121.13Z" transform="translate(-2439.072 -301.579)" fill="#182b53"/>
        <path id="Path_84465" data-name="Path 84465" d="M2155.845,347.349a.125.125,0,0,1-.124-.108,6.435,6.435,0,0,1,.647-3.449.127.127,0,0,1,.232.02.131.131,0,0,1-.009.1,6.277,6.277,0,0,0-.623,3.3.124.124,0,0,1-.023.093.125.125,0,0,1-.082.049h-.019Z" transform="translate(-1935.407 -309.466)" fill="#182b53"/>
        <path id="Path_84466" data-name="Path 84466" d="M623.16,417.649h72.7c-3.135-5.669-9.675-9.228-15.8-7.109a14.532,14.532,0,0,0-26.523-.162,8.537,8.537,0,0,0-11.636,3.078c-3.739-1.26-7.615-2.538-11.544-2.169a7.509,7.509,0,0,0-7.2,6.363Z" transform="translate(-559.078 -360.721)" fill="#fff"/>
        <path id="Path_84467" data-name="Path 84467" d="M1414.36,243.2h58.459a6.437,6.437,0,0,0-4.115-5.911,11.717,11.717,0,0,0-7.284.1c.881-2.523-.406-5.338-2.245-7.276a13.827,13.827,0,0,0-23.431,6.121c-4.438-2.266-10.639.554-11.85,5.388a11.213,11.213,0,0,0-9.534,1.583Z" transform="translate(-1269.136 -203.319)" fill="#fff"/>
        <path id="Path_86626" data-name="Path 86626" d="M1414.36,235.722h33.3a3.666,3.666,0,0,0-2.344-3.367,6.673,6.673,0,0,0-4.149.057,4.265,4.265,0,0,0-1.279-4.144,7.875,7.875,0,0,0-13.345,3.486,4.958,4.958,0,0,0-6.749,3.069,6.386,6.386,0,0,0-5.43.9Z" transform="translate(-1110.966 -183.516)" fill="#fff"/>
        <path id="Path_84468" data-name="Path 84468" d="M2800,565.287h29.992a6.869,6.869,0,0,0-6.787-2.791c.611-2.616-1.824-5.053-4.385-5.857a8.878,8.878,0,0,0-6.662.451,6.852,6.852,0,0,0-3.718,5.4,7.544,7.544,0,0,0-8.438,2.791Z" transform="translate(-2512.16 -499.304)" fill="#f4f7fc"/>
        <path id="Path_84469" data-name="Path 84469" d="M601.9,416.615h72.408a15.35,15.35,0,0,0-6.651-6.285,11.6,11.6,0,0,0-8.943-.631l-.087.03-.037-.084a14.495,14.495,0,0,0-26.345-.161l-.048.1-.1-.062a8.439,8.439,0,0,0-11.493,3.04l-.04.075-.08-.027c-3.529-1.189-7.529-2.538-11.5-2.164A7.414,7.414,0,0,0,601.9,416.615Zm72.748.2h-73l.028-.121a7.611,7.611,0,0,1,7.288-6.442c3.987-.374,7.974.959,11.5,2.148a8.653,8.653,0,0,1,11.641-3.1,14.99,14.99,0,0,1,13.275-8.468h.085a14.99,14.99,0,0,1,13.264,8.651,11.8,11.8,0,0,1,9.008.669,15.585,15.585,0,0,1,6.822,6.516Z" transform="translate(-539.778 -359.788)" fill="#182b53"/>
        <path id="Path_84470" data-name="Path 84470" d="M1391.4,242.484h58.019a6.365,6.365,0,0,0-4.053-5.718,11.543,11.543,0,0,0-7.222.1l-.184.053.063-.181c.909-2.6-.553-5.413-2.224-7.176a13.786,13.786,0,0,0-23.261,6.08l-.031.122-.112-.057a8.605,8.605,0,0,0-11.707,5.323l-.025.1-.1-.028a10.989,10.989,0,0,0-9.164,1.387Zm58.208.2h-58.89l.283-.183a11.257,11.257,0,0,1,9.518-1.622,8.823,8.823,0,0,1,11.856-5.41,13.987,13.987,0,0,1,23.568-6.045c1.674,1.764,3.14,4.561,2.326,7.2a11.611,11.611,0,0,1,7.166-.042,6.554,6.554,0,0,1,4.178,6.01Z" transform="translate(-1247.917 -202.703)" fill="#182b53"/>
        <path id="Path_86625" data-name="Path 86625" d="M1391.108,235.02h33.045a3.625,3.625,0,0,0-2.309-3.257,6.574,6.574,0,0,0-4.113.057l-.1.03.036-.1a4.24,4.24,0,0,0-1.266-4.087,7.851,7.851,0,0,0-13.248,3.463l-.018.069-.064-.032a4.9,4.9,0,0,0-6.668,3.032l-.014.057-.057-.016a6.259,6.259,0,0,0-5.219.79Zm33.152.113h-33.54l.161-.1a6.412,6.412,0,0,1,5.421-.924,5.025,5.025,0,0,1,6.752-3.081,7.966,7.966,0,0,1,13.423-3.443,4.4,4.4,0,0,1,1.325,4.1,6.612,6.612,0,0,1,4.082-.024,3.733,3.733,0,0,1,2.38,3.423Z" transform="translate(-1088.705 -182.87)" fill="#182b53"/>
        <path id="Path_84472" data-name="Path 84472" d="M2533.441,1660H2484.47a2.069,2.069,0,0,1,1.017-1.651,6.329,6.329,0,0,1,2.074-.921,21.115,21.115,0,0,1,4.567-.779c-.742-2.257.5-4.708,2.064-6.494a20.061,20.061,0,0,1,5.8-4.551,6.377,6.377,0,0,1,2.641-.845,6.628,6.628,0,0,1,3.2.921,25.886,25.886,0,0,1,5.618,3.88,4.936,4.936,0,0,1,6.379-2.286,6.576,6.576,0,0,1,3.231,4.27,16.64,16.64,0,0,1,.312,5.482c-.02-1.3.975-2.349,1.909-3.244a4.43,4.43,0,0,1,1.894-1.265,3.04,3.04,0,0,1,3,1.3,8.939,8.939,0,0,1,1.3,3.19,2.389,2.389,0,0,1,2.921.261,3.673,3.673,0,0,1,1.049,2.733Z" transform="translate(-2228.079 -1475.819)" fill="#6cb596"/>
        <path id="Path_84473" data-name="Path 84473" d="M564.589,1796.079H268.055a.2.2,0,1,1,0-.4H564.589a.2.2,0,1,1,0,.4Z" transform="translate(-241.153 -1611.697)" fill="#182b53"/>
      </g>
    </g>
  </g>
</svg>
