<svg xmlns="http://www.w3.org/2000/svg" width="56" height="56" viewBox="0 0 56 56">
  <g id="Paper_Pen" data-name="Paper &amp; Pen" transform="translate(-479 -388)">
    <circle id="Ellipse_35" data-name="Ellipse 35" cx="28" cy="28" r="28" transform="translate(479 388)" fill="#f2f2f2"/>
    <g id="contract" transform="translate(493.528 400.049)">
      <path id="Path_13067" data-name="Path 13067" d="M51.3,1.884h-7.6a2.34,2.34,0,0,0-4.59,0h-7.6a.455.455,0,0,0-.455.455V30.606a.455.455,0,0,0,.455.455H51.3a.455.455,0,0,0,.455-.455V2.339a.455.455,0,0,0-.455-.455Zm-.455,28.266H31.972V2.794h3.8a4.239,4.239,0,0,0,.063.975H33.4a.455.455,0,0,0-.455.455V22.548a.455.455,0,0,0,.91,0V4.679h2.41a2.393,2.393,0,0,0,1.9.942h2.249a.455.455,0,0,0,0-.91H38.17a1.665,1.665,0,0,1-1.486-1.917h2.843a.455.455,0,0,0,.455-.455,1.429,1.429,0,1,1,2.859,0,.455.455,0,0,0,.455.455h2.843a1.665,1.665,0,0,1-1.486,1.917H42.4a.455.455,0,1,0,0,.91h2.249a2.393,2.393,0,0,0,1.9-.942h2.41V28.266H33.857V24.531a.455.455,0,0,0-.91,0v4.191a.455.455,0,0,0,.455.455H49.419a.455.455,0,0,0,.455-.455V4.224a.455.455,0,0,0-.455-.455H46.984a4.244,4.244,0,0,0,.063-.975h3.8Z" transform="translate(-31.062)"/>
      <path id="Path_13068" data-name="Path 13068" d="M392.248,82.369h-.52V80a.455.455,0,0,0-.455-.455h-.025v-.487a1.4,1.4,0,0,0-2.794,0v.487h-.025a.455.455,0,0,0-.455.455v16.96a.455.455,0,0,0,.455.455h.025v1.429a1.4,1.4,0,0,0,.942,1.321v.935a.455.455,0,1,0,.91,0v-.935a1.4,1.4,0,0,0,.942-1.321V97.412h.025a.455.455,0,0,0,.455-.455V93.238a.455.455,0,1,0-.91,0V96.5h-1.935V83.279h1.935v7.976a.455.455,0,1,0,.91,0V83.279h.52a.455.455,0,0,1,.455.455v4.743a.455.455,0,1,0,.91,0V83.734a1.367,1.367,0,0,0-1.365-1.365Zm-2.885-3.314a.487.487,0,0,1,.974,0v.487h-.974Zm.974,18.357v1.429a.487.487,0,0,1-.974,0V97.412Zm-1.455-15.043V80.452h1.935v1.917h-1.935Z" transform="translate(-366.321 -72.947)"/>
      <path id="Path_13069" data-name="Path 13069" d="M124.708,125.161h8.48a.455.455,0,1,0,0-.91h-8.48a.455.455,0,0,0,0,.91Z" transform="translate(-118.6 -116.713)"/>
      <path id="Path_13070" data-name="Path 13070" d="M93.646,187.286h12.249a.455.455,0,1,0,0-.91H93.646a.455.455,0,1,0,0,.91Z" transform="translate(-89.422 -175.069)"/>
      <path id="Path_13071" data-name="Path 13071" d="M93.646,218.348h12.249a.455.455,0,1,0,0-.91H93.646a.455.455,0,0,0,0,.91Z" transform="translate(-89.422 -204.247)"/>
      <path id="Path_13072" data-name="Path 13072" d="M93.646,249.41h12.249a.455.455,0,1,0,0-.91H93.646a.455.455,0,1,0,0,.91Z" transform="translate(-89.422 -233.425)"/>
      <path id="Path_13073" data-name="Path 13073" d="M93.646,280.473h12.249a.455.455,0,1,0,0-.91H93.646a.455.455,0,1,0,0,.91Z" transform="translate(-89.422 -262.603)"/>
      <path id="Path_13074" data-name="Path 13074" d="M93.646,311.534h12.249a.455.455,0,1,0,0-.91H93.646a.455.455,0,0,0,0,.91Z" transform="translate(-89.422 -291.78)"/>
      <path id="Path_13075" data-name="Path 13075" d="M163.563,357.714a1.693,1.693,0,0,0-2.394,0q-.431.525-1.241.134a1.693,1.693,0,0,0-2.538.164l-1.958,2.184a.455.455,0,0,0,.678.608l1.97-2.2a.833.833,0,0,1,1.205-.115,1.7,1.7,0,0,0,2.394,0,.864.864,0,0,1,1.241-.134l1.009,1.009a.455.455,0,0,0,.643-.643Z" transform="translate(-147.778 -335.547)"/>
    </g>
  </g>
</svg>
