<svg xmlns="http://www.w3.org/2000/svg" width="38" height="38" viewBox="0 0 38 38">
  <g id="Passbook" transform="translate(-72 -299)">
    <circle id="Ellipse_79" data-name="Ellipse 79" cx="19" cy="19" r="19" transform="translate(72 299)" fill="#d3d3d3"/>
    <g id="Group_8199" data-name="Group 8199" transform="translate(-1073.16 -132.01)">
      <g id="Group_8197" data-name="Group 8197" transform="translate(1148.16 434.01)" opacity="0">
        <rect id="Rectangle_1409" data-name="Rectangle 1409" width="32" height="32" fill="#fff"/>
      </g>
      <g id="Line_204" data-name="Line 204" transform="translate(1156.366 446.833)">
        <path id="Path_13323" data-name="Path 13323" d="M1173.922,460.656h-8.849a.5.5,0,0,1,0-1h8.849a.5.5,0,0,1,0,1Z" transform="translate(-1164.573 -459.656)"/>
      </g>
      <g id="Line_205" data-name="Line 205" transform="translate(1174.025 453.083)">
        <path id="Path_13324" data-name="Path 13324" d="M1203.89,473.155h-3.5a.5.5,0,0,1,0-1h3.5a.5.5,0,0,1,0,1Z" transform="translate(-1199.89 -472.155)"/>
      </g>
      <g id="Line_206" data-name="Line 206" transform="translate(1149.659 453.083)">
        <path id="Path_13325" data-name="Path 13325" d="M1172.452,473.155h-20.794a.5.5,0,0,1,0-1h20.794a.5.5,0,0,1,0,1Z" transform="translate(-1151.158 -472.155)"/>
      </g>
      <g id="Line_207" data-name="Line 207" transform="translate(1156.366 448.492)">
        <path id="Path_13326" data-name="Path 13326" d="M1170.973,463.974h-5.9a.5.5,0,0,1,0-1h5.9a.5.5,0,0,1,0,1Z" transform="translate(-1164.573 -462.974)"/>
      </g>
      <g id="Line_208" data-name="Line 208" transform="translate(1151.184 454.629)">
        <path id="Path_13327" data-name="Path 13327" d="M1160.606,476.248h-5.9a.5.5,0,0,1,0-1h5.9a.5.5,0,0,1,0,1Z" transform="translate(-1154.207 -475.248)"/>
      </g>
      <g id="Ellipse_853" data-name="Ellipse 853" transform="translate(1151.169 445.98)">
        <path id="Path_13328" data-name="Path 13328" d="M1156.532,462.656a2.353,2.353,0,1,1,2.353-2.353A2.356,2.356,0,0,1,1156.532,462.656Zm0-3.706a1.353,1.353,0,1,0,1.353,1.353A1.354,1.354,0,0,0,1156.532,458.951Z" transform="translate(-1154.179 -457.951)"/>
      </g>
      <g id="Path_12242" data-name="Path 12242" transform="translate(1170.387 453.083)">
        <path id="Path_13329" data-name="Path 13329" d="M1194.967,475.068a2.409,2.409,0,0,1-.468-.047,2.381,2.381,0,0,1-1.875-1.875.471.471,0,0,1-.01-.1,1.679,1.679,0,0,1,.094-.56.5.5,0,0,1,.943.333.655.655,0,0,0-.036.178,1.389,1.389,0,0,0,2.7,0,.634.634,0,0,0-.036-.179.5.5,0,0,1,.944-.333,1.678,1.678,0,0,1,.094.558.5.5,0,0,1-.01.1A2.4,2.4,0,0,1,1194.967,475.068Zm1.853-2.02h0Z" transform="translate(-1192.614 -472.156)"/>
      </g>
      <g id="Group_8198" data-name="Group 8198" transform="translate(1149.386 442.26)">
        <path id="Path_13330" data-name="Path 13330" d="M1178.06,466.01h-25.347a2.1,2.1,0,0,1-2.1-2.1v-11.3a2.1,2.1,0,0,1,2.1-2.1h25.347a2.1,2.1,0,0,1,2.1,2.1v11.3A2.1,2.1,0,0,1,1178.06,466.01Zm-25.347-14.5a1.1,1.1,0,0,0-1.1,1.1v11.3a1.1,1.1,0,0,0,1.1,1.1h25.347a1.1,1.1,0,0,0,1.1-1.1v-11.3a1.1,1.1,0,0,0-1.1-1.1Z" transform="translate(-1150.613 -450.51)"/>
      </g>
    </g>
  </g>
</svg>
