<svg width="16" height="16" viewBox="0 0 16 16" fill="none" xmlns="http://www.w3.org/2000/svg">
<rect width="16" height="16" rx="8" fill="#D92D20"/>
<path fill-rule="evenodd" clip-rule="evenodd" d="M5.68306 5.68306C5.92714 5.43898 6.32286 5.43898 6.56694 5.68306L10.6836 9.79973C10.9277 10.0438 10.9277 10.4395 10.6836 10.6836C10.4395 10.9277 10.0438 10.9277 9.79972 10.6836L5.68306 6.56694C5.43898 6.32286 5.43898 5.92714 5.68306 5.68306Z" fill="white"/>
<path fill-rule="evenodd" clip-rule="evenodd" d="M10.6836 5.68306C10.9277 5.92714 10.9277 6.32286 10.6836 6.56694L6.56694 10.6836C6.32286 10.9277 5.92714 10.9277 5.68306 10.6836C5.43898 10.4395 5.43898 10.0438 5.68306 9.79973L9.79972 5.68306C10.0438 5.43898 10.4395 5.43898 10.6836 5.68306Z" fill="white"/>
</svg>
