<svg width="16" height="16" viewBox="0 0 16 16" fill="none" xmlns="http://www.w3.org/2000/svg">
<rect width="16" height="16" rx="8" fill="#FFBF00"/>
<path fill-rule="evenodd" clip-rule="evenodd" d="M5.02051 5.70833C5.02051 5.4552 5.22571 5.25 5.47884 5.25H10.5205C10.7736 5.25 10.9788 5.4552 10.9788 5.70833C10.9788 5.96146 10.7736 6.16667 10.5205 6.16667H5.47884C5.22571 6.16667 5.02051 5.96146 5.02051 5.70833Z" fill="white"/>
<path fill-rule="evenodd" clip-rule="evenodd" d="M5.02051 10.2918C5.02051 10.0387 5.22571 9.8335 5.47884 9.8335H10.5205C10.7736 9.8335 10.9788 10.0387 10.9788 10.2918C10.9788 10.545 10.7736 10.7502 10.5205 10.7502H5.47884C5.22571 10.7502 5.02051 10.545 5.02051 10.2918Z" fill="white"/>
<path fill-rule="evenodd" clip-rule="evenodd" d="M8.00033 8.45817C7.39254 8.45817 6.80964 8.69961 6.37987 9.12938C5.9501 9.55915 5.70866 10.142 5.70866 10.7498V11.6665H10.292V10.7498C10.292 10.142 10.0505 9.55915 9.62078 9.12938C9.19101 8.69961 8.60811 8.45817 8.00033 8.45817ZM5.73169 8.4812C6.33337 7.87952 7.14942 7.5415 8.00033 7.5415C8.85123 7.5415 9.66728 7.87952 10.269 8.4812C10.8706 9.08288 11.2087 9.89893 11.2087 10.7498V11.6665C11.2087 11.9096 11.1121 12.1428 10.9402 12.3147C10.7683 12.4866 10.5351 12.5832 10.292 12.5832H5.70866C5.46554 12.5832 5.23239 12.4866 5.06048 12.3147C4.88857 12.1428 4.79199 11.9096 4.79199 11.6665V10.7498C4.79199 9.89893 5.13001 9.08288 5.73169 8.4812Z" fill="white"/>
<path fill-rule="evenodd" clip-rule="evenodd" d="M5.06048 3.68499C5.23239 3.51308 5.46554 3.4165 5.70866 3.4165H10.292C10.5351 3.4165 10.7683 3.51308 10.9402 3.68499C11.1121 3.8569 11.2087 4.09006 11.2087 4.33317V5.24984C11.2087 6.10074 10.8706 6.91679 10.269 7.51847C9.66728 8.12015 8.85123 8.45817 8.00033 8.45817C7.14942 8.45817 6.33337 8.12015 5.73169 7.51847C5.13001 6.91679 4.79199 6.10074 4.79199 5.24984V4.33317C4.79199 4.09006 4.88857 3.8569 5.06048 3.68499ZM10.292 4.33317H5.70866L5.70866 5.24984C5.70866 5.85762 5.9501 6.44052 6.37987 6.87029C6.80964 7.30006 7.39254 7.5415 8.00033 7.5415C8.60811 7.5415 9.19101 7.30006 9.62078 6.87029C10.0505 6.44052 10.292 5.85763 10.292 5.24984V4.33317Z" fill="white"/>
</svg>
