<svg xmlns="http://www.w3.org/2000/svg" width="18.984" height="18.984" viewBox="0 0 18.984 18.984">
  <path id="Profile" d="M11.143,13.971a2.854,2.854,0,0,0,1.616-.454A3.35,3.35,0,0,0,13.9,12.262a3.717,3.717,0,0,0,.425-1.787A3.511,3.511,0,0,0,13.9,8.761a3.367,3.367,0,0,0-1.147-1.24,3.014,3.014,0,0,0-3.213,0,3.437,3.437,0,0,0-1.572,2.954,3.627,3.627,0,0,0,.43,1.777A3.426,3.426,0,0,0,9.541,13.5,2.934,2.934,0,0,0,11.143,13.971Zm6.221,4.453-.02-.127a3.267,3.267,0,0,0-1.113-1.323,7.05,7.05,0,0,0-2.139-1.055,9.677,9.677,0,0,0-2.949-.415,9.653,9.653,0,0,0-2.935.415,7.043,7.043,0,0,0-2.144,1.055,3.29,3.29,0,0,0-1.113,1.313l-.029.137A8.189,8.189,0,0,0,6.89,19.8a11.461,11.461,0,0,0,2.241.864,7.94,7.94,0,0,0,2.012.3,7.969,7.969,0,0,0,2.021-.3,11.4,11.4,0,0,0,2.231-.859A8.189,8.189,0,0,0,17.363,18.424Zm-6.221,3.4a9.111,9.111,0,0,0,3.672-.747A9.726,9.726,0,0,0,19.893,16a9.43,9.43,0,0,0,0-7.334A9.731,9.731,0,0,0,14.8,3.58a9.406,9.406,0,0,0-7.324,0A9.731,9.731,0,0,0,2.393,8.663,9.4,9.4,0,0,0,2.4,16,9.758,9.758,0,0,0,7.48,21.075,9.087,9.087,0,0,0,11.143,21.822Zm0-1.748a7.577,7.577,0,0,1-3.008-.6,7.725,7.725,0,0,1-4.121-4.126,7.916,7.916,0,0,1,0-6.025A7.755,7.755,0,0,1,8.13,5.187a7.542,7.542,0,0,1,3-.6,7.591,7.591,0,0,1,3.022.6,7.8,7.8,0,0,1,4.131,4.136,7.577,7.577,0,0,1,.6,3.008,7.432,7.432,0,0,1-.6,3.018,7.873,7.873,0,0,1-1.66,2.466,7.707,7.707,0,0,1-2.461,1.66A7.626,7.626,0,0,1,11.143,20.074Z" transform="translate(-1.65 -2.838)" fill="#707070"/>
</svg>
