<svg xmlns="http://www.w3.org/2000/svg" width="38" height="38" viewBox="0 0 38 38">
  <g id="Ration_Card" data-name="Ration Card" transform="translate(-690 -676)">
    <g id="Group_8370" data-name="Group 8370" transform="translate(690 676)">
      <circle id="Ellipse_88" data-name="Ellipse 88" cx="18.765" cy="18.765" r="18.765" transform="translate(0.235 0.234)" fill="#d3d3d3"/>
      <path id="Path_13472" data-name="Path 13472" d="M942.9,221a18.911,18.911,0,0,1-10.623-3.245,19.058,19.058,0,0,1-6.884-8.359,18.976,18.976,0,0,1,1.752-18.019A19.057,19.057,0,0,1,935.5,184.5a18.976,18.976,0,0,1,18.019,1.752,19.052,19.052,0,0,1,6.884,8.36,18.974,18.974,0,0,1-1.752,18.019,19.1,19.1,0,0,1-5.132,5.132A18.915,18.915,0,0,1,942.9,221Zm0-37.531A18.531,18.531,0,1,0,961.429,202,18.552,18.552,0,0,0,942.9,183.473Z" transform="translate(-923.898 -183.004)" fill="#d3d3d3"/>
    </g>
    <g id="Group_8378" data-name="Group 8378" transform="translate(696.65 686.925)">
      <g id="Group_8371" data-name="Group 8371" transform="translate(0 0)">
        <path id="Path_13473" data-name="Path 13473" d="M954.616,218.738h-18.74a2.708,2.708,0,0,1-2.712-2.708V204.821a2.708,2.708,0,0,1,2.712-2.708H954.91a2.708,2.708,0,0,1,2.712,2.708v11.332c0,.008,0,.016,0,.023a2.557,2.557,0,0,1-.552,1.535,2.613,2.613,0,0,1-1.069.763A3.935,3.935,0,0,1,954.616,218.738Zm-.019-.983a2.918,2.918,0,0,0,1.061-.2,1.487,1.487,0,0,0,.982-1.411V204.821a1.729,1.729,0,0,0-1.73-1.725H935.876a1.729,1.729,0,0,0-1.73,1.725V216.03a1.729,1.729,0,0,0,1.73,1.725H954.6Zm2.534-1.6Z" transform="translate(-933.164 -202.113)"/>
      </g>
      <g id="Group_8372" data-name="Group 8372" transform="translate(10.787 3.833)">
        <path id="Path_13474" data-name="Path 13474" d="M949.235,214.411H938.445a.491.491,0,1,1,0-.982h10.789a.491.491,0,0,1,0,.982Z" transform="translate(-937.954 -213.429)"/>
      </g>
      <g id="Group_8373" data-name="Group 8373" transform="translate(10.787 5.581)">
        <path id="Path_13475" data-name="Path 13475" d="M949.235,218.806H938.445a.491.491,0,1,1,0-.982h10.789a.491.491,0,0,1,0,.982Z" transform="translate(-937.954 -217.824)"/>
      </g>
      <g id="Group_8374" data-name="Group 8374" transform="translate(10.787 7.33)">
        <path id="Path_13476" data-name="Path 13476" d="M949.235,223.2H938.445a.491.491,0,1,1,0-.982h10.789a.491.491,0,0,1,0,.982Z" transform="translate(-937.954 -222.219)"/>
      </g>
      <g id="Group_8375" data-name="Group 8375" transform="translate(2.112 12.611)">
        <path id="Path_13477" data-name="Path 13477" d="M958.429,234.79H938.964a.491.491,0,0,1,0-.983h19.464a.491.491,0,0,1,0,.983Z" transform="translate(-938.473 -233.807)"/>
      </g>
      <g id="Group_8376" data-name="Group 8376" transform="translate(2.112 10.306)">
        <path id="Path_13478" data-name="Path 13478" d="M958.429,229H938.964a.491.491,0,1,1,0-.982h19.464a.491.491,0,0,1,0,.982Z" transform="translate(-938.473 -228.013)"/>
      </g>
      <g id="Group_8377" data-name="Group 8377" transform="translate(1.906 3.57)">
        <path id="Path_13479" data-name="Path 13479" d="M978.626,216.438h-6.12a.491.491,0,0,1-.491-.491v-4.372a.491.491,0,0,1,.491-.491h6.12a.491.491,0,0,1,.491.491v4.372A.491.491,0,0,1,978.626,216.438ZM973,215.456h5.138v-3.389H973Z" transform="translate(-972.014 -211.084)"/>
      </g>
    </g>
  </g>
</svg>
