<svg xmlns="http://www.w3.org/2000/svg" width="74.862" height="19.517" viewBox="0 0 74.862 19.517">
  <g id="Group_8338" data-name="Group 8338" transform="translate(3846 -4275.722)">
    <path id="Path_13191" data-name="Path 13191" d="M338.718,248.81c.353-2.792-1.775-3.957-4.431-3.957h-6.979l-4.12,15.016h4.435l1.247-4.629,3.534.022S337.874,255.492,338.718,248.81Zm-4.56,1.491a2.09,2.09,0,0,1-2.167,1.42h-2.171l.857-3.19s1.374.007,2.282.007A1.218,1.218,0,0,1,334.157,250.3Z" transform="translate(-4142.516 4030.869)" fill="#2a2a89"/>
    <path id="Path_13192" data-name="Path 13192" d="M251.729,270.1h4.045l-1.666,6.41s-.415,1.429.922,1.539c1.056.087,1.842-1.173,2.1-2.027.338-1.121,1.653-5.922,1.653-5.922h4.167l-3.171,10.909H256.14l.447-1.559a5.777,5.777,0,0,1-4.614,1.992c-2.452-.241-2.663-2.019-2.238-4.238C249.943,276.119,251.729,270.1,251.729,270.1Z" transform="translate(-4080.864 4009.725)" fill="#2a2a89"/>
    <path id="Path_13193" data-name="Path 13193" d="M416.135,272.84c.533-1.815,1.207-3.533.664-4.485-.83-1.458-2.331-1.586-4.526-1.586-2.426,0-5.421.461-6.4,3.686h4.038a1.775,1.775,0,0,1,1.884-1.138c1.342.068,1.268.991.774,1.5-.867.894-3.262.4-5.914,1.319a4.488,4.488,0,0,0-2.625,5.067c.488,1.179,1.4,1.329,2.622,1.45a5.524,5.524,0,0,0,4.181-1.548c0,.715.019,1.115.019,1.115h4.25l-.01-.4s-.379-.1-.336-.633C414.789,276.8,415.523,274.924,416.135,272.84ZM410.025,276c-.693.176-1.533.271-1.7-.358-.458-1.725,3.582-2.23,3.582-2.23A2.793,2.793,0,0,1,410.025,276Z" transform="translate(-4210.095 4012.517)" fill="#2a2a89"/>
    <path id="Path_13194" data-name="Path 13194" d="M175.046,248.349c.352-2.792-2.1-3.5-4.76-3.5h-6.979l-4.12,15.016h4.435l1.385-5.1,2.488.02s1.027-.06,1.047.9c.022,1.029-.762,2.917-.711,4.173h4.556l-.01-.4s-.379-.1-.336-.632a15.846,15.846,0,0,1,.582-1.866,5.757,5.757,0,0,0,.457-2.209c-.034-1-.664-1.47-1.572-1.8C174.338,252.3,175.046,248.349,175.046,248.349Zm-4.7,1.917c-.574,1.328-2.352,1.177-2.352,1.177l-2.07-.01.756-2.813s1.852.007,2.76.007C170.408,248.628,170.712,249.409,170.341,250.267Z" transform="translate(-4005.187 4030.869)" fill="#2a2a89"/>
    <path id="Path_13195" data-name="Path 13195" d="M475.86,270.1h4.12v6.545l3.564-6.545h3.781L479.7,283.336a6.7,6.7,0,0,1-1.585,1.7,3.615,3.615,0,0,1-1.879.481c-1.506-.013-3.322-.017-3.322-.017l.876-3.154,1.418,0a1.557,1.557,0,0,0,.9-.386,1.577,1.577,0,0,0,.361-1.057C476.47,280.227,475.86,270.1,475.86,270.1Z" transform="translate(-4267.896 4009.725)" fill="#2a2a89"/>
    <path id="Path_13196" data-name="Path 13196" d="M569.528,254.6l-4.757,16.547,8.9-8.274Z" transform="translate(-4344.813 4022.705)" fill="#0f8047"/>
    <path id="Path_13197" data-name="Path 13197" d="M550.778,254.6l-4.757,16.547,8.9-8.274Z" transform="translate(-4329.113 4022.705)" fill="#f0721d"/>
  </g>
</svg>
