<svg xmlns="http://www.w3.org/2000/svg" width="21.5" height="21.5" viewBox="0 0 21.5 21.5">
  <g id="Group_8169" data-name="Group 8169" transform="translate(-1.25 -1.25)">
    <path id="Path_13673" data-name="Path 13673" d="M13.4,17.42H10.89a3.027,3.027,0,0,1-2.97-3.08.75.75,0,0,1,1.5,0,1.531,1.531,0,0,0,1.47,1.58H13.4a1.247,1.247,0,0,0,1.19-1.28c0-.87-.31-1.04-.82-1.22L9.74,12A2.5,2.5,0,0,1,7.91,9.36,2.737,2.737,0,0,1,10.6,6.58h2.51a3.027,3.027,0,0,1,2.97,3.08.75.75,0,1,1-1.5,0,1.531,1.531,0,0,0-1.47-1.58H10.6A1.247,1.247,0,0,0,9.41,9.36c0,.87.31,1.04.82,1.22L14.26,12a2.5,2.5,0,0,1,1.83,2.64A2.75,2.75,0,0,1,13.4,17.42Z" fill="#1c3371"/>
    <path id="Path_13674" data-name="Path 13674" d="M12,18.75a.755.755,0,0,1-.75-.75V6a.75.75,0,0,1,1.5,0V18A.755.755,0,0,1,12,18.75Z" fill="#1c3371"/>
    <path id="Path_13675" data-name="Path 13675" d="M15,22.75H9c-5.43,0-7.75-2.32-7.75-7.75V9C1.25,3.57,3.57,1.25,9,1.25h6c5.43,0,7.75,2.32,7.75,7.75v6C22.75,20.43,20.43,22.75,15,22.75Zm-6-20C4.39,2.75,2.75,4.39,2.75,9v6c0,4.61,1.64,6.25,6.25,6.25h6c4.61,0,6.25-1.64,6.25-6.25V9c0-4.61-1.64-6.25-6.25-6.25Z" fill="#1c3371"/>
  </g>
</svg>
