<svg xmlns="http://www.w3.org/2000/svg" width="23.988" height="20.488" viewBox="0 0 23.988 20.488">
  <path id="Sign" d="M7.135,20.895H29.561a.781.781,0,0,0,0-1.562H7.135a.745.745,0,0,0-.552.234.779.779,0,0,0,.552,1.328Zm4.525,3.418a4.457,4.457,0,0,0,2.642-.835,6.928,6.928,0,0,0,2.012-2.334,13.028,13.028,0,0,0,1.284-3.5,19.742,19.742,0,0,0,.449-4.326,15.287,15.287,0,0,0-.43-3.706,10.526,10.526,0,0,0-1.235-3.022,6.374,6.374,0,0,0-1.934-2.031,4.536,4.536,0,0,0-2.524-.732,3.97,3.97,0,0,0-2.178.615,4.375,4.375,0,0,0-1.528,1.67,4.97,4.97,0,0,0-.562,2.373,7.084,7.084,0,0,0,.352,2.236,8.451,8.451,0,0,0,.977,2.012,10.853,10.853,0,0,0,1.436,1.748,13.124,13.124,0,0,0,1.738,1.445,12.949,12.949,0,0,0,1.885,1.094.827.827,0,0,0,.391.1.679.679,0,0,0,.493-.2.632.632,0,0,0,.2-.469.71.71,0,0,0-.093-.352.74.74,0,0,0-.317-.283,15.407,15.407,0,0,1-1.724-1.069,11.836,11.836,0,0,1-1.826-1.6,8.337,8.337,0,0,1-1.436-2.1A5.857,5.857,0,0,1,9.17,8.473a3.44,3.44,0,0,1,.361-1.587,2.864,2.864,0,0,1,.986-1.118,2.507,2.507,0,0,1,1.406-.41,3.138,3.138,0,0,1,1.895.62A5.169,5.169,0,0,1,15.273,7.7a9.564,9.564,0,0,1,.928,2.539,14.09,14.09,0,0,1,.322,3.081,18.286,18.286,0,0,1-.352,3.677,12.727,12.727,0,0,1-.986,3.018A6.28,6.28,0,0,1,13.7,22.052a2.791,2.791,0,0,1-1.86.737,1.159,1.159,0,0,1-.957-.386,1.54,1.54,0,0,1-.312-1,4.323,4.323,0,0,1,.449-1.758,9.074,9.074,0,0,1,1.284-2,11.252,11.252,0,0,1,1.987-1.865A10.373,10.373,0,0,1,16.851,14.4a8.508,8.508,0,0,1,3-.527q.479,0,.479.352a2.424,2.424,0,0,1-.112.742q-.112.352-.22.713a2.694,2.694,0,0,0-.107.771,1.087,1.087,0,0,0,.356.854,1.281,1.281,0,0,0,.884.317A2.462,2.462,0,0,0,22.3,17.3a7.27,7.27,0,0,0,1.177-.8q.576-.474,1.079-.947t.884-.8a1.094,1.094,0,0,1,.605-.322q.2,0,.264.283a6.648,6.648,0,0,1,.122.708,3.781,3.781,0,0,0,.215.854,1.61,1.61,0,0,0,.532.718,1.705,1.705,0,0,0,1.064.288,2.65,2.65,0,0,0,.649-.088,2.2,2.2,0,0,0,.64-.273.968.968,0,0,0,.288-.3.8.8,0,0,0-.059-.9.583.583,0,0,0-.474-.205.9.9,0,0,0-.449.122.863.863,0,0,1-.43.122.394.394,0,0,1-.4-.308,3.688,3.688,0,0,1-.151-.757,7.577,7.577,0,0,0-.156-.908,1.721,1.721,0,0,0-.381-.767,1.08,1.08,0,0,0-.85-.308,2.216,2.216,0,0,0-1.045.308,7.471,7.471,0,0,0-1.133.767q-.566.459-1.069.908t-.884.762a1.114,1.114,0,0,1-.576.313q-.127,0-.127-.156a1.364,1.364,0,0,1,.093-.43q.093-.264.186-.591a2.44,2.44,0,0,0,.093-.669,1.4,1.4,0,0,0-.547-1.162,2.324,2.324,0,0,0-1.475-.43,10.132,10.132,0,0,0-3.54.615A11.889,11.889,0,0,0,13.418,14.6a13.1,13.1,0,0,0-2.358,2.256,10.869,10.869,0,0,0-1.533,2.48,5.858,5.858,0,0,0-.542,2.314,2.776,2.776,0,0,0,.664,1.924A2.563,2.563,0,0,0,11.66,24.313Z" transform="translate(-6.354 -3.824)" fill="#707070"/>
</svg>
