<svg xmlns="http://www.w3.org/2000/svg" width="28.815" height="35" viewBox="0 0 28.815 35">
  <g id="Group_8086" data-name="Group 8086" transform="translate(-1173.617 -95.679)">
    <g id="Group_8084" data-name="Group 8084" transform="translate(1173.617 95.679)">
      <g id="Group_8082" data-name="Group 8082" transform="translate(5.569)">
        <path id="Path_13239" data-name="Path 13239" d="M1190.992,113.64a8.957,8.957,0,1,1,3.5-.706A8.917,8.917,0,0,1,1190.992,113.64Zm0-16.323a7.343,7.343,0,1,0,7.343,7.342A7.351,7.351,0,0,0,1190.992,97.317Z" transform="translate(-1182.012 -95.679)" fill="#242424"/>
      </g>
      <g id="Group_8083" data-name="Group 8083" transform="translate(0 19.774)">
        <path id="Path_13240" data-name="Path 13240" d="M1201.612,140.716a.818.818,0,0,1-.818-.819,12.77,12.77,0,1,0-25.539,0,.819.819,0,0,1-1.638,0,14.407,14.407,0,1,1,28.815,0A.819.819,0,0,1,1201.612,140.716Z" transform="translate(-1173.617 -125.49)" fill="#242424"/>
      </g>
    </g>
    <g id="Group_8085" data-name="Group 8085" transform="translate(1173.892 128.942)">
      <path id="Path_13241" data-name="Path 13241" d="M1201.1,147.464H1174.85a.819.819,0,1,1,0-1.638H1201.1a.819.819,0,0,1,0,1.638Z" transform="translate(-1174.031 -145.826)" fill="#242424"/>
    </g>
  </g>
</svg>
