<svg xmlns="http://www.w3.org/2000/svg" width="38" height="38" viewBox="0 0 38 38">
  <g id="SMSAlerts" transform="translate(-458 -211)">
    <circle id="Ellipse_84" data-name="Ellipse 84" cx="19" cy="19" r="19" transform="translate(458 211)" fill="#d3d3d3"/>
    <g id="Group_8247" data-name="Group 8247" transform="translate(465 218)" opacity="0">
      <rect id="Rectangle_1417" data-name="Rectangle 1417" width="24" height="24" transform="translate(0 0)" fill="#fff"/>
    </g>
    <g id="Group_8256" data-name="Group 8256" transform="translate(470.352 219.371)">
      <g id="Group_8248" data-name="Group 8248" transform="translate(0)">
        <path id="Path_13365" data-name="Path 13365" d="M1294.071,524.047H1285.4a2.121,2.121,0,0,1-2.122-2.122c0-1.634-.141-16.566-.142-16.717l0-.041a2.621,2.621,0,0,1,2.695-2.379h8.1c.873.03,2.5.523,2.5,2.177v16.721A2.28,2.28,0,0,1,1294.071,524.047Zm-10.185-18.823c.006.675.142,15.094.142,16.7a1.4,1.4,0,0,0,1.391,1.372h8.652a1.554,1.554,0,0,0,1.611-1.613V504.965c0-1.351-1.69-1.425-1.762-1.428h-8.088A1.868,1.868,0,0,0,1283.886,505.224Z" transform="translate(-1283.136 -502.788)"/>
      </g>
      <g id="Group_8249" data-name="Group 8249" transform="translate(3.384 0.374)">
        <path id="Path_13366" data-name="Path 13366" d="M1297.452,506.4h-3.815a1.559,1.559,0,0,1-1.473-1.425l0-.051v-1.138h.75v1.108c.025.14.166.756.726.756h3.755c.231-.082.727-.327.727-.667v-1.2h.75v1.2c0,.8-.823,1.257-1.31,1.4Z" transform="translate(-1292.161 -503.786)"/>
      </g>
      <g id="Group_8250" data-name="Group 8250" transform="translate(5.261 18.522)">
        <rect id="Rectangle_1418" data-name="Rectangle 1418" width="2.819" height="0.75"/>
      </g>
      <g id="Group_8251" data-name="Group 8251" transform="translate(0 2.416)">
        <rect id="Rectangle_1419" data-name="Rectangle 1419" width="0.75" height="2.593"/>
      </g>
      <g id="Group_8255" data-name="Group 8255" transform="translate(1.834 7.443)">
        <g id="Group_8252" data-name="Group 8252" transform="translate(0 0)">
          <path id="Path_13367" data-name="Path 13367" d="M1289.11,527.062a3.523,3.523,0,0,1-.728-.089.375.375,0,1,1,.157-.733c.913.2.96.079,1.221-.567a.2.2,0,0,0,.006-.176,1.045,1.045,0,0,0-.554-.364,1.912,1.912,0,0,1-1.083-.815,1.01,1.01,0,0,1-.029-.82,1.373,1.373,0,0,1,.811-.785,2.008,2.008,0,0,1,1.452.175.375.375,0,0,1-.354.661,1.28,1.28,0,0,0-.86-.125.618.618,0,0,0-.357.361.239.239,0,0,0,.01.2,1.2,1.2,0,0,0,.627.428,1.751,1.751,0,0,1,1.012.754.944.944,0,0,1,.015.785C1290.193,526.6,1289.934,527.062,1289.11,527.062Z" transform="translate(-1288.027 -522.638)"/>
        </g>
        <g id="Group_8253" data-name="Group 8253" transform="translate(7.615)">
          <path id="Path_13368" data-name="Path 13368" d="M1309.417,527.061a3.521,3.521,0,0,1-.728-.089.375.375,0,0,1,.157-.733c.914.2.96.079,1.222-.567a.2.2,0,0,0,.005-.176,1.043,1.043,0,0,0-.553-.364,1.912,1.912,0,0,1-1.084-.815,1.008,1.008,0,0,1-.029-.82,1.373,1.373,0,0,1,.81-.785,2.009,2.009,0,0,1,1.453.175.375.375,0,0,1-.354.661,1.283,1.283,0,0,0-.86-.126.618.618,0,0,0-.357.361.239.239,0,0,0,.01.2,1.2,1.2,0,0,0,.626.428,1.75,1.75,0,0,1,1.012.754.944.944,0,0,1,.016.785C1310.5,526.6,1310.239,527.061,1309.417,527.061Z" transform="translate(-1308.333 -522.637)"/>
        </g>
        <g id="Group_8254" data-name="Group 8254" transform="translate(2.886 0.001)">
          <path id="Path_13369" data-name="Path 13369" d="M1296.1,527.068h-.032a.374.374,0,0,1-.342-.405l.311-3.678a.374.374,0,0,1,.373-.344h.245a.375.375,0,0,1,.359.266l.776,2.561,1.054-2.594a.375.375,0,0,1,.348-.234h.2a.375.375,0,0,1,.374.348l.267,3.678a.375.375,0,0,1-.748.054l-.181-2.493-1.017,2.505a.369.369,0,0,1-.365.234.376.376,0,0,1-.342-.266l-.707-2.334-.2,2.358A.375.375,0,0,1,1296.1,527.068Z" transform="translate(-1295.723 -522.64)"/>
        </g>
      </g>
    </g>
  </g>
</svg>
