<svg id="Group_5356" data-name="Group 5356" xmlns="http://www.w3.org/2000/svg" width="48.446" height="15" viewBox="0 0 48.446 15">
  <g id="Group_44" data-name="Group 44" transform="translate(0 0.046)">
    <path id="Path_215" data-name="Path 215" d="M363.893,503.06l-4.737,14.381h4.381l4.677-14.381" transform="translate(-344.468 -502.633)" fill="#335999"/>
    <path id="Path_216" data-name="Path 216" d="M349.494,502.78s2.832.726,2.9,2.585l.6,11.793h3.637l9.442-14.378H362.5l-5.224,8.133V502.78Z" transform="translate(-349.494 -502.78)" fill="#335999"/>
    <path id="Path_217" data-name="Path 217" d="M385.153,503.06h-4.108l-8.586,14.381h3.831l1.028-2.055h4.512l.246,2.055h3.916Zm-6.646,10.273,2.891-5.426.4,5.426Z" transform="translate(-337.546 -502.633)" fill="#335999"/>
    <path id="Path_218" data-name="Path 218" d="M372.047,505.8c2.017-.848,4.384.881,4.384.881l1.4-2.281s-4.831-3.235-8.929,0c0,0-4.083,3.223.011,6.433h0l2.554,1.973s.12.145.225.261a1.324,1.324,0,0,1-.146,1.282.8.8,0,0,1-.073.069c-2.125,1.881-6.007-.677-6.007-.677l-.864,2.665c5.891,2.707,9.178.1,9.178.1,4.17-3.72.7-6.419.135-6.868h0l-2.587-2.233a.4.4,0,0,1-.146-.344A1.816,1.816,0,0,1,372.047,505.8Z" transform="translate(-341.634 -502.683)" fill="#335999"/>
  </g>
  <path id="Path_219" data-name="Path 219" d="M357.278,508.74a37.939,37.939,0,0,0-2.855-2.762,16.7,16.7,0,0,0-4.909-3.227h7.772Z" transform="translate(-349.484 -502.75)" fill="#fbb03b"/>
</svg>
