<svg xmlns="http://www.w3.org/2000/svg" width="80.002" height="93.668" viewBox="0 0 80.002 93.668">
  <g id="video-call" transform="translate(-37.354)">
    <path id="Path_13143" data-name="Path 13143" d="M103.934,98.425H50.5a5.646,5.646,0,0,1-5.646-5.646V13.146A5.646,5.646,0,0,1,50.5,7.5h53.434a5.646,5.646,0,0,1,5.646,5.646V92.779A5.646,5.646,0,0,1,103.934,98.425Z" transform="translate(-6.128 -6.128)" fill="#f9f6f9"/>
    <path id="Path_13144" data-name="Path 13144" d="M312.637,7.5H300.288a5.646,5.646,0,0,1,5.646,5.646V92.779a5.646,5.646,0,0,1-5.646,5.646h12.349a5.646,5.646,0,0,0,5.646-5.646V13.146A5.646,5.646,0,0,0,312.637,7.5Z" transform="translate(-214.831 -6.128)" fill="#dddaec"/>
    <path id="Path_13145" data-name="Path 13145" d="M85.864,115.594V51.132a2.623,2.623,0,0,1,2.623-2.623h44.475a2.623,2.623,0,0,1,2.623,2.623v64.462a2.623,2.623,0,0,1-2.623,2.623H88.487A2.623,2.623,0,0,1,85.864,115.594Z" transform="translate(-39.635 -39.634)" fill="#c9e0fd"/>
    <path id="Path_13146" data-name="Path 13146" d="M333.373,48.51h-2.224v69.707h2.224A2.623,2.623,0,0,0,336,115.594V51.133A2.623,2.623,0,0,0,333.373,48.51Z" transform="translate(-240.046 -39.635)" fill="#bcd6f9"/>
    <g id="Group_7781" data-name="Group 7781" transform="translate(46.411 27.264)">
      <g id="Group_7779" data-name="Group 7779" transform="translate(11.328)">
        <g id="Group_7766" data-name="Group 7766" transform="translate(5.451 24.017)">
          <g id="Group_7765" data-name="Group 7765">
            <g id="Group_7764" data-name="Group 7764">
              <g id="Group_7763" data-name="Group 7763">
                <g id="Group_7762" data-name="Group 7762">
                  <g id="Group_7761" data-name="Group 7761">
                    <g id="Group_7760" data-name="Group 7760">
                      <g id="Group_7759" data-name="Group 7759">
                        <path id="Path_13147" data-name="Path 13147" d="M194.371,291.009a3.082,3.082,0,0,1-2.466-2.88v-7.824H181.014v7.824a3.065,3.065,0,0,1-2.442,2.88s4,6.618,7.887,6.636C190.52,297.664,194.371,291.009,194.371,291.009Z" transform="translate(-178.572 -280.305)" fill="#ffddce"/>
                      </g>
                    </g>
                  </g>
                </g>
              </g>
            </g>
          </g>
        </g>
        <g id="Group_7772" data-name="Group 7772">
          <g id="Group_7771" data-name="Group 7771">
            <g id="Group_7770" data-name="Group 7770">
              <g id="Group_7769" data-name="Group 7769">
                <g id="Group_7768" data-name="Group 7768">
                  <g id="Group_7767" data-name="Group 7767">
                    <path id="Path_13148" data-name="Path 13148" d="M173.505,172.206l-.728,0-.012-2.933a10.676,10.676,0,0,0-21.348.091l.009,2.068,0,.865-.728,0a1.944,1.944,0,0,0-1.924,1.964l.009,2.167a1.943,1.943,0,0,0,1.94,1.947l.731,0a10.1,10.1,0,0,0,3.4,7.41,10.833,10.833,0,0,0,14.609-.062,10.107,10.107,0,0,0,3.336-7.439l.731,0a1.944,1.944,0,0,0,1.924-1.964l-.009-2.167a1.944,1.944,0,0,0-1.94-1.947Z" transform="translate(-148.778 -157.041)" fill="#ffddce"/>
                    <path id="Path_13149" data-name="Path 13149" d="M172.629,153.379h-.11a1.1,1.1,0,0,1-1.1-1.1,3.255,3.255,0,0,0-3.255-3.255H157.8a8.348,8.348,0,0,0-8.348,8.348v5.517a1.9,1.9,0,0,0,1.278,1.8l2.057.716a1.1,1.1,0,0,0,1.468-1.045l0-3.89a3.406,3.406,0,0,1,3.37-3.44h.041a5.409,5.409,0,0,1,1.679.26,9.535,9.535,0,0,0,2.956.49h.741a9.536,9.536,0,0,0,2.956-.49,5.413,5.413,0,0,1,1.679-.26h.041a3.406,3.406,0,0,1,3.37,3.44l0,3.891a1.1,1.1,0,0,0,1.468,1.045l2.056-.716a1.9,1.9,0,0,0,1.278-1.8v-6.256A3.255,3.255,0,0,0,172.629,153.379Z" transform="translate(-149.332 -149.024)" fill="#407093"/>
                  </g>
                </g>
              </g>
            </g>
          </g>
        </g>
        <g id="Group_7778" data-name="Group 7778" transform="translate(8.561)">
          <g id="Group_7777" data-name="Group 7777">
            <g id="Group_7776" data-name="Group 7776">
              <g id="Group_7775" data-name="Group 7775">
                <g id="Group_7774" data-name="Group 7774">
                  <g id="Group_7773" data-name="Group 7773">
                    <path id="Path_13150" data-name="Path 13150" d="M213.68,201.748a1.943,1.943,0,0,0-1.94-1.947l-.728,0L211,196.871c-.025-6-4.111-3.834-9.569-4.069.468,1.167-.011-.827-.006.559l.035,12.521a10.105,10.105,0,0,1-3.336,7.439,11.894,11.894,0,0,1-2.55,1.722,10.9,10.9,0,0,0,4.832,1.142,11.115,11.115,0,0,0,7.292-2.864,10.107,10.107,0,0,0,3.336-7.439l.731,0a1.944,1.944,0,0,0,1.924-1.964Z" transform="translate(-195.574 -184.635)" fill="#ffcbbe"/>
                    <path id="Path_13151" data-name="Path 13151" d="M228.919,153.379h-.11a1.1,1.1,0,0,1-1.1-1.1,3.255,3.255,0,0,0-3.255-3.255h-6.1a10.22,10.22,0,0,1,1.685,5.65l.007,3.076a10.033,10.033,0,0,0,2.245-.461,5.413,5.413,0,0,1,1.679-.26h.041a3.406,3.406,0,0,1,3.37,3.44l0,3.891a1.1,1.1,0,0,0,1.468,1.045l2.056-.716a1.9,1.9,0,0,0,1.278-1.8v-6.256A3.255,3.255,0,0,0,228.919,153.379Z" transform="translate(-214.183 -149.024)" fill="#365e7d"/>
                  </g>
                </g>
              </g>
            </g>
          </g>
        </g>
      </g>
      <path id="Path_13152" data-name="Path 13152" d="M89.3,355.412h44.475a2.621,2.621,0,0,0,2.441-1.667,17.124,17.124,0,0,0-13.705-14.338l-3.073-.591-.005.006a10.526,10.526,0,0,1-15.794-.006l-3.073.591A17.123,17.123,0,0,0,86.86,353.744,2.621,2.621,0,0,0,89.3,355.412Z" transform="translate(-86.86 -304.093)" fill="#dd5790"/>
      <g id="Group_7780" data-name="Group 7780" transform="translate(29.109 34.722)">
        <path id="Path_13153" data-name="Path 13153" d="M252.514,339.408l-3.073-.591-.005.006a10.482,10.482,0,0,1-3.463,2.586,17.145,17.145,0,0,1,8.141,11.182,2.316,2.316,0,0,1-2.048,2.816c-.061,0-.122.006-.184.006h11.9a2.621,2.621,0,0,0,2.44-1.667,17.123,17.123,0,0,0-13.7-14.338Z" transform="translate(-245.972 -338.816)" fill="#da387d"/>
      </g>
    </g>
    <path id="Path_13154" data-name="Path 13154" d="M132.962,48.51H88.487a2.623,2.623,0,0,0-2.623,2.623v6.614h49.72V51.133A2.622,2.622,0,0,0,132.962,48.51Z" transform="translate(-39.635 -39.635)" fill="#9bc4f9"/>
    <path id="Path_13155" data-name="Path 13155" d="M333.373,48.51h-2.224v9.237H336V51.133A2.623,2.623,0,0,0,333.373,48.51Z" transform="translate(-240.046 -39.635)" fill="#7fb2f9"/>
    <circle id="Ellipse_49" data-name="Ellipse 49" cx="1.372" cy="1.372" r="1.372" transform="translate(52.474 12.121)"/>
    <circle id="Ellipse_50" data-name="Ellipse 50" cx="1.372" cy="1.372" r="1.372" transform="translate(58.74 12.121)"/>
    <circle id="Ellipse_51" data-name="Ellipse 51" cx="1.372" cy="1.372" r="1.372" transform="translate(65.006 12.121)"/>
    <path id="Path_13156" data-name="Path 13156" d="M351.515,151.787H333.852a3.7,3.7,0,0,1-3.7-3.7V133.246a3.7,3.7,0,0,1,3.7-3.7h17.663a3.7,3.7,0,0,1,3.7,3.7v14.842A3.7,3.7,0,0,1,351.515,151.787Z" transform="translate(-239.232 -105.846)" fill="#e7a561"/>
    <path id="Path_13157" data-name="Path 13157" d="M392.112,129.546H379.839a3.7,3.7,0,0,1,3.7,3.7v14.842a3.7,3.7,0,0,1-3.7,3.7h12.273a3.7,3.7,0,0,0,3.7-3.7V133.246A3.7,3.7,0,0,0,392.112,129.546Z" transform="translate(-279.828 -105.846)" fill="#e49542"/>
    <path id="Path_13158" data-name="Path 13158" d="M367.251,175.033h-6.693a.918.918,0,0,1-.918-.918v-6.993a.918.918,0,0,1,.918-.918h6.693a.918.918,0,0,1,.918.918v6.993A.918.918,0,0,1,367.251,175.033Z" transform="translate(-263.325 -135.797)" fill="#fff"/>
    <path id="Path_13159" data-name="Path 13159" d="M410.426,177.129l-4.167-1.962v-3.421l4.167-1.962a1.106,1.106,0,0,1,1.577,1v5.342A1.106,1.106,0,0,1,410.426,177.129Z" transform="translate(-301.415 -138.637)" fill="#f9f6f9"/>
    <path id="Path_13160" data-name="Path 13160" d="M205.161,460.244a1.372,1.372,0,1,0,0-2.744h-6.037a1.372,1.372,0,1,0,0,2.744Z" transform="translate(-131.054 -373.802)"/>
    <path id="Path_13161" data-name="Path 13161" d="M103.452,50.984a1.372,1.372,0,0,0-1.372,1.372V86.651a4.278,4.278,0,0,1-4.274,4.274H44.372A4.278,4.278,0,0,1,40.1,86.651V7.018a4.278,4.278,0,0,1,4.274-4.274H97.806a4.278,4.278,0,0,1,4.274,4.274v10.23a1.372,1.372,0,0,0,2.744,0V7.018A7.026,7.026,0,0,0,97.806,0H44.372a7.026,7.026,0,0,0-7.018,7.018V86.651a7.026,7.026,0,0,0,7.018,7.018H97.806a7.026,7.026,0,0,0,7.018-7.018V52.356a1.372,1.372,0,0,0-1.372-1.372Z" transform="translate(0 0)"/>
    <path id="Path_13162" data-name="Path 13162" d="M145.791,55.835H130.829V45a4,4,0,0,0-3.995-3.995H82.359A4,4,0,0,0,78.364,45v64.462a4,4,0,0,0,3.995,3.995h44.475a4,4,0,0,0,3.995-3.995V80.821h14.962a5.078,5.078,0,0,0,5.072-5.072V60.907a5.078,5.078,0,0,0-5.072-5.072ZM81.108,45a1.252,1.252,0,0,1,1.251-1.251h44.475A1.252,1.252,0,0,1,128.084,45v5.242H81.108Zm45.726,65.712H82.359a1.255,1.255,0,0,1-1.015-.523A15.757,15.757,0,0,1,93.883,97.432l2.334-.449a11.9,11.9,0,0,0,8.375,3.451h0a11.905,11.905,0,0,0,8.38-3.452l2.334.449a15.757,15.757,0,0,1,12.539,12.763A1.256,1.256,0,0,1,126.834,110.717ZM109.636,67.4h-.069a6.779,6.779,0,0,0-2.076.326,10,10,0,0,1-5.814,0,6.888,6.888,0,0,0-2.1-.326h-.04A4.783,4.783,0,0,0,94.8,72.217l0,3.514-1.7-.592a.533.533,0,0,1-.357-.5V69.119a6.984,6.984,0,0,1,6.976-6.976h10.361a1.885,1.885,0,0,1,1.883,1.883,2.474,2.474,0,0,0,2.471,2.471h.11a1.885,1.885,0,0,1,1.883,1.883v6.256a.532.532,0,0,1-.357.5l-1.7.592,0-3.51A4.783,4.783,0,0,0,109.636,67.4ZM94.253,78.447A2.479,2.479,0,0,0,97.545,76.1l0-3.895a2.036,2.036,0,0,1,2-2.063H99.6a4.04,4.04,0,0,1,1.237.194,12.726,12.726,0,0,0,7.492,0,4.167,4.167,0,0,1,1.253-.194h.041a2.037,2.037,0,0,1,2,2.067l0,3.89a2.479,2.479,0,0,0,3.292,2.343l1.624-.566s0,.005,0,.008l.009,2.167a.572.572,0,0,1-.558.586l-.731,0a1.372,1.372,0,0,0-1.366,1.349,8.731,8.731,0,0,1-2.87,6.432,9.463,9.463,0,0,1-12.805.055A8.729,8.729,0,0,1,95.3,82.074a1.372,1.372,0,0,0-1.372-1.337H93.92l-.731,0h0a.572.572,0,0,1-.56-.581c-.005-2.285-.019-2.164,0-2.277ZM110.16,95.8A9.156,9.156,0,0,1,104.6,97.69h0a9.156,9.156,0,0,1-5.568-1.895,4.4,4.4,0,0,0,1.469-2.828,12.385,12.385,0,0,0,4.136.726h.031a12.4,12.4,0,0,0,4.014-.718A4.4,4.4,0,0,0,110.16,95.8Zm17.924,7.412a18.5,18.5,0,0,0-12.256-8.477l-3.073-.591a1.721,1.721,0,0,1-1.353-1.533v-1.02a13.913,13.913,0,0,0,1.436-1.106,11.368,11.368,0,0,0,3.71-7.147,3.272,3.272,0,0,0,1.795-.944,3.318,3.318,0,0,0,.952-2.351l-.009-2.167a3.342,3.342,0,0,0-.491-1.721,3.267,3.267,0,0,0,.376-1.52V68.381a4.633,4.633,0,0,0-4.472-4.625,4.633,4.633,0,0,0-4.619-4.357H99.719A9.731,9.731,0,0,0,90,69.119v5.517a3.267,3.267,0,0,0,.4,1.559A3.335,3.335,0,0,0,89.874,78l.009,2.167a3.319,3.319,0,0,0,.972,2.343,3.269,3.269,0,0,0,1.8.928,11.367,11.367,0,0,0,3.77,7.116,13.944,13.944,0,0,0,1.34,1.025v1.031a1.705,1.705,0,0,1-1.328,1.533h0l-3.073.591a18.5,18.5,0,0,0-12.256,8.477V52.991h46.976v2.845a5.077,5.077,0,0,0-5.028,5.071V75.749a5.077,5.077,0,0,0,5.028,5.071Zm20.034-27.464a2.331,2.331,0,0,1-2.328,2.328H128.128a2.33,2.33,0,0,1-2.328-2.328V60.908a2.331,2.331,0,0,1,2.328-2.328H145.79a2.331,2.331,0,0,1,2.328,2.328Z" transform="translate(-33.507 -33.507)"/>
    <path id="Path_13163" data-name="Path 13163" d="M365.623,159.578l-2.242,1.055a2.292,2.292,0,0,0-2.259-1.928h-6.693a2.293,2.293,0,0,0-2.29,2.29v6.993a2.293,2.293,0,0,0,2.29,2.29h6.693a2.292,2.292,0,0,0,2.259-1.928l2.242,1.055a2.478,2.478,0,0,0,3.534-2.242v-5.342A2.478,2.478,0,0,0,365.623,159.578Zm-4.955,7.956h-5.785v-6.084h5.785Zm5.744-.79-3-1.412v-1.679l3-1.412Z" transform="translate(-257.196 -129.67)"/>
  </g>
</svg>
