<svg xmlns="http://www.w3.org/2000/svg" width="38" height="38" viewBox="0 0 38 38">
  <g id="Voter_ID" data-name="Voter ID" transform="translate(-870.999 -676)">
    <g id="Group_8232" data-name="Group 8232" transform="translate(870.999 676)">
      <circle id="Ellipse_83" data-name="Ellipse 83" cx="18.765" cy="18.765" r="18.765" transform="translate(0.235 0.234)" fill="#d3d3d3"/>
      <path id="Path_13353" data-name="Path 13353" d="M948.8,120.007a18.916,18.916,0,0,1-10.623-3.245,19.062,19.062,0,0,1-6.884-8.359,18.972,18.972,0,0,1,1.752-18.019A19.05,19.05,0,0,1,941.4,83.5a18.976,18.976,0,0,1,18.019,1.752,19.057,19.057,0,0,1,6.883,8.36,18.976,18.976,0,0,1-1.752,18.019,19.052,19.052,0,0,1-8.359,6.883A18.881,18.881,0,0,1,948.8,120.007Zm0-37.531a18.531,18.531,0,1,0,18.531,18.531A18.552,18.552,0,0,0,948.8,82.476Z" transform="translate(-929.798 -82.007)" fill="#d3d3d3"/>
    </g>
    <g id="Group_8238" data-name="Group 8238" transform="translate(881.925 707.109) rotate(-90)">
      <g id="Group_8233" data-name="Group 8233" transform="translate(0 0)">
        <path id="Path_13354" data-name="Path 13354" d="M21.452,16.625H2.712A2.709,2.709,0,0,1,0,13.917V2.708A2.708,2.708,0,0,1,2.712,0H21.747a2.708,2.708,0,0,1,2.712,2.708V14.039c0,.008,0,.016,0,.023a2.552,2.552,0,0,1-.552,1.535,2.612,2.612,0,0,1-1.069.763A3.937,3.937,0,0,1,21.452,16.625Zm-.019-.983a2.922,2.922,0,0,0,1.061-.2,1.487,1.487,0,0,0,.982-1.411V2.708A1.729,1.729,0,0,0,21.747.982H2.712A1.729,1.729,0,0,0,.982,2.708V13.917a1.73,1.73,0,0,0,1.73,1.725H21.433Zm2.534-1.6Z"/>
      </g>
      <g id="Group_8234" data-name="Group 8234" transform="translate(10.032 2.427) rotate(90)">
        <path id="Path_13355" data-name="Path 13355" d="M11.28.983H.491A.491.491,0,0,1,.491,0H11.28a.491.491,0,1,1,0,.983Z" transform="translate(0)"/>
      </g>
      <g id="Group_8235" data-name="Group 8235" transform="translate(8.283 2.427) rotate(90)">
        <path id="Path_13356" data-name="Path 13356" d="M11.28.982H.491A.491.491,0,0,1,.491,0H11.28a.491.491,0,1,1,0,.982Z" transform="translate(0)"/>
      </g>
      <g id="Group_8236" data-name="Group 8236" transform="translate(6.535 2.427) rotate(90)">
        <path id="Path_13357" data-name="Path 13357" d="M11.28.982H.491A.491.491,0,0,1,.491,0H11.28a.491.491,0,1,1,0,.982Z" transform="translate(0)"/>
      </g>
      <g id="Group_8237" data-name="Group 8237" transform="translate(14.265 2.958)">
        <path id="Path_13358" data-name="Path 13358" d="M6.611,5.354H.491A.491.491,0,0,1,0,4.863V.491A.491.491,0,0,1,.491,0h6.12A.491.491,0,0,1,7.1.491V4.863A.491.491,0,0,1,6.611,5.354ZM.982,4.372H6.12V.982H.982Z"/>
      </g>
    </g>
  </g>
</svg>
