<svg xmlns="http://www.w3.org/2000/svg" width="56" height="56" viewBox="0 0 56 56">
  <g id="Webcam" transform="translate(17352 18618)">
    <circle id="Ellipse_64" data-name="Ellipse 64" cx="28" cy="28" r="28" transform="translate(-17352 -18618)" fill="#f2f2f2"/>
    <g id="web-cam" transform="translate(-17416.414 -18604.797)">
      <path id="Path_13076" data-name="Path 13076" d="M100.235,25.384l-4.7-2.095a2.2,2.2,0,0,0-.387-.131V20.707a10.065,10.065,0,0,0,.3-18.993A2.5,2.5,0,0,0,93.083,0H90.867A2.5,2.5,0,0,0,88.5,1.714a10.065,10.065,0,0,0,.3,18.993v2.452a2.2,2.2,0,0,0-.387.131L86.6,24.1a.434.434,0,0,0,.353.792l1.815-.81a1.324,1.324,0,0,1,.543-.115h5.335a1.324,1.324,0,0,1,.543.115l4.7,2.095a1.341,1.341,0,0,1-.543,2.549H84.611a1.341,1.341,0,0,1-.543-2.549l.743-.331a.434.434,0,0,0-.353-.792l-.743.331a2.212,2.212,0,0,0,.9,4.208H99.339a2.212,2.212,0,0,0,.9-4.208ZM96.385,11.32a4.41,4.41,0,1,1-4.41-4.411,4.415,4.415,0,0,1,4.41,4.411Zm-13.6-.162A9.2,9.2,0,0,1,88.37,2.7V7.469h0a5.277,5.277,0,1,0,7.209,0h0V6.3a.434.434,0,0,0-.867,0v.51a5.268,5.268,0,0,0-5.476,0V2.5a1.632,1.632,0,0,1,1.63-1.63h2.216a1.632,1.632,0,0,1,1.63,1.63V3.93a.434.434,0,0,0,.867,0V2.7a9.2,9.2,0,1,1-12.8,8.462Zm9.195,10.063a10.053,10.053,0,0,0,2.309-.268V23.1H89.666V20.953A10.053,10.053,0,0,0,91.975,21.221Z"/>
      <path id="Path_13077" data-name="Path 13077" d="M206.6,149.316a2.855,2.855,0,1,0,2.855-2.855A2.859,2.859,0,0,0,206.6,149.316Zm4.844,0a1.988,1.988,0,1,1-1.988-1.989A1.991,1.991,0,0,1,211.443,149.316Z" transform="translate(-117.48 -137.996)"/>
    </g>
  </g>
</svg>
