<svg id="Component_28_10" data-name="Component 28 – 10" xmlns="http://www.w3.org/2000/svg" width="8.625" height="12" viewBox="0 0 8.625 12">
  <path id="Icon_awesome-sort" data-name="Icon awesome-sort" d="M9.6,7.8,6.016,4.217a.72.72,0,0,0-1.022,0L1.4,7.8A.724.724,0,0,0,1.916,9.04H9.09A.724.724,0,0,0,9.6,7.8Z" transform="translate(-1.191 -4.004)" fill="#d3d3d3"/>
  <path id="Icon_awesome-sort-2" data-name="Icon awesome-sort" d="M1.916,10.969H9.09A.724.724,0,0,1,9.6,12.2L6.016,15.792a.72.72,0,0,1-1.022,0L1.4,12.2A.724.724,0,0,1,1.916,10.969Z" transform="translate(-1.191 -4.004)" fill="#5d5d5d"/>
</svg>
