<svg xmlns="http://www.w3.org/2000/svg" width="404" height="257" viewBox="0 0 404 257">
  <g id="Group_7870" data-name="Group 7870" transform="translate(-652 -170)">
    <rect id="Rectangle_1126" data-name="Rectangle 1126" width="404" height="257" transform="translate(652 170)" fill="#fff"/>
    <g id="layer1" transform="translate(675.914 199.689)">
      <g id="g10">
        <g id="g12">
          <path id="path14" d="M396.233,108.615h0a4.062,4.062,0,0,0-.549,1.676,10.779,10.779,0,0,1-.521,2.15,5.69,5.69,0,0,1-1.81,2.494,23.813,23.813,0,0,0-4.193-7.044,5.97,5.97,0,0,1,3.133-.285,11.444,11.444,0,0,1,2.162.634,4.391,4.391,0,0,0,1.765.376Z" transform="translate(-340.383 -94.038)" fill="#f8b517"/>
          <path id="path16" d="M312.846,31.1h0a4.175,4.175,0,0,0,.386,1.718,10.877,10.877,0,0,1,.651,2.114,5.544,5.544,0,0,1-.295,3.058,24.693,24.693,0,0,0-7.238-4.075,5.852,5.852,0,0,1,2.571-1.782,11.621,11.621,0,0,1,2.2-.5,4.352,4.352,0,0,0,1.721-.535Z" transform="translate(-267.952 -27.202)" fill="#f8b517"/>
          <path id="path18" d="M431.81,200.14a5.9,5.9,0,0,1,2.847,1.277,11.146,11.146,0,0,1,1.554,1.607,4.3,4.3,0,0,0,1.331,1.184h-5.371A23.571,23.571,0,0,0,431.81,200.14Z" transform="translate(-377.687 -175.055)" fill="#f8b517"/>
          <path id="path20" d="M111.494,31.12h0a4.322,4.322,0,0,0,1.721.534,11.531,11.531,0,0,1,2.2.5,5.832,5.832,0,0,1,2.571,1.781,24.74,24.74,0,0,0-7.24,4.075,5.515,5.515,0,0,1-.292-3.058,10.712,10.712,0,0,1,.651-2.114A4.112,4.112,0,0,0,111.494,31.12Z" transform="translate(-96.53 -27.219)" fill="#f8b517"/>
          <path id="path22" d="M32,108.611h0a4.463,4.463,0,0,0,1.766-.376,11.426,11.426,0,0,1,2.17-.635,5.986,5.986,0,0,1,3.133.285,23.792,23.792,0,0,0-4.186,7.047,5.664,5.664,0,0,1-1.809-2.494,10.684,10.684,0,0,1-.523-2.148A4.074,4.074,0,0,0,32,108.612Z" transform="translate(-27.989 -94.032)" fill="#f8b517"/>
          <path id="path24" d="M0,204.208a4.173,4.173,0,0,0,1.33-1.184,11.142,11.142,0,0,1,1.553-1.606,5.876,5.876,0,0,1,2.844-1.278,23.556,23.556,0,0,0-.358,4.069Z" transform="translate(0 -175.055)" fill="#f8b517"/>
          <path id="path26" d="M209.6,0h0a4.113,4.113,0,0,0,1.216,1.3,11.039,11.039,0,0,1,1.648,1.513A5.6,5.6,0,0,1,213.783,5.6a25.375,25.375,0,0,0-8.363,0,5.618,5.618,0,0,1,1.317-2.794,11.221,11.221,0,0,1,1.649-1.5A4.183,4.183,0,0,0,209.6.013Z" transform="translate(-179.673)" fill="#f8b517"/>
        </g>
        <g id="g28" transform="translate(7.701 7.878)">
          <path id="path30" d="M173.985,215.591h1.848c.242-1.519-.233-2.69-1.811-2.41a8.025,8.025,0,0,0-3.621,2.41l2.435-.01c.272-.173.8-.376,1.022-.224A.287.287,0,0,1,173.985,215.591Z" transform="translate(-156.743 -194.303)" fill="#d42837"/>
          <path id="path32" d="M100.549,150.014h2.306a15.2,15.2,0,0,0-1.6-7.757,7.33,7.33,0,0,0-5.515-3.975c-3.595-.516-7.223.973-10.289,3.087a38.244,38.244,0,0,0-8.506,8.648h3.044c2.74-3.785,9.046-9.526,13.683-9.567a6.06,6.06,0,0,1,4.092,1.295,4.782,4.782,0,0,1,1.732,3.162c-.029.648-.627.855-1.2.648a2.567,2.567,0,0,1-1.068-.973,4.5,4.5,0,0,0-4.31-1.789,13.953,13.953,0,0,0-6.257,3.259,39.355,39.355,0,0,0-3.949,3.958H86a16.709,16.709,0,0,1,4.1-3.6,9.338,9.338,0,0,1,1.817-.866c1.682-.564,3.357-.421,4.1,1.619a6.288,6.288,0,0,1,.251,2.8v.051h2.225v-.065a18.115,18.115,0,0,1,.05-1.88c.056-.6.251-1.228.831-1.3,1.223-.251,1.164,2.4,1.188,3.25Z" transform="translate(-75.006 -128.738)" fill="#d42837"/>
          <path id="path34" d="M91.717,115.071h2.328a23.411,23.411,0,0,0-.921-7.919,14.223,14.223,0,0,0-.555-1.458,12.459,12.459,0,0,0-1.954-3.008,13.328,13.328,0,0,0-3.116-2.66,12.084,12.084,0,0,0-1.085-.589h0a11.117,11.117,0,0,0-1.153-.471h0c-4.526-1.564-9.1-.451-12.943,1.583-.752.4-1.468.828-2.161,1.281s-1.331.929-1.953,1.414h0a26.564,26.564,0,0,0-2.544,2.29c-.175.183-.352.37-.523.559-.456.5-1.164,1.211-.951,1.943.165.58.933.41,1.2.209a7.772,7.772,0,0,0,1.246-.877c.524-.431,1.018-.895,1.535-1.332a25.929,25.929,0,0,1,6.421-4.048q.7-.3,1.405-.541c.466-.162.928-.3,1.388-.412h0c3.99-1.011,8.341-.356,11.124,2.82,2.679,3.06,3.167,7.153,3.209,11.222Zm-28.828-3.459a7.723,7.723,0,0,0,.768-.851,1.151,1.151,0,0,0,.263-1.222.865.865,0,0,0-.234-.3.82.82,0,0,0-.333-.162.988.988,0,0,0-.97.4,4.033,4.033,0,0,0-.925,1.738,1.254,1.254,0,0,0-.011.335.8.8,0,0,0,.088.292h0a.426.426,0,0,0,.386.228.617.617,0,0,0,.118,0,.8.8,0,0,0,.133-.023h0A1.686,1.686,0,0,0,62.889,111.612Z" transform="translate(-61.44 -93.795)" fill="#d42837"/>
          <path id="path36" d="M126.134,84.131h.025a1.042,1.042,0,0,0,.91-.5,1.213,1.213,0,0,0,.125-.273,1.689,1.689,0,0,0,.063-.361h0v-.028h0c.184-6.286-1.792-11.491-5.154-15.027a15.856,15.856,0,0,0-4.495-3.328h-.014a17.392,17.392,0,0,0-9.15-1.692,18.694,18.694,0,0,0-3.615.661h0a20.691,20.691,0,0,0-8.694,5.207c-.473.476-.928.978-1.36,1.479q-.322.376-.627.778a30.538,30.538,0,0,1,5.487-3.716q.651-.341,1.309-.637t1.332-.554h0a20.523,20.523,0,0,1,5.06-1.24,19.253,19.253,0,0,1,5.065.125,15.691,15.691,0,0,1,3.467.93q.312.125.61.268c.2.1.39.192.58.3h0c3.76,2.005,6.37,6.117,7.52,10.762a22.687,22.687,0,0,1,.666,5.579h0v.053a1.338,1.338,0,0,0,.5,1.114.638.638,0,0,0,.182.08h0a.712.712,0,0,0,.212.026Z" transform="translate(-90.05 -62.854)" fill="#d42837"/>
          <path id="path38" d="M295.675,65.44a22.228,22.228,0,0,1,15.607,20.953H306.81A23.034,23.034,0,0,0,295.67,65.44Z" transform="translate(-266.312 -65.116)" fill="#f8b517"/>
        </g>
        <path id="path40" d="M60.568,256.61H58.759l-.447,1.535H56.87l1.908-5.88h1.829l1.962,5.88h-1.5Zm-1.6-1h1.386q-.543-1.722-.708-2.363h-.018l-.287,1.116-.376,1.247Zm8.245,1h-1.8l-.449,1.535H63.519l1.906-5.88h1.83l1.96,5.88h-1.5Zm-1.6-1H67q-.545-1.722-.707-2.363h-.018l-.286,1.116-.376,1.247Zm4.978,2.507v-5.777a13.092,13.092,0,0,1,1.918-.125,3.981,3.981,0,0,1,2.77.787,2.668,2.668,0,0,1,.831,2.057,2.9,2.9,0,0,1-.954,2.324,4.452,4.452,0,0,1-2.95.82,13.378,13.378,0,0,1-1.614-.088Zm1.389-4.816v3.829a3.026,3.026,0,0,0,.5.026,2.255,2.255,0,0,0,1.6-.53,1.98,1.98,0,0,0,.565-1.519,1.75,1.75,0,0,0-.516-1.379,2.159,2.159,0,0,0-1.5-.474,3.584,3.584,0,0,0-.666.051Zm5.623-1.038h1.389v2.267h2.373v-2.27h1.388v5.88H81.359V255.7H78.986v2.45H77.6Zm10.181,4.344H85.965l-.447,1.535H84.085l1.905-5.882h1.829l1.962,5.88h-1.5l-.5-1.535Zm-1.6-1h1.388q-.545-1.722-.707-2.363h-.014l-.286,1.116-.376,1.247Zm8.246,1H92.608l-.447,1.535H90.728l1.906-5.88h1.83l1.96,5.88h-1.5l-.5-1.535Zm-1.6-1h1.389q-.546-1.722-.707-2.363h-.015L93.2,254.37l-.376,1.247Zm4.977,2.531v-5.8a11.262,11.262,0,0,1,1.871-.125,3.4,3.4,0,0,1,1.97.44,1.469,1.469,0,0,1,.6,1.26,1.417,1.417,0,0,1-.3.884,1.629,1.629,0,0,1-.782.557v.034a1.467,1.467,0,0,1,.815,1.082q.461,1.579.5,1.676h-1.415a6.674,6.674,0,0,1-.425-1.376,1.5,1.5,0,0,0-.332-.732.958.958,0,0,0-.688-.208h-.431v2.311Zm1.37-4.888v1.619h.573a1.316,1.316,0,0,0,.82-.229.735.735,0,0,0,.3-.615.718.718,0,0,0-.269-.6,1.228,1.228,0,0,0-.77-.211,3.084,3.084,0,0,0-.653.044Z" transform="translate(-49.742 -220.605)" fill="#d42837"/>
      </g>
    </g>
    <g id="Group_7801" data-name="Group 7801" transform="translate(752.735 202.871)">
      <rect id="Rectangle_1043" data-name="Rectangle 1043" width="167" height="13" transform="translate(0.265 0.129)" fill="#de8220"/>
      <rect id="Rectangle_1044" data-name="Rectangle 1044" width="226" height="13" transform="translate(0.265 17.129)" fill="#479117"/>
    </g>
  </g>
</svg>
