<svg xmlns="http://www.w3.org/2000/svg" width="404" height="257" viewBox="0 0 404 257">
  <g id="Group_7871" data-name="Group 7871" transform="translate(-216 -170)">
    <rect id="Rectangle_1125" data-name="Rectangle 1125" width="404" height="257" transform="translate(216 170)" fill="#fff"/>
    <g id="layer1" transform="translate(542.165 199.652)">
      <g id="g10">
        <g id="g12">
          <path id="path14" d="M396.224,108.613h0a4.057,4.057,0,0,0-.548,1.674,10.766,10.766,0,0,1-.521,2.147,5.683,5.683,0,0,1-1.808,2.491,23.781,23.781,0,0,0-4.187-7.035,5.962,5.962,0,0,1,3.129-.284,11.427,11.427,0,0,1,2.159.633,4.386,4.386,0,0,0,1.763.376Z" transform="translate(-340.447 -94.055)" fill="#f8b517"/>
          <path id="path16" d="M312.838,31.1h0a4.17,4.17,0,0,0,.386,1.716,10.866,10.866,0,0,1,.65,2.112,5.537,5.537,0,0,1-.294,3.054,24.66,24.66,0,0,0-7.229-4.069,5.845,5.845,0,0,1,2.567-1.78,11.605,11.605,0,0,1,2.2-.5,4.346,4.346,0,0,0,1.719-.534Z" transform="translate(-268.003 -27.207)" fill="#f8b517"/>
          <path id="path18" d="M431.81,200.14a5.9,5.9,0,0,1,2.843,1.276,11.13,11.13,0,0,1,1.552,1.6,4.294,4.294,0,0,0,1.329,1.183H432.17A23.537,23.537,0,0,0,431.81,200.14Z" transform="translate(-377.758 -175.087)" fill="#f8b517"/>
          <path id="path20" d="M111.492,31.12h0a4.316,4.316,0,0,0,1.719.533,11.516,11.516,0,0,1,2.2.5,5.824,5.824,0,0,1,2.567,1.779A24.707,24.707,0,0,0,110.75,38a5.508,5.508,0,0,1-.292-3.054,10.7,10.7,0,0,1,.65-2.112A4.106,4.106,0,0,0,111.492,31.12Z" transform="translate(-96.548 -27.225)" fill="#f8b517"/>
          <path id="path22" d="M32,108.609h0a4.457,4.457,0,0,0,1.764-.376,11.412,11.412,0,0,1,2.167-.635,5.978,5.978,0,0,1,3.129.284,23.761,23.761,0,0,0-4.181,7.037,5.657,5.657,0,0,1-1.806-2.491,10.67,10.67,0,0,1-.522-2.145A4.068,4.068,0,0,0,32,108.611Z" transform="translate(-27.994 -94.05)" fill="#f8b517"/>
          <path id="path24" d="M0,204.2a4.167,4.167,0,0,0,1.328-1.183,11.127,11.127,0,0,1,1.551-1.6,5.868,5.868,0,0,1,2.84-1.277,23.525,23.525,0,0,0-.358,4.063Z" transform="translate(0 -175.087)" fill="#f8b517"/>
          <path id="path26" d="M209.6,0h0a4.108,4.108,0,0,0,1.214,1.294,11.025,11.025,0,0,1,1.646,1.511,5.6,5.6,0,0,1,1.314,2.79,25.342,25.342,0,0,0-8.352,0,5.61,5.61,0,0,1,1.316-2.79,11.206,11.206,0,0,1,1.647-1.5A4.178,4.178,0,0,0,209.6.013Z" transform="translate(-179.706)" fill="#f8b517"/>
        </g>
        <g id="g28" transform="translate(7.691 7.868)">
          <path id="path30" d="M173.98,215.588h1.845c.242-1.517-.233-2.686-1.809-2.407a8.014,8.014,0,0,0-3.616,2.407l2.432-.01c.272-.173.8-.376,1.02-.224A.287.287,0,0,1,173.98,215.588Z" transform="translate(-156.761 -194.327)" fill="#d42837"/>
          <path id="path32" d="M100.518,150h2.3a15.177,15.177,0,0,0-1.593-7.747,7.32,7.32,0,0,0-5.508-3.969c-3.59-.516-7.214.971-10.276,3.083A38.194,38.194,0,0,0,76.95,150h3.041c2.736-3.78,9.034-9.513,13.665-9.555a6.052,6.052,0,0,1,4.087,1.293,4.776,4.776,0,0,1,1.73,3.158c-.029.647-.626.854-1.194.647a2.564,2.564,0,0,1-1.066-.971,4.5,4.5,0,0,0-4.3-1.786,13.935,13.935,0,0,0-6.249,3.255A39.3,39.3,0,0,0,82.714,150h3.27a16.687,16.687,0,0,1,4.091-3.6,9.324,9.324,0,0,1,1.815-.865c1.68-.563,3.352-.421,4.094,1.617a6.28,6.28,0,0,1,.25,2.793v.051h2.222v-.065a18.089,18.089,0,0,1,.05-1.878c.056-.6.25-1.227.83-1.294,1.222-.25,1.163,2.4,1.187,3.246Z" transform="translate(-75.008 -128.75)" fill="#d42837"/>
          <path id="path34" d="M91.677,115.049H94a23.381,23.381,0,0,0-.92-7.909,14.207,14.207,0,0,0-.555-1.456,12.442,12.442,0,0,0-1.951-3,13.311,13.311,0,0,0-3.112-2.656,12.065,12.065,0,0,0-1.084-.588h0a11.1,11.1,0,0,0-1.152-.471h0c-4.52-1.562-9.091-.451-12.926,1.581-.751.4-1.466.827-2.158,1.279s-1.329.928-1.95,1.412h0a26.527,26.527,0,0,0-2.541,2.287c-.175.183-.352.369-.522.558-.456.5-1.163,1.209-.95,1.94.165.58.931.409,1.2.209a7.761,7.761,0,0,0,1.244-.876c.523-.431,1.016-.894,1.533-1.331a25.9,25.9,0,0,1,6.413-4.043q.7-.3,1.4-.541c.466-.161.926-.3,1.386-.412h0c3.984-1.01,8.33-.355,11.109,2.816,2.675,3.056,3.163,7.144,3.2,11.207Zm-28.79-3.455a7.713,7.713,0,0,0,.767-.85,1.15,1.15,0,0,0,.263-1.22.864.864,0,0,0-.234-.3.819.819,0,0,0-.333-.161.987.987,0,0,0-.969.4,4.028,4.028,0,0,0-.924,1.736,1.252,1.252,0,0,0-.011.334.8.8,0,0,0,.088.292h0a.426.426,0,0,0,.386.228.616.616,0,0,0,.118,0,.8.8,0,0,0,.133-.023h0A1.684,1.684,0,0,0,62.887,111.594Z" transform="translate(-61.44 -93.801)" fill="#d42837"/>
          <path id="path36" d="M126.092,84.1h.025a1.04,1.04,0,0,0,.909-.5,1.211,1.211,0,0,0,.125-.273,1.686,1.686,0,0,0,.063-.361h0v-.028h0c.184-6.278-1.79-11.476-5.147-15.007a15.836,15.836,0,0,0-4.489-3.323h-.014a17.369,17.369,0,0,0-9.138-1.69,18.669,18.669,0,0,0-3.61.66h0a20.664,20.664,0,0,0-8.682,5.2c-.472.476-.926.976-1.358,1.477q-.322.376-.626.777a30.5,30.5,0,0,1,5.48-3.711q.65-.34,1.307-.636t1.331-.553h0a20.5,20.5,0,0,1,5.053-1.238,19.228,19.228,0,0,1,5.058.125,15.671,15.671,0,0,1,3.462.929q.312.125.61.268c.2.1.389.192.58.3h0c3.755,2,6.361,6.109,7.511,10.748a22.657,22.657,0,0,1,.665,5.572h0v.053a1.336,1.336,0,0,0,.5,1.113.637.637,0,0,0,.182.08h0a.711.711,0,0,0,.212.026Z" transform="translate(-90.055 -62.854)" fill="#d42837"/>
          <path id="path38" d="M295.675,65.44a22.2,22.2,0,0,1,15.587,20.926H306.8A23,23,0,0,0,295.67,65.44Z" transform="translate(-266.35 -65.116)" fill="#f8b517"/>
        </g>
        <path id="path40" d="M60.563,256.6H58.756l-.447,1.533H56.87l1.905-5.872H60.6l1.959,5.872h-1.5Zm-1.6-.994h1.384q-.542-1.72-.707-2.36h-.018l-.287,1.114-.376,1.245Zm8.234.994H65.4l-.448,1.533h-1.44l1.9-5.872h1.828l1.958,5.872H67.7Zm-1.6-.994h1.387q-.544-1.72-.706-2.36h-.018l-.285,1.114L65.6,255.61Zm4.972,2.5v-5.769a13.074,13.074,0,0,1,1.915-.125,3.976,3.976,0,0,1,2.766.786,2.664,2.664,0,0,1,.83,2.054,2.894,2.894,0,0,1-.953,2.321,4.446,4.446,0,0,1-2.947.819,13.355,13.355,0,0,1-1.612-.088Zm1.387-4.809v3.824a3.022,3.022,0,0,0,.5.026,2.252,2.252,0,0,0,1.6-.53,1.978,1.978,0,0,0,.565-1.517,1.747,1.747,0,0,0-.516-1.377,2.156,2.156,0,0,0-1.495-.473,3.58,3.58,0,0,0-.665.051Zm5.615-1.036h1.387v2.264h2.37v-2.267h1.386v5.872H81.327V255.7h-2.37v2.447H77.57Zm10.168,4.339H85.927l-.447,1.533H84.049l1.9-5.874h1.826l1.959,5.872H88.244l-.5-1.533Zm-1.6-.994h1.386q-.545-1.72-.706-2.36H86.8l-.285,1.114-.376,1.245Zm8.235.994H92.561l-.447,1.533H90.684l1.9-5.872h1.828l1.958,5.872h-1.5l-.5-1.533Zm-1.6-.994h1.387q-.546-1.72-.706-2.36h-.015l-.285,1.114-.376,1.245Zm4.971,2.527v-5.8a11.252,11.252,0,0,1,1.869-.125,3.394,3.394,0,0,1,1.968.439,1.467,1.467,0,0,1,.6,1.258,1.416,1.416,0,0,1-.3.882,1.627,1.627,0,0,1-.781.556v.034a1.465,1.465,0,0,1,.814,1.08q.461,1.577.5,1.674H101a6.666,6.666,0,0,1-.424-1.374,1.5,1.5,0,0,0-.332-.731.956.956,0,0,0-.687-.208h-.431v2.308Zm1.368-4.882v1.617h.572a1.314,1.314,0,0,0,.819-.229.734.734,0,0,0,.3-.615.717.717,0,0,0-.269-.6,1.227,1.227,0,0,0-.769-.21,3.08,3.08,0,0,0-.652.044Z" transform="translate(-49.751 -220.646)" fill="#d42837"/>
      </g>
    </g>
    <g id="Group_7799" data-name="Group 7799" transform="translate(253.373 198.592)">
      <path id="Path_8745" data-name="Path 8745" d="M68.187,48.8H43.1V10.271c-.009-.142-.017-.284.1-.3H68.187Z" transform="translate(-43.1 -9.97)" fill="none"/>
      <path id="Path_8746" data-name="Path 8746" d="M315.005,26.525c-.038.33-.533.2-.5.6a3.839,3.839,0,0,1,1.3,1c.56-.5-.307-1.112-.1-1.906-.764-.162-.91.294-1.5.3.015-.249.019-.487-.2-.5-.094.241-.4.266-.3.7C314.2,27.072,314.562,26.553,315.005,26.525Zm.5.9c-.315.047-.265-.27-.5-.3.059-.209.211-.324.3-.5A1.36,1.36,0,0,1,315.507,27.428Z" transform="translate(-300.152 -25.22)" fill="#fff"/>
      <path id="Path_8747" data-name="Path 8747" d="M214.785,33.372c0-.266-.056-.591.2-.6a1.815,1.815,0,0,0,.8,1.1c.11-.362.812-.541.6-.9-.178-.29-.707-.229-.9-.5.41-1.3,2.932-.969,2.107.7a1.02,1.02,0,0,0,1.2,0c.087-.488-.287-.515-.2-1,.153-.916,1.862-.913,1.906.1.025.46-.454.416-.4.9,0,.2.274.128.2.4.817.041.781-.818.8-1.3.647.718-.05,1.847-.1,2.709-.035.606.4,1.474-.5,1.5a3.821,3.821,0,0,0,.1,1.1c.944-.514.987-1.227.9-2.408.32.086.31-.158.5-.2-.217-1.121.41-3.085-1.1-2.91a2.937,2.937,0,0,0-2.107-1.4c-.049-.317.181-.354.1-.7-.606-.05.032.521-.3.7-.176-.092-.5-.034-.6-.2.154-.153.179-.688-.2-.6-.116.326.306.617,0,.8-.644.254-.541-.538-.7-.6a1.113,1.113,0,0,1-1.906.8c.377-.272,2.5-.132,1.4-.9-.279-.045.079.547-.2.5a1.815,1.815,0,0,0-1.806-.5c.388.824-.174.912.4,1.605-.316-.048-.075.46-.3.5-.158-.009-.079-.256-.3-.2C213.913,32.229,214.014,33.4,214.785,33.372Zm.7-1.806a5.156,5.156,0,0,1-.5,1C214.854,32.334,215.229,31.746,215.487,31.566Z" transform="translate(-205.55 -28.857)" fill="#fff"/>
      <path id="Path_8748" data-name="Path 8748" d="M279.929,30.639c0-.266.056-.591-.2-.6C279.789,30.244,279.567,30.734,279.929,30.639Z" transform="translate(-267.885 -29.034)" fill="#fff"/>
      <path id="Path_8749" data-name="Path 8749" d="M340.678,38.866a1.36,1.36,0,0,0-.2-.8c-.09.177-.242.293-.3.5C340.413,38.6,340.363,38.913,340.678,38.866Z" transform="translate(-325.323 -36.658)"/>
      <path id="Path_8750" data-name="Path 8750" d="M312.57,66.485c-.364-.53-1.19.123-1,.8a1.077,1.077,0,0,0,1.3-.4c-.384-.32-.9.189-1.1,0A.743.743,0,0,1,312.57,66.485Z" transform="translate(-298.119 -63.475)" fill="#fff"/>
      <path id="Path_8751" data-name="Path 8751" d="M251.882,68.87c.061.585.923.57,1.3.3a.724.724,0,0,0-1.1-.7c-.118.417.793-.2.8.3C252.545,68.8,252.072,68.692,251.882,68.87Z" transform="translate(-241.443 -65.459)" fill="#fff"/>
      <path id="Path_8752" data-name="Path 8752" d="M116.532,78.2c.691.156.365-.706.6-1,.206.162.233.5.2.9a2.057,2.057,0,0,1-.6.3c-.028.362.4.272.4.6a.491.491,0,0,0-.5.2,8.632,8.632,0,0,1,1,.7c.261-.312,0-.746-.1-1,.671-.054.192-.647.3-1.2a1.727,1.727,0,0,0-.1-1.806c-.858-.089-2.024.2-2.308,1C115.818,77.311,116.776,77.156,116.532,78.2Z" transform="translate(-111.812 -72.584)" fill="#fff"/>
      <path id="Path_8753" data-name="Path 8753" d="M172.217,82.428c.092-.426-.24-.428-.6-.4C171.628,82.348,171.842,82.469,172.217,82.428Z" transform="translate(-165.189 -78.415)" fill="#fff"/>
      <path id="Path_8754" data-name="Path 8754" d="M173.02,96.256c-.008.443.017.853.5.8-.084-.685-.486-1.052-.6-1.706.21.062.377.515.5.1-.34-.471-1.291-.846-1.806-.3C171.84,95.738,172.77,96.014,173.02,96.256Z" transform="translate(-165.189 -90.638)" fill="#fff"/>
      <path id="Path_8755" data-name="Path 8755" d="M212.12,101.676c.316.077.873-.37.8-1-.586.151-.618-.251-.9-.4C211.734,100.708,212.218,101.1,212.12,101.676Z" transform="translate(-203.487 -95.756)" fill="#fff"/>
      <path id="Path_8756" data-name="Path 8756" d="M381.814,102.277c-.545.291-1.453.219-1.5,1C381.035,103.17,381.637,102.936,381.814,102.277Z" transform="translate(-363.449 -97.662)" fill="#fff"/>
      <path id="Path_8757" data-name="Path 8757" d="M80.112,106.208c.1.2.444.158.4.5-.655.382-.731,1.342-1.2,1.906.562.285,1.317-.507.8-1a3.131,3.131,0,0,1,1.5.2c-.167.268-.692.177-.9.4a1.143,1.143,0,0,0,.6,1.1c.172-.508-.468-.506-.2-.8a.8.8,0,0,1,.4.9c-.128.562-1.3.426-.9,1.2,1.47-.159,1.616-2.1,1.3-3.712-.158-.176-.537-.132-.7-.3.251-.183.661-.209.8-.5a1.657,1.657,0,0,0-2.609.5C79.758,106.59,79.79,106.255,80.112,106.208Z" transform="translate(-77.499 -100.891)" fill="#fff"/>
      <path id="Path_8758" data-name="Path 8758" d="M241.9,114.237c-.316.219-.17.9-.2,1.4a2.357,2.357,0,0,0,1.1.5c.049-.524-1.348-.84-.6-1.806C242.074,114.332,242.063,114.209,241.9,114.237Z" transform="translate(-231.763 -109.02)" fill="#fff"/>
      <path id="Path_8759" data-name="Path 8759" d="M172.819,117.625a1.1,1.1,0,0,0-1.2-1.3C171.687,117.085,172.416,117.192,172.819,117.625Z" transform="translate(-165.189 -111.004)" fill="#fff"/>
      <path id="Path_8760" data-name="Path 8760" d="M427.363,117.628c-.118-.719.583-.621.7-1.1-.021-.113-.111-.156-.2-.2C427.493,116.54,426.427,117.325,427.363,117.628Z" transform="translate(-407.794 -111.007)" fill="#fff"/>
      <path id="Path_8761" data-name="Path 8761" d="M260.31,120.564a1.532,1.532,0,0,0,1.1-.5c-.61.139-1.264-.2-1.5-.1C260.073,120.133,260.075,120.465,260.31,120.564Z" transform="translate(-249.069 -114.444)" fill="#fff"/>
      <path id="Path_8762" data-name="Path 8762" d="M379.807,120.337c-.649.053-.937.468-1.5.6C378.692,121.575,380.014,120.877,379.807,120.337Z" transform="translate(-361.543 -114.819)" fill="#fff"/>
      <path id="Path_8763" data-name="Path 8763" d="M67.481,131.95c-.6-.177-1.346.73-1.1,1.4A1.824,1.824,0,0,0,67.481,131.95Z" transform="translate(-65.169 -125.829)" fill="#fff"/>
      <path id="Path_8764" data-name="Path 8764" d="M216.565,130.371c-.384.051-.778.091-.8.5.238.264.4.6.8.7.228-.073.3-.3.4-.5C216.686,130.985,216.633,130.67,216.565,130.371Z" transform="translate(-207.129 -124.351)" fill="#fff"/>
      <path id="Path_8765" data-name="Path 8765" d="M418.741,134.183c-.14-.842.737-.668,1-1.1.016-.317,0-.606-.2-.7-.244.191-.181.689-.5.8-.354-.193-.549.033-.8.2C418.182,133.873,418.37,134.12,418.741,134.183Z" transform="translate(-399.474 -126.257)" fill="#fff"/>
      <path id="Path_8766" data-name="Path 8766" d="M283.385,135.121c-.1-.606-.953-.577-1.4-.3C281.97,135.439,283.115,135.666,283.385,135.121Z" transform="translate(-270.037 -128.398)" fill="#fff"/>
      <path id="Path_8767" data-name="Path 8767" d="M172.53,137.595c.217-.579-.552-.967-1-1.2a.653.653,0,0,0-.1.5C171.839,137.082,172.1,137.422,172.53,137.595Z" transform="translate(-165.001 -130.07)" fill="#fff"/>
      <path id="Path_8768" data-name="Path 8768" d="M388.161,139.528c.364-.371,1.178-.293,1.3-.9A.891.891,0,0,0,388.161,139.528Z" transform="translate(-370.9 -132.104)" fill="#fff"/>
      <path id="Path_8769" data-name="Path 8769" d="M267.707,140.387a1.208,1.208,0,0,0,.3,1.4c.556-.519,1.51.016,2.308-.2a2.265,2.265,0,0,1,.2-1.2c-.739.352-1.011.948-1.806.7C268.288,140.959,268.28,140.36,267.707,140.387Z" transform="translate(-256.365 -133.866)" fill="#fff"/>
      <path id="Path_8770" data-name="Path 8770" d="M374.474,140.739c.028-.262-.037-.432-.3-.4C374.145,140.6,374.209,140.769,374.474,140.739Z" transform="translate(-357.614 -133.816)" fill="#fff"/>
      <path id="Path_8771" data-name="Path 8771" d="M199.6,144.389c-.04.441.123.679.5.7C200.041,144.748,200.027,144.361,199.6,144.389Z" transform="translate(-191.768 -137.667)" fill="#fff"/>
      <path id="Path_8772" data-name="Path 8772" d="M137.5,152.444a7.427,7.427,0,0,0,1.1,1.605C138.835,153.3,138.134,152.662,137.5,152.444Z" transform="translate(-132.782 -145.321)" fill="#fff"/>
      <path id="Path_8773" data-name="Path 8773" d="M370.668,152.492c-.158-.009-.079-.256-.3-.2a3.354,3.354,0,0,0-.1,2.007c.63,0,.6-.669.7-1.2-.333-.09-.435.557-.6.3C370.356,152.983,370.768,152.993,370.668,152.492Z" transform="translate(-353.808 -145.168)" fill="#fff"/>
      <path id="Path_8774" data-name="Path 8774" d="M163.884,156.351c-.4,1.1.617,1.563,1.2,2.007.191-.277.009-.928.4-1a1.084,1.084,0,0,1,.5.6.653.653,0,0,0-.5.1c-.059.36.117.485.2.7.786-.27.679-1.63.1-2.007C164.926,157.13,164.753,156.269,163.884,156.351Zm1.1,1.2c-.441-.061-.787-.217-.9-.6A.836.836,0,0,1,164.988,157.555Z" transform="translate(-157.76 -149.027)" fill="#fff"/>
      <path id="Path_8775" data-name="Path 8775" d="M220.778,156.458c-.334.357-.784,0-1,.1.36.41.634.9,1,1.3a4.2,4.2,0,0,0,.8-.9C221.282,156.823,220.785,156.886,220.778,156.458Z" transform="translate(-210.942 -149.134)" fill="#fff"/>
      <path id="Path_8776" data-name="Path 8776" d="M453.838,158.414c.311-.767-1.007-.716-1.2-1.3.129-.372.631-.373.6-.9-.372-.071-.431.171-.8.1a4.185,4.185,0,0,0-.1,1.2C452.99,157.657,453.015,158.435,453.838,158.414Z" transform="translate(-431.862 -148.883)" fill="#fff"/>
      <path id="Path_8777" data-name="Path 8777" d="M395.1,159.084c-.451-.271-.843.26-.8.8A.93.93,0,0,0,395.1,159.084Z" transform="translate(-376.739 -151.559)" fill="#fff"/>
      <path id="Path_8778" data-name="Path 8778" d="M426.084,160.069c.432-.471,1-.808,1.1-1.605C426.635,158.761,425.937,159.4,426.084,160.069Z" transform="translate(-406.917 -151.04)" fill="#fff"/>
      <path id="Path_8779" data-name="Path 8779" d="M170.51,169.1a.836.836,0,0,0-.9-.6C169.723,168.882,170.069,169.038,170.51,169.1Z" transform="translate(-163.282 -160.571)"/>
      <path id="Path_8780" data-name="Path 8780" d="M467.8,172.958c.022-.367.138-.385,0-.7-.427.088-.89-.307-1.2,0C467.014,172.473,467.283,172.84,467.8,172.958Z" transform="translate(-445.422 -164.029)" fill="#fff"/>
      <path id="Path_8781" data-name="Path 8781" d="M89.713,175.321c.206-.028.2-.268.3-.4-.339-.029-.423-.312-.7-.4C89.3,174.929,89.325,175.307,89.713,175.321Z" transform="translate(-86.999 -166.291)" fill="#fff"/>
      <path id="Path_8782" data-name="Path 8782" d="M138.2,176.224c.722-.823.98-.092,1.5.5.178-.19.073-.663.1-1-.72-.45-1.644-.7-2.307-1.2C137.586,175.236,138.4,175.224,138.2,176.224Z" transform="translate(-132.782 -166.291)" fill="#fff"/>
      <path id="Path_8783" data-name="Path 8783" d="M396.362,175.521c.63.307.357,1.516,1.1,1.706.046-.522.513-.624.7-1-.449-.143-.859.271-1.1,0,.129-.306.6-.268.6-.7-.24-.061-.728.126-.8-.1.07-.431.766-.237.6-.9C396.82,174.575,396.559,175.016,396.362,175.521Z" transform="translate(-378.7 -166.291)" fill="#fff"/>
      <path id="Path_8784" data-name="Path 8784" d="M249.875,178.467c.276.426.418.987,1,1.1.147-.188,0-.665.2-.8.045.487.577.919,1,.7A2.482,2.482,0,0,0,249.875,178.467Z" transform="translate(-239.537 -170.039)" fill="#fff"/>
      <path id="Path_8785" data-name="Path 8785" d="M323.433,177.613c.364-.2.475-.662.5-1.2A.684.684,0,0,0,323.433,177.613Z" transform="translate(-309.181 -168.081)" fill="#fff"/>
      <path id="Path_8786" data-name="Path 8786" d="M302.756,184.58a.748.748,0,0,0-.8-.3.783.783,0,0,0,0,.8A.674.674,0,0,0,302.756,184.58Z" transform="translate(-288.906 -175.551)" fill="#fff"/>
      <path id="Path_8787" data-name="Path 8787" d="M436.33,187.761c.065-.307.294-.97.1-1.2C436.2,186.725,435.894,187.559,436.33,187.761Z" transform="translate(-416.46 -177.728)" fill="#fff"/>
      <path id="Path_8788" data-name="Path 8788" d="M219.775,191.064c.282.232.66-.083.6-.5A.542.542,0,0,0,219.775,191.064Z" transform="translate(-210.942 -181.533)" fill="#fff"/>
      <path id="Path_8789" data-name="Path 8789" d="M377.1,190.571a1.01,1.01,0,0,0-.8.7c.345.19.224.846.6,1a1.873,1.873,0,0,0,.5-.9c-.352-.059-.33.474-.6.2C376.755,191.1,377.139,191.047,377.1,190.571Z" transform="translate(-359.636 -181.541)" fill="#fff"/>
      <path id="Path_8790" data-name="Path 8790" d="M359.486,194.51c-.214.369.511.453.4.1C359.868,194.462,359.645,194.518,359.486,194.51Z" transform="translate(-343.629 -185.28)" fill="#fff"/>
      <path id="Path_8791" data-name="Path 8791" d="M122.135,200.7a15.121,15.121,0,0,1,1-2.709c-.325-.411-.5-.973-.8-1.4-.615.615.294.993.3,1.605-.44.106-.329-.339-.7-.3-.111.579.394.543.3,1.1-.291-.077-.26-.475-.7-.4-.025.661.493.778.6,1.3-.44.106-.33-.339-.7-.3A1.009,1.009,0,0,0,122.135,200.7Z" transform="translate(-117.515 -187.26)" fill="#fff"/>
      <path id="Path_8792" data-name="Path 8792" d="M229.809,202.3c.412.232.887-.217,1-.6C230.449,201.513,229.893,201.88,229.809,202.3Z" transform="translate(-220.474 -192.064)" fill="#fff"/>
      <path id="Path_8793" data-name="Path 8793" d="M344.657,200.524c-.03.234-.214.432.1.5,0-.2.274-.128.2-.4C344.83,200.619,344.819,200.5,344.657,200.524Z" transform="translate(-329.503 -190.993)" fill="#fff"/>
      <path id="Path_8794" data-name="Path 8794" d="M184.055,204.526a4.915,4.915,0,0,1-.4,2.107c.146.189.148.521.4.6a20.911,20.911,0,0,0,.5-2.408C184.32,204.8,184.37,204.478,184.055,204.526Z" transform="translate(-176.627 -194.794)" fill="#fff"/>
      <path id="Path_8795" data-name="Path 8795" d="M251.3,208.78c-.017-.652.575-.7.7-1.2C251.453,207.232,250.4,208.6,251.3,208.78Z" transform="translate(-240.556 -197.644)" fill="#fff"/>
      <path id="Path_8796" data-name="Path 8796" d="M448.454,207.427c.135-.147.205-.795-.1-.8C448.219,206.771,448.149,207.419,448.454,207.427Z" transform="translate(-427.983 -196.792)" fill="#fff"/>
      <path id="Path_8797" data-name="Path 8797" d="M327.333,209.633c-.125-.61-.7-.769-1.2-1C326.176,209.319,326.824,209.406,327.333,209.633Z" transform="translate(-311.978 -198.697)" fill="#fff"/>
      <path id="Path_8798" data-name="Path 8798" d="M362.249,208.6a.542.542,0,0,0,.6.5A.5.5,0,0,0,362.249,208.6Z" transform="translate(-346.292 -198.67)" fill="#fff"/>
      <path id="Path_8799" data-name="Path 8799" d="M144.37,214.851c.6-.566-.072-1.625.7-2.207,0-.305-.212-.39-.3-.6.327.026.483-.119.5-.4-.014-.454-.446-.49-.4-1h-.5c-.18.618.547.853.4,1.1-.219-.053-.649-.243-.7.1.1.272.617.648.5.8-.4-.035-.734,0-.8.3.232.2.536.333.6.7-.3.272-.448-.22-.9-.1C143.4,214.346,144.455,214.031,144.37,214.851Z" transform="translate(-138.447 -200.604)" fill="#fff"/>
      <path id="Path_8800" data-name="Path 8800" d="M268.338,210.59a1.122,1.122,0,0,0-1.2,1.4C267.656,211.7,268.369,211.11,268.338,210.59Z" transform="translate(-255.892 -200.557)" fill="#fff"/>
      <path id="Path_8801" data-name="Path 8801" d="M302.049,210.527c.16.558,1.01,1.444,1.3,1.2A1.21,1.21,0,0,0,302.049,210.527Z" transform="translate(-289.102 -200.494)" fill="#fff"/>
      <path id="Path_8802" data-name="Path 8802" d="M353.269,213.346c.2-.252-.056-.687-.4-.7C352.666,212.9,352.924,213.331,353.269,213.346Z" transform="translate(-337.313 -202.511)" fill="#fff"/>
      <path id="Path_8803" data-name="Path 8803" d="M213.716,219.126c.447.112.361-.308.5-.5Q213.681,218.59,213.716,219.126Z" transform="translate(-205.183 -208.19)" fill="#fff"/>
      <path id="Path_8804" data-name="Path 8804" d="M423.876,219.768c-.285-.437.547-.486.4-1.1-2.228.388.633,2.621.4.5C424.191,219.147,424.363,219.786,423.876,219.768Z" transform="translate(-404.408 -208.23)" fill="#fff"/>
      <path id="Path_8805" data-name="Path 8805" d="M394.348,221.273a.542.542,0,0,0,.5-.6A.542.542,0,0,0,394.348,221.273Z" transform="translate(-376.786 -210.136)" fill="#fff"/>
      <path id="Path_8806" data-name="Path 8806" d="M227.079,228.167a1.921,1.921,0,0,0,.7-.8C227.385,227.036,226.616,227.954,227.079,228.167Z" transform="translate(-217.744 -216.428)" fill="#fff"/>
      <path id="Path_8807" data-name="Path 8807" d="M297.3,227.758c-.586-.283-.587-1.152-1.505-1.1,0,.236-.173.3-.1.6.332.3,1.115.155,1.1.8a3.437,3.437,0,0,0-1-.3c.151.751,1.01.8,1.3,1.4C297.543,228.727,296.665,228.241,297.3,227.758Z" transform="translate(-283.049 -215.819)" fill="#fff"/>
      <path id="Path_8808" data-name="Path 8808" d="M372.277,226.526c0,.336,0,.669.4.6C372.681,226.792,372.679,226.459,372.277,226.526Z" transform="translate(-355.819 -215.691)" fill="#fff"/>
      <path id="Path_8809" data-name="Path 8809" d="M336.162,230.7a.888.888,0,0,0,.9.9A1.055,1.055,0,0,0,336.162,230.7Z" transform="translate(-321.509 -219.668)" fill="#fff"/>
      <path id="Path_8810" data-name="Path 8810" d="M267.234,233.142c-.681-.382-.7.678-1.3.7.018.317.07.6.4.6C266.347,233.726,267.252,233.9,267.234,233.142Z" transform="translate(-254.789 -221.905)" fill="#fff"/>
      <path id="Path_8811" data-name="Path 8811" d="M356.22,232.6a.542.542,0,0,0,.5.6C356.953,232.918,356.638,232.54,356.22,232.6Z" transform="translate(-340.564 -221.461)" fill="#fff"/>
      <path id="Path_8812" data-name="Path 8812" d="M247.368,237.6c.37-.065.526-.343.6-.7C247.567,236.6,247.246,237.066,247.368,237.6Z" transform="translate(-237.13 -225.463)" fill="#fff"/>
      <path id="Path_8813" data-name="Path 8813" d="M400.33,236.725a1.247,1.247,0,0,0-.2.9C400.483,237.7,400.747,236.778,400.33,236.725Z" transform="translate(-382.266 -225.388)" fill="#fff"/>
      <path id="Path_8814" data-name="Path 8814" d="M211.473,239.333c.3.06.569-.423.3-.6C211.719,238.976,211.386,238.945,211.473,239.333Z" transform="translate(-203.041 -227.293)" fill="#fff"/>
      <path id="Path_8815" data-name="Path 8815" d="M390.341,238.553c-.138.129-.175.6.1.6C390.524,239.083,390.711,238.461,390.341,238.553Z" transform="translate(-372.88 -227.116)" fill="#fff"/>
      <path id="Path_8816" data-name="Path 8816" d="M332.148,246.628a1.305,1.305,0,0,0,1,1C333.011,247.146,332.525,246.551,332.148,246.628Z" transform="translate(-317.696 -234.789)" fill="#fff"/>
      <path id="Path_8817" data-name="Path 8817" d="M410.54,244.75a1.5,1.5,0,0,0-.4,1.3A1.013,1.013,0,0,0,410.54,244.75Z" transform="translate(-391.774 -233.011)" fill="#fff"/>
      <path id="Path_8818" data-name="Path 8818" d="M374.287,246.635c-.007.3.3.509.5.3C374.834,246.623,374.574,246.615,374.287,246.635Z" transform="translate(-357.728 -234.796)" fill="#fff"/>
      <path id="Path_8819" data-name="Path 8819" d="M227.766,253.575c.432-.1.561-.509.7-.9C227.875,252.614,227.745,253.02,227.766,253.575Z" transform="translate(-218.531 -240.532)" fill="#fff"/>
      <path id="Path_8820" data-name="Path 8820" d="M358.186,252.76c-.034.436.276.526.6.6Q358.812,252.736,358.186,252.76Z" transform="translate(-342.43 -240.62)" fill="#fff"/>
      <path id="Path_8821" data-name="Path 8821" d="M272.851,255.286a5.582,5.582,0,0,0,1.806,1.4c.006-.787-1.381-1.018-1.605-1.906-.745.158-1.1.71-1.1,1.605C272.417,256.189,272.6,255.7,272.851,255.286Z" transform="translate(-260.506 -242.544)" fill="#fff"/>
      <path id="Path_8822" data-name="Path 8822" d="M422.85,254.784a3.108,3.108,0,0,0-.4,1.2C422.873,255.981,423.354,255.061,422.85,254.784Z" transform="translate(-403.482 -242.544)" fill="#fff"/>
      <path id="Path_8823" data-name="Path 8823" d="M248.093,259.846c.124-.377.76-.665.4-1.2C247.915,258.525,247.463,259.7,248.093,259.846Z" transform="translate(-237.554 -246.201)" fill="#fff"/>
      <path id="Path_8824" data-name="Path 8824" d="M174.826,263.112c-.446-.261-.4-.63-.2-1.1-.326-.058-.467.068-.7.1.116-.252.4-.336.4-.7a.708.708,0,0,0-.4-.6c-.071.3.21.945-.3.8C173.622,262.444,174.275,263.16,174.826,263.112Z" transform="translate(-167.096 -248.263)" fill="#fff"/>
      <path id="Path_8825" data-name="Path 8825" d="M374.788,261.205a.377.377,0,0,0-.4-.4c-.006.061-.015.119-.1.1C374.279,261.2,374.582,261.413,374.788,261.205Z" transform="translate(-357.728 -248.263)" fill="#fff"/>
      <path id="Path_8826" data-name="Path 8826" d="M211.961,262.811h-.3a.653.653,0,0,0-.1.5C211.842,263.294,211.987,263.138,211.961,262.811Z" transform="translate(-203.127 -250.17)" fill="#fff"/>
      <path id="Path_8827" data-name="Path 8827" d="M394.557,262.811a5.36,5.36,0,0,1-.2,1.4C394.919,264.269,395.1,262.942,394.557,262.811Z" transform="translate(-376.794 -250.17)" fill="#fff"/>
      <path id="Path_8828" data-name="Path 8828" d="M334.155,264.816c.055.648.3,1.108.9,1.2C334.974,265.4,334.526,265.147,334.155,264.816Z" transform="translate(-319.603 -252.074)" fill="#fff"/>
      <path id="Path_8829" data-name="Path 8829" d="M356.534,271.64c.215-.313-.142-.748-.5-.8C355.974,271.329,356.162,271.576,356.534,271.64Z" transform="translate(-340.376 -257.794)" fill="#fff"/>
      <path id="Path_8830" data-name="Path 8830" d="M433.408,272.844c-.128.286-.681.525-.4.9A.571.571,0,0,0,433.408,272.844Z" transform="translate(-413.438 -259.701)" fill="#fff"/>
      <path id="Path_8831" data-name="Path 8831" d="M121.448,278.863a1.611,1.611,0,0,0,.5.9C122.177,279.415,121.817,278.937,121.448,278.863Z" transform="translate(-117.531 -265.419)" fill="#fff"/>
      <path id="Path_8832" data-name="Path 8832" d="M214.151,278.863a.569.569,0,0,0-.5.7A.569.569,0,0,0,214.151,278.863Z" transform="translate(-205.117 -265.419)" fill="#fff"/>
      <path id="Path_8833" data-name="Path 8833" d="M231.8,280.468c.752-.2.024-1.22.3-1.605C231.363,278.943,231.856,279.9,231.8,280.468Z" transform="translate(-222.26 -265.419)" fill="#fff"/>
      <path id="Path_8834" data-name="Path 8834" d="M374.454,282.878h-.3c-.028.229.024.377.2.4C374.386,283.144,374.5,283.088,374.454,282.878Z" transform="translate(-357.595 -269.233)" fill="#fff"/>
      <path id="Path_8835" data-name="Path 8835" d="M445.066,284.082c-.156-.691.367-.7.4-1.2C445.035,282.908,444.4,283.9,445.066,284.082Z" transform="translate(-424.695 -269.233)" fill="#fff"/>
      <path id="Path_8836" data-name="Path 8836" d="M249.875,286.73c.485-.05.834-.236.8-.8C250.269,285.7,249.94,286.293,249.875,286.73Z" transform="translate(-239.537 -272.082)" fill="#fff"/>
      <path id="Path_8837" data-name="Path 8837" d="M133.889,286.891c-.081.549.335.6.3,1.1-.314.02-.554-.547-.7-.1.191.244.448.421.4.9A.993.993,0,0,0,133.889,286.891Z" transform="translate(-128.969 -273.046)" fill="#fff"/>
      <path id="Path_8838" data-name="Path 8838" d="M274.657,286.891c-.237.3-.7.369-.7.9C274.4,287.811,275.159,287.166,274.657,286.891Z" transform="translate(-262.413 -273.046)" fill="#fff"/>
      <path id="Path_8839" data-name="Path 8839" d="M300.684,287.593c0-.5-.447-.557-.8-.7C299.8,287.469,300.261,287.515,300.684,287.593Z" transform="translate(-287.035 -273.046)" fill="#fff"/>
      <path id="Path_8840" data-name="Path 8840" d="M334.958,287.794a1.2,1.2,0,0,0-.8-.9A1,1,0,0,0,334.958,287.794Z" transform="translate(-319.603 -273.046)" fill="#fff"/>
      <path id="Path_8841" data-name="Path 8841" d="M404.174,287.894c.161-.234.721-.818.3-1C404.21,287,403.876,287.557,404.174,287.894Z" transform="translate(-386.01 -273.046)" fill="#fff"/>
      <path id="Path_8842" data-name="Path 8842" d="M356.516,294.758c-.178-.089-.255-.28-.6-.2C355.782,294.983,356.473,295.1,356.516,294.758Z" transform="translate(-340.258 -280.311)" fill="#fff"/>
      <path id="Path_8843" data-name="Path 8843" d="M381.958,298.63c.027-.435.4-1.507,0-1.706C381.823,297.569,381.275,298.224,381.958,298.63Z" transform="translate(-364.697 -282.577)" fill="#fff"/>
      <path id="Path_8844" data-name="Path 8844" d="M413.219,296.954c-.022-.078-.084-.117-.2-.1a3.373,3.373,0,0,0-.6,1.1C412.967,297.907,413.111,297.449,413.219,296.954Z" transform="translate(-393.951 -282.507)" fill="#fff"/>
      <path id="Path_8845" data-name="Path 8845" d="M372.583,299.333c.006-.061.015-.119.1-.1v-.2c-.061-.006-.119-.015-.1-.1h-.2c-.006.061-.015.119-.1.1v.2c.061.006.119.015.1.1Z" transform="translate(-355.824 -284.484)" fill="#fff"/>
      <path id="Path_8846" data-name="Path 8846" d="M166.4,301.941c-.093-.509-.237-.967-.8-1C165.7,301.433,165.847,301.891,166.4,301.941Z" transform="translate(-159.471 -286.39)" fill="#fff"/>
      <path id="Path_8847" data-name="Path 8847" d="M218.066,300.917a.563.563,0,0,0-.4.1C217.6,301.452,218.169,301.326,218.066,300.917Z" transform="translate(-208.931 -286.369)" fill="#fff"/>
      <path id="Path_8848" data-name="Path 8848" d="M204.191,302.943c-.19.189-.012.521.2.6C204.68,303.327,204.53,303.039,204.191,302.943Z" transform="translate(-196.06 -288.295)" fill="#fff"/>
      <path id="Path_8849" data-name="Path 8849" d="M281.127,304.047a3,3,0,0,0,.9-1.1C281.479,303.017,280.918,303.537,281.127,304.047Z" transform="translate(-269.184 -288.295)" fill="#fff"/>
      <path id="Path_8850" data-name="Path 8850" d="M250.778,304.951a1.055,1.055,0,0,0-.9.9A1.676,1.676,0,0,0,250.778,304.951Z" transform="translate(-239.537 -290.203)" fill="#fff"/>
      <path id="Path_8851" data-name="Path 8851" d="M320.1,304.649c-.016.486.41.214.6.1a1.053,1.053,0,0,0,.6,1C321.28,305.008,320.98,304.539,320.1,304.649Z" transform="translate(-306.251 -289.9)" fill="#fff"/>
      <path id="Path_8852" data-name="Path 8852" d="M304.055,306.805c.089.312.1.7.5.7C304.839,307.152,304.513,306.734,304.055,306.805Z" transform="translate(-291.008 -291.956)" fill="#fff"/>
      <path id="Path_8853" data-name="Path 8853" d="M428.87,306.878a3.514,3.514,0,0,0-.4,1c.461-.074.518-.552.7-.9C429.043,306.973,429.032,306.85,428.87,306.878Z" transform="translate(-409.201 -292.029)" fill="#fff"/>
      <path id="Path_8854" data-name="Path 8854" d="M352.214,309.064c-.007.3.3.509.5.3a.377.377,0,0,0-.4-.4C352.308,309.025,352.3,309.083,352.214,309.064Z" transform="translate(-336.758 -294.015)" fill="#fff"/>
      <path id="Path_8855" data-name="Path 8855" d="M394.4,310.406c-.414-.172-.538.455-.3.6C394.04,310.652,394.449,310.761,394.4,310.406Z" transform="translate(-376.432 -295.356)" fill="#fff"/>
      <path id="Path_8856" data-name="Path 8856" d="M185.9,313.746a.748.748,0,0,0,.3-.8C185.853,312.9,185.691,313.563,185.9,313.746Z" transform="translate(-178.672 -297.794)" fill="#fff"/>
      <path id="Path_8857" data-name="Path 8857" d="M162.585,318.912c-.648.111-.5-1.1-1-.8C161.691,318.494,162.146,319.517,162.585,318.912Z" transform="translate(-155.658 -302.659)" fill="#fff"/>
      <path id="Path_8858" data-name="Path 8858" d="M220.119,316.991c-.282.019-.428.174-.4.5C220,317.474,220.145,317.318,220.119,316.991Z" transform="translate(-210.885 -301.641)" fill="#fff"/>
      <path id="Path_8859" data-name="Path 8859" d="M256.259,319c-.3.266-.689.448-.6,1.1C256.067,320.011,256.688,319.285,256.259,319Z" transform="translate(-245.017 -303.547)" fill="#fff"/>
      <path id="Path_8860" data-name="Path 8860" d="M156.967,330.234c.242-1.489,1.681-3.251,1.806-4.615a13.118,13.118,0,0,0-1-4.615c-.07.716-1.022.839-1.2,1.706-.159.76.2,1.837.1,2.809-.129,1.212-.581,2.247-.3,3.211.076.259.742-.073.7.3-.185.35-.627.443-1.2.4-.127.275-.1.7-.3.9C155.885,330.846,156.518,330.429,156.967,330.234Zm1-5.518a3.815,3.815,0,0,1-.3,2.408C157.439,326.391,158.039,325.622,157.97,324.716Z" transform="translate(-149.939 -305.453)" fill="#fff"/>
      <path id="Path_8861" data-name="Path 8861" d="M234.052,320.832q-.471-.07-.4.4C233.965,321.281,233.934,320.982,234.052,320.832Z" transform="translate(-224.115 -305.281)" fill="#fff"/>
      <path id="Path_8862" data-name="Path 8862" d="M316.051,323.368q.471.07.4-.4A.285.285,0,1,0,316.051,323.368Z" transform="translate(-302.302 -307.215)" fill="#fff"/>
      <path id="Path_8863" data-name="Path 8863" d="M276.384,328.026c-.163-.558.8-.738.3-1C276.362,327.119,275.47,327.917,276.384,328.026Z" transform="translate(-264.34 -311.171)" fill="#fff"/>
      <path id="Path_8864" data-name="Path 8864" d="M292.417,327.026c.222.013.043.426.1.6a.479.479,0,0,0-.5.5c.41.258.433-.6,1-.5C293.164,327.144,292.735,326.715,292.417,327.026Z" transform="translate(-279.571 -311.074)" fill="#fff"/>
      <path id="Path_8865" data-name="Path 8865" d="M404.2,327.525c.369.1.4-.493.1-.5A.653.653,0,0,0,404.2,327.525Z" transform="translate(-386.136 -311.171)" fill="#fff"/>
      <path id="Path_8866" data-name="Path 8866" d="M373.991,331.038c-.46,4.21.4,7.06,2.308,8.929.294-.04.08-.589.3-.7.346.088.089.78.6.7.164-.685-.677-1.182-1.2-1.5C375.008,336.12,376.542,332.025,373.991,331.038Z" transform="translate(-357.332 -314.985)" fill="#fff"/>
      <path id="Path_8867" data-name="Path 8867" d="M316.763,343.378a12.945,12.945,0,0,0-.8-1.4c-.092-1.792-.823-3.561.2-4.916-.066.737-.447,1.884-.1,2.408a9.418,9.418,0,0,0,.5-3.913c-.422-.021-.153.65-.4.8a3.149,3.149,0,0,0-.3-1.3c-1.18.044-1.373,1.074-1.3,2.107-.287-.282-.148-.989-.6-1.1-.269.683-.407,2.4.3,2.709a8.425,8.425,0,0,1,.4-1.2c.224,1.6-.64,2.636-.3,4.013.16-.074-.023-.491.3-.4a3.756,3.756,0,0,1-.2,2.207,2.909,2.909,0,0,1,1.1.1,2.17,2.17,0,0,0,.1-.9c-.311-.1-.39.534-.6.2.351-1.4-.728-2.291-.2-3.211C315.156,341.109,315.619,343.012,316.763,343.378Z" transform="translate(-300.204 -318.798)" fill="#fff"/>
      <path id="Path_8868" data-name="Path 8868" d="M416.412,334.87a.853.853,0,0,0-.1.6q.536.034.5-.5C416.678,334.938,416.622,334.827,416.412,334.87Z" transform="translate(-397.647 -318.616)" fill="#fff"/>
      <path id="Path_8869" data-name="Path 8869" d="M217.553,344.784c.125-.449.249-1.523-.2-1.706C217.447,343.619,217.14,344.561,217.553,344.784Z" transform="translate(-208.619 -326.423)" fill="#fff"/>
      <path id="Path_8870" data-name="Path 8870" d="M163.989,355.419c-.037-.866.165-1.971-.4-2.308C163.63,353.972,163.467,355.038,163.989,355.419Z" transform="translate(-157.564 -335.955)" fill="#fff"/>
      <path id="Path_8871" data-name="Path 8871" d="M411.092,363.043c-.081-1.8.265-4.275-.3-5.919C410.873,359.079,409.9,361.784,411.092,363.043Z" transform="translate(-392.126 -339.767)" fill="#fff"/>
      <path id="Path_8872" data-name="Path 8872" d="M281.16,373.942a2.215,2.215,0,0,0,1.4,0,20.1,20.1,0,0,0-.6-6.822,2.514,2.514,0,0,0-1-.1C281.134,369.558,280.382,371.927,281.16,373.942Z" transform="translate(-268.915 -349.161)" fill="#fff"/>
      <path id="Path_8873" data-name="Path 8873" d="M197,395.251c.069.906-.531,1.674-.3,2.408A3.815,3.815,0,0,0,197,395.251Z" transform="translate(-188.967 -375.988)"/>
      <path id="Path_8874" data-name="Path 8874" d="M214.357,415.317c-.249.955-.175,2.233-.6,3.01.253.18.668-.149.9-.3A9.034,9.034,0,0,0,214.357,415.317Z" transform="translate(-205.223 -395.051)" fill="#fff"/>
      <path id="Path_8875" data-name="Path 8875" d="M364.489,435.385c-.114.709-.243,1.871.4,2.107C365.06,436.866,365.14,435.519,364.489,435.385Z" transform="translate(-348.331 -414.115)" fill="#fff"/>
      <path id="Path_8876" data-name="Path 8876" d="M214.357,482.943c.147-.733-.142-.721,0-1.4-.489.046-.363.707-.6,1C214.332,482.267,214,482.8,214.357,482.943Z" transform="translate(-205.223 -457.961)" fill="#fff"/>
      <path id="Path_8877" data-name="Path 8877" d="M374.289,483.545c.086.316.186.617.5.7C374.772,483.865,374.648,483.587,374.289,483.545Z" transform="translate(-357.73 -459.867)" fill="#fff"/>
      <path id="Path_8878" data-name="Path 8878" d="M439.1,484.448a.442.442,0,0,1,.2-.4c.2.2.21.593.6.6-.1-.935-.705-.908-1.4-1.1C438.57,483.98,438.681,484.37,439.1,484.448Z" transform="translate(-418.734 -459.867)" fill="#fff"/>
      <path id="Path_8879" data-name="Path 8879" d="M147.642,487.558c-.2.1-.217.385-.2.7C147.761,488.347,148.073,487.579,147.642,487.558Z" transform="translate(-142.22 -463.68)" fill="#fff"/>
      <path id="Path_8880" data-name="Path 8880" d="M201.54,488.542a.708.708,0,0,0,.6-.4A.386.386,0,0,0,201.54,488.542Z" transform="translate(-193.61 -464.162)" fill="#fff"/>
      <path id="Path_8881" data-name="Path 8881" d="M396.621,495.584c-.044.223-.231.544.1.6C396.765,495.963,396.952,495.642,396.621,495.584Z" transform="translate(-378.858 -471.304)" fill="#fff"/>
      <path id="Path_8882" data-name="Path 8882" d="M141.695,506.019c.02-.287.012-.548-.3-.5C141.374,505.8,141.382,506.065,141.695,506.019Z" transform="translate(-136.473 -480.736)" fill="#fff"/>
      <path id="Path_8883" data-name="Path 8883" d="M368.871,531.435c-.176.058-.589-.121-.6.1a1.891,1.891,0,0,1,.6,1.1c.266,0,.591-.056.6.2-.236.759.26,1.065,0,1.706.2.474.85.488,1,1,.11.368-.4.988,0,1a17.582,17.582,0,0,0,1.1-3.913c-.629-.094-.763.307-1.2.4-.177.489.194.974-.2,1.3-.634-.7.057-1.54.6-1.906-.232-.236-.275-.662-.6-.8a1.451,1.451,0,0,1-1.1.5A3.749,3.749,0,0,0,368.871,531.435Zm.7.7a.852.852,0,0,1,.6-.1c.378.576-.111.883-.6.5Z" transform="translate(-352.011 -505.349)" fill="#fff"/>
      <path id="Path_8884" data-name="Path 8884" d="M139.508,537.262c.761.418.41,2.455,1.706,2.006C140.636,538.667,140.6,537.018,139.508,537.262Z" transform="translate(-134.688 -510.875)"/>
      <path id="Path_8885" data-name="Path 8885" d="M394.958,543.627a.852.852,0,0,0-.6.1v.4C394.847,544.51,395.336,544.2,394.958,543.627Z" transform="translate(-376.794 -516.939)"/>
      <path id="Path_8886" data-name="Path 8886" d="M105.669,548.661a6.1,6.1,0,0,0-.1-2.91A7.3,7.3,0,0,0,105.669,548.661Z" transform="translate(-102.354 -518.963)" fill="#fff"/>
      <path id="Path_8887" data-name="Path 8887" d="M488.576,549.766a5.962,5.962,0,0,0-.1,2.809C489.02,552.2,488.832,550.3,488.576,549.766Z" transform="translate(-466.098 -522.777)" fill="#fff"/>
      <path id="Path_8888" data-name="Path 8888" d="M113.623,551.772c-.183.8-.382,2.176.1,2.809C113.995,553.919,114.092,552.292,113.623,551.772Z" transform="translate(-109.907 -524.683)" fill="#fff"/>
      <path id="Path_8889" data-name="Path 8889" d="M474.2,553.778c-.258.672-.4,2.392.1,2.91A4.243,4.243,0,0,0,474.2,553.778Z" transform="translate(-452.427 -526.589)" fill="#fff"/>
      <path id="Path_8890" data-name="Path 8890" d="M371.529,565.718c.226-.176.564-.238.8-.4.115-.617-.349-.654-.2-1.3a2.272,2.272,0,0,1-.6-.2C371.841,564.43,371.353,565.276,371.529,565.718Z" transform="translate(-355.071 -536.121)" fill="#fff"/>
      <path id="Path_8891" data-name="Path 8891" d="M299.852,573.655a.653.653,0,0,0,.1.5.377.377,0,0,0,.4-.4A.653.653,0,0,0,299.852,573.655Z" transform="translate(-287.006 -545.463)"/>
      <path id="Path_8892" data-name="Path 8892" d="M217.769,578.559a1.686,1.686,0,0,0,1,.5c-.149-.319,0-.936-.2-1.2C218.38,578.167,217.895,578.183,217.769,578.559Z" transform="translate(-209.036 -549.464)" fill="#fff"/>
      <path id="Path_8893" data-name="Path 8893" d="M428.87,577.669c-.194.375-.134,1-.4,1.3.754.186.737-.4,1.2-.5.071.789-1.031,1.424-.6,1.906.314-.856,1.246-1.4,1-2.508C429.746,577.755,429.3,577.36,428.87,577.669Z" transform="translate(-409.201 -549.175)" fill="#fff"/>
      <path id="Path_8894" data-name="Path 8894" d="M121.362,595.919c-.248.4-1.213,1-.7,1.5C120.49,596.583,121.642,596.535,121.362,595.919Z" transform="translate(-116.642 -566.623)" fill="#fff"/>
      <path id="Path_8895" data-name="Path 8895" d="M387.031,609.965a2.381,2.381,0,0,1-.7,1.3C387.068,611.451,387.4,610.225,387.031,609.965Z" transform="translate(-369.168 -579.967)" fill="#fff"/>
      <path id="Path_8896" data-name="Path 8896" d="M454.556,615.985c.048.359.163.58,0,.9C455,616.892,454.888,616.043,454.556,615.985Z" transform="translate(-433.984 -585.686)" fill="#fff"/>
      <path id="Path_8897" data-name="Path 8897" d="M166.11,664.4V664A.214.214,0,1,0,166.11,664.4Z" transform="translate(-159.685 -631.292)" fill="#fff"/>
      <path id="Path_8898" data-name="Path 8898" d="M173.923,664.145h-.2c-.006.061-.015.119-.1.1v.2c.061.006.119.015.1.1h.2c.006-.061.015-.119.1-.1v-.2C173.962,664.24,173.9,664.23,173.923,664.145Z" transform="translate(-167.096 -631.438)" fill="#fff"/>
      <path id="Path_8899" data-name="Path 8899" d="M183.654,664v.4A.214.214,0,1,0,183.654,664Z" transform="translate(-176.627 -631.292)" fill="#fff"/>
      <path id="Path_8900" data-name="Path 8900" d="M191.682,664.145v.4c.264.03.329-.139.3-.4Z" transform="translate(-184.253 -631.438)" fill="#fff"/>
      <path id="Path_8901" data-name="Path 8901" d="M199.782,664.546v-.4h-.3C199.453,664.407,199.447,664.647,199.782,664.546Z" transform="translate(-191.651 -631.438)" fill="#fff"/>
      <path id="Path_8902" data-name="Path 8902" d="M207.653,663.782c-.032.136-.143.192-.1.4h.3C207.831,664.005,207.955,663.681,207.653,663.782Z" transform="translate(-199.322 -631.074)" fill="#fff"/>
      <path id="Path_8903" data-name="Path 8903" d="M215.947,664.546v-.4h-.3C215.617,664.407,215.682,664.577,215.947,664.546Z" transform="translate(-207.013 -631.438)" fill="#fff"/>
      <path id="Path_8904" data-name="Path 8904" d="M224.3,664.4V664A.214.214,0,1,0,224.3,664.4Z" transform="translate(-214.968 -631.292)" fill="#fff"/>
      <path id="Path_8905" data-name="Path 8905" d="M232.448,664c-.167.2.009.128,0,.4A.214.214,0,1,0,232.448,664Z" transform="translate(-222.913 -631.292)" fill="#fff"/>
      <path id="Path_8906" data-name="Path 8906" d="M241.85,664.145v.4c.264.03.329-.139.3-.4Z" transform="translate(-231.913 -631.438)" fill="#fff"/>
      <path id="Path_8907" data-name="Path 8907" d="M249.739,664.145c-.028.229.024.377.2.4.032-.136.143-.192.1-.4Z" transform="translate(-239.401 -631.438)" fill="#fff"/>
      <path id="Path_8908" data-name="Path 8908" d="M258.087,664.546v-.4h-.3C257.758,664.407,257.823,664.577,258.087,664.546Z" transform="translate(-247.046 -631.438)" fill="#fff"/>
      <path id="Path_8909" data-name="Path 8909" d="M266.231,664.145h-.2c-.006.061-.015.119-.1.1v.2c.061.006.119.015.1.1h.2c.006-.061.015-.119.1-.1v-.2C266.27,664.24,266.212,664.23,266.231,664.145Z" transform="translate(-254.789 -631.438)" fill="#fff"/>
      <path id="Path_8910" data-name="Path 8910" d="M275.962,664.145v.4c.264.03.329-.139.3-.4Z" transform="translate(-264.319 -631.438)" fill="#fff"/>
      <path id="Path_8911" data-name="Path 8911" d="M283.989,664.145v.4c.264.03.329-.139.3-.4Z" transform="translate(-271.945 -631.438)" fill="#fff"/>
      <path id="Path_8912" data-name="Path 8912" d="M292.089,664.546v-.4h-.3C291.76,664.407,291.755,664.647,292.089,664.546Z" transform="translate(-279.343 -631.438)" fill="#fff"/>
      <path id="Path_8913" data-name="Path 8913" d="M300.227,664.546v-.4h-.3C299.9,664.407,299.963,664.577,300.227,664.546Z" transform="translate(-287.079 -631.438)" fill="#fff"/>
      <path id="Path_8914" data-name="Path 8914" d="M308.37,664.145h-.2c-.006.061-.015.119-.1.1v.2c.061.006.119.015.1.1h.2c.006-.061.015-.119.1-.1v-.2C308.409,664.24,308.352,664.23,308.37,664.145Z" transform="translate(-294.821 -631.438)" fill="#fff"/>
      <path id="Path_8915" data-name="Path 8915" d="M318.176,664.546v-.4h-.3C317.848,664.407,317.842,664.647,318.176,664.546Z" transform="translate(-304.126 -631.438)" fill="#fff"/>
      <path id="Path_8916" data-name="Path 8916" d="M326.314,664.546v-.4h-.3C325.984,664.407,326.049,664.577,326.314,664.546Z" transform="translate(-311.862 -631.438)" fill="#fff"/>
      <path id="Path_8917" data-name="Path 8917" d="M334.34,664.546v-.4h-.3C334.011,664.407,334.076,664.577,334.34,664.546Z" transform="translate(-319.487 -631.438)" fill="#fff"/>
      <path id="Path_8918" data-name="Path 8918" d="M342.7,664.4V664A.214.214,0,1,0,342.7,664.4Z" transform="translate(-327.443 -631.292)" fill="#fff"/>
      <path id="Path_8919" data-name="Path 8919" d="M350.723,664.4V664A.214.214,0,1,0,350.723,664.4Z" transform="translate(-335.067 -631.292)" fill="#fff"/>
      <path id="Path_8920" data-name="Path 8920" d="M358.75,664.4V664A.214.214,0,1,0,358.75,664.4Z" transform="translate(-342.693 -631.292)" fill="#fff"/>
      <path id="Path_8921" data-name="Path 8921" d="M368.269,664v.4A.214.214,0,1,0,368.269,664Z" transform="translate(-352.011 -631.292)" fill="#fff"/>
      <path id="Path_8922" data-name="Path 8922" d="M376.3,664.145v.4c.264.03.329-.139.3-.4Z" transform="translate(-359.636 -631.438)" fill="#fff"/>
      <path id="Path_8923" data-name="Path 8923" d="M384.321,664.145v.4c.264.03.329-.139.3-.4Z" transform="translate(-367.261 -631.438)" fill="#fff"/>
      <path id="Path_8924" data-name="Path 8924" d="M392.349,664.145v.4c.264.03.329-.139.3-.4Z" transform="translate(-374.887 -631.438)" fill="#fff"/>
      <path id="Path_8925" data-name="Path 8925" d="M400.376,664.145v.4c.264.03.329-.139.3-.4Z" transform="translate(-382.513 -631.438)" fill="#fff"/>
      <path id="Path_8926" data-name="Path 8926" d="M408.476,664.546v-.4h-.3C408.147,664.407,408.141,664.647,408.476,664.546Z" transform="translate(-389.911 -631.438)" fill="#fff"/>
      <path id="Path_8927" data-name="Path 8927" d="M416.5,664.546v-.4h-.3C416.174,664.407,416.168,664.647,416.5,664.546Z" transform="translate(-397.536 -631.438)" fill="#fff"/>
      <path id="Path_8928" data-name="Path 8928" d="M424.53,664.546v-.4h-.3C424.2,664.407,424.195,664.647,424.53,664.546Z" transform="translate(-405.162 -631.438)" fill="#fff"/>
      <path id="Path_8929" data-name="Path 8929" d="M131.743,698.258c-.285.254.543.609.3.8h-6.923c-.142.442.6,0,.6.3v.7c-.21.274-.377-.355-.5.1.348.254.481.723.9.9.285-.253-.543-.609-.3-.8.166-.168.589-.08.9-.1.083.252-.195.864.2.8v-1.706a11.157,11.157,0,0,1,2.408.1c.005.128.129.139.1.3.009.343-.611.058-.6.4.3.274.728.7,1.3.4.045.19-.136.6.2.5.05-.552-.111-1.315.1-1.706.305.063.864-.128,1,.1v.5a2.261,2.261,0,0,0-.6.2c-.045.446.056.747.5.7.321-.014.221-.448.4-.6h.5c.031.3-.111.78.2.8.211-.391.05-1.154.1-1.706h1.5c.31.773-.5,1.587-.8.8-.082-.383.484-.118.4-.5-1.2-.045-.582,1.6.4,1,.023.178-.1.5.2.4.03-.739-.184-1.723.4-1.906h-2.207A1.819,1.819,0,0,0,131.743,698.258Zm-5.016,1.605h-.7v-.6c.267,0,.573-.038.7.1Zm3.411.3a.958.958,0,0,1-.9,0c.27-.208.638-.473.4-.9h.5Zm.9,0h.4C131.531,700.631,130.91,700.679,131.04,700.164Zm1.2-.3h-.6v-.6h.6Z" transform="translate(-121.003 -663.845)"/>
      <path id="Path_8930" data-name="Path 8930" d="M349.3,698.258c-.388.357.555.6.3.8-1.741.132-4.01-.265-5.418.2.537.065,1.336-.132,1.706.1v.4h-1c.075.232.71.419.3.8-.632.164-.445-.491-.9-.5a.788.788,0,0,0,1.1.7c.267-.282,0-.574.2-.8.556-.121.2.668.3,1,.445-.19.084-1.187.2-1.706.373.061,1.059-.19,1,.3.046.313-.214.321-.5.3a.8.8,0,0,0,1.2.6c-.02.287-.012.548.3.5v-1.706c.537.065,1.336-.132,1.706.1v.4c-1.374-.407-1.639,1-.7,1.3.252-.35-.516-.374-.3-1,.249-.087.778-.2,1,0v.9c.445-.19.083-1.187.2-1.706.178-.023.5.1.4-.2C349.714,699.119,349.7,698.5,349.3,698.258Zm-1.5,1.906a.783.783,0,0,1-.8,0c.2-.108.633-.5.3-.8-.017-.218.356-.045.5-.1Z" transform="translate(-329.134 -663.845)"/>
      <path id="Path_8931" data-name="Path 8931" d="M143.521,718.243v.6h.7v-.5C144.094,718.205,143.788,718.245,143.521,718.243Z" transform="translate(-138.5 -682.827)" fill="#fff"/>
      <path id="Path_8932" data-name="Path 8932" d="M207.734,719.227a.958.958,0,0,0,.9,0v-.9h-.5C208.372,718.754,208,719.019,207.734,719.227Z" transform="translate(-199.503 -682.908)" fill="#fff"/>
      <rect id="Rectangle_1042" data-name="Rectangle 1042" width="0.602" height="0.602" transform="translate(10.639 35.416)" fill="#fff"/>
      <path id="Path_8933" data-name="Path 8933" d="M400.677,718.172c.332.307-.1.7-.3.8a.783.783,0,0,0,.8,0v-.9C401.033,718.126,400.66,717.954,400.677,718.172Z" transform="translate(-382.513 -682.655)" fill="#fff"/>
      <path id="Path_8934" data-name="Path 8934" d="M171.061,728.506c.252-.35-.516-.374-.3-1a2.907,2.907,0,0,1,1.1-.1C170.885,726.5,169.829,728.186,171.061,728.506Z" transform="translate(-164.134 -691.284)"/>
      <path id="Path_8935" data-name="Path 8935" d="M243.512,736.386c-.13.514.491.467.4,0Z" transform="translate(-233.475 -700.067)" fill="#fff"/>
      <path id="Path_8936" data-name="Path 8936" d="M111.618,530.594a.9.9,0,0,1-.2.156C111.481,530.755,111.549,530.7,111.618,530.594Z" transform="translate(-107.999 -504.564)"/>
      <path id="Path_8937" data-name="Path 8937" d="M60.546,30.962c.16.81.782,1.158,1.4,1.5.306-.1.231-.572.7-.5.069,1.187-.8,2.271-.7,3.612.106,1.437,1.066,2.318,1.806,3.211.322.062.137-.361.4-.1-.126,2.556,1.228,5.353-.1,7.324-.129.138-.436.1-.7.1,0,.638-.105,1.165-.7,1.2-.03-.37.619-.578.3-.9-.308.48-.616,1.632-.9,2.051.235-.218.515-.523.7-.145-.959-.059-1.755,1.662-1.706,2.609.015.286.311.527.4.8.392,1.188.523,2.948,2.308,2.508.342.4.12.795.4,1.3,4.15.157,9.772.174,14.247,0a1.007,1.007,0,0,0,0-1.3c.413.249.705-.121,1.5,0,.479-.434,1.062-1,.6-.6-.13.113-.785.843-1.2.4,1.838-.839,1.637-1.488,2.508-3.411-.736-.836-.449-2.694-1.706-3.01.076-1.7-1.625-1.233-2.207-2.107a4.314,4.314,0,0,1-.4-1.5c-.465-4.01,1.811-6.38,2.408-9.13-.463,0-.365.572-.9.5-.692-.307-.356-1.421.4-1.4-.018.484-.484.519-.5,1,.394-.172.8-.292.9-.5.05-1.187-.886-1.923-.8-2.809.571.031.564.64,1,.8.818-1.153,3.849-2.718,1.706-4.113.073.521.954.683.6,1.3a1.45,1.45,0,0,1-1-.8c.137-.4.466-.6.4-1.2a1.358,1.358,0,0,0-1.5-.6c.52.082,1.109.095,1.2.6a1.25,1.25,0,0,0-.8.6c.176.028.5-.282.6,0,.012.413-.785.018-.9.3a21,21,0,0,0,1.706,1.4c-1.228-.037-1.716-.944-3.01-.4.024-.41-.1-.967.2-1.1.259-.333.829.24.9-.2-.269-.233-.953-.051-1.1-.4-.02-.722.872-.532,1-1.1a1.725,1.725,0,0,0-1.3-1.3c.206.717.77.458.9,1.2A13.1,13.1,0,0,0,77.1,28.554c-.446-.554.492-1.015.2-1.4-.362.151-.269-.255-.6-.3-.487-.067-.946.535-1.5.5.236-.667.865-.941,1.806-.9.109-.727.818-.854,1.5-1-1.355-.371-1.583,1.125-3.11.9a7,7,0,0,1-1.2-3.11c-2.114-.066-5.33-.387-7.123.2.283,1.529-.667,2.524-.6,3.211-.5-.583-.86-.616-1.706-.9-.365-.124-.6-.382-.8-.4-1.463-.141-1.722.884-2.508,1.605-.455.418-1.05.547-1.3.9-.447.625-.576,1.468-.9,1.806A2.408,2.408,0,0,0,60.546,30.962Zm1.2,21.169a7.3,7.3,0,0,1-.1-2.91A6.1,6.1,0,0,1,61.75,52.131Zm19.163-2.709c.256.538.444,2.436-.1,2.809A5.962,5.962,0,0,1,80.913,49.423Zm-.7.2a4.243,4.243,0,0,1,.1,2.91C79.813,52.015,79.953,50.3,80.211,49.623ZM61.148,31.464c-.387-.014-.411-.392-.4-.8.279.089.363.373.7.4C61.348,31.2,61.354,31.436,61.148,31.464Zm1.906,3.612c-.109-.527-.627-.644-.6-1.3.442-.074.411.325.7.4.093-.561-.412-.525-.3-1.1.373-.038.262.407.7.3-.007-.612-.916-.991-.3-1.605.3.432.478.994.8,1.4a15.121,15.121,0,0,0-1,2.709,1.009,1.009,0,0,1-.7-1.1C62.725,34.736,62.614,35.181,63.054,35.075Zm2.408-3.211c-.027.341.078.813-.1,1-.525-.593-.783-1.325-1.5-.5.2-1-.618-.987-.7-1.706C63.818,31.168,64.742,31.415,65.462,31.865Zm-2.307-2.308c.632.218,1.333.856,1.1,1.605A7.428,7.428,0,0,1,63.155,29.557Zm1.806,6.22c.511.143.23-.505.3-.8a.708.708,0,0,1,.4.6c0,.366-.285.451-.4.7.235-.032.377-.158.7-.1-.2.474-.245.843.2,1.1C65.613,37.331,64.961,36.615,64.961,35.778Zm.7,2.609c-.209-.183-.047-.844.3-.8A.748.748,0,0,1,65.663,38.386Zm-.3-.4c-.552-.05-.7-.509-.8-1C65.125,37.018,65.269,37.476,65.362,37.985Zm.5-3.11c-.254-.081-.256-.413-.4-.6a4.915,4.915,0,0,0,.4-2.107c.315-.047.265.27.5.3A20.908,20.908,0,0,1,65.864,34.875Zm-3.01,1.906a1.61,1.61,0,0,1-.5-.9C62.721,35.952,63.081,36.43,62.854,36.781Zm.5,1.4c.047-.482-.211-.659-.4-.9.148-.446.388.12.7.1.034-.5-.382-.554-.3-1.1A.993.993,0,0,1,63.356,38.186Zm.1-2.809c.455-.119.6.373.9.1-.066-.369-.37-.5-.6-.7.068-.3.4-.336.8-.3.116-.155-.4-.531-.5-.8.053-.343.483-.154.7-.1.146-.251-.581-.485-.4-1.1h.5c-.045.513.387.549.4,1-.019.282-.175.427-.5.4.089.212.306.3.3.6-.774.582-.1,1.641-.7,2.207C64.443,35.861,63.392,36.176,63.456,35.376Zm1.906,3.311c-.439.605-.894-.418-1-.8C64.858,37.589,64.714,38.8,65.362,38.687Zm-.9.9c.566.337.365,1.441.4,2.308C64.338,41.518,64.5,40.452,64.459,39.59Zm1.1,6.421c.04-.374-.627-.042-.7-.3-.28-.963.172-2,.3-3.211.1-.973-.26-2.049-.1-2.809.182-.866,1.134-.99,1.2-1.706a13.118,13.118,0,0,1,1,4.615c-.125,1.364-1.564,3.126-1.806,4.615-.448.195-1.081.612-1.4.1.2-.2.174-.628.3-.9C64.935,46.454,65.378,46.362,65.563,46.011Zm3.913-16.454a2.357,2.357,0,0,1-1.1-.5c.031-.5-.116-1.186.2-1.4.162-.028.173.095.3.1C68.128,28.717,69.525,29.033,69.476,29.557Zm-.4-4.114a.724.724,0,0,1,1.1.7c-.381.269-1.243.284-1.3-.3.19-.178.663-.073,1-.1C69.867,25.24,68.956,25.861,69.074,25.444Zm4.113.4a1.077,1.077,0,0,1-1.3.4c-.187-.68.639-1.333,1-.8a.744.744,0,0,0-.8.4C72.289,26.035,72.8,25.525,73.188,25.845Zm-1.2.9c.271.15-.174.419-.3.5.141.424.729.054.8-.2.215.353-.594.54-1,.6.429.225,1.1-.172,1.3-.5.31.415-.412.655-.9.6.221.279.715-.014,1,0a1.2,1.2,0,0,1-1.3.3c.8.646,1.483-.057,2.107-.4-.35.413.124,1.917-.9,1.706-.01-.546.6-.47.5-1.1-1.175.835-2.223-.507-3.512-.5.312-.24.8.2,1.3.1-.2-.111-.468-.25,0-.3a2.475,2.475,0,0,0-.9-.4c.286.44-.092-.052-.2-.2C70.354,27.033,71.678,27.585,71.984,26.748ZM75.6,30.36c-.1.535-.072,1.2-.7,1.2a3.354,3.354,0,0,1,.1-2.007c.222-.055.143.192.3.2.1.5-.312.491-.3.9C75.16,30.917,75.263,30.269,75.6,30.36Zm0,2.107c.272.274.25-.259.6-.2a1.873,1.873,0,0,1-.5.9c-.378-.157-.257-.813-.6-1a1.01,1.01,0,0,1,.8-.7C75.938,31.94,75.554,31.991,75.6,32.467Zm1.2-2.508a.93.93,0,0,1-.8.8C75.957,30.219,76.349,29.688,76.8,29.959Zm.6,5.919a3.108,3.108,0,0,1,.4-1.2C78.307,34.952,77.826,35.871,77.4,35.878Zm1-.3a.571.571,0,0,1-.4.9C77.724,36.1,78.277,35.863,78.4,35.577Zm-.9,1.2c.117-.016.178.022.2.1-.107.494-.251.953-.8,1A3.374,3.374,0,0,1,77.5,36.781Zm-.4,3.01c.566,1.644.22,4.116.3,5.92C76.21,44.451,77.183,41.746,77.1,39.791Zm-.2-3.511c.42.186-.14.769-.3,1C76.3,36.945,76.635,36.387,76.9,36.279Zm.3-2.107a1.013,1.013,0,0,1-.4,1.3A1.5,1.5,0,0,1,77.2,34.172Zm-.7,4.615a.654.654,0,0,1,.1-.5C76.9,38.295,76.867,38.884,76.5,38.788Zm-.4-.7c-.237-.147-.113-.774.3-.6C76.453,37.839,76.043,37.73,76.1,38.085Zm-1.2-.9v-.2c.085.018.095-.039.1-.1h.2c-.018.085.039.095.1.1v.2c-.085-.018-.095.039-.1.1h-.2C75.012,37.2,74.955,37.188,74.893,37.182ZM76.6,48.72c.327.141.37.567.6.8-.545.366-1.236,1.2-.6,1.906.394-.33.023-.816.2-1.3.441-.094.575-.5,1.2-.4a17.585,17.585,0,0,1-1.1,3.913c-.4-.015.11-.635,0-1-.153-.516-.808-.53-1-1,.26-.641-.236-.946,0-1.706-.011-.256-.336-.2-.6-.2a1.892,1.892,0,0,0-.6-1.1c.012-.222.426-.043.6-.1a3.743,3.743,0,0,1,.2.7A1.451,1.451,0,0,0,76.6,48.72Zm-.4-2.007c.331.058.144.379.1.6C75.967,47.258,76.154,46.937,76.2,46.714Zm-1.3,3.411a2.267,2.267,0,0,0,.6.2c-.148.65.316.688.2,1.3-.239.163-.577.226-.8.4C74.717,51.589,75.2,50.743,74.893,50.125Zm1.4,2.308c.364.26.036,1.486-.7,1.3A2.382,2.382,0,0,0,76.3,52.432Zm-4.415-2.107c.16.074-.023.491.3.4-.165.37-.55.52-.5,1.1-.138.319-.1-.354-.1-.5-.136.031-.083.251-.1.4-.175,0-.309-.892-.8-.9a1.536,1.536,0,0,0,.7-.7c.74.645,1.095-1,1.5-1.605a6.131,6.131,0,0,0-1,1.5c-.124.011.311-1.07.3-1.605-.234.3-.252.819-.5,1.1-.124,1.217-.108-1.121-.1-1.605-.21.394-.061,1.675-.3,1.706,0-.473-.324-.613-.3-1.1-.228.4.158,1.044.2,1.5-.328-.541-.688-1.051-1-1.605a6.416,6.416,0,0,0,.6,1.4c.354.828-.149-.094-.6-.5-.286-.258-.62-.376-.8-.6.136.194,1.909,2.119,1.2,1.4a12.357,12.357,0,0,1-1.5-.7,9.4,9.4,0,0,0,1.806,1.2c-.161.161-1.429-.656-2.007-.5a5.26,5.26,0,0,0,1.5.5,6.688,6.688,0,0,1-1.906.2,5.89,5.89,0,0,1,.9-2.207,4.591,4.591,0,0,1,3.11-.7c-.1.486.29.232.5.2a.848.848,0,0,0,.7.6c.142.17-.162.579.4.5-.479.524-1.33.676-1.906,1.1.023-.031.9-.892,1.2-1.3A7.279,7.279,0,0,0,71.883,50.325Zm-1.3.9c-.461.308-.906.632-1.4.9.4.033,1.091-.513,1.605-.7-.135.081-.914,1.215-1.5,1.5-.149-.474-.166-.731-.5-.6a4.362,4.362,0,0,0-.3-1.3,10.227,10.227,0,0,1,2.308-.1c-.38.123-1.416.456-2.107.6A6.038,6.038,0,0,0,70.579,51.228ZM67.77,46.212c.291-.144.629-.241.7-.6-.632-1.709-.482-4.2-.8-6.22.386-.764,1.51-.19,1.605.5.316-.018.128-.54.5-.5.827.5.294,2.647.2,3.512-.509-.394-.1-1.705-.6-2.107-.366,1.242.24,3.052.6,4.214-.685.084-1.212.326-1.3,1,.513.112.4-.4.8-.4.151.518.6.737.6,1.4a.791.791,0,0,1-.8-.6c-.256.011-.2.336-.2.6-.55-.081-.6.335-1.1.3C68.189,46.793,67.945,46.584,67.77,46.212Zm-.2-.2c-.142.683.147.671,0,1.4-.362-.138-.025-.676-.6-.4C67.206,46.718,67.08,46.057,67.569,46.011Zm-1.2.8a.386.386,0,0,1,.6-.4A.708.708,0,0,1,66.365,46.814Zm.6-1.1c.427-.777.353-2.055.6-3.01a9.033,9.033,0,0,1,.3,2.709C67.635,45.561,67.22,45.89,66.967,45.71Zm.5-9.832a.569.569,0,0,1-.5.7A.569.569,0,0,1,67.469,35.878Zm-.6-.3a.653.653,0,0,1,.1-.5h.3C67.294,35.4,67.149,35.558,66.867,35.577Zm3.913-5.919c.795.245,1.067-.351,1.806-.7a2.265,2.265,0,0,0-.2,1.2c-.8.217-1.752-.319-2.308.2a1.208,1.208,0,0,1-.3-1.4C70.35,28.928,70.358,29.527,70.78,29.658Zm-.4-.8c.451-.276,1.306-.3,1.4.3C71.513,29.7,70.368,29.474,70.379,28.855Zm4.214,5.317a.542.542,0,0,1-.5-.6C74.509,33.513,74.824,33.89,74.592,34.172Zm.2,1c-.326-.075-.636-.166-.6-.6Q74.817,34.55,74.793,35.176Zm-.2,1.1c-.372-.063-.56-.31-.5-.8C74.45,35.532,74.807,35.966,74.592,36.279Zm-.5.4c.347-.079.424.112.6.2C74.65,37.222,73.96,37.106,74.091,36.681Zm.3,1.1c-.207.208-.509,0-.5-.3.085.018.095-.039.1-.1A.377.377,0,0,1,74.392,37.784Zm-1.4-2.609c.371.331.819.586.9,1.2C73.283,36.284,73.042,35.823,72.987,35.176Zm.8,2.007a1,1,0,0,1-.8-.9A1.2,1.2,0,0,1,73.79,37.182Zm-.9-2.91c.377-.077.863.519,1,1A1.305,1.305,0,0,1,72.887,34.273Zm.6,4.013a1.053,1.053,0,0,1-.6-1c-.192.114-.618.386-.6-.1C73.164,37.072,73.464,37.542,73.489,38.286ZM69.175,33.57c-.9-.182.157-1.548.7-1.2C69.75,32.875,69.157,32.918,69.175,33.57Zm1.706-1.1c.032.52-.682,1.109-1.2,1.4A1.122,1.122,0,0,1,70.88,32.467Zm-1.906,3.612c-.63-.144-.178-1.321.4-1.2C69.734,35.413,69.1,35.7,68.974,36.079Zm.6.2c.032.567-.318.752-.8.8C68.838,36.645,69.167,36.051,69.576,36.279Zm.1.9a1.676,1.676,0,0,1-.9.9A1.055,1.055,0,0,1,69.676,37.182Zm0,.7c.429.288-.192,1.013-.6,1.1C68.987,38.332,69.373,38.15,69.676,37.885Zm-.1-3.512c.6-.024.623-1.084,1.3-.7.018.754-.887.584-.9,1.3C69.646,34.971,69.594,34.69,69.576,34.373Zm1.4.3c.224.888,1.611,1.119,1.605,1.906a5.582,5.582,0,0,1-1.806-1.4c-.253.416-.434.9-.9,1.1C69.885,35.384,70.235,34.832,70.98,34.674Zm1.5,1.1c-.294-.608-1.153-.653-1.3-1.4a3.437,3.437,0,0,1,1,.3c.012-.647-.771-.5-1.1-.8-.073-.307.1-.366.1-.6.918-.048.919.82,1.5,1.1C72.051,34.856,72.929,35.342,72.485,35.778Zm-1.2.5c.356.146.8.2.8.7C71.661,36.9,71.205,36.857,71.281,36.279Zm0,.8a3,3,0,0,1-.9,1.1C70.169,37.676,70.73,37.156,71.281,37.082Zm-.6-.8c.5.275-.253.921-.7.9C69.978,36.648,70.442,36.577,70.68,36.279Zm.1,2.007c.5.265-.464.445-.3,1C69.565,39.18,70.457,38.382,70.78,38.286Zm-.3,2.007a2.515,2.515,0,0,1,1,.1,20.1,20.1,0,0,1,.6,6.822,2.215,2.215,0,0,1-1.4,0C69.9,45.2,70.654,42.832,70.479,40.292Zm1.4-1.3c-.57-.1-.593.76-1,.5a.479.479,0,0,1,.5-.5c-.058-.176.121-.589-.1-.6C71.6,38.075,72.028,38.5,71.883,38.988Zm-.4-1.706c.458-.071.784.347.5.7C71.585,37.982,71.572,37.594,71.482,37.283Zm1.1.9q.07.471-.4.4A.285.285,0,1,1,72.586,38.186Zm.1-4.515c-.294.24-1.144-.646-1.3-1.2A1.21,1.21,0,0,1,72.686,33.671Zm-1.2-2.508a.748.748,0,0,1,.8.3.674.674,0,0,1-.8.5A.783.783,0,0,1,71.482,31.163Zm1.706-.4c-.026.542-.138,1-.5,1.2A.684.684,0,0,1,73.188,30.761Zm-2.207,1.1c-.426.217-.958-.216-1-.7-.2.138-.054.615-.2.8-.585-.117-.727-.677-1-1.1A2.482,2.482,0,0,1,70.98,31.865Zm-1.706,2.007c-.076.359-.232.637-.6.7C68.551,34.037,68.872,33.566,69.275,33.871Zm-1.5-1.2c.084-.418.64-.785,1-.6C68.657,32.451,68.182,32.9,67.77,32.668Zm.2,4.816c.06-.571-.432-1.525.3-1.605C67.995,36.263,68.722,37.285,67.971,37.483Zm.4.5c-.119.149-.087.448-.4.4Q67.9,37.915,68.372,37.985Zm-.7-2.508c-.02-.555.109-.961.7-.9C68.231,34.968,68.1,35.374,67.67,35.477Zm0,2.308c.026.327-.119.483-.4.5C67.242,37.959,67.387,37.8,67.67,37.784Zm-.5-.7a.563.563,0,0,1,.4-.1C67.673,37.391,67.1,37.517,67.168,37.082Zm.6-2.91c-.463-.213.307-1.131.7-.8A1.921,1.921,0,0,1,67.77,34.172Zm-.5-2.207a.542.542,0,0,1,.6-.5C67.928,31.882,67.55,32.2,67.268,31.965Zm-.1,7.123c.45.183.325,1.257.2,1.706C66.956,40.572,67.263,39.629,67.168,39.089ZM73.087,43.2c-.527.92.552,1.815.2,3.211.212.333.291-.3.6-.2a2.169,2.169,0,0,1-.1.9,2.907,2.907,0,0,0-1.1-.1,3.756,3.756,0,0,0,.2-2.207c-.324-.09-.141.327-.3.4-.339-1.377.525-2.417.3-4.013a8.426,8.426,0,0,0-.4,1.2c-.708-.308-.57-2.026-.3-2.709.453.115.315.822.6,1.1-.068-1.033.125-2.063,1.3-2.107a3.15,3.15,0,0,1,.3,1.3c.248-.153-.021-.824.4-.8a9.418,9.418,0,0,1-.5,3.913c-.347-.524.035-1.671.1-2.408-1.023,1.355-.293,3.124-.2,4.916a12.95,12.95,0,0,1,.8,1.4C73.85,46.648,73.387,44.745,73.087,43.2Zm1.906,2.91c.359.042.483.32.5.7C75.18,46.728,75.079,46.427,74.994,46.112Zm0-.3c-.644-.236-.515-1.4-.4-2.107C75.244,43.838,75.163,45.185,74.994,45.811Zm.3-11.939c-.4.067-.4-.266-.4-.6C75.295,33.2,75.3,33.535,75.295,33.871Zm.2.7c-.206.208-.509,0-.5-.3C75.281,34.253,75.541,34.26,75.5,34.574Zm-.3,1.906c-.176-.024-.229-.173-.2-.4h.3C75.337,36.288,75.226,36.344,75.194,36.48Zm-.2-1.4c.085.018.095-.039.1-.1a.377.377,0,0,1,.4.4C75.289,35.584,74.986,35.376,74.994,35.075Zm.7,1.706c.4.2.027,1.27,0,1.706C75.013,38.081,75.562,37.426,75.7,36.781Zm.2-2.91c.369-.092.182.529.1.6C75.722,34.471,75.759,34,75.9,33.871ZM76,36.48a5.364,5.364,0,0,0,.2-1.4C76.741,35.206,76.56,36.534,76,36.48Zm.3-1.806a1.247,1.247,0,0,1,.2-.9C76.916,33.824,76.652,34.743,76.3,34.674Zm-.3-1.1a.542.542,0,0,1,.5-.6A.542.542,0,0,1,76,33.57Zm-1-.7a.542.542,0,0,1-.6-.5A.5.5,0,0,1,74.994,32.868Zm-.7-1.2c.159.008.383-.048.4.1C74.8,32.117,74.077,32.033,74.291,31.664Zm.1,1.605c-.346-.015-.6-.45-.4-.7C74.336,32.582,74.594,33.017,74.392,33.269Zm-.4,1.1a.888.888,0,0,1-.9-.9A1.055,1.055,0,0,1,73.99,34.373Zm-.3-1.906c-.314-.069-.131-.268-.1-.5.162-.028.173.095.3.1C73.963,32.339,73.691,32.267,73.689,32.467Zm.1.9c-.509-.227-1.157-.314-1.2-1C73.087,32.6,73.664,32.759,73.79,33.37ZM69.977,27.45c.351-.216.372.162.9,0C70.768,27.856,70.2,27.54,69.977,27.45Zm.8.6a1.532,1.532,0,0,1-1.1.5c-.236-.1-.238-.431-.4-.6C69.516,27.849,70.17,28.191,70.78,28.052ZM69.074,30.26a4.2,4.2,0,0,1-.8.9c-.369-.4-.644-.895-1-1.3.219-.1.669.256,1-.1C68.278,30.186,68.776,30.123,69.074,30.26Zm-1.2-.6c-.4-.1-.565-.438-.8-.7.024-.411.419-.451.8-.5.069.3.122.614.4.7C68.17,29.356,68.1,29.585,67.87,29.658Zm-.4,3.211c-.141.194-.055.614-.5.5Q66.933,32.834,67.469,32.868Zm-.3,1c.268.178,0,.662-.3.6C66.78,34.085,67.112,34.116,67.168,33.871Zm-.4,3.812c-.213-.081-.391-.413-.2-.6C66.9,37.178,67.054,37.466,66.767,37.684Zm-2.91,8.628c.431.021.119.789-.2.7C63.64,46.7,63.653,46.409,63.857,46.312Zm-.5.9c.313-.046.321.214.3.5C63.343,47.763,63.336,47.5,63.356,47.215Zm-1.2,2.308c.469.52.371,2.147.1,2.809C61.769,51.7,61.969,50.323,62.152,49.523Zm.3,3.712c-.511-.507.454-1.106.7-1.5C63.434,52.346,62.283,52.395,62.453,53.235Zm2.408,2.308a.214.214,0,1,1,0-.4Zm.5-.1c-.085-.018-.095.039-.1.1h-.2c.018-.085-.039-.095-.1-.1v-.2c.085.019.095-.039.1-.1h.2c-.019.085.039.095.1.1Zm.1.1v-.4A.214.214,0,1,1,65.462,55.543Zm.4,0v-.4h.3C66.193,55.4,66.128,55.573,65.864,55.543Zm.7,0c-.335.1-.329-.139-.3-.4h.3Zm.4,0h-.3c-.042-.21.069-.266.1-.4C67.068,55.04,66.944,55.365,66.967,55.543Zm.4,0c-.264.03-.329-.139-.3-.4h.3Zm.4,0a.214.214,0,1,1,0-.4ZM65.563,51.83c-.156.145-.2.4-.6.3-.418-.017-.386-.483-.7-.6-.295.709-1.188.819-1.1,1.906-.717-.367.006-1.134.4-1.3-.33-.937.46-1.995-.2-2.91-.183.237.138.672-.1,1-.659-.261-.224-1.665.2-1.806,1.323.015,1.033,1.643,1.806,2.207.758-.32,1.167.209,2.007.1.191-1.046.48-1.995,1.4-2.308.085.755-1.155,1.051-.9,2.308a3,3,0,0,0-.9.6c-.107,1.245,1.653,1.155,1.3,2.308C67.876,52.46,66.347,52.518,65.563,51.83Zm2.609.2a1.686,1.686,0,0,1-1-.5c.125-.376.611-.393.8-.7C68.171,51.1,68.022,51.712,68.171,52.031Zm-.2,3.511c.009-.274-.167-.2,0-.4A.214.214,0,1,1,67.971,55.543Zm.4,0v-.4h.3C68.7,55.4,68.636,55.573,68.372,55.543Zm.6,0c-.177-.024-.229-.173-.2-.4h.3C69.117,55.351,69.005,55.407,68.974,55.543Zm.5,0c-.264.03-.329-.139-.3-.4h.3Zm.5-.1c-.085-.018-.095.039-.1.1h-.2c.018-.085-.039-.095-.1-.1v-.2c.085.019.095-.039.1-.1h.2c-.018.085.039.095.1.1Zm.1.1v-.4h.3C70.407,55.4,70.342,55.573,70.078,55.543Zm.4,0v-.4h.3C70.808,55.4,70.743,55.573,70.479,55.543Zm.7,0c-.335.1-.329-.139-.3-.4h.3Zm-.5-1.706c-.108-.022-.179-.341-.3-.4-.142-.07-.41.048-.5,0-.158-.084-.1-.557-.5-.3.394-.609,1.071-.936,1.5-1.5a10.232,10.232,0,0,1-.7,1.5,6,6,0,0,0,.9-1.3c.135.031-.281,1.169-.3,1.706a5.257,5.257,0,0,0,.5-1.5,5.219,5.219,0,0,1,.2,1.906C71.217,53.526,71,53.9,70.68,53.837Zm.9,1.706c-.264.03-.329-.139-.3-.4h.3Zm.5-.1c-.085-.018-.095.039-.1.1h-.2c.018-.085-.039-.095-.1-.1v-.2c.085.019.095-.039.1-.1h.2c-.018.085.039.095.1.1Zm.4.1c-.335.1-.329-.139-.3-.4h.3Zm.4,0c-.264.03-.329-.139-.3-.4h.3Zm.4,0c-.264.03-.329-.139-.3-.4h.3Zm-.1-2.107c-.443.072-.668-.01-.9.4-.333-.106-.435-.3-.6.1a3.458,3.458,0,0,1,0-1.806,5.26,5.26,0,0,1,.5,1.5,7.543,7.543,0,0,0-.2-1.605c.008-.506.167.2.3.4.192.286.53.578.6.9a4.024,4.024,0,0,0-.7-1.5,3.17,3.17,0,0,1,1.4,1.3C73.4,52.938,73.106,53.077,73.188,53.436Zm.5,2.107a.214.214,0,1,1,0-.4Zm.4,0a.214.214,0,1,1,0-.4Zm.4,0a.214.214,0,1,1,0-.4Zm0-3.913a.472.472,0,0,0-.3-.1c.47.315-.307.289,0,.8-.292-.144-.113-.077-.1.2-.415-.026-.4.119-.3.4-.388-.044-2.076-2.2-1.4-1.4a12.36,12.36,0,0,1,1.5.7,4.954,4.954,0,0,0-1.605-1c.359-.089,1.117.286,1.706.3a4.671,4.671,0,0,0-1.5-.5c.02-.217,1.289-.046,1.806-.1a6.315,6.315,0,0,0-1.706-.2,4.936,4.936,0,0,1,1.2-.4c-.3-.261-.794.138-1.2.1a6.546,6.546,0,0,1,1.605-1c-.192.353.1.483.3.7-.244.431-.1.33.1.7-.079.1-.063.251-.3.4C74.293,51.428,74.565,51.356,74.492,51.63Zm.2,3.913v-.4A.214.214,0,1,1,74.693,55.543Zm.4,0v-.4h.3C75.423,55.4,75.358,55.573,75.094,55.543Zm.4,0v-.4h.3C75.825,55.4,75.76,55.573,75.5,55.543Zm.4,0v-.4h.3C76.226,55.4,76.161,55.573,75.9,55.543Zm.4,0v-.4h.3C76.627,55.4,76.562,55.573,76.3,55.543Zm.7,0c-.335.1-.329-.139-.3-.4H77Zm.4,0c-.335.1-.329-.139-.3-.4h.3Zm.4,0c-.335.1-.329-.139-.3-.4h.3Zm1.2-1.906c.163-.323.048-.544,0-.9C79.338,52.791,79.453,53.64,79.007,53.636Zm-.7,0c-.429-.482.673-1.117.6-1.906-.467.1-.45.687-1.2.5.267-.3.207-.93.4-1.3.433-.309.876.086,1.2.2C79.55,52.233,78.618,52.78,78.3,53.636Zm1.3-6.421c-.392-.009-.4-.405-.6-.6a.442.442,0,0,0-.2.4c-.424-.078-.535-.468-.6-.9C78.9,46.307,79.5,46.28,79.609,47.215Zm-1.3.2c-.513.078-.256-.614-.6-.7-.221.114-.007.662-.3.7-1.9-1.87-2.767-4.72-2.308-8.929,2.551.987,1.016,5.083,2.007,7.424C77.628,46.234,78.468,46.731,78.3,47.416Zm-1.2-8.127a.853.853,0,0,1,.1-.6c.21-.042.266.069.4.1Q77.637,39.324,77.1,39.289Zm.6-1a3.514,3.514,0,0,1,.4-1c.162-.028.173.095.3.1C78.221,37.734,78.164,38.212,77.7,38.286Zm1.5-2.207c-.034.5-.558.512-.4,1.2C78.142,37.105,78.775,36.109,79.207,36.079Zm-.9-3.211c.146.618-.686.667-.4,1.1.487.019.316-.621.8-.6C78.937,35.489,76.077,33.256,78.3,32.868Zm.1-1.605c.194.234-.035.9-.1,1.2C77.868,32.264,78.178,31.431,78.4,31.263Zm-.8.2c-.147-.668.551-1.308,1.1-1.605C78.6,30.656,78.034,30.993,77.6,31.464Zm3.211-.8c.138.317.022.335,0,.7-.517-.118-.786-.485-1.2-.7C79.923,30.354,80.385,30.749,80.813,30.661Zm-1.806-.8c.372.071.431-.171.8-.1.029.53-.473.531-.6.9.2.588,1.515.537,1.2,1.3-.823.02-.848-.757-1.5-.9A4.185,4.185,0,0,1,79.007,29.858Zm-.1,3.211c-.306-.008-.235-.656-.1-.8C79.112,32.274,79.041,32.922,78.907,33.069Zm-.4-5.317c.089.044.179.088.2.2-.12.482-.82.384-.7,1.1C77.068,28.752,78.133,27.968,78.505,27.751Zm-1.3,1.806c.253-.168.448-.394.8-.2.321-.114.258-.612.5-.8.2.1.217.385.2.7-.266.436-1.143.262-1,1.1C77.331,30.3,77.143,30.05,77.2,29.557Zm0,1.1c.164.666-.532.472-.6.9.075.226.563.039.8.1,0,.434-.473.4-.6.7.245.271.654-.143,1.1,0-.189.38-.656.481-.7,1-.746-.19-.474-1.4-1.1-1.706C76.294,31.158,76.555,30.718,77.2,30.661ZM77,28.955c-.126.61-.94.532-1.3.9A.891.891,0,0,1,77,28.955Zm-.2-1.906c-.177.659-.779.893-1.5,1C75.346,27.268,76.255,27.34,76.8,27.049Zm-.1.9c.207.54-1.115,1.238-1.5.6C75.763,28.42,76.05,28,76.7,27.952Zm-1.706,1c.264-.03.329.139.3.4C75.03,29.387,74.965,29.218,74.994,28.955Zm-2.709-5.719c.219.015.215.253.2.5.6-.007.741-.463,1.5-.3-.207.794.66,1.407.1,1.906a3.84,3.84,0,0,0-1.3-1c-.032-.4.464-.272.5-.6-.443.029-.805.548-1.3.2C71.882,23.5,72.191,23.478,72.285,23.237Zm-2.007.2c.256.011.2.336.2.6C70.116,24.134,70.339,23.644,70.278,23.437Zm-3.01,2.007c.222-.055.143.192.3.2.226-.042-.015-.55.3-.5-.575-.694-.014-.782-.4-1.605a1.815,1.815,0,0,1,1.806.5c.279.045-.079-.547.2-.5,1.093.771-1.027.631-1.4.9a1.113,1.113,0,0,0,1.906-.8c.162.064.059.856.7.6.306-.185-.116-.477,0-.8.379-.086.355.449.2.6.1.166.426.109.6.2.333-.181-.3-.752.3-.7.08.348-.149.386-.1.7a2.937,2.937,0,0,1,2.107,1.4c1.513-.176.887,1.789,1.1,2.91-.191.043-.182.287-.5.2.084,1.181.041,1.894-.9,2.408a3.82,3.82,0,0,1-.1-1.1c.9-.031.466-.9.5-1.5.051-.862.748-1.991.1-2.709-.022.487.014,1.345-.8,1.3.073-.274-.2-.2-.2-.4-.053-.487.427-.443.4-.9-.044-1.014-1.753-1.016-1.906-.1-.087.488.287.515.2,1a1.02,1.02,0,0,1-1.2,0c.825-1.672-1.7-2-2.107-.7.2.272.725.211.9.5.21.362-.492.541-.6.9a1.815,1.815,0,0,1-.8-1.1c-.256.011-.2.336-.2.6C66.9,26.979,66.8,25.806,67.268,25.444Zm-.3,1.5c.285.15.317.553.9.4.07.633-.486,1.081-.8,1C67.166,27.783,66.682,27.386,66.967,26.949Zm-1.5-.5c-.374.04-.589-.08-.6-.4C65.222,26.019,65.554,26.021,65.462,26.447Zm1.2.8c-.124.414-.292-.038-.5-.1.116.654.518,1.021.6,1.706-.485.05-.51-.359-.5-.8-.25-.242-1.18-.518-1.4-1.1C65.375,26.4,66.326,26.779,66.666,27.25Zm.1,2.609c-.378-.023-.541-.261-.5-.7C66.695,29.128,66.709,29.515,66.767,29.858Zm-.7-.8c-.4-.433-1.132-.541-1.2-1.3A1.1,1.1,0,0,1,66.064,29.056Zm-1.1-.3c.452.237,1.22.625,1,1.2-.429-.173-.69-.513-1.1-.7A.653.653,0,0,1,64.961,28.755Zm1.5,1.4c.578.376.686,1.737-.1,2.007-.084-.217-.26-.342-.2-.7a.653.653,0,0,1,.5-.1,1.084,1.084,0,0,0-.5-.6c-.393.075-.21.726-.4,1-.587-.443-1.6-.9-1.2-2.007C65.428,29.675,65.6,30.537,66.466,30.159Zm-2.107-4.414a1.727,1.727,0,0,1,.1,1.806c-.109.557.37,1.15-.3,1.2.1.257.362.692.1,1a8.631,8.631,0,0,0-1-.7.491.491,0,0,1,.5-.2c0-.33-.429-.24-.4-.6a2.057,2.057,0,0,0,.6-.3c.032-.4.006-.741-.2-.9-.237.3.089,1.16-.6,1,.244-1.047-.714-.891-1.1-1.3C62.335,25.947,63.5,25.655,64.359,25.745Zm-1.4,1.906c-.142.293-.551.318-.8.5.165.169.544.124.7.3.312,1.615.166,3.553-1.3,3.712-.4-.778.775-.642.9-1.2a.8.8,0,0,0-.4-.9c-.267.3.373.295.2.8a1.143,1.143,0,0,1-.6-1.1c.211-.224.736-.133.9-.4a3.131,3.131,0,0,0-1.5-.2c.514.5-.24,1.288-.8,1,.473-.564.549-1.524,1.2-1.906.042-.343-.3-.3-.4-.5-.321.046-.354.382-.7.4A1.657,1.657,0,0,1,62.954,27.651Zm-2.207.9a1.824,1.824,0,0,1-1.1,1.4C59.4,29.284,60.147,28.377,60.747,28.554Z" transform="translate(-58.435 -22.434)"/>
      <path id="Path_8939" data-name="Path 8939" d="M231.8,63.768c-.259.18-.633.767-.5,1A5.153,5.153,0,0,0,231.8,63.768Z" transform="translate(-221.865 -61.059)"/>
      <path id="Path_8940" data-name="Path 8940" d="M270.142,96.458c.109.148.487.641.2.2a2.476,2.476,0,0,1,.9.4c-.468.051-.2.19,0,.3-.506.1-.992-.34-1.3-.1,1.289-.005,2.336,1.337,3.512.5.1.633-.512.558-.5,1.1,1.027.211.553-1.292.9-1.706-.623.344-1.308,1.047-2.107.4a1.2,1.2,0,0,0,1.3-.3c-.288-.014-.782.279-1,0,.491.053,1.213-.187.9-.6-.208.329-.875.727-1.3.5.409-.062,1.219-.249,1-.6-.073.255-.661.625-.8.2.127-.083.572-.351.3-.5C271.842,97.094,270.518,96.542,270.142,96.458Z" transform="translate(-258.599 -91.943)" fill="#fff"/>
      <path id="Path_8941" data-name="Path 8941" d="M274.858,109c-.531.162-.552-.216-.9,0C274.175,109.089,274.745,109.4,274.858,109Z" transform="translate(-262.413 -103.983)" fill="#fff"/>
      <path id="Path_8942" data-name="Path 8942" d="M249.473,520.371c-.564.078-.259-.332-.4-.5a.848.848,0,0,1-.7-.6c-.211.031-.6.285-.5-.2a4.59,4.59,0,0,0-3.11.7,5.89,5.89,0,0,0-.9,2.207,6.689,6.689,0,0,0,1.906-.2,5.258,5.258,0,0,1-1.5-.5c.578-.154,1.846.662,2.007.5a9.4,9.4,0,0,1-1.806-1.2,12.364,12.364,0,0,0,1.5.7c.705.714-1.068-1.21-1.2-1.4.183.226.517.344.8.6.453.408.956,1.33.6.5a6.419,6.419,0,0,1-.6-1.4c.315.554.675,1.064,1,1.605-.043-.461-.429-1.106-.2-1.505-.023.491.306.631.3,1.1.24-.031.091-1.311.3-1.706-.008.484-.023,2.822.1,1.605.25-.285.267-.8.5-1.1.01.535-.425,1.617-.3,1.605a6.132,6.132,0,0,1,1-1.505c-.41.606-.764,2.25-1.5,1.605a1.536,1.536,0,0,1-.7.7c.493.011.628.907.8.9.017-.15-.036-.37.1-.4,0,.147-.038.821.1.5-.049-.584.337-.734.5-1.1-.324.09-.141-.327-.3-.4a7.279,7.279,0,0,1,1.5-1.3c-.3.413-1.181,1.274-1.2,1.3C248.143,521.048,248.995,520.9,249.473,520.371Zm-2.709,1.906a.307.307,0,1,1,.4-.4A.377.377,0,0,1,246.765,522.278Z" transform="translate(-233.818 -493.584)" fill="#fff"/>
      <path id="Path_8943" data-name="Path 8943" d="M321.353,551.171c-.2-.372-.345-.272-.1-.7-.2-.219-.493-.349-.3-.7a6.546,6.546,0,0,0-1.605,1c.41.038.9-.361,1.2-.1a4.934,4.934,0,0,0-1.2.4,6.316,6.316,0,0,1,1.706.2c-.517.054-1.786-.116-1.806.1a4.672,4.672,0,0,1,1.505.5c-.589-.015-1.347-.39-1.706-.3a4.954,4.954,0,0,1,1.605,1,12.374,12.374,0,0,0-1.5-.7c-.672-.795,1.016,1.361,1.4,1.4-.1-.282-.114-.428.3-.4-.012-.278-.191-.345.1-.2-.307-.514.47-.487,0-.8a.473.473,0,0,1,.3.1c.073-.274-.2-.2-.2-.4C321.291,551.421,321.275,551.272,321.353,551.171Z" transform="translate(-305.196 -522.777)" fill="#fff"/>
      <path id="Path_8944" data-name="Path 8944" d="M306.256,597.925a4.023,4.023,0,0,1,.7,1.5c-.072-.325-.41-.617-.6-.9-.134-.2-.293-.907-.3-.4a7.543,7.543,0,0,1,.2,1.605,5.26,5.26,0,0,0-.5-1.5,3.457,3.457,0,0,0,0,1.806c.167-.4.269-.206.6-.1.235-.411.46-.329.9-.4-.082-.359.214-.5.4-.3A3.17,3.17,0,0,0,306.256,597.925Z" transform="translate(-292.507 -568.529)" fill="#fff"/>
      <path id="Path_8945" data-name="Path 8945" d="M135.433,532.607a3,3,0,0,1,.9-.6c-.252-1.256.988-1.553.9-2.308-.924.313-1.213,1.262-1.4,2.308-.84.109-1.248-.42-2.007-.1-.773-.565-.483-2.193-1.806-2.207-.425.141-.86,1.545-.2,1.806.238-.332-.083-.767.1-1,.661.915-.13,1.972.2,2.91-.395.17-1.118.937-.4,1.3-.084-1.087.809-1.2,1.1-1.906.316.119.284.585.7.6.4.1.446-.156.6-.3.784.687,2.314.629,2.609,1.806C137.086,533.763,135.326,533.852,135.433,532.607Zm-3.612-2.508c1.09-.244,1.128,1.406,1.706,2.007C132.231,532.555,132.582,530.517,131.821,530.1Z" transform="translate(-127.001 -503.713)" fill="#fff"/>
      <path id="Path_8946" data-name="Path 8946" d="M264.022,596.219a5.219,5.219,0,0,0-.2-1.906,5.256,5.256,0,0,1-.5,1.5c.02-.536.436-1.675.3-1.706a6,6,0,0,1-.9,1.3,10.24,10.24,0,0,0,.7-1.5c-.434.569-1.111.9-1.505,1.5.4-.256.344.217.5.3.091.048.36-.07.5,0,.122.06.193.379.3.4C263.537,596.185,263.757,595.808,264.022,596.219Z" transform="translate(-250.975 -564.716)" fill="#fff"/>
      <path id="Path_8947" data-name="Path 8947" d="M243.855,579.649a4.36,4.36,0,0,1,.3,1.3c.335-.129.353.128.5.6.591-.29,1.37-1.424,1.5-1.5-.514.189-1.2.736-1.605.7.5-.271.943-.6,1.4-.9a6.037,6.037,0,0,1-1.906.3c.691-.146,1.727-.479,2.107-.6A10.221,10.221,0,0,0,243.855,579.649Z" transform="translate(-233.818 -551.055)" fill="#fff"/>
      <path id="Path_8948" data-name="Path 8948" d="M229.208,349.824c0-.266-.056-.591.2-.6a.791.791,0,0,0,.8.6c0-.667-.451-.887-.6-1.4-.4,0-.289.513-.8.4.092-.677.619-.919,1.3-1-.362-1.162-.968-2.972-.6-4.214.5.4.093,1.713.6,2.107.094-.864.626-3.015-.2-3.511-.373-.039-.186.483-.5.5-.1-.691-1.219-1.265-1.605-.5.321,2.02.171,4.511.8,6.22-.074.361-.411.458-.7.6.175.372.419.582.2,1.1C228.606,350.159,228.658,349.742,229.208,349.824Z" transform="translate(-218.568 -325.243)" fill="#fff"/>
    </g>
    <g id="Group_7800" data-name="Group 7800" transform="translate(295.424 202.828)">
      <rect id="Rectangle_1043" data-name="Rectangle 1043" width="168" height="13" transform="translate(-0.423 0.172)" fill="#de8220"/>
      <rect id="Rectangle_1044" data-name="Rectangle 1044" width="226" height="12" transform="translate(-0.423 17.172)" fill="#479117"/>
    </g>
    <line id="Line_3" data-name="Line 3" x2="403.471" transform="translate(216.529 376.5)" fill="none" stroke="#a9363a" stroke-width="3"/>
    <g id="qr-code" transform="translate(547.46 300.139)">
      <g id="Group_4124" data-name="Group 4124">
        <g id="Group_4123" data-name="Group 4123">
          <path id="Path_8949" data-name="Path 8949" d="M16.913,0H0V16.913H16.913ZM13.531,13.531H3.383V3.383H13.531Z" fill="#dedede"/>
          <rect id="Rectangle_1045" data-name="Rectangle 1045" width="3.584" height="3.584" transform="translate(6.452 6.81)" fill="#dedede"/>
          <path id="Path_8950" data-name="Path 8950" d="M352,0V16.913h16.913V0Zm13.531,13.531H355.383V3.383h10.148Z" transform="translate(-314.791)" fill="#dedede"/>
          <rect id="Rectangle_1046" data-name="Rectangle 1046" width="3.584" height="3.584" transform="translate(43.728 6.81)" fill="#dedede"/>
          <path id="Path_8951" data-name="Path 8951" d="M0,368.913H16.913V352H0Zm3.383-13.531H13.531v10.148H3.383Z" transform="translate(0 -314.791)" fill="#dedede"/>
          <rect id="Rectangle_1047" data-name="Rectangle 1047" width="3.584" height="3.584" transform="translate(6.452 44.087)" fill="#dedede"/>
          <rect id="Rectangle_1048" data-name="Rectangle 1048" width="6.452" height="2.867" transform="translate(27.241 0.358)" fill="#dedede"/>
          <path id="Path_8952" data-name="Path 8952" d="M198.765,42.148h3.383V38.765h3.383V35.383H195.383V32H192v6.765h6.765Z" transform="translate(-171.704 -28.617)" fill="#dedede"/>
          <rect id="Rectangle_1049" data-name="Rectangle 1049" width="3.584" height="3.584" transform="translate(20.072 13.262)" fill="#dedede"/>
          <path id="Path_8953" data-name="Path 8953" d="M205.531,160h-3.383v3.383H192v3.383h13.531Z" transform="translate(-171.704 -143.087)" fill="#dedede"/>
          <path id="Path_8954" data-name="Path 8954" d="M3.383,202.148H6.765v-3.383H3.383V192H0v13.531H3.383Z" transform="translate(0 -171.704)" fill="#dedede"/>
          <rect id="Rectangle_1050" data-name="Rectangle 1050" width="3.584" height="3.584" transform="translate(6.452 20.43)" fill="#dedede"/>
          <path id="Path_8955" data-name="Path 8955" d="M106.148,205.531h6.765v-3.383h-3.383v-3.383h-6.765V192H99.383v6.765H96v6.765h3.383v-3.383h6.765Z" transform="translate(-85.852 -171.704)" fill="#dedede"/>
          <rect id="Rectangle_1051" data-name="Rectangle 1051" width="3.584" height="7.169" transform="translate(30.108 26.882)" fill="#dedede"/>
          <path id="Path_8956" data-name="Path 8956" d="M202.148,352H192v3.383h6.765v10.148H192v3.383h10.148v-3.383h6.765v-3.383h-6.765Z" transform="translate(-171.704 -314.791)" fill="#dedede"/>
          <rect id="Rectangle_1052" data-name="Rectangle 1052" width="3.584" height="3.584" transform="translate(20.072 44.087)" fill="#dedede"/>
          <rect id="Rectangle_1053" data-name="Rectangle 1053" width="3.584" height="7.169" transform="translate(33.692 36.918)" fill="#dedede"/>
          <path id="Path_8957" data-name="Path 8957" d="M394.148,416H384v10.148h3.383v-6.765h6.765Z" transform="translate(-343.408 -372.025)" fill="#dedede"/>
          <rect id="Rectangle_1054" data-name="Rectangle 1054" width="7.169" height="3.584" transform="translate(47.313 50.539)" fill="#dedede"/>
          <rect id="Rectangle_1055" data-name="Rectangle 1055" width="3.584" height="3.584" transform="translate(50.897 36.918)" fill="#dedede"/>
          <path id="Path_8958" data-name="Path 8958" d="M355.383,298.148h3.383V288H352v3.383h3.383Z" transform="translate(-314.791 -257.556)" fill="#dedede"/>
          <path id="Path_8959" data-name="Path 8959" d="M362.148,195.383h-3.383V192h-3.383v3.383H352v3.383h13.531v-3.383h3.383V192h-6.765Z" transform="translate(-314.791 -171.704)" fill="#dedede"/>
          <rect id="Rectangle_1056" data-name="Rectangle 1056" width="7.169" height="3.584" transform="translate(47.313 30.466)" fill="#dedede"/>
        </g>
      </g>
    </g>
  </g>
</svg>
