<svg id="Group_7863" data-name="Group 7863" xmlns="http://www.w3.org/2000/svg" width="318.256" height="270" viewBox="0 0 318.256 270">
  <path id="Path_13193" data-name="Path 13193" d="M656.764,246.065h-9.435a1.817,1.817,0,0,1-1.815-1.815v-9.435A1.817,1.817,0,0,1,647.328,233h9.435a1.817,1.817,0,0,1,1.815,1.815v9.435A1.817,1.817,0,0,1,656.764,246.065Zm-9.435-12.339a1.09,1.09,0,0,0-1.089,1.089v9.435a1.09,1.09,0,0,0,1.089,1.089h9.435a1.09,1.09,0,0,0,1.089-1.089v-9.435a1.09,1.09,0,0,0-1.089-1.089Z" transform="translate(-469.869 -176.75)" fill="#e6e6e6"/>
  <path id="Path_13194" data-name="Path 13194" d="M353.764,91.065h-9.436a1.817,1.817,0,0,1-1.815-1.815V79.815A1.817,1.817,0,0,1,344.328,78h9.436a1.817,1.817,0,0,1,1.814,1.815V89.25A1.817,1.817,0,0,1,353.764,91.065Zm-9.436-12.339a1.09,1.09,0,0,0-1.089,1.089V89.25a1.09,1.09,0,0,0,1.089,1.089h9.436a1.09,1.09,0,0,0,1.089-1.089V79.815a1.09,1.09,0,0,0-1.089-1.089Z" transform="translate(-276.828 -78)" fill="#e6e6e6"/>
  <path id="Path_13195" data-name="Path 13195" d="M640.764,233.065h-9.435a1.817,1.817,0,0,1-1.815-1.815v-9.435A1.817,1.817,0,0,1,631.328,220h9.435a1.817,1.817,0,0,1,1.815,1.815v9.435A1.817,1.817,0,0,1,640.764,233.065Zm-9.435-12.339a1.09,1.09,0,0,0-1.089,1.089v9.435a1.09,1.09,0,0,0,1.089,1.089h9.435a1.09,1.09,0,0,0,1.089-1.089v-9.435a1.09,1.09,0,0,0-1.089-1.089Z" transform="translate(-459.675 -168.468)" fill="#e6e6e6"/>
  <path id="Path_13196" data-name="Path 13196" d="M188.764,450.065h-9.436a1.817,1.817,0,0,1-1.814-1.814v-9.436A1.817,1.817,0,0,1,179.328,437h9.436a1.817,1.817,0,0,1,1.815,1.814v9.436A1.817,1.817,0,0,1,188.764,450.065Zm-9.436-12.339a1.09,1.09,0,0,0-1.089,1.089v9.436a1.09,1.09,0,0,0,1.089,1.089h9.436a1.09,1.09,0,0,0,1.089-1.089v-9.436a1.09,1.09,0,0,0-1.089-1.089Z" transform="translate(-171.707 -306.718)" fill="#e6e6e6"/>
  <path id="Path_13197" data-name="Path 13197" d="M172.764,437.065h-9.435a1.817,1.817,0,0,1-1.815-1.815v-9.436A1.817,1.817,0,0,1,163.328,424h9.435a1.817,1.817,0,0,1,1.815,1.814v9.436A1.817,1.817,0,0,1,172.764,437.065Zm-9.435-12.339a1.09,1.09,0,0,0-1.089,1.089v9.436a1.09,1.09,0,0,0,1.089,1.089h9.435a1.09,1.09,0,0,0,1.089-1.089v-9.436a1.09,1.09,0,0,0-1.089-1.089Z" transform="translate(-161.514 -298.435)" fill="#e6e6e6"/>
  <path id="Path_13198" data-name="Path 13198" d="M233.713,164.038h87.32a18.563,18.563,0,0,1,18.108,14.48l44.121,195.7a15,15,0,0,1-13.9,18.284L279.6,396.927a19.82,19.82,0,0,1-20.479-16.268L234.093,242.3l-1.862.532L227.442,216.6l1.917-.479L222.372,177.5a11.429,11.429,0,0,1,11.341-13.463Z" transform="translate(-200.17 -132.814)" fill="#3f3d56"/>
  <path id="Path_13199" data-name="Path 13199" d="M324.666,175.664h10.193a12.828,12.828,0,0,1,12.533,10.094l42.35,194.105a7.949,7.949,0,0,1-7.246,9.626l-89.475,5.864a10.294,10.294,0,0,1-10.8-8.447L246.079,186.279a9.017,9.017,0,0,1,8.874-10.615h9.67a4.255,4.255,0,0,1,4.109,3.149h0a3.757,3.757,0,0,0,3.628,2.78h45.9A6.422,6.422,0,0,0,324.666,175.664Z" transform="translate(-215.299 -140.221)" fill="#fff"/>
  <path id="Path_13200" data-name="Path 13200" d="M104,188.606h97.068L211.409,235.2l-98.336,1.815Z" transform="translate(-66.258 -120.16)" fill="#153d8a"/>
  <path id="Path_13201" data-name="Path 13201" d="M358,431.754h22.852l.726,4.375H358.726Z" transform="translate(-228.081 -275.069)" fill="#153d8a"/>
  <rect id="Rectangle_5" data-name="Rectangle 5" width="96.94" height="0.456" transform="translate(51.594 136.42) rotate(-1.213)" fill="#2f2e41" opacity="0.151"/>
  <rect id="Rectangle_6" data-name="Rectangle 6" width="98.769" height="0.456" transform="matrix(1, -0.023, 0.023, 1, 52.734, 150.101)" fill="#2f2e41" opacity="0.151"/>
  <path id="Path_13202" data-name="Path 13202" d="M384,560.754h22.852l.726,4.375H384.726Z" transform="translate(-244.645 -357.255)" fill="#153d8a"/>
  <rect id="Rectangle_7" data-name="Rectangle 7" width="96.94" height="0.456" transform="translate(61.03 183.235) rotate(-1.213)" fill="#2f2e41" opacity="0.151"/>
  <rect id="Rectangle_8" data-name="Rectangle 8" width="98.769" height="0.456" transform="matrix(1, -0.023, 0.023, 1, 62.169, 196.916)" fill="#2f2e41" opacity="0.151"/>
  <path id="Path_13203" data-name="Path 13203" d="M604.358,701.927h-4.324l-2.057-16.678h6.382Z" transform="translate(-380.969 -436.57)" fill="#a0616a"/>
  <path id="Path_13204" data-name="Path 13204" d="M755.636,810.919H741.693v-.176a5.427,5.427,0,0,1,5.426-5.427h8.516Z" transform="translate(-531.144 -541.37)" fill="#2f2e41"/>
  <path id="Path_13205" data-name="Path 13205" d="M745.96,694.905l-4.209.991-5.826-15.762,6.212-1.463Z" transform="translate(-468.856 -432.379)" fill="#a0616a"/>
  <path id="Path_13206" data-name="Path 13206" d="M906.544,802.376l-13.571,3.2-.041-.172a5.427,5.427,0,0,1,4.038-6.526h0l8.289-1.952Z" transform="translate(-627.405 -536.023)" fill="#2f2e41"/>
  <path id="Path_13207" data-name="Path 13207" d="M761.478,564.015c.008-.869.266-21.381,5.888-29.136l.083-.114,19.594,2.7-.438,4.3c.862.839,7.641,7.922,9.6,24.7L817,622.326l-9.668.879-28.62-60.974L763.565,628.51h-9.585Z" transform="translate(-538.973 -369.003)" fill="#2f2e41"/>
  <path id="Path_13208" data-name="Path 13208" d="M784.539,477.269l1.915-10.055a7.925,7.925,0,0,1-1.666-5.517,6.8,6.8,0,0,1,3.146-4.621l4.964-11.584.067-.039c.334-.2,8.239-4.768,12.548-.455.108.084,10.718,8.506,6.457,19.867l-5.26,15.781Z" transform="translate(-558.441 -310.636)" fill="#ccc"/>
  <path id="Path_13209" data-name="Path 13209" d="M759.146,549.6a3.556,3.556,0,0,0,3-4.551L772.4,537.66l-6.137-2.334-8.8,7.372a3.575,3.575,0,0,0,1.677,6.9Z" transform="translate(-539.712 -369.36)" fill="#a0616a"/>
  <path id="Path_13210" data-name="Path 13210" d="M771.369,479.634,787.021,467.3l-4.653-15.9a5.711,5.711,0,0,1,.577-4.521,5.283,5.283,0,0,1,3.464-2.5c2.679-.567,5.112.933,7.228,4.46l.016.032c.35.856,8.5,21.012,2.278,25.323-6.091,4.216-20.214,10.354-20.356,10.416l-.166.072Z" transform="translate(-550.05 -311.347)" fill="#ccc"/>
  <circle id="Ellipse_1" data-name="Ellipse 1" cx="9.482" cy="9.482" r="9.482" transform="translate(232.639 111.204)" fill="#a0616a"/>
  <circle id="Ellipse_2" data-name="Ellipse 2" cx="8.388" cy="8.388" r="8.388" transform="translate(248.598 100.524)" fill="#2f2e41"/>
  <path id="Path_13211" data-name="Path 13211" d="M866.849,383.483a8.389,8.389,0,0,1-12.954-4.4,8.389,8.389,0,1,0,16.363-3.44A8.385,8.385,0,0,1,866.849,383.483Z" transform="translate(-602.627 -267.625)" fill="#2f2e41"/>
  <path id="Path_13212" data-name="Path 13212" d="M798.37,385.67c1.464-2.622,2.025-3.717,3.913-5.311,1.67-1.41,3.723-1.824,5.38-.488a9.978,9.978,0,1,1-5.918,7.984C800.305,387.653,799.81,385.872,798.37,385.67Z" transform="translate(-567.253 -269.802)" fill="#2f2e41"/>
  <path id="Path_13213" data-name="Path 13213" d="M794.115,820.726H655.849a.363.363,0,1,1,0-.726H794.115a.363.363,0,1,1,0,.726Z" transform="translate(-476.222 -550.726)" fill="#3f3d56"/>
</svg>
