<svg width="20" height="20" viewBox="0 0 20 20" fill="none" xmlns="http://www.w3.org/2000/svg">
<path d="M0 10C0 6.26154 0 4.3923 0.803847 3C1.33046 2.08788 2.08788 1.33046 3 0.803847C4.3923 0 6.26154 0 10 0C13.7385 0 15.6077 0 17 0.803847C17.9121 1.33046 18.6695 2.08788 19.1962 3C20 4.3923 20 6.26154 20 10C20 13.7385 20 15.6077 19.1962 17C18.6695 17.9121 17.9121 18.6695 17 19.1962C15.6077 20 13.7385 20 10 20C6.26154 20 4.3923 20 3 19.1962C2.08788 18.6695 1.33046 17.9121 0.803847 17C0 15.6077 0 13.7385 0 10Z" fill="#004886"/>
<path d="M5.95312 10L8.64836 12.6952L14.0484 7.30476" stroke="white" stroke-width="1.42857" stroke-linecap="round" stroke-linejoin="round"/>
</svg>
