<svg id="Component_95_4" data-name="Component 95 – 4" xmlns="http://www.w3.org/2000/svg" width="52" height="52" viewBox="0 0 52 52">
  <path id="Path_19339" data-name="Path 19339" d="M26,0A26,26,0,1,1,0,26,26,26,0,0,1,26,0Z" fill="#ffa000"/>
  <g id="Group_12029" data-name="Group 12029" transform="translate(15.763 15.116)">
    <path id="Path_19341" data-name="Path 19341" d="M11.918,13.295a.634.634,0,0,1-.668-.582V8.832a.674.674,0,0,1,1.335,0v3.881A.634.634,0,0,1,11.918,13.295Z" transform="translate(-1.099 -0.704)" fill="#fff" stroke="#fff" stroke-width="1"/>
    <path id="Path_19342" data-name="Path 19342" d="M11.89,17.78a1.338,1.338,0,0,1-.178-.018.566.566,0,0,1-.16-.053.674.674,0,0,1-.16-.08l-.134-.107a.9.9,0,0,1,0-1.264l.134-.107a.674.674,0,0,1,.16-.08.566.566,0,0,1,.16-.053.762.762,0,0,1,.347,0,.537.537,0,0,1,.169.053.674.674,0,0,1,.16.08l.134.107a.9.9,0,0,1,0,1.264l-.134.107a.674.674,0,0,1-.16.08.537.537,0,0,1-.169.053A1.091,1.091,0,0,1,11.89,17.78Z" transform="translate(-1.071 -1.554)" fill="#fff" stroke="#fff" stroke-width="1"/>
    <path id="Path_19343" data-name="Path 19343" d="M16.214,19.929H5.424a4.1,4.1,0,0,1-3.739-1.772,4.1,4.1,0,0,1,.267-4.131l5.395-9.7A4.126,4.126,0,0,1,10.819,1.84a4.126,4.126,0,0,1,3.472,2.484l5.395,9.712a4.076,4.076,0,0,1,.267,4.131A4.114,4.114,0,0,1,16.214,19.929ZM10.819,3.175c-.837,0-1.656.641-2.306,1.8L3.128,14.686a2.846,2.846,0,0,0-.285,2.8A2.827,2.827,0,0,0,5.433,18.6H16.223a2.837,2.837,0,0,0,2.59-1.113,2.824,2.824,0,0,0-.285-2.8l-5.4-9.712C12.475,3.816,11.656,3.175,10.819,3.175Z" transform="translate(0)" fill="#fff" stroke="#fff" stroke-width="1"/>
  </g>
</svg>
