<svg xmlns="http://www.w3.org/2000/svg" width="10.137" height="12" viewBox="0 0 10.137 12">
  <path id="Hourglass" d="M15.481,14.7h-.149c-.189,0-.35-.026-.37-.216v0c-.425-3.958-2.918-4.034-2.918-4.966s2.5-1.008,2.918-4.966v0c.02-.189.181-.216.37-.216h.149a.418.418,0,0,0,.419-.387.408.408,0,0,0-.408-.428H6.184a.418.418,0,0,0-.419.387.408.408,0,0,0,.408.428h.16c.189,0,.35.026.37.216v0c.425,3.958,2.918,4.034,2.918,4.966s-2.5,1.008-2.918,4.966v0c-.02.189-.181.216-.37.216H6.184a.418.418,0,0,0-.419.387.408.408,0,0,0,.408.428h9.32a.407.407,0,0,0,.408-.428A.418.418,0,0,0,15.481,14.7Zm-7.349-1c.836-2.324,2.318-2.042,2.318-2.959V9.125c0-.565-1.072-.958-1.742-1.876A.228.228,0,0,1,8.9,6.888H12.77a.227.227,0,0,1,.2.355c-.658.92-1.75,1.317-1.75,1.882v1.619c0,.909,1.424.661,2.324,2.959.082.207.02.466-.2.466h-5C8.11,14.17,8.057,13.914,8.133,13.7Z" transform="translate(-5.764 -3.516)" fill="#ff7f00"/>
</svg>
